M48
; DRILL file KiCad 10.0.5 date 2026-10-08T08:40:17
; FORMAT={-:-/ absolute / metric / decimal}
; #@! TF.CreationDate,2026-10-08T08:40:17+09:00
; #@! TF.GenerationSoftware,Kicad,Pcbnew,10.0.5
; #@! TF.FileFunction,MixedPlating,1,2
FMAT,2
METRIC
; #@! TA.AperFunction,Plated,PTH,ViaDrill
T1C0.400
; #@! TA.AperFunction,Plated,PTH,ComponentDrill
T2C0.800
; #@! TA.AperFunction,Plated,PTH,ComponentDrill
T3C0.889
; #@! TA.AperFunction,Plated,PTH,ComponentDrill
T4C1.000
; #@! TA.AperFunction,Plated,PTH,ComponentDrill
T5C1.100
; #@! TA.AperFunction,Plated,PTH,ComponentDrill
T6C1.200
; #@! TA.AperFunction,Plated,PTH,ComponentDrill
T7C1.300
; #@! TA.AperFunction,Plated,PTH,ComponentDrill
T8C1.500
; #@! TA.AperFunction,Plated,PTH,ComponentDrill
T9C1.600
; #@! TA.AperFunction,Plated,PTH,ComponentDrill
T10C1.800
; #@! TA.AperFunction,NonPlated,NPTH,ComponentDrill
T11C3.200
%
G90
G05
T1
X31.4Y-24.0
X44.0Y-21.2
X44.0Y-24.8
X46.5Y-16.0
T2
X3.0Y-66.0
X4.0Y-36.0
X9.0Y-36.0
X10.62Y-66.0
X13.0Y-48.0
X14.0Y-27.0
X14.0Y-31.0
X20.62Y-48.0
X21.62Y-27.0
X21.62Y-31.0
X32.0Y-62.0
X32.0Y-66.0
X32.0Y-74.0
X32.0Y-78.0
X33.0Y-12.5
X33.0Y-37.38
X33.0Y-45.0
X36.0Y-38.0
X36.0Y-42.0
X36.0Y-47.5
X36.0Y-51.0
X38.0Y-12.5
X39.62Y-62.0
X39.62Y-66.0
X39.62Y-74.0
X39.62Y-78.0
X42.0Y-62.0
X43.62Y-38.0
X43.62Y-42.0
X43.62Y-47.5
X43.62Y-51.0
X45.5Y-69.5
X46.0Y-20.0
X49.62Y-62.0
X51.0Y-20.0
X52.0Y-24.0
X52.0Y-74.0
X52.0Y-78.0
X53.12Y-69.5
X54.0Y-7.0
X54.0Y-11.0
X54.0Y-18.0
X57.0Y-78.0
X59.0Y-18.0
X59.62Y-24.0
X59.62Y-74.0
X61.62Y-7.0
X61.62Y-11.0
X62.0Y-70.0
X62.0Y-74.0
X66.0Y-6.0
X66.0Y-8.54
X66.0Y-14.0
X66.0Y-16.54
X69.62Y-70.0
X69.62Y-74.0
X73.62Y-6.0
X73.62Y-8.54
X73.62Y-14.0
X73.62Y-16.54
X76.0Y-8.0
X76.0Y-12.0
X76.0Y-72.38
X76.0Y-80.0
X83.62Y-8.0
X83.62Y-12.0
T3
X12.38Y-6.38
X12.38Y-8.92
X12.38Y-11.46
X12.38Y-14.0
X12.38Y-16.54
X12.38Y-19.08
X12.38Y-21.62
X27.62Y-6.38
X27.62Y-8.92
X27.62Y-11.46
X27.62Y-14.0
X27.62Y-16.54
X27.62Y-19.08
X27.62Y-21.62
T4
X14.0Y-55.0
X19.0Y-55.0
X38.0Y-6.0
X38.0Y-8.54
X46.0Y-55.0
X46.0Y-57.54
T5
X2.0Y-28.0
X2.0Y-32.5
X8.5Y-28.0
X8.5Y-32.5
X14.0Y-40.0
X16.54Y-40.0
X19.08Y-40.0
X24.0Y-34.84
X24.0Y-45.0
X24.0Y-47.84
X24.0Y-58.0
X36.0Y-34.0
X36.0Y-58.0
X37.0Y-70.0
X38.54Y-34.0
X38.54Y-58.0
X39.29Y-70.0
X41.08Y-34.0
X41.08Y-58.0
X41.58Y-70.0
X46.0Y-44.0
X48.29Y-44.0
X50.58Y-44.0
X54.0Y-66.0
X56.29Y-66.0
X58.58Y-66.0
T6
X50.0Y-84.0
X54.0Y-60.0
X55.0Y-30.0
X55.0Y-46.0
X66.7Y-60.0
X70.32Y-84.0
X78.0Y-64.0
X85.5Y-64.0
X93.0Y-30.0
X93.0Y-46.0
T7
X11.0Y-82.0
X16.08Y-82.0
X82.0Y-82.0
X87.08Y-82.0
T8
X86.5Y-11.8
X86.5Y-16.2
X92.0Y-11.25
X92.0Y-16.75
T9
X56.0Y-54.0
X71.24Y-54.0
T10
X2.65Y-43.0
X2.65Y-61.0
X9.35Y-43.0
X9.35Y-61.0
T11
X3.5Y-3.5
X3.5Y-84.5
X96.5Y-3.5
X96.5Y-84.5
M30
