%TF.GenerationSoftware,KiCad,Pcbnew,10.0.5*%
%TF.CreationDate,2026-10-07T20:20:28+09:00*%
%TF.ProjectId,ShutterClock,53687574-7465-4724-936c-6f636b2e6b69,rev?*%
%TF.SameCoordinates,Original*%
%TF.FileFunction,Drillmap*%
%TF.FilePolarity,Positive*%
%FSLAX45Y45*%
G04 Gerber Fmt 4.5, Leading zero omitted, Abs format (unit mm)*
G04 Created by KiCad (PCBNEW 10.0.5) date 2026-10-07 20:20:28*
%MOMM*%
%LPD*%
G01*
G04 APERTURE LIST*
%ADD10C,0.100000*%
%ADD11C,0.200000*%
%ADD12C,0.110000*%
%ADD13C,0.120000*%
%ADD14C,0.130000*%
%ADD15C,0.150000*%
%ADD16C,0.160000*%
%ADD17C,0.180000*%
%ADD18C,0.320000*%
G04 APERTURE END LIST*
D10*
X0Y0D02*
X10000000Y0D01*
X0Y-8800000D02*
X0Y0D01*
X10000000Y0D02*
X10000000Y-8800000D01*
X10000000Y-8800000D02*
X0Y-8800000D01*
D11*
D10*
X3120000Y-2380000D02*
X3160000Y-2420000D01*
X3160000Y-2380000D02*
X3120000Y-2420000D01*
X4380000Y-2100000D02*
X4420000Y-2140000D01*
X4420000Y-2100000D02*
X4380000Y-2140000D01*
X4380000Y-2460000D02*
X4420000Y-2500000D01*
X4420000Y-2460000D02*
X4380000Y-2500000D01*
X4630000Y-1580000D02*
X4670000Y-1620000D01*
X4670000Y-1580000D02*
X4630000Y-1620000D01*
X340000Y-6600000D02*
G75*
G02*
X260000Y-6600000I-40000J0D01*
G01*
X260000Y-6600000D02*
G75*
G02*
X340000Y-6600000I40000J0D01*
G01*
X440000Y-3600000D02*
G75*
G02*
X360000Y-3600000I-40000J0D01*
G01*
X360000Y-3600000D02*
G75*
G02*
X440000Y-3600000I40000J0D01*
G01*
X940000Y-3600000D02*
G75*
G02*
X860000Y-3600000I-40000J0D01*
G01*
X860000Y-3600000D02*
G75*
G02*
X940000Y-3600000I40000J0D01*
G01*
X1102000Y-6600000D02*
G75*
G02*
X1022000Y-6600000I-40000J0D01*
G01*
X1022000Y-6600000D02*
G75*
G02*
X1102000Y-6600000I40000J0D01*
G01*
X1340000Y-4800000D02*
G75*
G02*
X1260000Y-4800000I-40000J0D01*
G01*
X1260000Y-4800000D02*
G75*
G02*
X1340000Y-4800000I40000J0D01*
G01*
X1440000Y-2700000D02*
G75*
G02*
X1360000Y-2700000I-40000J0D01*
G01*
X1360000Y-2700000D02*
G75*
G02*
X1440000Y-2700000I40000J0D01*
G01*
X1440000Y-3100000D02*
G75*
G02*
X1360000Y-3100000I-40000J0D01*
G01*
X1360000Y-3100000D02*
G75*
G02*
X1440000Y-3100000I40000J0D01*
G01*
X2102000Y-4800000D02*
G75*
G02*
X2022000Y-4800000I-40000J0D01*
G01*
X2022000Y-4800000D02*
G75*
G02*
X2102000Y-4800000I40000J0D01*
G01*
X2202000Y-2700000D02*
G75*
G02*
X2122000Y-2700000I-40000J0D01*
G01*
X2122000Y-2700000D02*
G75*
G02*
X2202000Y-2700000I40000J0D01*
G01*
X2202000Y-3100000D02*
G75*
G02*
X2122000Y-3100000I-40000J0D01*
G01*
X2122000Y-3100000D02*
G75*
G02*
X2202000Y-3100000I40000J0D01*
G01*
X3240000Y-6200000D02*
G75*
G02*
X3160000Y-6200000I-40000J0D01*
G01*
X3160000Y-6200000D02*
G75*
G02*
X3240000Y-6200000I40000J0D01*
G01*
X3240000Y-6600000D02*
G75*
G02*
X3160000Y-6600000I-40000J0D01*
G01*
X3160000Y-6600000D02*
G75*
G02*
X3240000Y-6600000I40000J0D01*
G01*
X3240000Y-7400000D02*
G75*
G02*
X3160000Y-7400000I-40000J0D01*
G01*
X3160000Y-7400000D02*
G75*
G02*
X3240000Y-7400000I40000J0D01*
G01*
X3240000Y-7800000D02*
G75*
G02*
X3160000Y-7800000I-40000J0D01*
G01*
X3160000Y-7800000D02*
G75*
G02*
X3240000Y-7800000I40000J0D01*
G01*
X3340000Y-1250000D02*
G75*
G02*
X3260000Y-1250000I-40000J0D01*
G01*
X3260000Y-1250000D02*
G75*
G02*
X3340000Y-1250000I40000J0D01*
G01*
X3340000Y-3738000D02*
G75*
G02*
X3260000Y-3738000I-40000J0D01*
G01*
X3260000Y-3738000D02*
G75*
G02*
X3340000Y-3738000I40000J0D01*
G01*
X3340000Y-4500000D02*
G75*
G02*
X3260000Y-4500000I-40000J0D01*
G01*
X3260000Y-4500000D02*
G75*
G02*
X3340000Y-4500000I40000J0D01*
G01*
X3640000Y-3800000D02*
G75*
G02*
X3560000Y-3800000I-40000J0D01*
G01*
X3560000Y-3800000D02*
G75*
G02*
X3640000Y-3800000I40000J0D01*
G01*
X3640000Y-4200000D02*
G75*
G02*
X3560000Y-4200000I-40000J0D01*
G01*
X3560000Y-4200000D02*
G75*
G02*
X3640000Y-4200000I40000J0D01*
G01*
X3640000Y-4750000D02*
G75*
G02*
X3560000Y-4750000I-40000J0D01*
G01*
X3560000Y-4750000D02*
G75*
G02*
X3640000Y-4750000I40000J0D01*
G01*
X3640000Y-5100000D02*
G75*
G02*
X3560000Y-5100000I-40000J0D01*
G01*
X3560000Y-5100000D02*
G75*
G02*
X3640000Y-5100000I40000J0D01*
G01*
X3840000Y-1250000D02*
G75*
G02*
X3760000Y-1250000I-40000J0D01*
G01*
X3760000Y-1250000D02*
G75*
G02*
X3840000Y-1250000I40000J0D01*
G01*
X4002000Y-6200000D02*
G75*
G02*
X3922000Y-6200000I-40000J0D01*
G01*
X3922000Y-6200000D02*
G75*
G02*
X4002000Y-6200000I40000J0D01*
G01*
X4002000Y-6600000D02*
G75*
G02*
X3922000Y-6600000I-40000J0D01*
G01*
X3922000Y-6600000D02*
G75*
G02*
X4002000Y-6600000I40000J0D01*
G01*
X4002000Y-7400000D02*
G75*
G02*
X3922000Y-7400000I-40000J0D01*
G01*
X3922000Y-7400000D02*
G75*
G02*
X4002000Y-7400000I40000J0D01*
G01*
X4002000Y-7800000D02*
G75*
G02*
X3922000Y-7800000I-40000J0D01*
G01*
X3922000Y-7800000D02*
G75*
G02*
X4002000Y-7800000I40000J0D01*
G01*
X4240000Y-6200000D02*
G75*
G02*
X4160000Y-6200000I-40000J0D01*
G01*
X4160000Y-6200000D02*
G75*
G02*
X4240000Y-6200000I40000J0D01*
G01*
X4402000Y-3800000D02*
G75*
G02*
X4322000Y-3800000I-40000J0D01*
G01*
X4322000Y-3800000D02*
G75*
G02*
X4402000Y-3800000I40000J0D01*
G01*
X4402000Y-4200000D02*
G75*
G02*
X4322000Y-4200000I-40000J0D01*
G01*
X4322000Y-4200000D02*
G75*
G02*
X4402000Y-4200000I40000J0D01*
G01*
X4402000Y-4750000D02*
G75*
G02*
X4322000Y-4750000I-40000J0D01*
G01*
X4322000Y-4750000D02*
G75*
G02*
X4402000Y-4750000I40000J0D01*
G01*
X4402000Y-5100000D02*
G75*
G02*
X4322000Y-5100000I-40000J0D01*
G01*
X4322000Y-5100000D02*
G75*
G02*
X4402000Y-5100000I40000J0D01*
G01*
X4590000Y-6950000D02*
G75*
G02*
X4510000Y-6950000I-40000J0D01*
G01*
X4510000Y-6950000D02*
G75*
G02*
X4590000Y-6950000I40000J0D01*
G01*
X4640000Y-2000000D02*
G75*
G02*
X4560000Y-2000000I-40000J0D01*
G01*
X4560000Y-2000000D02*
G75*
G02*
X4640000Y-2000000I40000J0D01*
G01*
X5002000Y-6200000D02*
G75*
G02*
X4922000Y-6200000I-40000J0D01*
G01*
X4922000Y-6200000D02*
G75*
G02*
X5002000Y-6200000I40000J0D01*
G01*
X5140000Y-2000000D02*
G75*
G02*
X5060000Y-2000000I-40000J0D01*
G01*
X5060000Y-2000000D02*
G75*
G02*
X5140000Y-2000000I40000J0D01*
G01*
X5240000Y-2400000D02*
G75*
G02*
X5160000Y-2400000I-40000J0D01*
G01*
X5160000Y-2400000D02*
G75*
G02*
X5240000Y-2400000I40000J0D01*
G01*
X5240000Y-7400000D02*
G75*
G02*
X5160000Y-7400000I-40000J0D01*
G01*
X5160000Y-7400000D02*
G75*
G02*
X5240000Y-7400000I40000J0D01*
G01*
X5240000Y-7800000D02*
G75*
G02*
X5160000Y-7800000I-40000J0D01*
G01*
X5160000Y-7800000D02*
G75*
G02*
X5240000Y-7800000I40000J0D01*
G01*
X5352000Y-6950000D02*
G75*
G02*
X5272000Y-6950000I-40000J0D01*
G01*
X5272000Y-6950000D02*
G75*
G02*
X5352000Y-6950000I40000J0D01*
G01*
X5440000Y-700000D02*
G75*
G02*
X5360000Y-700000I-40000J0D01*
G01*
X5360000Y-700000D02*
G75*
G02*
X5440000Y-700000I40000J0D01*
G01*
X5440000Y-1100000D02*
G75*
G02*
X5360000Y-1100000I-40000J0D01*
G01*
X5360000Y-1100000D02*
G75*
G02*
X5440000Y-1100000I40000J0D01*
G01*
X5440000Y-1800000D02*
G75*
G02*
X5360000Y-1800000I-40000J0D01*
G01*
X5360000Y-1800000D02*
G75*
G02*
X5440000Y-1800000I40000J0D01*
G01*
X5740000Y-7800000D02*
G75*
G02*
X5660000Y-7800000I-40000J0D01*
G01*
X5660000Y-7800000D02*
G75*
G02*
X5740000Y-7800000I40000J0D01*
G01*
X5940000Y-1800000D02*
G75*
G02*
X5860000Y-1800000I-40000J0D01*
G01*
X5860000Y-1800000D02*
G75*
G02*
X5940000Y-1800000I40000J0D01*
G01*
X6002000Y-2400000D02*
G75*
G02*
X5922000Y-2400000I-40000J0D01*
G01*
X5922000Y-2400000D02*
G75*
G02*
X6002000Y-2400000I40000J0D01*
G01*
X6002000Y-7400000D02*
G75*
G02*
X5922000Y-7400000I-40000J0D01*
G01*
X5922000Y-7400000D02*
G75*
G02*
X6002000Y-7400000I40000J0D01*
G01*
X6202000Y-700000D02*
G75*
G02*
X6122000Y-700000I-40000J0D01*
G01*
X6122000Y-700000D02*
G75*
G02*
X6202000Y-700000I40000J0D01*
G01*
X6202000Y-1100000D02*
G75*
G02*
X6122000Y-1100000I-40000J0D01*
G01*
X6122000Y-1100000D02*
G75*
G02*
X6202000Y-1100000I40000J0D01*
G01*
X6240000Y-7000000D02*
G75*
G02*
X6160000Y-7000000I-40000J0D01*
G01*
X6160000Y-7000000D02*
G75*
G02*
X6240000Y-7000000I40000J0D01*
G01*
X6240000Y-7400000D02*
G75*
G02*
X6160000Y-7400000I-40000J0D01*
G01*
X6160000Y-7400000D02*
G75*
G02*
X6240000Y-7400000I40000J0D01*
G01*
X6640000Y-600000D02*
G75*
G02*
X6560000Y-600000I-40000J0D01*
G01*
X6560000Y-600000D02*
G75*
G02*
X6640000Y-600000I40000J0D01*
G01*
X6640000Y-854000D02*
G75*
G02*
X6560000Y-854000I-40000J0D01*
G01*
X6560000Y-854000D02*
G75*
G02*
X6640000Y-854000I40000J0D01*
G01*
X6640000Y-1400000D02*
G75*
G02*
X6560000Y-1400000I-40000J0D01*
G01*
X6560000Y-1400000D02*
G75*
G02*
X6640000Y-1400000I40000J0D01*
G01*
X6640000Y-1654000D02*
G75*
G02*
X6560000Y-1654000I-40000J0D01*
G01*
X6560000Y-1654000D02*
G75*
G02*
X6640000Y-1654000I40000J0D01*
G01*
X7002000Y-7000000D02*
G75*
G02*
X6922000Y-7000000I-40000J0D01*
G01*
X6922000Y-7000000D02*
G75*
G02*
X7002000Y-7000000I40000J0D01*
G01*
X7002000Y-7400000D02*
G75*
G02*
X6922000Y-7400000I-40000J0D01*
G01*
X6922000Y-7400000D02*
G75*
G02*
X7002000Y-7400000I40000J0D01*
G01*
X7402000Y-600000D02*
G75*
G02*
X7322000Y-600000I-40000J0D01*
G01*
X7322000Y-600000D02*
G75*
G02*
X7402000Y-600000I40000J0D01*
G01*
X7402000Y-854000D02*
G75*
G02*
X7322000Y-854000I-40000J0D01*
G01*
X7322000Y-854000D02*
G75*
G02*
X7402000Y-854000I40000J0D01*
G01*
X7402000Y-1400000D02*
G75*
G02*
X7322000Y-1400000I-40000J0D01*
G01*
X7322000Y-1400000D02*
G75*
G02*
X7402000Y-1400000I40000J0D01*
G01*
X7402000Y-1654000D02*
G75*
G02*
X7322000Y-1654000I-40000J0D01*
G01*
X7322000Y-1654000D02*
G75*
G02*
X7402000Y-1654000I40000J0D01*
G01*
X7640000Y-800000D02*
G75*
G02*
X7560000Y-800000I-40000J0D01*
G01*
X7560000Y-800000D02*
G75*
G02*
X7640000Y-800000I40000J0D01*
G01*
X7640000Y-1200000D02*
G75*
G02*
X7560000Y-1200000I-40000J0D01*
G01*
X7560000Y-1200000D02*
G75*
G02*
X7640000Y-1200000I40000J0D01*
G01*
X7640000Y-7238000D02*
G75*
G02*
X7560000Y-7238000I-40000J0D01*
G01*
X7560000Y-7238000D02*
G75*
G02*
X7640000Y-7238000I40000J0D01*
G01*
X7640000Y-8000000D02*
G75*
G02*
X7560000Y-8000000I-40000J0D01*
G01*
X7560000Y-8000000D02*
G75*
G02*
X7640000Y-8000000I40000J0D01*
G01*
X8402000Y-800000D02*
G75*
G02*
X8322000Y-800000I-40000J0D01*
G01*
X8322000Y-800000D02*
G75*
G02*
X8402000Y-800000I40000J0D01*
G01*
X8402000Y-1200000D02*
G75*
G02*
X8322000Y-1200000I-40000J0D01*
G01*
X8322000Y-1200000D02*
G75*
G02*
X8402000Y-1200000I40000J0D01*
G01*
X1238000Y-593550D02*
X1238000Y-682450D01*
X1193550Y-638000D02*
X1282450Y-638000D01*
X1238000Y-847550D02*
X1238000Y-936450D01*
X1193550Y-892000D02*
X1282450Y-892000D01*
X1238000Y-1101550D02*
X1238000Y-1190450D01*
X1193550Y-1146000D02*
X1282450Y-1146000D01*
X1238000Y-1355550D02*
X1238000Y-1444450D01*
X1193550Y-1400000D02*
X1282450Y-1400000D01*
X1238000Y-1609550D02*
X1238000Y-1698450D01*
X1193550Y-1654000D02*
X1282450Y-1654000D01*
X1238000Y-1863550D02*
X1238000Y-1952450D01*
X1193550Y-1908000D02*
X1282450Y-1908000D01*
X1238000Y-2117550D02*
X1238000Y-2206450D01*
X1193550Y-2162000D02*
X1282450Y-2162000D01*
X2762000Y-593550D02*
X2762000Y-682450D01*
X2717550Y-638000D02*
X2806450Y-638000D01*
X2762000Y-847550D02*
X2762000Y-936450D01*
X2717550Y-892000D02*
X2806450Y-892000D01*
X2762000Y-1101550D02*
X2762000Y-1190450D01*
X2717550Y-1146000D02*
X2806450Y-1146000D01*
X2762000Y-1355550D02*
X2762000Y-1444450D01*
X2717550Y-1400000D02*
X2806450Y-1400000D01*
X2762000Y-1609550D02*
X2762000Y-1698450D01*
X2717550Y-1654000D02*
X2806450Y-1654000D01*
X2762000Y-1863550D02*
X2762000Y-1952450D01*
X2717550Y-1908000D02*
X2806450Y-1908000D01*
X2762000Y-2117550D02*
X2762000Y-2206450D01*
X2717550Y-2162000D02*
X2806450Y-2162000D01*
X1435356Y-5535356D02*
X1435356Y-5464644D01*
X1364644Y-5464644D01*
X1364644Y-5535356D01*
X1435356Y-5535356D01*
X1935356Y-5535356D02*
X1935356Y-5464644D01*
X1864644Y-5464644D01*
X1864644Y-5535356D01*
X1935356Y-5535356D01*
X3835356Y-635356D02*
X3835356Y-564644D01*
X3764644Y-564644D01*
X3764644Y-635356D01*
X3835356Y-635356D01*
X3835356Y-889356D02*
X3835356Y-818644D01*
X3764644Y-818644D01*
X3764644Y-889356D01*
X3835356Y-889356D01*
X4635356Y-5535356D02*
X4635356Y-5464644D01*
X4564644Y-5464644D01*
X4564644Y-5535356D01*
X4635356Y-5535356D01*
X4635356Y-5789356D02*
X4635356Y-5718644D01*
X4564644Y-5718644D01*
X4564644Y-5789356D01*
X4635356Y-5789356D01*
D12*
X200000Y-2855000D02*
X255000Y-2800000D01*
X200000Y-2745000D01*
X145000Y-2800000D01*
X200000Y-2855000D01*
X200000Y-3305000D02*
X255000Y-3250000D01*
X200000Y-3195000D01*
X145000Y-3250000D01*
X200000Y-3305000D01*
X850000Y-2855000D02*
X905000Y-2800000D01*
X850000Y-2745000D01*
X795000Y-2800000D01*
X850000Y-2855000D01*
X850000Y-3305000D02*
X905000Y-3250000D01*
X850000Y-3195000D01*
X795000Y-3250000D01*
X850000Y-3305000D01*
X1400000Y-4055000D02*
X1455000Y-4000000D01*
X1400000Y-3945000D01*
X1345000Y-4000000D01*
X1400000Y-4055000D01*
X1654000Y-4055000D02*
X1709000Y-4000000D01*
X1654000Y-3945000D01*
X1599000Y-4000000D01*
X1654000Y-4055000D01*
X1908000Y-4055000D02*
X1963000Y-4000000D01*
X1908000Y-3945000D01*
X1853000Y-4000000D01*
X1908000Y-4055000D01*
X2400000Y-3539000D02*
X2455000Y-3484000D01*
X2400000Y-3429000D01*
X2345000Y-3484000D01*
X2400000Y-3539000D01*
X2400000Y-4555000D02*
X2455000Y-4500000D01*
X2400000Y-4445000D01*
X2345000Y-4500000D01*
X2400000Y-4555000D01*
X2400000Y-4839000D02*
X2455000Y-4784000D01*
X2400000Y-4729000D01*
X2345000Y-4784000D01*
X2400000Y-4839000D01*
X2400000Y-5855000D02*
X2455000Y-5800000D01*
X2400000Y-5745000D01*
X2345000Y-5800000D01*
X2400000Y-5855000D01*
X3600000Y-3455000D02*
X3655000Y-3400000D01*
X3600000Y-3345000D01*
X3545000Y-3400000D01*
X3600000Y-3455000D01*
X3600000Y-5855000D02*
X3655000Y-5800000D01*
X3600000Y-5745000D01*
X3545000Y-5800000D01*
X3600000Y-5855000D01*
X3700000Y-7055000D02*
X3755000Y-7000000D01*
X3700000Y-6945000D01*
X3645000Y-7000000D01*
X3700000Y-7055000D01*
X3854000Y-3455000D02*
X3909000Y-3400000D01*
X3854000Y-3345000D01*
X3799000Y-3400000D01*
X3854000Y-3455000D01*
X3854000Y-5855000D02*
X3909000Y-5800000D01*
X3854000Y-5745000D01*
X3799000Y-5800000D01*
X3854000Y-5855000D01*
X3929000Y-7055000D02*
X3984000Y-7000000D01*
X3929000Y-6945000D01*
X3874000Y-7000000D01*
X3929000Y-7055000D01*
X4108000Y-3455000D02*
X4163000Y-3400000D01*
X4108000Y-3345000D01*
X4053000Y-3400000D01*
X4108000Y-3455000D01*
X4108000Y-5855000D02*
X4163000Y-5800000D01*
X4108000Y-5745000D01*
X4053000Y-5800000D01*
X4108000Y-5855000D01*
X4158000Y-7055000D02*
X4213000Y-7000000D01*
X4158000Y-6945000D01*
X4103000Y-7000000D01*
X4158000Y-7055000D01*
X4600000Y-4455000D02*
X4655000Y-4400000D01*
X4600000Y-4345000D01*
X4545000Y-4400000D01*
X4600000Y-4455000D01*
X4829000Y-4455000D02*
X4884000Y-4400000D01*
X4829000Y-4345000D01*
X4774000Y-4400000D01*
X4829000Y-4455000D01*
X5058000Y-4455000D02*
X5113000Y-4400000D01*
X5058000Y-4345000D01*
X5003000Y-4400000D01*
X5058000Y-4455000D01*
X5400000Y-6655000D02*
X5455000Y-6600000D01*
X5400000Y-6545000D01*
X5345000Y-6600000D01*
X5400000Y-6655000D01*
X5629000Y-6655000D02*
X5684000Y-6600000D01*
X5629000Y-6545000D01*
X5574000Y-6600000D01*
X5629000Y-6655000D01*
X5858000Y-6655000D02*
X5913000Y-6600000D01*
X5858000Y-6545000D01*
X5803000Y-6600000D01*
X5858000Y-6655000D01*
D13*
X4940000Y-8340000D02*
X5060000Y-8460000D01*
X5060000Y-8340000D02*
X4940000Y-8460000D01*
X5060000Y-8400000D02*
G75*
G02*
X4940000Y-8400000I-60000J0D01*
G01*
X4940000Y-8400000D02*
G75*
G02*
X5060000Y-8400000I60000J0D01*
G01*
X5340000Y-5940000D02*
X5460000Y-6060000D01*
X5460000Y-5940000D02*
X5340000Y-6060000D01*
X5460000Y-6000000D02*
G75*
G02*
X5340000Y-6000000I-60000J0D01*
G01*
X5340000Y-6000000D02*
G75*
G02*
X5460000Y-6000000I60000J0D01*
G01*
X5440000Y-2940000D02*
X5560000Y-3060000D01*
X5560000Y-2940000D02*
X5440000Y-3060000D01*
X5560000Y-3000000D02*
G75*
G02*
X5440000Y-3000000I-60000J0D01*
G01*
X5440000Y-3000000D02*
G75*
G02*
X5560000Y-3000000I60000J0D01*
G01*
X5440000Y-4540000D02*
X5560000Y-4660000D01*
X5560000Y-4540000D02*
X5440000Y-4660000D01*
X5560000Y-4600000D02*
G75*
G02*
X5440000Y-4600000I-60000J0D01*
G01*
X5440000Y-4600000D02*
G75*
G02*
X5560000Y-4600000I60000J0D01*
G01*
X6610000Y-5940000D02*
X6730000Y-6060000D01*
X6730000Y-5940000D02*
X6610000Y-6060000D01*
X6730000Y-6000000D02*
G75*
G02*
X6610000Y-6000000I-60000J0D01*
G01*
X6610000Y-6000000D02*
G75*
G02*
X6730000Y-6000000I60000J0D01*
G01*
X6972000Y-8340000D02*
X7092000Y-8460000D01*
X7092000Y-8340000D02*
X6972000Y-8460000D01*
X7092000Y-8400000D02*
G75*
G02*
X6972000Y-8400000I-60000J0D01*
G01*
X6972000Y-8400000D02*
G75*
G02*
X7092000Y-8400000I60000J0D01*
G01*
X7740000Y-6340000D02*
X7860000Y-6460000D01*
X7860000Y-6340000D02*
X7740000Y-6460000D01*
X7860000Y-6400000D02*
G75*
G02*
X7740000Y-6400000I-60000J0D01*
G01*
X7740000Y-6400000D02*
G75*
G02*
X7860000Y-6400000I60000J0D01*
G01*
X8490000Y-6340000D02*
X8610000Y-6460000D01*
X8610000Y-6340000D02*
X8490000Y-6460000D01*
X8610000Y-6400000D02*
G75*
G02*
X8490000Y-6400000I-60000J0D01*
G01*
X8490000Y-6400000D02*
G75*
G02*
X8610000Y-6400000I60000J0D01*
G01*
X9240000Y-2940000D02*
X9360000Y-3060000D01*
X9360000Y-2940000D02*
X9240000Y-3060000D01*
X9360000Y-3000000D02*
G75*
G02*
X9240000Y-3000000I-60000J0D01*
G01*
X9240000Y-3000000D02*
G75*
G02*
X9360000Y-3000000I60000J0D01*
G01*
X9240000Y-4540000D02*
X9360000Y-4660000D01*
X9360000Y-4540000D02*
X9240000Y-4660000D01*
X9360000Y-4600000D02*
G75*
G02*
X9240000Y-4600000I-60000J0D01*
G01*
X9240000Y-4600000D02*
G75*
G02*
X9360000Y-4600000I60000J0D01*
G01*
D14*
X1035000Y-8135000D02*
X1165000Y-8265000D01*
X1165000Y-8135000D02*
X1035000Y-8265000D01*
X1100000Y-8135000D02*
X1100000Y-8265000D01*
X1035000Y-8200000D02*
X1165000Y-8200000D01*
X1543000Y-8135000D02*
X1673000Y-8265000D01*
X1673000Y-8135000D02*
X1543000Y-8265000D01*
X1608000Y-8135000D02*
X1608000Y-8265000D01*
X1543000Y-8200000D02*
X1673000Y-8200000D01*
X8135000Y-8135000D02*
X8265000Y-8265000D01*
X8265000Y-8135000D02*
X8135000Y-8265000D01*
X8200000Y-8135000D02*
X8200000Y-8265000D01*
X8135000Y-8200000D02*
X8265000Y-8200000D01*
X8643000Y-8135000D02*
X8773000Y-8265000D01*
X8773000Y-8135000D02*
X8643000Y-8265000D01*
X8708000Y-8135000D02*
X8708000Y-8265000D01*
X8643000Y-8200000D02*
X8773000Y-8200000D01*
D15*
X8575000Y-1105000D02*
X8725000Y-1255000D01*
X8725000Y-1105000D02*
X8575000Y-1255000D01*
X8703034Y-1233034D02*
X8703034Y-1126967D01*
X8596967Y-1126967D01*
X8596967Y-1233034D01*
X8703034Y-1233034D01*
X8575000Y-1545000D02*
X8725000Y-1695000D01*
X8725000Y-1545000D02*
X8575000Y-1695000D01*
X8703034Y-1673033D02*
X8703034Y-1566966D01*
X8596967Y-1566966D01*
X8596967Y-1673033D01*
X8703034Y-1673033D01*
X9125000Y-1050000D02*
X9275000Y-1200000D01*
X9275000Y-1050000D02*
X9125000Y-1200000D01*
X9253034Y-1178034D02*
X9253034Y-1071967D01*
X9146967Y-1071967D01*
X9146967Y-1178034D01*
X9253034Y-1178034D01*
X9125000Y-1600000D02*
X9275000Y-1750000D01*
X9275000Y-1600000D02*
X9125000Y-1750000D01*
X9253034Y-1728033D02*
X9253034Y-1621966D01*
X9146967Y-1621966D01*
X9146967Y-1728033D01*
X9253034Y-1728033D01*
D16*
X5520000Y-5320000D02*
X5680000Y-5480000D01*
X5680000Y-5320000D02*
X5520000Y-5480000D01*
X5600000Y-5480000D02*
X5680000Y-5400000D01*
X5600000Y-5320000D01*
X5520000Y-5400000D01*
X5600000Y-5480000D01*
X7044000Y-5320000D02*
X7204000Y-5480000D01*
X7204000Y-5320000D02*
X7044000Y-5480000D01*
X7124000Y-5480000D02*
X7204000Y-5400000D01*
X7124000Y-5320000D01*
X7044000Y-5400000D01*
X7124000Y-5480000D01*
D17*
X265000Y-4210000D02*
X265000Y-4390000D01*
X175000Y-4300000D02*
X355000Y-4300000D01*
X355000Y-4300000D02*
G75*
G02*
X175000Y-4300000I-90000J0D01*
G01*
X175000Y-4300000D02*
G75*
G02*
X355000Y-4300000I90000J0D01*
G01*
X265000Y-6010000D02*
X265000Y-6190000D01*
X175000Y-6100000D02*
X355000Y-6100000D01*
X355000Y-6100000D02*
G75*
G02*
X175000Y-6100000I-90000J0D01*
G01*
X175000Y-6100000D02*
G75*
G02*
X355000Y-6100000I90000J0D01*
G01*
X935000Y-4210000D02*
X935000Y-4390000D01*
X845000Y-4300000D02*
X1025000Y-4300000D01*
X1025000Y-4300000D02*
G75*
G02*
X845000Y-4300000I-90000J0D01*
G01*
X845000Y-4300000D02*
G75*
G02*
X1025000Y-4300000I90000J0D01*
G01*
X935000Y-6010000D02*
X935000Y-6190000D01*
X845000Y-6100000D02*
X1025000Y-6100000D01*
X1025000Y-6100000D02*
G75*
G02*
X845000Y-6100000I-90000J0D01*
G01*
X845000Y-6100000D02*
G75*
G02*
X1025000Y-6100000I90000J0D01*
G01*
D18*
X463138Y-463138D02*
X463138Y-236862D01*
X236862Y-236862D01*
X236862Y-463138D01*
X463138Y-463138D01*
X510000Y-350000D02*
G75*
G02*
X190000Y-350000I-160000J0D01*
G01*
X190000Y-350000D02*
G75*
G02*
X510000Y-350000I160000J0D01*
G01*
X463138Y-8563138D02*
X463138Y-8336862D01*
X236862Y-8336862D01*
X236862Y-8563138D01*
X463138Y-8563138D01*
X510000Y-8450000D02*
G75*
G02*
X190000Y-8450000I-160000J0D01*
G01*
X190000Y-8450000D02*
G75*
G02*
X510000Y-8450000I160000J0D01*
G01*
X9763138Y-463138D02*
X9763138Y-236862D01*
X9536862Y-236862D01*
X9536862Y-463138D01*
X9763138Y-463138D01*
X9810000Y-350000D02*
G75*
G02*
X9490000Y-350000I-160000J0D01*
G01*
X9490000Y-350000D02*
G75*
G02*
X9810000Y-350000I160000J0D01*
G01*
X9763138Y-8563138D02*
X9763138Y-8336862D01*
X9536862Y-8336862D01*
X9536862Y-8563138D01*
X9763138Y-8563138D01*
X9810000Y-8450000D02*
G75*
G02*
X9490000Y-8450000I-160000J0D01*
G01*
X9490000Y-8450000D02*
G75*
G02*
X9810000Y-8450000I160000J0D01*
G01*
D11*
X255777Y-9116484D02*
X255777Y-8916484D01*
X255777Y-8916484D02*
X303396Y-8916484D01*
X303396Y-8916484D02*
X331967Y-8926008D01*
X331967Y-8926008D02*
X351015Y-8945055D01*
X351015Y-8945055D02*
X360539Y-8964103D01*
X360539Y-8964103D02*
X370062Y-9002198D01*
X370062Y-9002198D02*
X370062Y-9030770D01*
X370062Y-9030770D02*
X360539Y-9068865D01*
X360539Y-9068865D02*
X351015Y-9087912D01*
X351015Y-9087912D02*
X331967Y-9106960D01*
X331967Y-9106960D02*
X303396Y-9116484D01*
X303396Y-9116484D02*
X255777Y-9116484D01*
X455777Y-9116484D02*
X455777Y-8983150D01*
X455777Y-9021246D02*
X465301Y-9002198D01*
X465301Y-9002198D02*
X474824Y-8992674D01*
X474824Y-8992674D02*
X493872Y-8983150D01*
X493872Y-8983150D02*
X512920Y-8983150D01*
X579586Y-9116484D02*
X579586Y-8983150D01*
X579586Y-8916484D02*
X570063Y-8926008D01*
X570063Y-8926008D02*
X579586Y-8935531D01*
X579586Y-8935531D02*
X589110Y-8926008D01*
X589110Y-8926008D02*
X579586Y-8916484D01*
X579586Y-8916484D02*
X579586Y-8935531D01*
X703396Y-9116484D02*
X684348Y-9106960D01*
X684348Y-9106960D02*
X674824Y-9087912D01*
X674824Y-9087912D02*
X674824Y-8916484D01*
X808158Y-9116484D02*
X789110Y-9106960D01*
X789110Y-9106960D02*
X779586Y-9087912D01*
X779586Y-9087912D02*
X779586Y-8916484D01*
X1036729Y-9116484D02*
X1036729Y-8916484D01*
X1036729Y-8916484D02*
X1103396Y-9059341D01*
X1103396Y-9059341D02*
X1170063Y-8916484D01*
X1170063Y-8916484D02*
X1170063Y-9116484D01*
X1351015Y-9116484D02*
X1351015Y-9011722D01*
X1351015Y-9011722D02*
X1341491Y-8992674D01*
X1341491Y-8992674D02*
X1322444Y-8983150D01*
X1322444Y-8983150D02*
X1284348Y-8983150D01*
X1284348Y-8983150D02*
X1265301Y-8992674D01*
X1351015Y-9106960D02*
X1331967Y-9116484D01*
X1331967Y-9116484D02*
X1284348Y-9116484D01*
X1284348Y-9116484D02*
X1265301Y-9106960D01*
X1265301Y-9106960D02*
X1255777Y-9087912D01*
X1255777Y-9087912D02*
X1255777Y-9068865D01*
X1255777Y-9068865D02*
X1265301Y-9049817D01*
X1265301Y-9049817D02*
X1284348Y-9040293D01*
X1284348Y-9040293D02*
X1331967Y-9040293D01*
X1331967Y-9040293D02*
X1351015Y-9030770D01*
X1446253Y-8983150D02*
X1446253Y-9183150D01*
X1446253Y-8992674D02*
X1465301Y-8983150D01*
X1465301Y-8983150D02*
X1503396Y-8983150D01*
X1503396Y-8983150D02*
X1522443Y-8992674D01*
X1522443Y-8992674D02*
X1531967Y-9002198D01*
X1531967Y-9002198D02*
X1541491Y-9021246D01*
X1541491Y-9021246D02*
X1541491Y-9078389D01*
X1541491Y-9078389D02*
X1531967Y-9097436D01*
X1531967Y-9097436D02*
X1522443Y-9106960D01*
X1522443Y-9106960D02*
X1503396Y-9116484D01*
X1503396Y-9116484D02*
X1465301Y-9116484D01*
X1465301Y-9116484D02*
X1446253Y-9106960D01*
X1627205Y-9097436D02*
X1636729Y-9106960D01*
X1636729Y-9106960D02*
X1627205Y-9116484D01*
X1627205Y-9116484D02*
X1617682Y-9106960D01*
X1617682Y-9106960D02*
X1627205Y-9097436D01*
X1627205Y-9097436D02*
X1627205Y-9116484D01*
X1627205Y-8992674D02*
X1636729Y-9002198D01*
X1636729Y-9002198D02*
X1627205Y-9011722D01*
X1627205Y-9011722D02*
X1617682Y-9002198D01*
X1617682Y-9002198D02*
X1627205Y-8992674D01*
X1627205Y-8992674D02*
X1627205Y-9011722D01*
D10*
X-45000Y-9425000D02*
X-5000Y-9465000D01*
X-5000Y-9425000D02*
X-45000Y-9465000D01*
D11*
X293872Y-9336484D02*
X312920Y-9336484D01*
X312920Y-9336484D02*
X331967Y-9346008D01*
X331967Y-9346008D02*
X341491Y-9355531D01*
X341491Y-9355531D02*
X351015Y-9374579D01*
X351015Y-9374579D02*
X360539Y-9412674D01*
X360539Y-9412674D02*
X360539Y-9460293D01*
X360539Y-9460293D02*
X351015Y-9498389D01*
X351015Y-9498389D02*
X341491Y-9517436D01*
X341491Y-9517436D02*
X331967Y-9526960D01*
X331967Y-9526960D02*
X312920Y-9536484D01*
X312920Y-9536484D02*
X293872Y-9536484D01*
X293872Y-9536484D02*
X274824Y-9526960D01*
X274824Y-9526960D02*
X265301Y-9517436D01*
X265301Y-9517436D02*
X255777Y-9498389D01*
X255777Y-9498389D02*
X246253Y-9460293D01*
X246253Y-9460293D02*
X246253Y-9412674D01*
X246253Y-9412674D02*
X255777Y-9374579D01*
X255777Y-9374579D02*
X265301Y-9355531D01*
X265301Y-9355531D02*
X274824Y-9346008D01*
X274824Y-9346008D02*
X293872Y-9336484D01*
X446253Y-9517436D02*
X455777Y-9526960D01*
X455777Y-9526960D02*
X446253Y-9536484D01*
X446253Y-9536484D02*
X436729Y-9526960D01*
X436729Y-9526960D02*
X446253Y-9517436D01*
X446253Y-9517436D02*
X446253Y-9536484D01*
X627205Y-9403150D02*
X627205Y-9536484D01*
X579586Y-9326960D02*
X531967Y-9469817D01*
X531967Y-9469817D02*
X655777Y-9469817D01*
X770062Y-9336484D02*
X789110Y-9336484D01*
X789110Y-9336484D02*
X808158Y-9346008D01*
X808158Y-9346008D02*
X817682Y-9355531D01*
X817682Y-9355531D02*
X827205Y-9374579D01*
X827205Y-9374579D02*
X836729Y-9412674D01*
X836729Y-9412674D02*
X836729Y-9460293D01*
X836729Y-9460293D02*
X827205Y-9498389D01*
X827205Y-9498389D02*
X817682Y-9517436D01*
X817682Y-9517436D02*
X808158Y-9526960D01*
X808158Y-9526960D02*
X789110Y-9536484D01*
X789110Y-9536484D02*
X770062Y-9536484D01*
X770062Y-9536484D02*
X751015Y-9526960D01*
X751015Y-9526960D02*
X741491Y-9517436D01*
X741491Y-9517436D02*
X731967Y-9498389D01*
X731967Y-9498389D02*
X722443Y-9460293D01*
X722443Y-9460293D02*
X722443Y-9412674D01*
X722443Y-9412674D02*
X731967Y-9374579D01*
X731967Y-9374579D02*
X741491Y-9355531D01*
X741491Y-9355531D02*
X751015Y-9346008D01*
X751015Y-9346008D02*
X770062Y-9336484D01*
X960539Y-9336484D02*
X979586Y-9336484D01*
X979586Y-9336484D02*
X998634Y-9346008D01*
X998634Y-9346008D02*
X1008158Y-9355531D01*
X1008158Y-9355531D02*
X1017682Y-9374579D01*
X1017682Y-9374579D02*
X1027205Y-9412674D01*
X1027205Y-9412674D02*
X1027205Y-9460293D01*
X1027205Y-9460293D02*
X1017682Y-9498389D01*
X1017682Y-9498389D02*
X1008158Y-9517436D01*
X1008158Y-9517436D02*
X998634Y-9526960D01*
X998634Y-9526960D02*
X979586Y-9536484D01*
X979586Y-9536484D02*
X960539Y-9536484D01*
X960539Y-9536484D02*
X941491Y-9526960D01*
X941491Y-9526960D02*
X931967Y-9517436D01*
X931967Y-9517436D02*
X922443Y-9498389D01*
X922443Y-9498389D02*
X912920Y-9460293D01*
X912920Y-9460293D02*
X912920Y-9412674D01*
X912920Y-9412674D02*
X922443Y-9374579D01*
X922443Y-9374579D02*
X931967Y-9355531D01*
X931967Y-9355531D02*
X941491Y-9346008D01*
X941491Y-9346008D02*
X960539Y-9336484D01*
X1112920Y-9536484D02*
X1112920Y-9403150D01*
X1112920Y-9422198D02*
X1122444Y-9412674D01*
X1122444Y-9412674D02*
X1141491Y-9403150D01*
X1141491Y-9403150D02*
X1170063Y-9403150D01*
X1170063Y-9403150D02*
X1189110Y-9412674D01*
X1189110Y-9412674D02*
X1198634Y-9431722D01*
X1198634Y-9431722D02*
X1198634Y-9536484D01*
X1198634Y-9431722D02*
X1208158Y-9412674D01*
X1208158Y-9412674D02*
X1227205Y-9403150D01*
X1227205Y-9403150D02*
X1255777Y-9403150D01*
X1255777Y-9403150D02*
X1274825Y-9412674D01*
X1274825Y-9412674D02*
X1284348Y-9431722D01*
X1284348Y-9431722D02*
X1284348Y-9536484D01*
X1379586Y-9536484D02*
X1379586Y-9403150D01*
X1379586Y-9422198D02*
X1389110Y-9412674D01*
X1389110Y-9412674D02*
X1408158Y-9403150D01*
X1408158Y-9403150D02*
X1436729Y-9403150D01*
X1436729Y-9403150D02*
X1455777Y-9412674D01*
X1455777Y-9412674D02*
X1465301Y-9431722D01*
X1465301Y-9431722D02*
X1465301Y-9536484D01*
X1465301Y-9431722D02*
X1474824Y-9412674D01*
X1474824Y-9412674D02*
X1493872Y-9403150D01*
X1493872Y-9403150D02*
X1522443Y-9403150D01*
X1522443Y-9403150D02*
X1541491Y-9412674D01*
X1541491Y-9412674D02*
X1551015Y-9431722D01*
X1551015Y-9431722D02*
X1551015Y-9536484D01*
X1941491Y-9326960D02*
X1770063Y-9584103D01*
X2198634Y-9336484D02*
X2217682Y-9336484D01*
X2217682Y-9336484D02*
X2236729Y-9346008D01*
X2236729Y-9346008D02*
X2246253Y-9355531D01*
X2246253Y-9355531D02*
X2255777Y-9374579D01*
X2255777Y-9374579D02*
X2265301Y-9412674D01*
X2265301Y-9412674D02*
X2265301Y-9460293D01*
X2265301Y-9460293D02*
X2255777Y-9498389D01*
X2255777Y-9498389D02*
X2246253Y-9517436D01*
X2246253Y-9517436D02*
X2236729Y-9526960D01*
X2236729Y-9526960D02*
X2217682Y-9536484D01*
X2217682Y-9536484D02*
X2198634Y-9536484D01*
X2198634Y-9536484D02*
X2179587Y-9526960D01*
X2179587Y-9526960D02*
X2170063Y-9517436D01*
X2170063Y-9517436D02*
X2160539Y-9498389D01*
X2160539Y-9498389D02*
X2151015Y-9460293D01*
X2151015Y-9460293D02*
X2151015Y-9412674D01*
X2151015Y-9412674D02*
X2160539Y-9374579D01*
X2160539Y-9374579D02*
X2170063Y-9355531D01*
X2170063Y-9355531D02*
X2179587Y-9346008D01*
X2179587Y-9346008D02*
X2198634Y-9336484D01*
X2351015Y-9517436D02*
X2360539Y-9526960D01*
X2360539Y-9526960D02*
X2351015Y-9536484D01*
X2351015Y-9536484D02*
X2341491Y-9526960D01*
X2341491Y-9526960D02*
X2351015Y-9517436D01*
X2351015Y-9517436D02*
X2351015Y-9536484D01*
X2484348Y-9336484D02*
X2503396Y-9336484D01*
X2503396Y-9336484D02*
X2522444Y-9346008D01*
X2522444Y-9346008D02*
X2531968Y-9355531D01*
X2531968Y-9355531D02*
X2541491Y-9374579D01*
X2541491Y-9374579D02*
X2551015Y-9412674D01*
X2551015Y-9412674D02*
X2551015Y-9460293D01*
X2551015Y-9460293D02*
X2541491Y-9498389D01*
X2541491Y-9498389D02*
X2531968Y-9517436D01*
X2531968Y-9517436D02*
X2522444Y-9526960D01*
X2522444Y-9526960D02*
X2503396Y-9536484D01*
X2503396Y-9536484D02*
X2484348Y-9536484D01*
X2484348Y-9536484D02*
X2465301Y-9526960D01*
X2465301Y-9526960D02*
X2455777Y-9517436D01*
X2455777Y-9517436D02*
X2446253Y-9498389D01*
X2446253Y-9498389D02*
X2436729Y-9460293D01*
X2436729Y-9460293D02*
X2436729Y-9412674D01*
X2436729Y-9412674D02*
X2446253Y-9374579D01*
X2446253Y-9374579D02*
X2455777Y-9355531D01*
X2455777Y-9355531D02*
X2465301Y-9346008D01*
X2465301Y-9346008D02*
X2484348Y-9336484D01*
X2741491Y-9536484D02*
X2627206Y-9536484D01*
X2684348Y-9536484D02*
X2684348Y-9336484D01*
X2684348Y-9336484D02*
X2665301Y-9365055D01*
X2665301Y-9365055D02*
X2646253Y-9384103D01*
X2646253Y-9384103D02*
X2627206Y-9393627D01*
X2922444Y-9336484D02*
X2827206Y-9336484D01*
X2827206Y-9336484D02*
X2817682Y-9431722D01*
X2817682Y-9431722D02*
X2827206Y-9422198D01*
X2827206Y-9422198D02*
X2846253Y-9412674D01*
X2846253Y-9412674D02*
X2893872Y-9412674D01*
X2893872Y-9412674D02*
X2912920Y-9422198D01*
X2912920Y-9422198D02*
X2922444Y-9431722D01*
X2922444Y-9431722D02*
X2931967Y-9450770D01*
X2931967Y-9450770D02*
X2931967Y-9498389D01*
X2931967Y-9498389D02*
X2922444Y-9517436D01*
X2922444Y-9517436D02*
X2912920Y-9526960D01*
X2912920Y-9526960D02*
X2893872Y-9536484D01*
X2893872Y-9536484D02*
X2846253Y-9536484D01*
X2846253Y-9536484D02*
X2827206Y-9526960D01*
X2827206Y-9526960D02*
X2817682Y-9517436D01*
X2998634Y-9336484D02*
X3131967Y-9336484D01*
X3131967Y-9336484D02*
X3046253Y-9536484D01*
X3198634Y-9336484D02*
X3198634Y-9374579D01*
X3274825Y-9336484D02*
X3274825Y-9374579D01*
X3570063Y-9612674D02*
X3560539Y-9603150D01*
X3560539Y-9603150D02*
X3541491Y-9574579D01*
X3541491Y-9574579D02*
X3531968Y-9555531D01*
X3531968Y-9555531D02*
X3522444Y-9526960D01*
X3522444Y-9526960D02*
X3512920Y-9479341D01*
X3512920Y-9479341D02*
X3512920Y-9441246D01*
X3512920Y-9441246D02*
X3522444Y-9393627D01*
X3522444Y-9393627D02*
X3531968Y-9365055D01*
X3531968Y-9365055D02*
X3541491Y-9346008D01*
X3541491Y-9346008D02*
X3560539Y-9317436D01*
X3560539Y-9317436D02*
X3570063Y-9307912D01*
X3731968Y-9403150D02*
X3731968Y-9536484D01*
X3684348Y-9326960D02*
X3636729Y-9469817D01*
X3636729Y-9469817D02*
X3760539Y-9469817D01*
X3989110Y-9536484D02*
X3989110Y-9336484D01*
X4074825Y-9536484D02*
X4074825Y-9431722D01*
X4074825Y-9431722D02*
X4065301Y-9412674D01*
X4065301Y-9412674D02*
X4046253Y-9403150D01*
X4046253Y-9403150D02*
X4017682Y-9403150D01*
X4017682Y-9403150D02*
X3998634Y-9412674D01*
X3998634Y-9412674D02*
X3989110Y-9422198D01*
X4198634Y-9536484D02*
X4179587Y-9526960D01*
X4179587Y-9526960D02*
X4170063Y-9517436D01*
X4170063Y-9517436D02*
X4160539Y-9498389D01*
X4160539Y-9498389D02*
X4160539Y-9441246D01*
X4160539Y-9441246D02*
X4170063Y-9422198D01*
X4170063Y-9422198D02*
X4179587Y-9412674D01*
X4179587Y-9412674D02*
X4198634Y-9403150D01*
X4198634Y-9403150D02*
X4227206Y-9403150D01*
X4227206Y-9403150D02*
X4246253Y-9412674D01*
X4246253Y-9412674D02*
X4255777Y-9422198D01*
X4255777Y-9422198D02*
X4265301Y-9441246D01*
X4265301Y-9441246D02*
X4265301Y-9498389D01*
X4265301Y-9498389D02*
X4255777Y-9517436D01*
X4255777Y-9517436D02*
X4246253Y-9526960D01*
X4246253Y-9526960D02*
X4227206Y-9536484D01*
X4227206Y-9536484D02*
X4198634Y-9536484D01*
X4379587Y-9536484D02*
X4360539Y-9526960D01*
X4360539Y-9526960D02*
X4351015Y-9507912D01*
X4351015Y-9507912D02*
X4351015Y-9336484D01*
X4531968Y-9526960D02*
X4512920Y-9536484D01*
X4512920Y-9536484D02*
X4474825Y-9536484D01*
X4474825Y-9536484D02*
X4455777Y-9526960D01*
X4455777Y-9526960D02*
X4446253Y-9507912D01*
X4446253Y-9507912D02*
X4446253Y-9431722D01*
X4446253Y-9431722D02*
X4455777Y-9412674D01*
X4455777Y-9412674D02*
X4474825Y-9403150D01*
X4474825Y-9403150D02*
X4512920Y-9403150D01*
X4512920Y-9403150D02*
X4531968Y-9412674D01*
X4531968Y-9412674D02*
X4541492Y-9431722D01*
X4541492Y-9431722D02*
X4541492Y-9450770D01*
X4541492Y-9450770D02*
X4446253Y-9469817D01*
X4617682Y-9526960D02*
X4636730Y-9536484D01*
X4636730Y-9536484D02*
X4674825Y-9536484D01*
X4674825Y-9536484D02*
X4693873Y-9526960D01*
X4693873Y-9526960D02*
X4703396Y-9507912D01*
X4703396Y-9507912D02*
X4703396Y-9498389D01*
X4703396Y-9498389D02*
X4693873Y-9479341D01*
X4693873Y-9479341D02*
X4674825Y-9469817D01*
X4674825Y-9469817D02*
X4646253Y-9469817D01*
X4646253Y-9469817D02*
X4627206Y-9460293D01*
X4627206Y-9460293D02*
X4617682Y-9441246D01*
X4617682Y-9441246D02*
X4617682Y-9431722D01*
X4617682Y-9431722D02*
X4627206Y-9412674D01*
X4627206Y-9412674D02*
X4646253Y-9403150D01*
X4646253Y-9403150D02*
X4674825Y-9403150D01*
X4674825Y-9403150D02*
X4693873Y-9412674D01*
X4770063Y-9612674D02*
X4779587Y-9603150D01*
X4779587Y-9603150D02*
X4798634Y-9574579D01*
X4798634Y-9574579D02*
X4808158Y-9555531D01*
X4808158Y-9555531D02*
X4817682Y-9526960D01*
X4817682Y-9526960D02*
X4827206Y-9479341D01*
X4827206Y-9479341D02*
X4827206Y-9441246D01*
X4827206Y-9441246D02*
X4817682Y-9393627D01*
X4817682Y-9393627D02*
X4808158Y-9365055D01*
X4808158Y-9365055D02*
X4798634Y-9346008D01*
X4798634Y-9346008D02*
X4779587Y-9317436D01*
X4779587Y-9317436D02*
X4770063Y-9307912D01*
D10*
X-5000Y-9709000D02*
G75*
G02*
X-85000Y-9709000I-40000J0D01*
G01*
X-85000Y-9709000D02*
G75*
G02*
X-5000Y-9709000I40000J0D01*
G01*
D11*
X293872Y-9600484D02*
X312920Y-9600484D01*
X312920Y-9600484D02*
X331967Y-9610008D01*
X331967Y-9610008D02*
X341491Y-9619531D01*
X341491Y-9619531D02*
X351015Y-9638579D01*
X351015Y-9638579D02*
X360539Y-9676674D01*
X360539Y-9676674D02*
X360539Y-9724293D01*
X360539Y-9724293D02*
X351015Y-9762389D01*
X351015Y-9762389D02*
X341491Y-9781436D01*
X341491Y-9781436D02*
X331967Y-9790960D01*
X331967Y-9790960D02*
X312920Y-9800484D01*
X312920Y-9800484D02*
X293872Y-9800484D01*
X293872Y-9800484D02*
X274824Y-9790960D01*
X274824Y-9790960D02*
X265301Y-9781436D01*
X265301Y-9781436D02*
X255777Y-9762389D01*
X255777Y-9762389D02*
X246253Y-9724293D01*
X246253Y-9724293D02*
X246253Y-9676674D01*
X246253Y-9676674D02*
X255777Y-9638579D01*
X255777Y-9638579D02*
X265301Y-9619531D01*
X265301Y-9619531D02*
X274824Y-9610008D01*
X274824Y-9610008D02*
X293872Y-9600484D01*
X446253Y-9781436D02*
X455777Y-9790960D01*
X455777Y-9790960D02*
X446253Y-9800484D01*
X446253Y-9800484D02*
X436729Y-9790960D01*
X436729Y-9790960D02*
X446253Y-9781436D01*
X446253Y-9781436D02*
X446253Y-9800484D01*
X570063Y-9686198D02*
X551015Y-9676674D01*
X551015Y-9676674D02*
X541491Y-9667150D01*
X541491Y-9667150D02*
X531967Y-9648103D01*
X531967Y-9648103D02*
X531967Y-9638579D01*
X531967Y-9638579D02*
X541491Y-9619531D01*
X541491Y-9619531D02*
X551015Y-9610008D01*
X551015Y-9610008D02*
X570063Y-9600484D01*
X570063Y-9600484D02*
X608158Y-9600484D01*
X608158Y-9600484D02*
X627205Y-9610008D01*
X627205Y-9610008D02*
X636729Y-9619531D01*
X636729Y-9619531D02*
X646253Y-9638579D01*
X646253Y-9638579D02*
X646253Y-9648103D01*
X646253Y-9648103D02*
X636729Y-9667150D01*
X636729Y-9667150D02*
X627205Y-9676674D01*
X627205Y-9676674D02*
X608158Y-9686198D01*
X608158Y-9686198D02*
X570063Y-9686198D01*
X570063Y-9686198D02*
X551015Y-9695722D01*
X551015Y-9695722D02*
X541491Y-9705246D01*
X541491Y-9705246D02*
X531967Y-9724293D01*
X531967Y-9724293D02*
X531967Y-9762389D01*
X531967Y-9762389D02*
X541491Y-9781436D01*
X541491Y-9781436D02*
X551015Y-9790960D01*
X551015Y-9790960D02*
X570063Y-9800484D01*
X570063Y-9800484D02*
X608158Y-9800484D01*
X608158Y-9800484D02*
X627205Y-9790960D01*
X627205Y-9790960D02*
X636729Y-9781436D01*
X636729Y-9781436D02*
X646253Y-9762389D01*
X646253Y-9762389D02*
X646253Y-9724293D01*
X646253Y-9724293D02*
X636729Y-9705246D01*
X636729Y-9705246D02*
X627205Y-9695722D01*
X627205Y-9695722D02*
X608158Y-9686198D01*
X770062Y-9600484D02*
X789110Y-9600484D01*
X789110Y-9600484D02*
X808158Y-9610008D01*
X808158Y-9610008D02*
X817682Y-9619531D01*
X817682Y-9619531D02*
X827205Y-9638579D01*
X827205Y-9638579D02*
X836729Y-9676674D01*
X836729Y-9676674D02*
X836729Y-9724293D01*
X836729Y-9724293D02*
X827205Y-9762389D01*
X827205Y-9762389D02*
X817682Y-9781436D01*
X817682Y-9781436D02*
X808158Y-9790960D01*
X808158Y-9790960D02*
X789110Y-9800484D01*
X789110Y-9800484D02*
X770062Y-9800484D01*
X770062Y-9800484D02*
X751015Y-9790960D01*
X751015Y-9790960D02*
X741491Y-9781436D01*
X741491Y-9781436D02*
X731967Y-9762389D01*
X731967Y-9762389D02*
X722443Y-9724293D01*
X722443Y-9724293D02*
X722443Y-9676674D01*
X722443Y-9676674D02*
X731967Y-9638579D01*
X731967Y-9638579D02*
X741491Y-9619531D01*
X741491Y-9619531D02*
X751015Y-9610008D01*
X751015Y-9610008D02*
X770062Y-9600484D01*
X960539Y-9600484D02*
X979586Y-9600484D01*
X979586Y-9600484D02*
X998634Y-9610008D01*
X998634Y-9610008D02*
X1008158Y-9619531D01*
X1008158Y-9619531D02*
X1017682Y-9638579D01*
X1017682Y-9638579D02*
X1027205Y-9676674D01*
X1027205Y-9676674D02*
X1027205Y-9724293D01*
X1027205Y-9724293D02*
X1017682Y-9762389D01*
X1017682Y-9762389D02*
X1008158Y-9781436D01*
X1008158Y-9781436D02*
X998634Y-9790960D01*
X998634Y-9790960D02*
X979586Y-9800484D01*
X979586Y-9800484D02*
X960539Y-9800484D01*
X960539Y-9800484D02*
X941491Y-9790960D01*
X941491Y-9790960D02*
X931967Y-9781436D01*
X931967Y-9781436D02*
X922443Y-9762389D01*
X922443Y-9762389D02*
X912920Y-9724293D01*
X912920Y-9724293D02*
X912920Y-9676674D01*
X912920Y-9676674D02*
X922443Y-9638579D01*
X922443Y-9638579D02*
X931967Y-9619531D01*
X931967Y-9619531D02*
X941491Y-9610008D01*
X941491Y-9610008D02*
X960539Y-9600484D01*
X1112920Y-9800484D02*
X1112920Y-9667150D01*
X1112920Y-9686198D02*
X1122444Y-9676674D01*
X1122444Y-9676674D02*
X1141491Y-9667150D01*
X1141491Y-9667150D02*
X1170063Y-9667150D01*
X1170063Y-9667150D02*
X1189110Y-9676674D01*
X1189110Y-9676674D02*
X1198634Y-9695722D01*
X1198634Y-9695722D02*
X1198634Y-9800484D01*
X1198634Y-9695722D02*
X1208158Y-9676674D01*
X1208158Y-9676674D02*
X1227205Y-9667150D01*
X1227205Y-9667150D02*
X1255777Y-9667150D01*
X1255777Y-9667150D02*
X1274825Y-9676674D01*
X1274825Y-9676674D02*
X1284348Y-9695722D01*
X1284348Y-9695722D02*
X1284348Y-9800484D01*
X1379586Y-9800484D02*
X1379586Y-9667150D01*
X1379586Y-9686198D02*
X1389110Y-9676674D01*
X1389110Y-9676674D02*
X1408158Y-9667150D01*
X1408158Y-9667150D02*
X1436729Y-9667150D01*
X1436729Y-9667150D02*
X1455777Y-9676674D01*
X1455777Y-9676674D02*
X1465301Y-9695722D01*
X1465301Y-9695722D02*
X1465301Y-9800484D01*
X1465301Y-9695722D02*
X1474824Y-9676674D01*
X1474824Y-9676674D02*
X1493872Y-9667150D01*
X1493872Y-9667150D02*
X1522443Y-9667150D01*
X1522443Y-9667150D02*
X1541491Y-9676674D01*
X1541491Y-9676674D02*
X1551015Y-9695722D01*
X1551015Y-9695722D02*
X1551015Y-9800484D01*
X1941491Y-9590960D02*
X1770063Y-9848103D01*
X2198634Y-9600484D02*
X2217682Y-9600484D01*
X2217682Y-9600484D02*
X2236729Y-9610008D01*
X2236729Y-9610008D02*
X2246253Y-9619531D01*
X2246253Y-9619531D02*
X2255777Y-9638579D01*
X2255777Y-9638579D02*
X2265301Y-9676674D01*
X2265301Y-9676674D02*
X2265301Y-9724293D01*
X2265301Y-9724293D02*
X2255777Y-9762389D01*
X2255777Y-9762389D02*
X2246253Y-9781436D01*
X2246253Y-9781436D02*
X2236729Y-9790960D01*
X2236729Y-9790960D02*
X2217682Y-9800484D01*
X2217682Y-9800484D02*
X2198634Y-9800484D01*
X2198634Y-9800484D02*
X2179587Y-9790960D01*
X2179587Y-9790960D02*
X2170063Y-9781436D01*
X2170063Y-9781436D02*
X2160539Y-9762389D01*
X2160539Y-9762389D02*
X2151015Y-9724293D01*
X2151015Y-9724293D02*
X2151015Y-9676674D01*
X2151015Y-9676674D02*
X2160539Y-9638579D01*
X2160539Y-9638579D02*
X2170063Y-9619531D01*
X2170063Y-9619531D02*
X2179587Y-9610008D01*
X2179587Y-9610008D02*
X2198634Y-9600484D01*
X2351015Y-9781436D02*
X2360539Y-9790960D01*
X2360539Y-9790960D02*
X2351015Y-9800484D01*
X2351015Y-9800484D02*
X2341491Y-9790960D01*
X2341491Y-9790960D02*
X2351015Y-9781436D01*
X2351015Y-9781436D02*
X2351015Y-9800484D01*
X2484348Y-9600484D02*
X2503396Y-9600484D01*
X2503396Y-9600484D02*
X2522444Y-9610008D01*
X2522444Y-9610008D02*
X2531968Y-9619531D01*
X2531968Y-9619531D02*
X2541491Y-9638579D01*
X2541491Y-9638579D02*
X2551015Y-9676674D01*
X2551015Y-9676674D02*
X2551015Y-9724293D01*
X2551015Y-9724293D02*
X2541491Y-9762389D01*
X2541491Y-9762389D02*
X2531968Y-9781436D01*
X2531968Y-9781436D02*
X2522444Y-9790960D01*
X2522444Y-9790960D02*
X2503396Y-9800484D01*
X2503396Y-9800484D02*
X2484348Y-9800484D01*
X2484348Y-9800484D02*
X2465301Y-9790960D01*
X2465301Y-9790960D02*
X2455777Y-9781436D01*
X2455777Y-9781436D02*
X2446253Y-9762389D01*
X2446253Y-9762389D02*
X2436729Y-9724293D01*
X2436729Y-9724293D02*
X2436729Y-9676674D01*
X2436729Y-9676674D02*
X2446253Y-9638579D01*
X2446253Y-9638579D02*
X2455777Y-9619531D01*
X2455777Y-9619531D02*
X2465301Y-9610008D01*
X2465301Y-9610008D02*
X2484348Y-9600484D01*
X2617682Y-9600484D02*
X2741491Y-9600484D01*
X2741491Y-9600484D02*
X2674825Y-9676674D01*
X2674825Y-9676674D02*
X2703396Y-9676674D01*
X2703396Y-9676674D02*
X2722444Y-9686198D01*
X2722444Y-9686198D02*
X2731968Y-9695722D01*
X2731968Y-9695722D02*
X2741491Y-9714770D01*
X2741491Y-9714770D02*
X2741491Y-9762389D01*
X2741491Y-9762389D02*
X2731968Y-9781436D01*
X2731968Y-9781436D02*
X2722444Y-9790960D01*
X2722444Y-9790960D02*
X2703396Y-9800484D01*
X2703396Y-9800484D02*
X2646253Y-9800484D01*
X2646253Y-9800484D02*
X2627206Y-9790960D01*
X2627206Y-9790960D02*
X2617682Y-9781436D01*
X2931967Y-9800484D02*
X2817682Y-9800484D01*
X2874825Y-9800484D02*
X2874825Y-9600484D01*
X2874825Y-9600484D02*
X2855777Y-9629055D01*
X2855777Y-9629055D02*
X2836729Y-9648103D01*
X2836729Y-9648103D02*
X2817682Y-9657627D01*
X3112920Y-9600484D02*
X3017682Y-9600484D01*
X3017682Y-9600484D02*
X3008158Y-9695722D01*
X3008158Y-9695722D02*
X3017682Y-9686198D01*
X3017682Y-9686198D02*
X3036729Y-9676674D01*
X3036729Y-9676674D02*
X3084348Y-9676674D01*
X3084348Y-9676674D02*
X3103396Y-9686198D01*
X3103396Y-9686198D02*
X3112920Y-9695722D01*
X3112920Y-9695722D02*
X3122444Y-9714770D01*
X3122444Y-9714770D02*
X3122444Y-9762389D01*
X3122444Y-9762389D02*
X3112920Y-9781436D01*
X3112920Y-9781436D02*
X3103396Y-9790960D01*
X3103396Y-9790960D02*
X3084348Y-9800484D01*
X3084348Y-9800484D02*
X3036729Y-9800484D01*
X3036729Y-9800484D02*
X3017682Y-9790960D01*
X3017682Y-9790960D02*
X3008158Y-9781436D01*
X3198634Y-9600484D02*
X3198634Y-9638579D01*
X3274825Y-9600484D02*
X3274825Y-9638579D01*
X3570063Y-9876674D02*
X3560539Y-9867150D01*
X3560539Y-9867150D02*
X3541491Y-9838579D01*
X3541491Y-9838579D02*
X3531968Y-9819531D01*
X3531968Y-9819531D02*
X3522444Y-9790960D01*
X3522444Y-9790960D02*
X3512920Y-9743341D01*
X3512920Y-9743341D02*
X3512920Y-9705246D01*
X3512920Y-9705246D02*
X3522444Y-9657627D01*
X3522444Y-9657627D02*
X3531968Y-9629055D01*
X3531968Y-9629055D02*
X3541491Y-9610008D01*
X3541491Y-9610008D02*
X3560539Y-9581436D01*
X3560539Y-9581436D02*
X3570063Y-9571912D01*
X3731968Y-9600484D02*
X3693872Y-9600484D01*
X3693872Y-9600484D02*
X3674825Y-9610008D01*
X3674825Y-9610008D02*
X3665301Y-9619531D01*
X3665301Y-9619531D02*
X3646253Y-9648103D01*
X3646253Y-9648103D02*
X3636729Y-9686198D01*
X3636729Y-9686198D02*
X3636729Y-9762389D01*
X3636729Y-9762389D02*
X3646253Y-9781436D01*
X3646253Y-9781436D02*
X3655777Y-9790960D01*
X3655777Y-9790960D02*
X3674825Y-9800484D01*
X3674825Y-9800484D02*
X3712920Y-9800484D01*
X3712920Y-9800484D02*
X3731968Y-9790960D01*
X3731968Y-9790960D02*
X3741491Y-9781436D01*
X3741491Y-9781436D02*
X3751015Y-9762389D01*
X3751015Y-9762389D02*
X3751015Y-9714770D01*
X3751015Y-9714770D02*
X3741491Y-9695722D01*
X3741491Y-9695722D02*
X3731968Y-9686198D01*
X3731968Y-9686198D02*
X3712920Y-9676674D01*
X3712920Y-9676674D02*
X3674825Y-9676674D01*
X3674825Y-9676674D02*
X3655777Y-9686198D01*
X3655777Y-9686198D02*
X3646253Y-9695722D01*
X3646253Y-9695722D02*
X3636729Y-9714770D01*
X3922444Y-9600484D02*
X3884348Y-9600484D01*
X3884348Y-9600484D02*
X3865301Y-9610008D01*
X3865301Y-9610008D02*
X3855777Y-9619531D01*
X3855777Y-9619531D02*
X3836729Y-9648103D01*
X3836729Y-9648103D02*
X3827206Y-9686198D01*
X3827206Y-9686198D02*
X3827206Y-9762389D01*
X3827206Y-9762389D02*
X3836729Y-9781436D01*
X3836729Y-9781436D02*
X3846253Y-9790960D01*
X3846253Y-9790960D02*
X3865301Y-9800484D01*
X3865301Y-9800484D02*
X3903396Y-9800484D01*
X3903396Y-9800484D02*
X3922444Y-9790960D01*
X3922444Y-9790960D02*
X3931968Y-9781436D01*
X3931968Y-9781436D02*
X3941491Y-9762389D01*
X3941491Y-9762389D02*
X3941491Y-9714770D01*
X3941491Y-9714770D02*
X3931968Y-9695722D01*
X3931968Y-9695722D02*
X3922444Y-9686198D01*
X3922444Y-9686198D02*
X3903396Y-9676674D01*
X3903396Y-9676674D02*
X3865301Y-9676674D01*
X3865301Y-9676674D02*
X3846253Y-9686198D01*
X3846253Y-9686198D02*
X3836729Y-9695722D01*
X3836729Y-9695722D02*
X3827206Y-9714770D01*
X4179587Y-9800484D02*
X4179587Y-9600484D01*
X4265301Y-9800484D02*
X4265301Y-9695722D01*
X4265301Y-9695722D02*
X4255777Y-9676674D01*
X4255777Y-9676674D02*
X4236730Y-9667150D01*
X4236730Y-9667150D02*
X4208158Y-9667150D01*
X4208158Y-9667150D02*
X4189110Y-9676674D01*
X4189110Y-9676674D02*
X4179587Y-9686198D01*
X4389111Y-9800484D02*
X4370063Y-9790960D01*
X4370063Y-9790960D02*
X4360539Y-9781436D01*
X4360539Y-9781436D02*
X4351015Y-9762389D01*
X4351015Y-9762389D02*
X4351015Y-9705246D01*
X4351015Y-9705246D02*
X4360539Y-9686198D01*
X4360539Y-9686198D02*
X4370063Y-9676674D01*
X4370063Y-9676674D02*
X4389111Y-9667150D01*
X4389111Y-9667150D02*
X4417682Y-9667150D01*
X4417682Y-9667150D02*
X4436730Y-9676674D01*
X4436730Y-9676674D02*
X4446253Y-9686198D01*
X4446253Y-9686198D02*
X4455777Y-9705246D01*
X4455777Y-9705246D02*
X4455777Y-9762389D01*
X4455777Y-9762389D02*
X4446253Y-9781436D01*
X4446253Y-9781436D02*
X4436730Y-9790960D01*
X4436730Y-9790960D02*
X4417682Y-9800484D01*
X4417682Y-9800484D02*
X4389111Y-9800484D01*
X4570063Y-9800484D02*
X4551015Y-9790960D01*
X4551015Y-9790960D02*
X4541492Y-9771912D01*
X4541492Y-9771912D02*
X4541492Y-9600484D01*
X4722444Y-9790960D02*
X4703396Y-9800484D01*
X4703396Y-9800484D02*
X4665301Y-9800484D01*
X4665301Y-9800484D02*
X4646253Y-9790960D01*
X4646253Y-9790960D02*
X4636730Y-9771912D01*
X4636730Y-9771912D02*
X4636730Y-9695722D01*
X4636730Y-9695722D02*
X4646253Y-9676674D01*
X4646253Y-9676674D02*
X4665301Y-9667150D01*
X4665301Y-9667150D02*
X4703396Y-9667150D01*
X4703396Y-9667150D02*
X4722444Y-9676674D01*
X4722444Y-9676674D02*
X4731968Y-9695722D01*
X4731968Y-9695722D02*
X4731968Y-9714770D01*
X4731968Y-9714770D02*
X4636730Y-9733817D01*
X4808158Y-9790960D02*
X4827206Y-9800484D01*
X4827206Y-9800484D02*
X4865301Y-9800484D01*
X4865301Y-9800484D02*
X4884349Y-9790960D01*
X4884349Y-9790960D02*
X4893873Y-9771912D01*
X4893873Y-9771912D02*
X4893873Y-9762389D01*
X4893873Y-9762389D02*
X4884349Y-9743341D01*
X4884349Y-9743341D02*
X4865301Y-9733817D01*
X4865301Y-9733817D02*
X4836730Y-9733817D01*
X4836730Y-9733817D02*
X4817682Y-9724293D01*
X4817682Y-9724293D02*
X4808158Y-9705246D01*
X4808158Y-9705246D02*
X4808158Y-9695722D01*
X4808158Y-9695722D02*
X4817682Y-9676674D01*
X4817682Y-9676674D02*
X4836730Y-9667150D01*
X4836730Y-9667150D02*
X4865301Y-9667150D01*
X4865301Y-9667150D02*
X4884349Y-9676674D01*
X4960539Y-9876674D02*
X4970063Y-9867150D01*
X4970063Y-9867150D02*
X4989111Y-9838579D01*
X4989111Y-9838579D02*
X4998634Y-9819531D01*
X4998634Y-9819531D02*
X5008158Y-9790960D01*
X5008158Y-9790960D02*
X5017682Y-9743341D01*
X5017682Y-9743341D02*
X5017682Y-9705246D01*
X5017682Y-9705246D02*
X5008158Y-9657627D01*
X5008158Y-9657627D02*
X4998634Y-9629055D01*
X4998634Y-9629055D02*
X4989111Y-9610008D01*
X4989111Y-9610008D02*
X4970063Y-9581436D01*
X4970063Y-9581436D02*
X4960539Y-9571912D01*
D10*
X-49450Y-9928550D02*
X-49450Y-10017450D01*
X-93900Y-9973000D02*
X-5000Y-9973000D01*
D11*
X293872Y-9864484D02*
X312920Y-9864484D01*
X312920Y-9864484D02*
X331967Y-9874008D01*
X331967Y-9874008D02*
X341491Y-9883531D01*
X341491Y-9883531D02*
X351015Y-9902579D01*
X351015Y-9902579D02*
X360539Y-9940674D01*
X360539Y-9940674D02*
X360539Y-9988293D01*
X360539Y-9988293D02*
X351015Y-10026389D01*
X351015Y-10026389D02*
X341491Y-10045436D01*
X341491Y-10045436D02*
X331967Y-10054960D01*
X331967Y-10054960D02*
X312920Y-10064484D01*
X312920Y-10064484D02*
X293872Y-10064484D01*
X293872Y-10064484D02*
X274824Y-10054960D01*
X274824Y-10054960D02*
X265301Y-10045436D01*
X265301Y-10045436D02*
X255777Y-10026389D01*
X255777Y-10026389D02*
X246253Y-9988293D01*
X246253Y-9988293D02*
X246253Y-9940674D01*
X246253Y-9940674D02*
X255777Y-9902579D01*
X255777Y-9902579D02*
X265301Y-9883531D01*
X265301Y-9883531D02*
X274824Y-9874008D01*
X274824Y-9874008D02*
X293872Y-9864484D01*
X446253Y-10045436D02*
X455777Y-10054960D01*
X455777Y-10054960D02*
X446253Y-10064484D01*
X446253Y-10064484D02*
X436729Y-10054960D01*
X436729Y-10054960D02*
X446253Y-10045436D01*
X446253Y-10045436D02*
X446253Y-10064484D01*
X570063Y-9950198D02*
X551015Y-9940674D01*
X551015Y-9940674D02*
X541491Y-9931150D01*
X541491Y-9931150D02*
X531967Y-9912103D01*
X531967Y-9912103D02*
X531967Y-9902579D01*
X531967Y-9902579D02*
X541491Y-9883531D01*
X541491Y-9883531D02*
X551015Y-9874008D01*
X551015Y-9874008D02*
X570063Y-9864484D01*
X570063Y-9864484D02*
X608158Y-9864484D01*
X608158Y-9864484D02*
X627205Y-9874008D01*
X627205Y-9874008D02*
X636729Y-9883531D01*
X636729Y-9883531D02*
X646253Y-9902579D01*
X646253Y-9902579D02*
X646253Y-9912103D01*
X646253Y-9912103D02*
X636729Y-9931150D01*
X636729Y-9931150D02*
X627205Y-9940674D01*
X627205Y-9940674D02*
X608158Y-9950198D01*
X608158Y-9950198D02*
X570063Y-9950198D01*
X570063Y-9950198D02*
X551015Y-9959722D01*
X551015Y-9959722D02*
X541491Y-9969246D01*
X541491Y-9969246D02*
X531967Y-9988293D01*
X531967Y-9988293D02*
X531967Y-10026389D01*
X531967Y-10026389D02*
X541491Y-10045436D01*
X541491Y-10045436D02*
X551015Y-10054960D01*
X551015Y-10054960D02*
X570063Y-10064484D01*
X570063Y-10064484D02*
X608158Y-10064484D01*
X608158Y-10064484D02*
X627205Y-10054960D01*
X627205Y-10054960D02*
X636729Y-10045436D01*
X636729Y-10045436D02*
X646253Y-10026389D01*
X646253Y-10026389D02*
X646253Y-9988293D01*
X646253Y-9988293D02*
X636729Y-9969246D01*
X636729Y-9969246D02*
X627205Y-9959722D01*
X627205Y-9959722D02*
X608158Y-9950198D01*
X760539Y-9950198D02*
X741491Y-9940674D01*
X741491Y-9940674D02*
X731967Y-9931150D01*
X731967Y-9931150D02*
X722443Y-9912103D01*
X722443Y-9912103D02*
X722443Y-9902579D01*
X722443Y-9902579D02*
X731967Y-9883531D01*
X731967Y-9883531D02*
X741491Y-9874008D01*
X741491Y-9874008D02*
X760539Y-9864484D01*
X760539Y-9864484D02*
X798634Y-9864484D01*
X798634Y-9864484D02*
X817682Y-9874008D01*
X817682Y-9874008D02*
X827205Y-9883531D01*
X827205Y-9883531D02*
X836729Y-9902579D01*
X836729Y-9902579D02*
X836729Y-9912103D01*
X836729Y-9912103D02*
X827205Y-9931150D01*
X827205Y-9931150D02*
X817682Y-9940674D01*
X817682Y-9940674D02*
X798634Y-9950198D01*
X798634Y-9950198D02*
X760539Y-9950198D01*
X760539Y-9950198D02*
X741491Y-9959722D01*
X741491Y-9959722D02*
X731967Y-9969246D01*
X731967Y-9969246D02*
X722443Y-9988293D01*
X722443Y-9988293D02*
X722443Y-10026389D01*
X722443Y-10026389D02*
X731967Y-10045436D01*
X731967Y-10045436D02*
X741491Y-10054960D01*
X741491Y-10054960D02*
X760539Y-10064484D01*
X760539Y-10064484D02*
X798634Y-10064484D01*
X798634Y-10064484D02*
X817682Y-10054960D01*
X817682Y-10054960D02*
X827205Y-10045436D01*
X827205Y-10045436D02*
X836729Y-10026389D01*
X836729Y-10026389D02*
X836729Y-9988293D01*
X836729Y-9988293D02*
X827205Y-9969246D01*
X827205Y-9969246D02*
X817682Y-9959722D01*
X817682Y-9959722D02*
X798634Y-9950198D01*
X931967Y-10064484D02*
X970062Y-10064484D01*
X970062Y-10064484D02*
X989110Y-10054960D01*
X989110Y-10054960D02*
X998634Y-10045436D01*
X998634Y-10045436D02*
X1017682Y-10016865D01*
X1017682Y-10016865D02*
X1027205Y-9978770D01*
X1027205Y-9978770D02*
X1027205Y-9902579D01*
X1027205Y-9902579D02*
X1017682Y-9883531D01*
X1017682Y-9883531D02*
X1008158Y-9874008D01*
X1008158Y-9874008D02*
X989110Y-9864484D01*
X989110Y-9864484D02*
X951015Y-9864484D01*
X951015Y-9864484D02*
X931967Y-9874008D01*
X931967Y-9874008D02*
X922443Y-9883531D01*
X922443Y-9883531D02*
X912920Y-9902579D01*
X912920Y-9902579D02*
X912920Y-9950198D01*
X912920Y-9950198D02*
X922443Y-9969246D01*
X922443Y-9969246D02*
X931967Y-9978770D01*
X931967Y-9978770D02*
X951015Y-9988293D01*
X951015Y-9988293D02*
X989110Y-9988293D01*
X989110Y-9988293D02*
X1008158Y-9978770D01*
X1008158Y-9978770D02*
X1017682Y-9969246D01*
X1017682Y-9969246D02*
X1027205Y-9950198D01*
X1112920Y-10064484D02*
X1112920Y-9931150D01*
X1112920Y-9950198D02*
X1122444Y-9940674D01*
X1122444Y-9940674D02*
X1141491Y-9931150D01*
X1141491Y-9931150D02*
X1170063Y-9931150D01*
X1170063Y-9931150D02*
X1189110Y-9940674D01*
X1189110Y-9940674D02*
X1198634Y-9959722D01*
X1198634Y-9959722D02*
X1198634Y-10064484D01*
X1198634Y-9959722D02*
X1208158Y-9940674D01*
X1208158Y-9940674D02*
X1227205Y-9931150D01*
X1227205Y-9931150D02*
X1255777Y-9931150D01*
X1255777Y-9931150D02*
X1274825Y-9940674D01*
X1274825Y-9940674D02*
X1284348Y-9959722D01*
X1284348Y-9959722D02*
X1284348Y-10064484D01*
X1379586Y-10064484D02*
X1379586Y-9931150D01*
X1379586Y-9950198D02*
X1389110Y-9940674D01*
X1389110Y-9940674D02*
X1408158Y-9931150D01*
X1408158Y-9931150D02*
X1436729Y-9931150D01*
X1436729Y-9931150D02*
X1455777Y-9940674D01*
X1455777Y-9940674D02*
X1465301Y-9959722D01*
X1465301Y-9959722D02*
X1465301Y-10064484D01*
X1465301Y-9959722D02*
X1474824Y-9940674D01*
X1474824Y-9940674D02*
X1493872Y-9931150D01*
X1493872Y-9931150D02*
X1522443Y-9931150D01*
X1522443Y-9931150D02*
X1541491Y-9940674D01*
X1541491Y-9940674D02*
X1551015Y-9959722D01*
X1551015Y-9959722D02*
X1551015Y-10064484D01*
X1941491Y-9854960D02*
X1770063Y-10112103D01*
X2198634Y-9864484D02*
X2217682Y-9864484D01*
X2217682Y-9864484D02*
X2236729Y-9874008D01*
X2236729Y-9874008D02*
X2246253Y-9883531D01*
X2246253Y-9883531D02*
X2255777Y-9902579D01*
X2255777Y-9902579D02*
X2265301Y-9940674D01*
X2265301Y-9940674D02*
X2265301Y-9988293D01*
X2265301Y-9988293D02*
X2255777Y-10026389D01*
X2255777Y-10026389D02*
X2246253Y-10045436D01*
X2246253Y-10045436D02*
X2236729Y-10054960D01*
X2236729Y-10054960D02*
X2217682Y-10064484D01*
X2217682Y-10064484D02*
X2198634Y-10064484D01*
X2198634Y-10064484D02*
X2179587Y-10054960D01*
X2179587Y-10054960D02*
X2170063Y-10045436D01*
X2170063Y-10045436D02*
X2160539Y-10026389D01*
X2160539Y-10026389D02*
X2151015Y-9988293D01*
X2151015Y-9988293D02*
X2151015Y-9940674D01*
X2151015Y-9940674D02*
X2160539Y-9902579D01*
X2160539Y-9902579D02*
X2170063Y-9883531D01*
X2170063Y-9883531D02*
X2179587Y-9874008D01*
X2179587Y-9874008D02*
X2198634Y-9864484D01*
X2351015Y-10045436D02*
X2360539Y-10054960D01*
X2360539Y-10054960D02*
X2351015Y-10064484D01*
X2351015Y-10064484D02*
X2341491Y-10054960D01*
X2341491Y-10054960D02*
X2351015Y-10045436D01*
X2351015Y-10045436D02*
X2351015Y-10064484D01*
X2484348Y-9864484D02*
X2503396Y-9864484D01*
X2503396Y-9864484D02*
X2522444Y-9874008D01*
X2522444Y-9874008D02*
X2531968Y-9883531D01*
X2531968Y-9883531D02*
X2541491Y-9902579D01*
X2541491Y-9902579D02*
X2551015Y-9940674D01*
X2551015Y-9940674D02*
X2551015Y-9988293D01*
X2551015Y-9988293D02*
X2541491Y-10026389D01*
X2541491Y-10026389D02*
X2531968Y-10045436D01*
X2531968Y-10045436D02*
X2522444Y-10054960D01*
X2522444Y-10054960D02*
X2503396Y-10064484D01*
X2503396Y-10064484D02*
X2484348Y-10064484D01*
X2484348Y-10064484D02*
X2465301Y-10054960D01*
X2465301Y-10054960D02*
X2455777Y-10045436D01*
X2455777Y-10045436D02*
X2446253Y-10026389D01*
X2446253Y-10026389D02*
X2436729Y-9988293D01*
X2436729Y-9988293D02*
X2436729Y-9940674D01*
X2436729Y-9940674D02*
X2446253Y-9902579D01*
X2446253Y-9902579D02*
X2455777Y-9883531D01*
X2455777Y-9883531D02*
X2465301Y-9874008D01*
X2465301Y-9874008D02*
X2484348Y-9864484D01*
X2617682Y-9864484D02*
X2741491Y-9864484D01*
X2741491Y-9864484D02*
X2674825Y-9940674D01*
X2674825Y-9940674D02*
X2703396Y-9940674D01*
X2703396Y-9940674D02*
X2722444Y-9950198D01*
X2722444Y-9950198D02*
X2731968Y-9959722D01*
X2731968Y-9959722D02*
X2741491Y-9978770D01*
X2741491Y-9978770D02*
X2741491Y-10026389D01*
X2741491Y-10026389D02*
X2731968Y-10045436D01*
X2731968Y-10045436D02*
X2722444Y-10054960D01*
X2722444Y-10054960D02*
X2703396Y-10064484D01*
X2703396Y-10064484D02*
X2646253Y-10064484D01*
X2646253Y-10064484D02*
X2627206Y-10054960D01*
X2627206Y-10054960D02*
X2617682Y-10045436D01*
X2922444Y-9864484D02*
X2827206Y-9864484D01*
X2827206Y-9864484D02*
X2817682Y-9959722D01*
X2817682Y-9959722D02*
X2827206Y-9950198D01*
X2827206Y-9950198D02*
X2846253Y-9940674D01*
X2846253Y-9940674D02*
X2893872Y-9940674D01*
X2893872Y-9940674D02*
X2912920Y-9950198D01*
X2912920Y-9950198D02*
X2922444Y-9959722D01*
X2922444Y-9959722D02*
X2931967Y-9978770D01*
X2931967Y-9978770D02*
X2931967Y-10026389D01*
X2931967Y-10026389D02*
X2922444Y-10045436D01*
X2922444Y-10045436D02*
X2912920Y-10054960D01*
X2912920Y-10054960D02*
X2893872Y-10064484D01*
X2893872Y-10064484D02*
X2846253Y-10064484D01*
X2846253Y-10064484D02*
X2827206Y-10054960D01*
X2827206Y-10054960D02*
X2817682Y-10045436D01*
X3055777Y-9864484D02*
X3074825Y-9864484D01*
X3074825Y-9864484D02*
X3093872Y-9874008D01*
X3093872Y-9874008D02*
X3103396Y-9883531D01*
X3103396Y-9883531D02*
X3112920Y-9902579D01*
X3112920Y-9902579D02*
X3122444Y-9940674D01*
X3122444Y-9940674D02*
X3122444Y-9988293D01*
X3122444Y-9988293D02*
X3112920Y-10026389D01*
X3112920Y-10026389D02*
X3103396Y-10045436D01*
X3103396Y-10045436D02*
X3093872Y-10054960D01*
X3093872Y-10054960D02*
X3074825Y-10064484D01*
X3074825Y-10064484D02*
X3055777Y-10064484D01*
X3055777Y-10064484D02*
X3036729Y-10054960D01*
X3036729Y-10054960D02*
X3027206Y-10045436D01*
X3027206Y-10045436D02*
X3017682Y-10026389D01*
X3017682Y-10026389D02*
X3008158Y-9988293D01*
X3008158Y-9988293D02*
X3008158Y-9940674D01*
X3008158Y-9940674D02*
X3017682Y-9902579D01*
X3017682Y-9902579D02*
X3027206Y-9883531D01*
X3027206Y-9883531D02*
X3036729Y-9874008D01*
X3036729Y-9874008D02*
X3055777Y-9864484D01*
X3198634Y-9864484D02*
X3198634Y-9902579D01*
X3274825Y-9864484D02*
X3274825Y-9902579D01*
X3570063Y-10140674D02*
X3560539Y-10131150D01*
X3560539Y-10131150D02*
X3541491Y-10102579D01*
X3541491Y-10102579D02*
X3531968Y-10083531D01*
X3531968Y-10083531D02*
X3522444Y-10054960D01*
X3522444Y-10054960D02*
X3512920Y-10007341D01*
X3512920Y-10007341D02*
X3512920Y-9969246D01*
X3512920Y-9969246D02*
X3522444Y-9921627D01*
X3522444Y-9921627D02*
X3531968Y-9893055D01*
X3531968Y-9893055D02*
X3541491Y-9874008D01*
X3541491Y-9874008D02*
X3560539Y-9845436D01*
X3560539Y-9845436D02*
X3570063Y-9835912D01*
X3751015Y-10064484D02*
X3636729Y-10064484D01*
X3693872Y-10064484D02*
X3693872Y-9864484D01*
X3693872Y-9864484D02*
X3674825Y-9893055D01*
X3674825Y-9893055D02*
X3655777Y-9912103D01*
X3655777Y-9912103D02*
X3636729Y-9921627D01*
X3922444Y-9931150D02*
X3922444Y-10064484D01*
X3874825Y-9854960D02*
X3827206Y-9997817D01*
X3827206Y-9997817D02*
X3951015Y-9997817D01*
X4179587Y-10064484D02*
X4179587Y-9864484D01*
X4265301Y-10064484D02*
X4265301Y-9959722D01*
X4265301Y-9959722D02*
X4255777Y-9940674D01*
X4255777Y-9940674D02*
X4236730Y-9931150D01*
X4236730Y-9931150D02*
X4208158Y-9931150D01*
X4208158Y-9931150D02*
X4189110Y-9940674D01*
X4189110Y-9940674D02*
X4179587Y-9950198D01*
X4389111Y-10064484D02*
X4370063Y-10054960D01*
X4370063Y-10054960D02*
X4360539Y-10045436D01*
X4360539Y-10045436D02*
X4351015Y-10026389D01*
X4351015Y-10026389D02*
X4351015Y-9969246D01*
X4351015Y-9969246D02*
X4360539Y-9950198D01*
X4360539Y-9950198D02*
X4370063Y-9940674D01*
X4370063Y-9940674D02*
X4389111Y-9931150D01*
X4389111Y-9931150D02*
X4417682Y-9931150D01*
X4417682Y-9931150D02*
X4436730Y-9940674D01*
X4436730Y-9940674D02*
X4446253Y-9950198D01*
X4446253Y-9950198D02*
X4455777Y-9969246D01*
X4455777Y-9969246D02*
X4455777Y-10026389D01*
X4455777Y-10026389D02*
X4446253Y-10045436D01*
X4446253Y-10045436D02*
X4436730Y-10054960D01*
X4436730Y-10054960D02*
X4417682Y-10064484D01*
X4417682Y-10064484D02*
X4389111Y-10064484D01*
X4570063Y-10064484D02*
X4551015Y-10054960D01*
X4551015Y-10054960D02*
X4541492Y-10035912D01*
X4541492Y-10035912D02*
X4541492Y-9864484D01*
X4722444Y-10054960D02*
X4703396Y-10064484D01*
X4703396Y-10064484D02*
X4665301Y-10064484D01*
X4665301Y-10064484D02*
X4646253Y-10054960D01*
X4646253Y-10054960D02*
X4636730Y-10035912D01*
X4636730Y-10035912D02*
X4636730Y-9959722D01*
X4636730Y-9959722D02*
X4646253Y-9940674D01*
X4646253Y-9940674D02*
X4665301Y-9931150D01*
X4665301Y-9931150D02*
X4703396Y-9931150D01*
X4703396Y-9931150D02*
X4722444Y-9940674D01*
X4722444Y-9940674D02*
X4731968Y-9959722D01*
X4731968Y-9959722D02*
X4731968Y-9978770D01*
X4731968Y-9978770D02*
X4636730Y-9997817D01*
X4808158Y-10054960D02*
X4827206Y-10064484D01*
X4827206Y-10064484D02*
X4865301Y-10064484D01*
X4865301Y-10064484D02*
X4884349Y-10054960D01*
X4884349Y-10054960D02*
X4893873Y-10035912D01*
X4893873Y-10035912D02*
X4893873Y-10026389D01*
X4893873Y-10026389D02*
X4884349Y-10007341D01*
X4884349Y-10007341D02*
X4865301Y-9997817D01*
X4865301Y-9997817D02*
X4836730Y-9997817D01*
X4836730Y-9997817D02*
X4817682Y-9988293D01*
X4817682Y-9988293D02*
X4808158Y-9969246D01*
X4808158Y-9969246D02*
X4808158Y-9959722D01*
X4808158Y-9959722D02*
X4817682Y-9940674D01*
X4817682Y-9940674D02*
X4836730Y-9931150D01*
X4836730Y-9931150D02*
X4865301Y-9931150D01*
X4865301Y-9931150D02*
X4884349Y-9940674D01*
X4960539Y-10140674D02*
X4970063Y-10131150D01*
X4970063Y-10131150D02*
X4989111Y-10102579D01*
X4989111Y-10102579D02*
X4998634Y-10083531D01*
X4998634Y-10083531D02*
X5008158Y-10054960D01*
X5008158Y-10054960D02*
X5017682Y-10007341D01*
X5017682Y-10007341D02*
X5017682Y-9969246D01*
X5017682Y-9969246D02*
X5008158Y-9921627D01*
X5008158Y-9921627D02*
X4998634Y-9893055D01*
X4998634Y-9893055D02*
X4989111Y-9874008D01*
X4989111Y-9874008D02*
X4970063Y-9845436D01*
X4970063Y-9845436D02*
X4960539Y-9835912D01*
D10*
X-19644Y-10272356D02*
X-19644Y-10201644D01*
X-90356Y-10201644D01*
X-90356Y-10272356D01*
X-19644Y-10272356D01*
D11*
X360539Y-10328484D02*
X246253Y-10328484D01*
X303396Y-10328484D02*
X303396Y-10128484D01*
X303396Y-10128484D02*
X284348Y-10157055D01*
X284348Y-10157055D02*
X265301Y-10176103D01*
X265301Y-10176103D02*
X246253Y-10185627D01*
X446253Y-10309436D02*
X455777Y-10318960D01*
X455777Y-10318960D02*
X446253Y-10328484D01*
X446253Y-10328484D02*
X436729Y-10318960D01*
X436729Y-10318960D02*
X446253Y-10309436D01*
X446253Y-10309436D02*
X446253Y-10328484D01*
X579586Y-10128484D02*
X598634Y-10128484D01*
X598634Y-10128484D02*
X617682Y-10138008D01*
X617682Y-10138008D02*
X627205Y-10147531D01*
X627205Y-10147531D02*
X636729Y-10166579D01*
X636729Y-10166579D02*
X646253Y-10204674D01*
X646253Y-10204674D02*
X646253Y-10252293D01*
X646253Y-10252293D02*
X636729Y-10290389D01*
X636729Y-10290389D02*
X627205Y-10309436D01*
X627205Y-10309436D02*
X617682Y-10318960D01*
X617682Y-10318960D02*
X598634Y-10328484D01*
X598634Y-10328484D02*
X579586Y-10328484D01*
X579586Y-10328484D02*
X560539Y-10318960D01*
X560539Y-10318960D02*
X551015Y-10309436D01*
X551015Y-10309436D02*
X541491Y-10290389D01*
X541491Y-10290389D02*
X531967Y-10252293D01*
X531967Y-10252293D02*
X531967Y-10204674D01*
X531967Y-10204674D02*
X541491Y-10166579D01*
X541491Y-10166579D02*
X551015Y-10147531D01*
X551015Y-10147531D02*
X560539Y-10138008D01*
X560539Y-10138008D02*
X579586Y-10128484D01*
X770062Y-10128484D02*
X789110Y-10128484D01*
X789110Y-10128484D02*
X808158Y-10138008D01*
X808158Y-10138008D02*
X817682Y-10147531D01*
X817682Y-10147531D02*
X827205Y-10166579D01*
X827205Y-10166579D02*
X836729Y-10204674D01*
X836729Y-10204674D02*
X836729Y-10252293D01*
X836729Y-10252293D02*
X827205Y-10290389D01*
X827205Y-10290389D02*
X817682Y-10309436D01*
X817682Y-10309436D02*
X808158Y-10318960D01*
X808158Y-10318960D02*
X789110Y-10328484D01*
X789110Y-10328484D02*
X770062Y-10328484D01*
X770062Y-10328484D02*
X751015Y-10318960D01*
X751015Y-10318960D02*
X741491Y-10309436D01*
X741491Y-10309436D02*
X731967Y-10290389D01*
X731967Y-10290389D02*
X722443Y-10252293D01*
X722443Y-10252293D02*
X722443Y-10204674D01*
X722443Y-10204674D02*
X731967Y-10166579D01*
X731967Y-10166579D02*
X741491Y-10147531D01*
X741491Y-10147531D02*
X751015Y-10138008D01*
X751015Y-10138008D02*
X770062Y-10128484D01*
X960539Y-10128484D02*
X979586Y-10128484D01*
X979586Y-10128484D02*
X998634Y-10138008D01*
X998634Y-10138008D02*
X1008158Y-10147531D01*
X1008158Y-10147531D02*
X1017682Y-10166579D01*
X1017682Y-10166579D02*
X1027205Y-10204674D01*
X1027205Y-10204674D02*
X1027205Y-10252293D01*
X1027205Y-10252293D02*
X1017682Y-10290389D01*
X1017682Y-10290389D02*
X1008158Y-10309436D01*
X1008158Y-10309436D02*
X998634Y-10318960D01*
X998634Y-10318960D02*
X979586Y-10328484D01*
X979586Y-10328484D02*
X960539Y-10328484D01*
X960539Y-10328484D02*
X941491Y-10318960D01*
X941491Y-10318960D02*
X931967Y-10309436D01*
X931967Y-10309436D02*
X922443Y-10290389D01*
X922443Y-10290389D02*
X912920Y-10252293D01*
X912920Y-10252293D02*
X912920Y-10204674D01*
X912920Y-10204674D02*
X922443Y-10166579D01*
X922443Y-10166579D02*
X931967Y-10147531D01*
X931967Y-10147531D02*
X941491Y-10138008D01*
X941491Y-10138008D02*
X960539Y-10128484D01*
X1112920Y-10328484D02*
X1112920Y-10195150D01*
X1112920Y-10214198D02*
X1122444Y-10204674D01*
X1122444Y-10204674D02*
X1141491Y-10195150D01*
X1141491Y-10195150D02*
X1170063Y-10195150D01*
X1170063Y-10195150D02*
X1189110Y-10204674D01*
X1189110Y-10204674D02*
X1198634Y-10223722D01*
X1198634Y-10223722D02*
X1198634Y-10328484D01*
X1198634Y-10223722D02*
X1208158Y-10204674D01*
X1208158Y-10204674D02*
X1227205Y-10195150D01*
X1227205Y-10195150D02*
X1255777Y-10195150D01*
X1255777Y-10195150D02*
X1274825Y-10204674D01*
X1274825Y-10204674D02*
X1284348Y-10223722D01*
X1284348Y-10223722D02*
X1284348Y-10328484D01*
X1379586Y-10328484D02*
X1379586Y-10195150D01*
X1379586Y-10214198D02*
X1389110Y-10204674D01*
X1389110Y-10204674D02*
X1408158Y-10195150D01*
X1408158Y-10195150D02*
X1436729Y-10195150D01*
X1436729Y-10195150D02*
X1455777Y-10204674D01*
X1455777Y-10204674D02*
X1465301Y-10223722D01*
X1465301Y-10223722D02*
X1465301Y-10328484D01*
X1465301Y-10223722D02*
X1474824Y-10204674D01*
X1474824Y-10204674D02*
X1493872Y-10195150D01*
X1493872Y-10195150D02*
X1522443Y-10195150D01*
X1522443Y-10195150D02*
X1541491Y-10204674D01*
X1541491Y-10204674D02*
X1551015Y-10223722D01*
X1551015Y-10223722D02*
X1551015Y-10328484D01*
X1941491Y-10118960D02*
X1770063Y-10376103D01*
X2198634Y-10128484D02*
X2217682Y-10128484D01*
X2217682Y-10128484D02*
X2236729Y-10138008D01*
X2236729Y-10138008D02*
X2246253Y-10147531D01*
X2246253Y-10147531D02*
X2255777Y-10166579D01*
X2255777Y-10166579D02*
X2265301Y-10204674D01*
X2265301Y-10204674D02*
X2265301Y-10252293D01*
X2265301Y-10252293D02*
X2255777Y-10290389D01*
X2255777Y-10290389D02*
X2246253Y-10309436D01*
X2246253Y-10309436D02*
X2236729Y-10318960D01*
X2236729Y-10318960D02*
X2217682Y-10328484D01*
X2217682Y-10328484D02*
X2198634Y-10328484D01*
X2198634Y-10328484D02*
X2179587Y-10318960D01*
X2179587Y-10318960D02*
X2170063Y-10309436D01*
X2170063Y-10309436D02*
X2160539Y-10290389D01*
X2160539Y-10290389D02*
X2151015Y-10252293D01*
X2151015Y-10252293D02*
X2151015Y-10204674D01*
X2151015Y-10204674D02*
X2160539Y-10166579D01*
X2160539Y-10166579D02*
X2170063Y-10147531D01*
X2170063Y-10147531D02*
X2179587Y-10138008D01*
X2179587Y-10138008D02*
X2198634Y-10128484D01*
X2351015Y-10309436D02*
X2360539Y-10318960D01*
X2360539Y-10318960D02*
X2351015Y-10328484D01*
X2351015Y-10328484D02*
X2341491Y-10318960D01*
X2341491Y-10318960D02*
X2351015Y-10309436D01*
X2351015Y-10309436D02*
X2351015Y-10328484D01*
X2484348Y-10128484D02*
X2503396Y-10128484D01*
X2503396Y-10128484D02*
X2522444Y-10138008D01*
X2522444Y-10138008D02*
X2531968Y-10147531D01*
X2531968Y-10147531D02*
X2541491Y-10166579D01*
X2541491Y-10166579D02*
X2551015Y-10204674D01*
X2551015Y-10204674D02*
X2551015Y-10252293D01*
X2551015Y-10252293D02*
X2541491Y-10290389D01*
X2541491Y-10290389D02*
X2531968Y-10309436D01*
X2531968Y-10309436D02*
X2522444Y-10318960D01*
X2522444Y-10318960D02*
X2503396Y-10328484D01*
X2503396Y-10328484D02*
X2484348Y-10328484D01*
X2484348Y-10328484D02*
X2465301Y-10318960D01*
X2465301Y-10318960D02*
X2455777Y-10309436D01*
X2455777Y-10309436D02*
X2446253Y-10290389D01*
X2446253Y-10290389D02*
X2436729Y-10252293D01*
X2436729Y-10252293D02*
X2436729Y-10204674D01*
X2436729Y-10204674D02*
X2446253Y-10166579D01*
X2446253Y-10166579D02*
X2455777Y-10147531D01*
X2455777Y-10147531D02*
X2465301Y-10138008D01*
X2465301Y-10138008D02*
X2484348Y-10128484D01*
X2617682Y-10128484D02*
X2741491Y-10128484D01*
X2741491Y-10128484D02*
X2674825Y-10204674D01*
X2674825Y-10204674D02*
X2703396Y-10204674D01*
X2703396Y-10204674D02*
X2722444Y-10214198D01*
X2722444Y-10214198D02*
X2731968Y-10223722D01*
X2731968Y-10223722D02*
X2741491Y-10242770D01*
X2741491Y-10242770D02*
X2741491Y-10290389D01*
X2741491Y-10290389D02*
X2731968Y-10309436D01*
X2731968Y-10309436D02*
X2722444Y-10318960D01*
X2722444Y-10318960D02*
X2703396Y-10328484D01*
X2703396Y-10328484D02*
X2646253Y-10328484D01*
X2646253Y-10328484D02*
X2627206Y-10318960D01*
X2627206Y-10318960D02*
X2617682Y-10309436D01*
X2836729Y-10328484D02*
X2874825Y-10328484D01*
X2874825Y-10328484D02*
X2893872Y-10318960D01*
X2893872Y-10318960D02*
X2903396Y-10309436D01*
X2903396Y-10309436D02*
X2922444Y-10280865D01*
X2922444Y-10280865D02*
X2931967Y-10242770D01*
X2931967Y-10242770D02*
X2931967Y-10166579D01*
X2931967Y-10166579D02*
X2922444Y-10147531D01*
X2922444Y-10147531D02*
X2912920Y-10138008D01*
X2912920Y-10138008D02*
X2893872Y-10128484D01*
X2893872Y-10128484D02*
X2855777Y-10128484D01*
X2855777Y-10128484D02*
X2836729Y-10138008D01*
X2836729Y-10138008D02*
X2827206Y-10147531D01*
X2827206Y-10147531D02*
X2817682Y-10166579D01*
X2817682Y-10166579D02*
X2817682Y-10214198D01*
X2817682Y-10214198D02*
X2827206Y-10233246D01*
X2827206Y-10233246D02*
X2836729Y-10242770D01*
X2836729Y-10242770D02*
X2855777Y-10252293D01*
X2855777Y-10252293D02*
X2893872Y-10252293D01*
X2893872Y-10252293D02*
X2912920Y-10242770D01*
X2912920Y-10242770D02*
X2922444Y-10233246D01*
X2922444Y-10233246D02*
X2931967Y-10214198D01*
X3103396Y-10195150D02*
X3103396Y-10328484D01*
X3055777Y-10118960D02*
X3008158Y-10261817D01*
X3008158Y-10261817D02*
X3131967Y-10261817D01*
X3198634Y-10128484D02*
X3198634Y-10166579D01*
X3274825Y-10128484D02*
X3274825Y-10166579D01*
X3570063Y-10404674D02*
X3560539Y-10395150D01*
X3560539Y-10395150D02*
X3541491Y-10366579D01*
X3541491Y-10366579D02*
X3531968Y-10347531D01*
X3531968Y-10347531D02*
X3522444Y-10318960D01*
X3522444Y-10318960D02*
X3512920Y-10271341D01*
X3512920Y-10271341D02*
X3512920Y-10233246D01*
X3512920Y-10233246D02*
X3522444Y-10185627D01*
X3522444Y-10185627D02*
X3531968Y-10157055D01*
X3531968Y-10157055D02*
X3541491Y-10138008D01*
X3541491Y-10138008D02*
X3560539Y-10109436D01*
X3560539Y-10109436D02*
X3570063Y-10099912D01*
X3731968Y-10128484D02*
X3693872Y-10128484D01*
X3693872Y-10128484D02*
X3674825Y-10138008D01*
X3674825Y-10138008D02*
X3665301Y-10147531D01*
X3665301Y-10147531D02*
X3646253Y-10176103D01*
X3646253Y-10176103D02*
X3636729Y-10214198D01*
X3636729Y-10214198D02*
X3636729Y-10290389D01*
X3636729Y-10290389D02*
X3646253Y-10309436D01*
X3646253Y-10309436D02*
X3655777Y-10318960D01*
X3655777Y-10318960D02*
X3674825Y-10328484D01*
X3674825Y-10328484D02*
X3712920Y-10328484D01*
X3712920Y-10328484D02*
X3731968Y-10318960D01*
X3731968Y-10318960D02*
X3741491Y-10309436D01*
X3741491Y-10309436D02*
X3751015Y-10290389D01*
X3751015Y-10290389D02*
X3751015Y-10242770D01*
X3751015Y-10242770D02*
X3741491Y-10223722D01*
X3741491Y-10223722D02*
X3731968Y-10214198D01*
X3731968Y-10214198D02*
X3712920Y-10204674D01*
X3712920Y-10204674D02*
X3674825Y-10204674D01*
X3674825Y-10204674D02*
X3655777Y-10214198D01*
X3655777Y-10214198D02*
X3646253Y-10223722D01*
X3646253Y-10223722D02*
X3636729Y-10242770D01*
X3989110Y-10328484D02*
X3989110Y-10128484D01*
X4074825Y-10328484D02*
X4074825Y-10223722D01*
X4074825Y-10223722D02*
X4065301Y-10204674D01*
X4065301Y-10204674D02*
X4046253Y-10195150D01*
X4046253Y-10195150D02*
X4017682Y-10195150D01*
X4017682Y-10195150D02*
X3998634Y-10204674D01*
X3998634Y-10204674D02*
X3989110Y-10214198D01*
X4198634Y-10328484D02*
X4179587Y-10318960D01*
X4179587Y-10318960D02*
X4170063Y-10309436D01*
X4170063Y-10309436D02*
X4160539Y-10290389D01*
X4160539Y-10290389D02*
X4160539Y-10233246D01*
X4160539Y-10233246D02*
X4170063Y-10214198D01*
X4170063Y-10214198D02*
X4179587Y-10204674D01*
X4179587Y-10204674D02*
X4198634Y-10195150D01*
X4198634Y-10195150D02*
X4227206Y-10195150D01*
X4227206Y-10195150D02*
X4246253Y-10204674D01*
X4246253Y-10204674D02*
X4255777Y-10214198D01*
X4255777Y-10214198D02*
X4265301Y-10233246D01*
X4265301Y-10233246D02*
X4265301Y-10290389D01*
X4265301Y-10290389D02*
X4255777Y-10309436D01*
X4255777Y-10309436D02*
X4246253Y-10318960D01*
X4246253Y-10318960D02*
X4227206Y-10328484D01*
X4227206Y-10328484D02*
X4198634Y-10328484D01*
X4379587Y-10328484D02*
X4360539Y-10318960D01*
X4360539Y-10318960D02*
X4351015Y-10299912D01*
X4351015Y-10299912D02*
X4351015Y-10128484D01*
X4531968Y-10318960D02*
X4512920Y-10328484D01*
X4512920Y-10328484D02*
X4474825Y-10328484D01*
X4474825Y-10328484D02*
X4455777Y-10318960D01*
X4455777Y-10318960D02*
X4446253Y-10299912D01*
X4446253Y-10299912D02*
X4446253Y-10223722D01*
X4446253Y-10223722D02*
X4455777Y-10204674D01*
X4455777Y-10204674D02*
X4474825Y-10195150D01*
X4474825Y-10195150D02*
X4512920Y-10195150D01*
X4512920Y-10195150D02*
X4531968Y-10204674D01*
X4531968Y-10204674D02*
X4541492Y-10223722D01*
X4541492Y-10223722D02*
X4541492Y-10242770D01*
X4541492Y-10242770D02*
X4446253Y-10261817D01*
X4617682Y-10318960D02*
X4636730Y-10328484D01*
X4636730Y-10328484D02*
X4674825Y-10328484D01*
X4674825Y-10328484D02*
X4693873Y-10318960D01*
X4693873Y-10318960D02*
X4703396Y-10299912D01*
X4703396Y-10299912D02*
X4703396Y-10290389D01*
X4703396Y-10290389D02*
X4693873Y-10271341D01*
X4693873Y-10271341D02*
X4674825Y-10261817D01*
X4674825Y-10261817D02*
X4646253Y-10261817D01*
X4646253Y-10261817D02*
X4627206Y-10252293D01*
X4627206Y-10252293D02*
X4617682Y-10233246D01*
X4617682Y-10233246D02*
X4617682Y-10223722D01*
X4617682Y-10223722D02*
X4627206Y-10204674D01*
X4627206Y-10204674D02*
X4646253Y-10195150D01*
X4646253Y-10195150D02*
X4674825Y-10195150D01*
X4674825Y-10195150D02*
X4693873Y-10204674D01*
X4770063Y-10404674D02*
X4779587Y-10395150D01*
X4779587Y-10395150D02*
X4798634Y-10366579D01*
X4798634Y-10366579D02*
X4808158Y-10347531D01*
X4808158Y-10347531D02*
X4817682Y-10318960D01*
X4817682Y-10318960D02*
X4827206Y-10271341D01*
X4827206Y-10271341D02*
X4827206Y-10233246D01*
X4827206Y-10233246D02*
X4817682Y-10185627D01*
X4817682Y-10185627D02*
X4808158Y-10157055D01*
X4808158Y-10157055D02*
X4798634Y-10138008D01*
X4798634Y-10138008D02*
X4779587Y-10109436D01*
X4779587Y-10109436D02*
X4770063Y-10099912D01*
D12*
X-60000Y-10556000D02*
X-5000Y-10501000D01*
X-60000Y-10446000D01*
X-115000Y-10501000D01*
X-60000Y-10556000D01*
D11*
X360539Y-10592484D02*
X246253Y-10592484D01*
X303396Y-10592484D02*
X303396Y-10392484D01*
X303396Y-10392484D02*
X284348Y-10421055D01*
X284348Y-10421055D02*
X265301Y-10440103D01*
X265301Y-10440103D02*
X246253Y-10449627D01*
X446253Y-10573436D02*
X455777Y-10582960D01*
X455777Y-10582960D02*
X446253Y-10592484D01*
X446253Y-10592484D02*
X436729Y-10582960D01*
X436729Y-10582960D02*
X446253Y-10573436D01*
X446253Y-10573436D02*
X446253Y-10592484D01*
X646253Y-10592484D02*
X531967Y-10592484D01*
X589110Y-10592484D02*
X589110Y-10392484D01*
X589110Y-10392484D02*
X570063Y-10421055D01*
X570063Y-10421055D02*
X551015Y-10440103D01*
X551015Y-10440103D02*
X531967Y-10449627D01*
X770062Y-10392484D02*
X789110Y-10392484D01*
X789110Y-10392484D02*
X808158Y-10402008D01*
X808158Y-10402008D02*
X817682Y-10411531D01*
X817682Y-10411531D02*
X827205Y-10430579D01*
X827205Y-10430579D02*
X836729Y-10468674D01*
X836729Y-10468674D02*
X836729Y-10516293D01*
X836729Y-10516293D02*
X827205Y-10554389D01*
X827205Y-10554389D02*
X817682Y-10573436D01*
X817682Y-10573436D02*
X808158Y-10582960D01*
X808158Y-10582960D02*
X789110Y-10592484D01*
X789110Y-10592484D02*
X770062Y-10592484D01*
X770062Y-10592484D02*
X751015Y-10582960D01*
X751015Y-10582960D02*
X741491Y-10573436D01*
X741491Y-10573436D02*
X731967Y-10554389D01*
X731967Y-10554389D02*
X722443Y-10516293D01*
X722443Y-10516293D02*
X722443Y-10468674D01*
X722443Y-10468674D02*
X731967Y-10430579D01*
X731967Y-10430579D02*
X741491Y-10411531D01*
X741491Y-10411531D02*
X751015Y-10402008D01*
X751015Y-10402008D02*
X770062Y-10392484D01*
X960539Y-10392484D02*
X979586Y-10392484D01*
X979586Y-10392484D02*
X998634Y-10402008D01*
X998634Y-10402008D02*
X1008158Y-10411531D01*
X1008158Y-10411531D02*
X1017682Y-10430579D01*
X1017682Y-10430579D02*
X1027205Y-10468674D01*
X1027205Y-10468674D02*
X1027205Y-10516293D01*
X1027205Y-10516293D02*
X1017682Y-10554389D01*
X1017682Y-10554389D02*
X1008158Y-10573436D01*
X1008158Y-10573436D02*
X998634Y-10582960D01*
X998634Y-10582960D02*
X979586Y-10592484D01*
X979586Y-10592484D02*
X960539Y-10592484D01*
X960539Y-10592484D02*
X941491Y-10582960D01*
X941491Y-10582960D02*
X931967Y-10573436D01*
X931967Y-10573436D02*
X922443Y-10554389D01*
X922443Y-10554389D02*
X912920Y-10516293D01*
X912920Y-10516293D02*
X912920Y-10468674D01*
X912920Y-10468674D02*
X922443Y-10430579D01*
X922443Y-10430579D02*
X931967Y-10411531D01*
X931967Y-10411531D02*
X941491Y-10402008D01*
X941491Y-10402008D02*
X960539Y-10392484D01*
X1112920Y-10592484D02*
X1112920Y-10459150D01*
X1112920Y-10478198D02*
X1122444Y-10468674D01*
X1122444Y-10468674D02*
X1141491Y-10459150D01*
X1141491Y-10459150D02*
X1170063Y-10459150D01*
X1170063Y-10459150D02*
X1189110Y-10468674D01*
X1189110Y-10468674D02*
X1198634Y-10487722D01*
X1198634Y-10487722D02*
X1198634Y-10592484D01*
X1198634Y-10487722D02*
X1208158Y-10468674D01*
X1208158Y-10468674D02*
X1227205Y-10459150D01*
X1227205Y-10459150D02*
X1255777Y-10459150D01*
X1255777Y-10459150D02*
X1274825Y-10468674D01*
X1274825Y-10468674D02*
X1284348Y-10487722D01*
X1284348Y-10487722D02*
X1284348Y-10592484D01*
X1379586Y-10592484D02*
X1379586Y-10459150D01*
X1379586Y-10478198D02*
X1389110Y-10468674D01*
X1389110Y-10468674D02*
X1408158Y-10459150D01*
X1408158Y-10459150D02*
X1436729Y-10459150D01*
X1436729Y-10459150D02*
X1455777Y-10468674D01*
X1455777Y-10468674D02*
X1465301Y-10487722D01*
X1465301Y-10487722D02*
X1465301Y-10592484D01*
X1465301Y-10487722D02*
X1474824Y-10468674D01*
X1474824Y-10468674D02*
X1493872Y-10459150D01*
X1493872Y-10459150D02*
X1522443Y-10459150D01*
X1522443Y-10459150D02*
X1541491Y-10468674D01*
X1541491Y-10468674D02*
X1551015Y-10487722D01*
X1551015Y-10487722D02*
X1551015Y-10592484D01*
X1941491Y-10382960D02*
X1770063Y-10640103D01*
X2198634Y-10392484D02*
X2217682Y-10392484D01*
X2217682Y-10392484D02*
X2236729Y-10402008D01*
X2236729Y-10402008D02*
X2246253Y-10411531D01*
X2246253Y-10411531D02*
X2255777Y-10430579D01*
X2255777Y-10430579D02*
X2265301Y-10468674D01*
X2265301Y-10468674D02*
X2265301Y-10516293D01*
X2265301Y-10516293D02*
X2255777Y-10554389D01*
X2255777Y-10554389D02*
X2246253Y-10573436D01*
X2246253Y-10573436D02*
X2236729Y-10582960D01*
X2236729Y-10582960D02*
X2217682Y-10592484D01*
X2217682Y-10592484D02*
X2198634Y-10592484D01*
X2198634Y-10592484D02*
X2179587Y-10582960D01*
X2179587Y-10582960D02*
X2170063Y-10573436D01*
X2170063Y-10573436D02*
X2160539Y-10554389D01*
X2160539Y-10554389D02*
X2151015Y-10516293D01*
X2151015Y-10516293D02*
X2151015Y-10468674D01*
X2151015Y-10468674D02*
X2160539Y-10430579D01*
X2160539Y-10430579D02*
X2170063Y-10411531D01*
X2170063Y-10411531D02*
X2179587Y-10402008D01*
X2179587Y-10402008D02*
X2198634Y-10392484D01*
X2351015Y-10573436D02*
X2360539Y-10582960D01*
X2360539Y-10582960D02*
X2351015Y-10592484D01*
X2351015Y-10592484D02*
X2341491Y-10582960D01*
X2341491Y-10582960D02*
X2351015Y-10573436D01*
X2351015Y-10573436D02*
X2351015Y-10592484D01*
X2484348Y-10392484D02*
X2503396Y-10392484D01*
X2503396Y-10392484D02*
X2522444Y-10402008D01*
X2522444Y-10402008D02*
X2531968Y-10411531D01*
X2531968Y-10411531D02*
X2541491Y-10430579D01*
X2541491Y-10430579D02*
X2551015Y-10468674D01*
X2551015Y-10468674D02*
X2551015Y-10516293D01*
X2551015Y-10516293D02*
X2541491Y-10554389D01*
X2541491Y-10554389D02*
X2531968Y-10573436D01*
X2531968Y-10573436D02*
X2522444Y-10582960D01*
X2522444Y-10582960D02*
X2503396Y-10592484D01*
X2503396Y-10592484D02*
X2484348Y-10592484D01*
X2484348Y-10592484D02*
X2465301Y-10582960D01*
X2465301Y-10582960D02*
X2455777Y-10573436D01*
X2455777Y-10573436D02*
X2446253Y-10554389D01*
X2446253Y-10554389D02*
X2436729Y-10516293D01*
X2436729Y-10516293D02*
X2436729Y-10468674D01*
X2436729Y-10468674D02*
X2446253Y-10430579D01*
X2446253Y-10430579D02*
X2455777Y-10411531D01*
X2455777Y-10411531D02*
X2465301Y-10402008D01*
X2465301Y-10402008D02*
X2484348Y-10392484D01*
X2722444Y-10459150D02*
X2722444Y-10592484D01*
X2674825Y-10382960D02*
X2627206Y-10525817D01*
X2627206Y-10525817D02*
X2751015Y-10525817D01*
X2808158Y-10392484D02*
X2931967Y-10392484D01*
X2931967Y-10392484D02*
X2865301Y-10468674D01*
X2865301Y-10468674D02*
X2893872Y-10468674D01*
X2893872Y-10468674D02*
X2912920Y-10478198D01*
X2912920Y-10478198D02*
X2922444Y-10487722D01*
X2922444Y-10487722D02*
X2931967Y-10506770D01*
X2931967Y-10506770D02*
X2931967Y-10554389D01*
X2931967Y-10554389D02*
X2922444Y-10573436D01*
X2922444Y-10573436D02*
X2912920Y-10582960D01*
X2912920Y-10582960D02*
X2893872Y-10592484D01*
X2893872Y-10592484D02*
X2836729Y-10592484D01*
X2836729Y-10592484D02*
X2817682Y-10582960D01*
X2817682Y-10582960D02*
X2808158Y-10573436D01*
X2998634Y-10392484D02*
X3122444Y-10392484D01*
X3122444Y-10392484D02*
X3055777Y-10468674D01*
X3055777Y-10468674D02*
X3084348Y-10468674D01*
X3084348Y-10468674D02*
X3103396Y-10478198D01*
X3103396Y-10478198D02*
X3112920Y-10487722D01*
X3112920Y-10487722D02*
X3122444Y-10506770D01*
X3122444Y-10506770D02*
X3122444Y-10554389D01*
X3122444Y-10554389D02*
X3112920Y-10573436D01*
X3112920Y-10573436D02*
X3103396Y-10582960D01*
X3103396Y-10582960D02*
X3084348Y-10592484D01*
X3084348Y-10592484D02*
X3027206Y-10592484D01*
X3027206Y-10592484D02*
X3008158Y-10582960D01*
X3008158Y-10582960D02*
X2998634Y-10573436D01*
X3198634Y-10392484D02*
X3198634Y-10430579D01*
X3274825Y-10392484D02*
X3274825Y-10430579D01*
X3570063Y-10668674D02*
X3560539Y-10659150D01*
X3560539Y-10659150D02*
X3541491Y-10630579D01*
X3541491Y-10630579D02*
X3531968Y-10611531D01*
X3531968Y-10611531D02*
X3522444Y-10582960D01*
X3522444Y-10582960D02*
X3512920Y-10535341D01*
X3512920Y-10535341D02*
X3512920Y-10497246D01*
X3512920Y-10497246D02*
X3522444Y-10449627D01*
X3522444Y-10449627D02*
X3531968Y-10421055D01*
X3531968Y-10421055D02*
X3541491Y-10402008D01*
X3541491Y-10402008D02*
X3560539Y-10373436D01*
X3560539Y-10373436D02*
X3570063Y-10363912D01*
X3636729Y-10411531D02*
X3646253Y-10402008D01*
X3646253Y-10402008D02*
X3665301Y-10392484D01*
X3665301Y-10392484D02*
X3712920Y-10392484D01*
X3712920Y-10392484D02*
X3731968Y-10402008D01*
X3731968Y-10402008D02*
X3741491Y-10411531D01*
X3741491Y-10411531D02*
X3751015Y-10430579D01*
X3751015Y-10430579D02*
X3751015Y-10449627D01*
X3751015Y-10449627D02*
X3741491Y-10478198D01*
X3741491Y-10478198D02*
X3627206Y-10592484D01*
X3627206Y-10592484D02*
X3751015Y-10592484D01*
X3922444Y-10392484D02*
X3884348Y-10392484D01*
X3884348Y-10392484D02*
X3865301Y-10402008D01*
X3865301Y-10402008D02*
X3855777Y-10411531D01*
X3855777Y-10411531D02*
X3836729Y-10440103D01*
X3836729Y-10440103D02*
X3827206Y-10478198D01*
X3827206Y-10478198D02*
X3827206Y-10554389D01*
X3827206Y-10554389D02*
X3836729Y-10573436D01*
X3836729Y-10573436D02*
X3846253Y-10582960D01*
X3846253Y-10582960D02*
X3865301Y-10592484D01*
X3865301Y-10592484D02*
X3903396Y-10592484D01*
X3903396Y-10592484D02*
X3922444Y-10582960D01*
X3922444Y-10582960D02*
X3931968Y-10573436D01*
X3931968Y-10573436D02*
X3941491Y-10554389D01*
X3941491Y-10554389D02*
X3941491Y-10506770D01*
X3941491Y-10506770D02*
X3931968Y-10487722D01*
X3931968Y-10487722D02*
X3922444Y-10478198D01*
X3922444Y-10478198D02*
X3903396Y-10468674D01*
X3903396Y-10468674D02*
X3865301Y-10468674D01*
X3865301Y-10468674D02*
X3846253Y-10478198D01*
X3846253Y-10478198D02*
X3836729Y-10487722D01*
X3836729Y-10487722D02*
X3827206Y-10506770D01*
X4179587Y-10592484D02*
X4179587Y-10392484D01*
X4265301Y-10592484D02*
X4265301Y-10487722D01*
X4265301Y-10487722D02*
X4255777Y-10468674D01*
X4255777Y-10468674D02*
X4236730Y-10459150D01*
X4236730Y-10459150D02*
X4208158Y-10459150D01*
X4208158Y-10459150D02*
X4189110Y-10468674D01*
X4189110Y-10468674D02*
X4179587Y-10478198D01*
X4389111Y-10592484D02*
X4370063Y-10582960D01*
X4370063Y-10582960D02*
X4360539Y-10573436D01*
X4360539Y-10573436D02*
X4351015Y-10554389D01*
X4351015Y-10554389D02*
X4351015Y-10497246D01*
X4351015Y-10497246D02*
X4360539Y-10478198D01*
X4360539Y-10478198D02*
X4370063Y-10468674D01*
X4370063Y-10468674D02*
X4389111Y-10459150D01*
X4389111Y-10459150D02*
X4417682Y-10459150D01*
X4417682Y-10459150D02*
X4436730Y-10468674D01*
X4436730Y-10468674D02*
X4446253Y-10478198D01*
X4446253Y-10478198D02*
X4455777Y-10497246D01*
X4455777Y-10497246D02*
X4455777Y-10554389D01*
X4455777Y-10554389D02*
X4446253Y-10573436D01*
X4446253Y-10573436D02*
X4436730Y-10582960D01*
X4436730Y-10582960D02*
X4417682Y-10592484D01*
X4417682Y-10592484D02*
X4389111Y-10592484D01*
X4570063Y-10592484D02*
X4551015Y-10582960D01*
X4551015Y-10582960D02*
X4541492Y-10563912D01*
X4541492Y-10563912D02*
X4541492Y-10392484D01*
X4722444Y-10582960D02*
X4703396Y-10592484D01*
X4703396Y-10592484D02*
X4665301Y-10592484D01*
X4665301Y-10592484D02*
X4646253Y-10582960D01*
X4646253Y-10582960D02*
X4636730Y-10563912D01*
X4636730Y-10563912D02*
X4636730Y-10487722D01*
X4636730Y-10487722D02*
X4646253Y-10468674D01*
X4646253Y-10468674D02*
X4665301Y-10459150D01*
X4665301Y-10459150D02*
X4703396Y-10459150D01*
X4703396Y-10459150D02*
X4722444Y-10468674D01*
X4722444Y-10468674D02*
X4731968Y-10487722D01*
X4731968Y-10487722D02*
X4731968Y-10506770D01*
X4731968Y-10506770D02*
X4636730Y-10525817D01*
X4808158Y-10582960D02*
X4827206Y-10592484D01*
X4827206Y-10592484D02*
X4865301Y-10592484D01*
X4865301Y-10592484D02*
X4884349Y-10582960D01*
X4884349Y-10582960D02*
X4893873Y-10563912D01*
X4893873Y-10563912D02*
X4893873Y-10554389D01*
X4893873Y-10554389D02*
X4884349Y-10535341D01*
X4884349Y-10535341D02*
X4865301Y-10525817D01*
X4865301Y-10525817D02*
X4836730Y-10525817D01*
X4836730Y-10525817D02*
X4817682Y-10516293D01*
X4817682Y-10516293D02*
X4808158Y-10497246D01*
X4808158Y-10497246D02*
X4808158Y-10487722D01*
X4808158Y-10487722D02*
X4817682Y-10468674D01*
X4817682Y-10468674D02*
X4836730Y-10459150D01*
X4836730Y-10459150D02*
X4865301Y-10459150D01*
X4865301Y-10459150D02*
X4884349Y-10468674D01*
X4960539Y-10668674D02*
X4970063Y-10659150D01*
X4970063Y-10659150D02*
X4989111Y-10630579D01*
X4989111Y-10630579D02*
X4998634Y-10611531D01*
X4998634Y-10611531D02*
X5008158Y-10582960D01*
X5008158Y-10582960D02*
X5017682Y-10535341D01*
X5017682Y-10535341D02*
X5017682Y-10497246D01*
X5017682Y-10497246D02*
X5008158Y-10449627D01*
X5008158Y-10449627D02*
X4998634Y-10421055D01*
X4998634Y-10421055D02*
X4989111Y-10402008D01*
X4989111Y-10402008D02*
X4970063Y-10373436D01*
X4970063Y-10373436D02*
X4960539Y-10363912D01*
D13*
X-125000Y-10705000D02*
X-5000Y-10825000D01*
X-5000Y-10705000D02*
X-125000Y-10825000D01*
X-5000Y-10765000D02*
G75*
G02*
X-125000Y-10765000I-60000J0D01*
G01*
X-125000Y-10765000D02*
G75*
G02*
X-5000Y-10765000I60000J0D01*
G01*
D11*
X360539Y-10856484D02*
X246253Y-10856484D01*
X303396Y-10856484D02*
X303396Y-10656484D01*
X303396Y-10656484D02*
X284348Y-10685055D01*
X284348Y-10685055D02*
X265301Y-10704103D01*
X265301Y-10704103D02*
X246253Y-10713627D01*
X446253Y-10837436D02*
X455777Y-10846960D01*
X455777Y-10846960D02*
X446253Y-10856484D01*
X446253Y-10856484D02*
X436729Y-10846960D01*
X436729Y-10846960D02*
X446253Y-10837436D01*
X446253Y-10837436D02*
X446253Y-10856484D01*
X531967Y-10675531D02*
X541491Y-10666008D01*
X541491Y-10666008D02*
X560539Y-10656484D01*
X560539Y-10656484D02*
X608158Y-10656484D01*
X608158Y-10656484D02*
X627205Y-10666008D01*
X627205Y-10666008D02*
X636729Y-10675531D01*
X636729Y-10675531D02*
X646253Y-10694579D01*
X646253Y-10694579D02*
X646253Y-10713627D01*
X646253Y-10713627D02*
X636729Y-10742198D01*
X636729Y-10742198D02*
X522443Y-10856484D01*
X522443Y-10856484D02*
X646253Y-10856484D01*
X770062Y-10656484D02*
X789110Y-10656484D01*
X789110Y-10656484D02*
X808158Y-10666008D01*
X808158Y-10666008D02*
X817682Y-10675531D01*
X817682Y-10675531D02*
X827205Y-10694579D01*
X827205Y-10694579D02*
X836729Y-10732674D01*
X836729Y-10732674D02*
X836729Y-10780293D01*
X836729Y-10780293D02*
X827205Y-10818389D01*
X827205Y-10818389D02*
X817682Y-10837436D01*
X817682Y-10837436D02*
X808158Y-10846960D01*
X808158Y-10846960D02*
X789110Y-10856484D01*
X789110Y-10856484D02*
X770062Y-10856484D01*
X770062Y-10856484D02*
X751015Y-10846960D01*
X751015Y-10846960D02*
X741491Y-10837436D01*
X741491Y-10837436D02*
X731967Y-10818389D01*
X731967Y-10818389D02*
X722443Y-10780293D01*
X722443Y-10780293D02*
X722443Y-10732674D01*
X722443Y-10732674D02*
X731967Y-10694579D01*
X731967Y-10694579D02*
X741491Y-10675531D01*
X741491Y-10675531D02*
X751015Y-10666008D01*
X751015Y-10666008D02*
X770062Y-10656484D01*
X960539Y-10656484D02*
X979586Y-10656484D01*
X979586Y-10656484D02*
X998634Y-10666008D01*
X998634Y-10666008D02*
X1008158Y-10675531D01*
X1008158Y-10675531D02*
X1017682Y-10694579D01*
X1017682Y-10694579D02*
X1027205Y-10732674D01*
X1027205Y-10732674D02*
X1027205Y-10780293D01*
X1027205Y-10780293D02*
X1017682Y-10818389D01*
X1017682Y-10818389D02*
X1008158Y-10837436D01*
X1008158Y-10837436D02*
X998634Y-10846960D01*
X998634Y-10846960D02*
X979586Y-10856484D01*
X979586Y-10856484D02*
X960539Y-10856484D01*
X960539Y-10856484D02*
X941491Y-10846960D01*
X941491Y-10846960D02*
X931967Y-10837436D01*
X931967Y-10837436D02*
X922443Y-10818389D01*
X922443Y-10818389D02*
X912920Y-10780293D01*
X912920Y-10780293D02*
X912920Y-10732674D01*
X912920Y-10732674D02*
X922443Y-10694579D01*
X922443Y-10694579D02*
X931967Y-10675531D01*
X931967Y-10675531D02*
X941491Y-10666008D01*
X941491Y-10666008D02*
X960539Y-10656484D01*
X1112920Y-10856484D02*
X1112920Y-10723150D01*
X1112920Y-10742198D02*
X1122444Y-10732674D01*
X1122444Y-10732674D02*
X1141491Y-10723150D01*
X1141491Y-10723150D02*
X1170063Y-10723150D01*
X1170063Y-10723150D02*
X1189110Y-10732674D01*
X1189110Y-10732674D02*
X1198634Y-10751722D01*
X1198634Y-10751722D02*
X1198634Y-10856484D01*
X1198634Y-10751722D02*
X1208158Y-10732674D01*
X1208158Y-10732674D02*
X1227205Y-10723150D01*
X1227205Y-10723150D02*
X1255777Y-10723150D01*
X1255777Y-10723150D02*
X1274825Y-10732674D01*
X1274825Y-10732674D02*
X1284348Y-10751722D01*
X1284348Y-10751722D02*
X1284348Y-10856484D01*
X1379586Y-10856484D02*
X1379586Y-10723150D01*
X1379586Y-10742198D02*
X1389110Y-10732674D01*
X1389110Y-10732674D02*
X1408158Y-10723150D01*
X1408158Y-10723150D02*
X1436729Y-10723150D01*
X1436729Y-10723150D02*
X1455777Y-10732674D01*
X1455777Y-10732674D02*
X1465301Y-10751722D01*
X1465301Y-10751722D02*
X1465301Y-10856484D01*
X1465301Y-10751722D02*
X1474824Y-10732674D01*
X1474824Y-10732674D02*
X1493872Y-10723150D01*
X1493872Y-10723150D02*
X1522443Y-10723150D01*
X1522443Y-10723150D02*
X1541491Y-10732674D01*
X1541491Y-10732674D02*
X1551015Y-10751722D01*
X1551015Y-10751722D02*
X1551015Y-10856484D01*
X1941491Y-10646960D02*
X1770063Y-10904103D01*
X2198634Y-10656484D02*
X2217682Y-10656484D01*
X2217682Y-10656484D02*
X2236729Y-10666008D01*
X2236729Y-10666008D02*
X2246253Y-10675531D01*
X2246253Y-10675531D02*
X2255777Y-10694579D01*
X2255777Y-10694579D02*
X2265301Y-10732674D01*
X2265301Y-10732674D02*
X2265301Y-10780293D01*
X2265301Y-10780293D02*
X2255777Y-10818389D01*
X2255777Y-10818389D02*
X2246253Y-10837436D01*
X2246253Y-10837436D02*
X2236729Y-10846960D01*
X2236729Y-10846960D02*
X2217682Y-10856484D01*
X2217682Y-10856484D02*
X2198634Y-10856484D01*
X2198634Y-10856484D02*
X2179587Y-10846960D01*
X2179587Y-10846960D02*
X2170063Y-10837436D01*
X2170063Y-10837436D02*
X2160539Y-10818389D01*
X2160539Y-10818389D02*
X2151015Y-10780293D01*
X2151015Y-10780293D02*
X2151015Y-10732674D01*
X2151015Y-10732674D02*
X2160539Y-10694579D01*
X2160539Y-10694579D02*
X2170063Y-10675531D01*
X2170063Y-10675531D02*
X2179587Y-10666008D01*
X2179587Y-10666008D02*
X2198634Y-10656484D01*
X2351015Y-10837436D02*
X2360539Y-10846960D01*
X2360539Y-10846960D02*
X2351015Y-10856484D01*
X2351015Y-10856484D02*
X2341491Y-10846960D01*
X2341491Y-10846960D02*
X2351015Y-10837436D01*
X2351015Y-10837436D02*
X2351015Y-10856484D01*
X2484348Y-10656484D02*
X2503396Y-10656484D01*
X2503396Y-10656484D02*
X2522444Y-10666008D01*
X2522444Y-10666008D02*
X2531968Y-10675531D01*
X2531968Y-10675531D02*
X2541491Y-10694579D01*
X2541491Y-10694579D02*
X2551015Y-10732674D01*
X2551015Y-10732674D02*
X2551015Y-10780293D01*
X2551015Y-10780293D02*
X2541491Y-10818389D01*
X2541491Y-10818389D02*
X2531968Y-10837436D01*
X2531968Y-10837436D02*
X2522444Y-10846960D01*
X2522444Y-10846960D02*
X2503396Y-10856484D01*
X2503396Y-10856484D02*
X2484348Y-10856484D01*
X2484348Y-10856484D02*
X2465301Y-10846960D01*
X2465301Y-10846960D02*
X2455777Y-10837436D01*
X2455777Y-10837436D02*
X2446253Y-10818389D01*
X2446253Y-10818389D02*
X2436729Y-10780293D01*
X2436729Y-10780293D02*
X2436729Y-10732674D01*
X2436729Y-10732674D02*
X2446253Y-10694579D01*
X2446253Y-10694579D02*
X2455777Y-10675531D01*
X2455777Y-10675531D02*
X2465301Y-10666008D01*
X2465301Y-10666008D02*
X2484348Y-10656484D01*
X2722444Y-10723150D02*
X2722444Y-10856484D01*
X2674825Y-10646960D02*
X2627206Y-10789817D01*
X2627206Y-10789817D02*
X2751015Y-10789817D01*
X2808158Y-10656484D02*
X2941491Y-10656484D01*
X2941491Y-10656484D02*
X2855777Y-10856484D01*
X3008158Y-10675531D02*
X3017682Y-10666008D01*
X3017682Y-10666008D02*
X3036729Y-10656484D01*
X3036729Y-10656484D02*
X3084348Y-10656484D01*
X3084348Y-10656484D02*
X3103396Y-10666008D01*
X3103396Y-10666008D02*
X3112920Y-10675531D01*
X3112920Y-10675531D02*
X3122444Y-10694579D01*
X3122444Y-10694579D02*
X3122444Y-10713627D01*
X3122444Y-10713627D02*
X3112920Y-10742198D01*
X3112920Y-10742198D02*
X2998634Y-10856484D01*
X2998634Y-10856484D02*
X3122444Y-10856484D01*
X3198634Y-10656484D02*
X3198634Y-10694579D01*
X3274825Y-10656484D02*
X3274825Y-10694579D01*
X3570063Y-10932674D02*
X3560539Y-10923150D01*
X3560539Y-10923150D02*
X3541491Y-10894579D01*
X3541491Y-10894579D02*
X3531968Y-10875531D01*
X3531968Y-10875531D02*
X3522444Y-10846960D01*
X3522444Y-10846960D02*
X3512920Y-10799341D01*
X3512920Y-10799341D02*
X3512920Y-10761246D01*
X3512920Y-10761246D02*
X3522444Y-10713627D01*
X3522444Y-10713627D02*
X3531968Y-10685055D01*
X3531968Y-10685055D02*
X3541491Y-10666008D01*
X3541491Y-10666008D02*
X3560539Y-10637436D01*
X3560539Y-10637436D02*
X3570063Y-10627912D01*
X3751015Y-10856484D02*
X3636729Y-10856484D01*
X3693872Y-10856484D02*
X3693872Y-10656484D01*
X3693872Y-10656484D02*
X3674825Y-10685055D01*
X3674825Y-10685055D02*
X3655777Y-10704103D01*
X3655777Y-10704103D02*
X3636729Y-10713627D01*
X3874825Y-10656484D02*
X3893872Y-10656484D01*
X3893872Y-10656484D02*
X3912920Y-10666008D01*
X3912920Y-10666008D02*
X3922444Y-10675531D01*
X3922444Y-10675531D02*
X3931968Y-10694579D01*
X3931968Y-10694579D02*
X3941491Y-10732674D01*
X3941491Y-10732674D02*
X3941491Y-10780293D01*
X3941491Y-10780293D02*
X3931968Y-10818389D01*
X3931968Y-10818389D02*
X3922444Y-10837436D01*
X3922444Y-10837436D02*
X3912920Y-10846960D01*
X3912920Y-10846960D02*
X3893872Y-10856484D01*
X3893872Y-10856484D02*
X3874825Y-10856484D01*
X3874825Y-10856484D02*
X3855777Y-10846960D01*
X3855777Y-10846960D02*
X3846253Y-10837436D01*
X3846253Y-10837436D02*
X3836729Y-10818389D01*
X3836729Y-10818389D02*
X3827206Y-10780293D01*
X3827206Y-10780293D02*
X3827206Y-10732674D01*
X3827206Y-10732674D02*
X3836729Y-10694579D01*
X3836729Y-10694579D02*
X3846253Y-10675531D01*
X3846253Y-10675531D02*
X3855777Y-10666008D01*
X3855777Y-10666008D02*
X3874825Y-10656484D01*
X4179587Y-10856484D02*
X4179587Y-10656484D01*
X4265301Y-10856484D02*
X4265301Y-10751722D01*
X4265301Y-10751722D02*
X4255777Y-10732674D01*
X4255777Y-10732674D02*
X4236730Y-10723150D01*
X4236730Y-10723150D02*
X4208158Y-10723150D01*
X4208158Y-10723150D02*
X4189110Y-10732674D01*
X4189110Y-10732674D02*
X4179587Y-10742198D01*
X4389111Y-10856484D02*
X4370063Y-10846960D01*
X4370063Y-10846960D02*
X4360539Y-10837436D01*
X4360539Y-10837436D02*
X4351015Y-10818389D01*
X4351015Y-10818389D02*
X4351015Y-10761246D01*
X4351015Y-10761246D02*
X4360539Y-10742198D01*
X4360539Y-10742198D02*
X4370063Y-10732674D01*
X4370063Y-10732674D02*
X4389111Y-10723150D01*
X4389111Y-10723150D02*
X4417682Y-10723150D01*
X4417682Y-10723150D02*
X4436730Y-10732674D01*
X4436730Y-10732674D02*
X4446253Y-10742198D01*
X4446253Y-10742198D02*
X4455777Y-10761246D01*
X4455777Y-10761246D02*
X4455777Y-10818389D01*
X4455777Y-10818389D02*
X4446253Y-10837436D01*
X4446253Y-10837436D02*
X4436730Y-10846960D01*
X4436730Y-10846960D02*
X4417682Y-10856484D01*
X4417682Y-10856484D02*
X4389111Y-10856484D01*
X4570063Y-10856484D02*
X4551015Y-10846960D01*
X4551015Y-10846960D02*
X4541492Y-10827912D01*
X4541492Y-10827912D02*
X4541492Y-10656484D01*
X4722444Y-10846960D02*
X4703396Y-10856484D01*
X4703396Y-10856484D02*
X4665301Y-10856484D01*
X4665301Y-10856484D02*
X4646253Y-10846960D01*
X4646253Y-10846960D02*
X4636730Y-10827912D01*
X4636730Y-10827912D02*
X4636730Y-10751722D01*
X4636730Y-10751722D02*
X4646253Y-10732674D01*
X4646253Y-10732674D02*
X4665301Y-10723150D01*
X4665301Y-10723150D02*
X4703396Y-10723150D01*
X4703396Y-10723150D02*
X4722444Y-10732674D01*
X4722444Y-10732674D02*
X4731968Y-10751722D01*
X4731968Y-10751722D02*
X4731968Y-10770770D01*
X4731968Y-10770770D02*
X4636730Y-10789817D01*
X4808158Y-10846960D02*
X4827206Y-10856484D01*
X4827206Y-10856484D02*
X4865301Y-10856484D01*
X4865301Y-10856484D02*
X4884349Y-10846960D01*
X4884349Y-10846960D02*
X4893873Y-10827912D01*
X4893873Y-10827912D02*
X4893873Y-10818389D01*
X4893873Y-10818389D02*
X4884349Y-10799341D01*
X4884349Y-10799341D02*
X4865301Y-10789817D01*
X4865301Y-10789817D02*
X4836730Y-10789817D01*
X4836730Y-10789817D02*
X4817682Y-10780293D01*
X4817682Y-10780293D02*
X4808158Y-10761246D01*
X4808158Y-10761246D02*
X4808158Y-10751722D01*
X4808158Y-10751722D02*
X4817682Y-10732674D01*
X4817682Y-10732674D02*
X4836730Y-10723150D01*
X4836730Y-10723150D02*
X4865301Y-10723150D01*
X4865301Y-10723150D02*
X4884349Y-10732674D01*
X4960539Y-10932674D02*
X4970063Y-10923150D01*
X4970063Y-10923150D02*
X4989111Y-10894579D01*
X4989111Y-10894579D02*
X4998634Y-10875531D01*
X4998634Y-10875531D02*
X5008158Y-10846960D01*
X5008158Y-10846960D02*
X5017682Y-10799341D01*
X5017682Y-10799341D02*
X5017682Y-10761246D01*
X5017682Y-10761246D02*
X5008158Y-10713627D01*
X5008158Y-10713627D02*
X4998634Y-10685055D01*
X4998634Y-10685055D02*
X4989111Y-10666008D01*
X4989111Y-10666008D02*
X4970063Y-10637436D01*
X4970063Y-10637436D02*
X4960539Y-10627912D01*
D14*
X-135000Y-10964000D02*
X-5000Y-11094000D01*
X-5000Y-10964000D02*
X-135000Y-11094000D01*
X-70000Y-10964000D02*
X-70000Y-11094000D01*
X-135000Y-11029000D02*
X-5000Y-11029000D01*
D11*
X360539Y-11120484D02*
X246253Y-11120484D01*
X303396Y-11120484D02*
X303396Y-10920484D01*
X303396Y-10920484D02*
X284348Y-10949055D01*
X284348Y-10949055D02*
X265301Y-10968103D01*
X265301Y-10968103D02*
X246253Y-10977627D01*
X446253Y-11101436D02*
X455777Y-11110960D01*
X455777Y-11110960D02*
X446253Y-11120484D01*
X446253Y-11120484D02*
X436729Y-11110960D01*
X436729Y-11110960D02*
X446253Y-11101436D01*
X446253Y-11101436D02*
X446253Y-11120484D01*
X522443Y-10920484D02*
X646253Y-10920484D01*
X646253Y-10920484D02*
X579586Y-10996674D01*
X579586Y-10996674D02*
X608158Y-10996674D01*
X608158Y-10996674D02*
X627205Y-11006198D01*
X627205Y-11006198D02*
X636729Y-11015722D01*
X636729Y-11015722D02*
X646253Y-11034770D01*
X646253Y-11034770D02*
X646253Y-11082389D01*
X646253Y-11082389D02*
X636729Y-11101436D01*
X636729Y-11101436D02*
X627205Y-11110960D01*
X627205Y-11110960D02*
X608158Y-11120484D01*
X608158Y-11120484D02*
X551015Y-11120484D01*
X551015Y-11120484D02*
X531967Y-11110960D01*
X531967Y-11110960D02*
X522443Y-11101436D01*
X770062Y-10920484D02*
X789110Y-10920484D01*
X789110Y-10920484D02*
X808158Y-10930008D01*
X808158Y-10930008D02*
X817682Y-10939531D01*
X817682Y-10939531D02*
X827205Y-10958579D01*
X827205Y-10958579D02*
X836729Y-10996674D01*
X836729Y-10996674D02*
X836729Y-11044293D01*
X836729Y-11044293D02*
X827205Y-11082389D01*
X827205Y-11082389D02*
X817682Y-11101436D01*
X817682Y-11101436D02*
X808158Y-11110960D01*
X808158Y-11110960D02*
X789110Y-11120484D01*
X789110Y-11120484D02*
X770062Y-11120484D01*
X770062Y-11120484D02*
X751015Y-11110960D01*
X751015Y-11110960D02*
X741491Y-11101436D01*
X741491Y-11101436D02*
X731967Y-11082389D01*
X731967Y-11082389D02*
X722443Y-11044293D01*
X722443Y-11044293D02*
X722443Y-10996674D01*
X722443Y-10996674D02*
X731967Y-10958579D01*
X731967Y-10958579D02*
X741491Y-10939531D01*
X741491Y-10939531D02*
X751015Y-10930008D01*
X751015Y-10930008D02*
X770062Y-10920484D01*
X960539Y-10920484D02*
X979586Y-10920484D01*
X979586Y-10920484D02*
X998634Y-10930008D01*
X998634Y-10930008D02*
X1008158Y-10939531D01*
X1008158Y-10939531D02*
X1017682Y-10958579D01*
X1017682Y-10958579D02*
X1027205Y-10996674D01*
X1027205Y-10996674D02*
X1027205Y-11044293D01*
X1027205Y-11044293D02*
X1017682Y-11082389D01*
X1017682Y-11082389D02*
X1008158Y-11101436D01*
X1008158Y-11101436D02*
X998634Y-11110960D01*
X998634Y-11110960D02*
X979586Y-11120484D01*
X979586Y-11120484D02*
X960539Y-11120484D01*
X960539Y-11120484D02*
X941491Y-11110960D01*
X941491Y-11110960D02*
X931967Y-11101436D01*
X931967Y-11101436D02*
X922443Y-11082389D01*
X922443Y-11082389D02*
X912920Y-11044293D01*
X912920Y-11044293D02*
X912920Y-10996674D01*
X912920Y-10996674D02*
X922443Y-10958579D01*
X922443Y-10958579D02*
X931967Y-10939531D01*
X931967Y-10939531D02*
X941491Y-10930008D01*
X941491Y-10930008D02*
X960539Y-10920484D01*
X1112920Y-11120484D02*
X1112920Y-10987150D01*
X1112920Y-11006198D02*
X1122444Y-10996674D01*
X1122444Y-10996674D02*
X1141491Y-10987150D01*
X1141491Y-10987150D02*
X1170063Y-10987150D01*
X1170063Y-10987150D02*
X1189110Y-10996674D01*
X1189110Y-10996674D02*
X1198634Y-11015722D01*
X1198634Y-11015722D02*
X1198634Y-11120484D01*
X1198634Y-11015722D02*
X1208158Y-10996674D01*
X1208158Y-10996674D02*
X1227205Y-10987150D01*
X1227205Y-10987150D02*
X1255777Y-10987150D01*
X1255777Y-10987150D02*
X1274825Y-10996674D01*
X1274825Y-10996674D02*
X1284348Y-11015722D01*
X1284348Y-11015722D02*
X1284348Y-11120484D01*
X1379586Y-11120484D02*
X1379586Y-10987150D01*
X1379586Y-11006198D02*
X1389110Y-10996674D01*
X1389110Y-10996674D02*
X1408158Y-10987150D01*
X1408158Y-10987150D02*
X1436729Y-10987150D01*
X1436729Y-10987150D02*
X1455777Y-10996674D01*
X1455777Y-10996674D02*
X1465301Y-11015722D01*
X1465301Y-11015722D02*
X1465301Y-11120484D01*
X1465301Y-11015722D02*
X1474824Y-10996674D01*
X1474824Y-10996674D02*
X1493872Y-10987150D01*
X1493872Y-10987150D02*
X1522443Y-10987150D01*
X1522443Y-10987150D02*
X1541491Y-10996674D01*
X1541491Y-10996674D02*
X1551015Y-11015722D01*
X1551015Y-11015722D02*
X1551015Y-11120484D01*
X1941491Y-10910960D02*
X1770063Y-11168103D01*
X2198634Y-10920484D02*
X2217682Y-10920484D01*
X2217682Y-10920484D02*
X2236729Y-10930008D01*
X2236729Y-10930008D02*
X2246253Y-10939531D01*
X2246253Y-10939531D02*
X2255777Y-10958579D01*
X2255777Y-10958579D02*
X2265301Y-10996674D01*
X2265301Y-10996674D02*
X2265301Y-11044293D01*
X2265301Y-11044293D02*
X2255777Y-11082389D01*
X2255777Y-11082389D02*
X2246253Y-11101436D01*
X2246253Y-11101436D02*
X2236729Y-11110960D01*
X2236729Y-11110960D02*
X2217682Y-11120484D01*
X2217682Y-11120484D02*
X2198634Y-11120484D01*
X2198634Y-11120484D02*
X2179587Y-11110960D01*
X2179587Y-11110960D02*
X2170063Y-11101436D01*
X2170063Y-11101436D02*
X2160539Y-11082389D01*
X2160539Y-11082389D02*
X2151015Y-11044293D01*
X2151015Y-11044293D02*
X2151015Y-10996674D01*
X2151015Y-10996674D02*
X2160539Y-10958579D01*
X2160539Y-10958579D02*
X2170063Y-10939531D01*
X2170063Y-10939531D02*
X2179587Y-10930008D01*
X2179587Y-10930008D02*
X2198634Y-10920484D01*
X2351015Y-11101436D02*
X2360539Y-11110960D01*
X2360539Y-11110960D02*
X2351015Y-11120484D01*
X2351015Y-11120484D02*
X2341491Y-11110960D01*
X2341491Y-11110960D02*
X2351015Y-11101436D01*
X2351015Y-11101436D02*
X2351015Y-11120484D01*
X2484348Y-10920484D02*
X2503396Y-10920484D01*
X2503396Y-10920484D02*
X2522444Y-10930008D01*
X2522444Y-10930008D02*
X2531968Y-10939531D01*
X2531968Y-10939531D02*
X2541491Y-10958579D01*
X2541491Y-10958579D02*
X2551015Y-10996674D01*
X2551015Y-10996674D02*
X2551015Y-11044293D01*
X2551015Y-11044293D02*
X2541491Y-11082389D01*
X2541491Y-11082389D02*
X2531968Y-11101436D01*
X2531968Y-11101436D02*
X2522444Y-11110960D01*
X2522444Y-11110960D02*
X2503396Y-11120484D01*
X2503396Y-11120484D02*
X2484348Y-11120484D01*
X2484348Y-11120484D02*
X2465301Y-11110960D01*
X2465301Y-11110960D02*
X2455777Y-11101436D01*
X2455777Y-11101436D02*
X2446253Y-11082389D01*
X2446253Y-11082389D02*
X2436729Y-11044293D01*
X2436729Y-11044293D02*
X2436729Y-10996674D01*
X2436729Y-10996674D02*
X2446253Y-10958579D01*
X2446253Y-10958579D02*
X2455777Y-10939531D01*
X2455777Y-10939531D02*
X2465301Y-10930008D01*
X2465301Y-10930008D02*
X2484348Y-10920484D01*
X2731968Y-10920484D02*
X2636729Y-10920484D01*
X2636729Y-10920484D02*
X2627206Y-11015722D01*
X2627206Y-11015722D02*
X2636729Y-11006198D01*
X2636729Y-11006198D02*
X2655777Y-10996674D01*
X2655777Y-10996674D02*
X2703396Y-10996674D01*
X2703396Y-10996674D02*
X2722444Y-11006198D01*
X2722444Y-11006198D02*
X2731968Y-11015722D01*
X2731968Y-11015722D02*
X2741491Y-11034770D01*
X2741491Y-11034770D02*
X2741491Y-11082389D01*
X2741491Y-11082389D02*
X2731968Y-11101436D01*
X2731968Y-11101436D02*
X2722444Y-11110960D01*
X2722444Y-11110960D02*
X2703396Y-11120484D01*
X2703396Y-11120484D02*
X2655777Y-11120484D01*
X2655777Y-11120484D02*
X2636729Y-11110960D01*
X2636729Y-11110960D02*
X2627206Y-11101436D01*
X2931967Y-11120484D02*
X2817682Y-11120484D01*
X2874825Y-11120484D02*
X2874825Y-10920484D01*
X2874825Y-10920484D02*
X2855777Y-10949055D01*
X2855777Y-10949055D02*
X2836729Y-10968103D01*
X2836729Y-10968103D02*
X2817682Y-10977627D01*
X3008158Y-10939531D02*
X3017682Y-10930008D01*
X3017682Y-10930008D02*
X3036729Y-10920484D01*
X3036729Y-10920484D02*
X3084348Y-10920484D01*
X3084348Y-10920484D02*
X3103396Y-10930008D01*
X3103396Y-10930008D02*
X3112920Y-10939531D01*
X3112920Y-10939531D02*
X3122444Y-10958579D01*
X3122444Y-10958579D02*
X3122444Y-10977627D01*
X3122444Y-10977627D02*
X3112920Y-11006198D01*
X3112920Y-11006198D02*
X2998634Y-11120484D01*
X2998634Y-11120484D02*
X3122444Y-11120484D01*
X3198634Y-10920484D02*
X3198634Y-10958579D01*
X3274825Y-10920484D02*
X3274825Y-10958579D01*
X3570063Y-11196674D02*
X3560539Y-11187150D01*
X3560539Y-11187150D02*
X3541491Y-11158579D01*
X3541491Y-11158579D02*
X3531968Y-11139531D01*
X3531968Y-11139531D02*
X3522444Y-11110960D01*
X3522444Y-11110960D02*
X3512920Y-11063341D01*
X3512920Y-11063341D02*
X3512920Y-11025246D01*
X3512920Y-11025246D02*
X3522444Y-10977627D01*
X3522444Y-10977627D02*
X3531968Y-10949055D01*
X3531968Y-10949055D02*
X3541491Y-10930008D01*
X3541491Y-10930008D02*
X3560539Y-10901436D01*
X3560539Y-10901436D02*
X3570063Y-10891912D01*
X3731968Y-10987150D02*
X3731968Y-11120484D01*
X3684348Y-10910960D02*
X3636729Y-11053817D01*
X3636729Y-11053817D02*
X3760539Y-11053817D01*
X3989110Y-11120484D02*
X3989110Y-10920484D01*
X4074825Y-11120484D02*
X4074825Y-11015722D01*
X4074825Y-11015722D02*
X4065301Y-10996674D01*
X4065301Y-10996674D02*
X4046253Y-10987150D01*
X4046253Y-10987150D02*
X4017682Y-10987150D01*
X4017682Y-10987150D02*
X3998634Y-10996674D01*
X3998634Y-10996674D02*
X3989110Y-11006198D01*
X4198634Y-11120484D02*
X4179587Y-11110960D01*
X4179587Y-11110960D02*
X4170063Y-11101436D01*
X4170063Y-11101436D02*
X4160539Y-11082389D01*
X4160539Y-11082389D02*
X4160539Y-11025246D01*
X4160539Y-11025246D02*
X4170063Y-11006198D01*
X4170063Y-11006198D02*
X4179587Y-10996674D01*
X4179587Y-10996674D02*
X4198634Y-10987150D01*
X4198634Y-10987150D02*
X4227206Y-10987150D01*
X4227206Y-10987150D02*
X4246253Y-10996674D01*
X4246253Y-10996674D02*
X4255777Y-11006198D01*
X4255777Y-11006198D02*
X4265301Y-11025246D01*
X4265301Y-11025246D02*
X4265301Y-11082389D01*
X4265301Y-11082389D02*
X4255777Y-11101436D01*
X4255777Y-11101436D02*
X4246253Y-11110960D01*
X4246253Y-11110960D02*
X4227206Y-11120484D01*
X4227206Y-11120484D02*
X4198634Y-11120484D01*
X4379587Y-11120484D02*
X4360539Y-11110960D01*
X4360539Y-11110960D02*
X4351015Y-11091912D01*
X4351015Y-11091912D02*
X4351015Y-10920484D01*
X4531968Y-11110960D02*
X4512920Y-11120484D01*
X4512920Y-11120484D02*
X4474825Y-11120484D01*
X4474825Y-11120484D02*
X4455777Y-11110960D01*
X4455777Y-11110960D02*
X4446253Y-11091912D01*
X4446253Y-11091912D02*
X4446253Y-11015722D01*
X4446253Y-11015722D02*
X4455777Y-10996674D01*
X4455777Y-10996674D02*
X4474825Y-10987150D01*
X4474825Y-10987150D02*
X4512920Y-10987150D01*
X4512920Y-10987150D02*
X4531968Y-10996674D01*
X4531968Y-10996674D02*
X4541492Y-11015722D01*
X4541492Y-11015722D02*
X4541492Y-11034770D01*
X4541492Y-11034770D02*
X4446253Y-11053817D01*
X4617682Y-11110960D02*
X4636730Y-11120484D01*
X4636730Y-11120484D02*
X4674825Y-11120484D01*
X4674825Y-11120484D02*
X4693873Y-11110960D01*
X4693873Y-11110960D02*
X4703396Y-11091912D01*
X4703396Y-11091912D02*
X4703396Y-11082389D01*
X4703396Y-11082389D02*
X4693873Y-11063341D01*
X4693873Y-11063341D02*
X4674825Y-11053817D01*
X4674825Y-11053817D02*
X4646253Y-11053817D01*
X4646253Y-11053817D02*
X4627206Y-11044293D01*
X4627206Y-11044293D02*
X4617682Y-11025246D01*
X4617682Y-11025246D02*
X4617682Y-11015722D01*
X4617682Y-11015722D02*
X4627206Y-10996674D01*
X4627206Y-10996674D02*
X4646253Y-10987150D01*
X4646253Y-10987150D02*
X4674825Y-10987150D01*
X4674825Y-10987150D02*
X4693873Y-10996674D01*
X4770063Y-11196674D02*
X4779587Y-11187150D01*
X4779587Y-11187150D02*
X4798634Y-11158579D01*
X4798634Y-11158579D02*
X4808158Y-11139531D01*
X4808158Y-11139531D02*
X4817682Y-11110960D01*
X4817682Y-11110960D02*
X4827206Y-11063341D01*
X4827206Y-11063341D02*
X4827206Y-11025246D01*
X4827206Y-11025246D02*
X4817682Y-10977627D01*
X4817682Y-10977627D02*
X4808158Y-10949055D01*
X4808158Y-10949055D02*
X4798634Y-10930008D01*
X4798634Y-10930008D02*
X4779587Y-10901436D01*
X4779587Y-10901436D02*
X4770063Y-10891912D01*
D15*
X-155000Y-11218000D02*
X-5000Y-11368000D01*
X-5000Y-11218000D02*
X-155000Y-11368000D01*
X-26966Y-11346033D02*
X-26966Y-11239966D01*
X-133034Y-11239966D01*
X-133034Y-11346033D01*
X-26966Y-11346033D01*
D11*
X360539Y-11384484D02*
X246253Y-11384484D01*
X303396Y-11384484D02*
X303396Y-11184484D01*
X303396Y-11184484D02*
X284348Y-11213055D01*
X284348Y-11213055D02*
X265301Y-11232103D01*
X265301Y-11232103D02*
X246253Y-11241627D01*
X446253Y-11365436D02*
X455777Y-11374960D01*
X455777Y-11374960D02*
X446253Y-11384484D01*
X446253Y-11384484D02*
X436729Y-11374960D01*
X436729Y-11374960D02*
X446253Y-11365436D01*
X446253Y-11365436D02*
X446253Y-11384484D01*
X636729Y-11184484D02*
X541491Y-11184484D01*
X541491Y-11184484D02*
X531967Y-11279722D01*
X531967Y-11279722D02*
X541491Y-11270198D01*
X541491Y-11270198D02*
X560539Y-11260674D01*
X560539Y-11260674D02*
X608158Y-11260674D01*
X608158Y-11260674D02*
X627205Y-11270198D01*
X627205Y-11270198D02*
X636729Y-11279722D01*
X636729Y-11279722D02*
X646253Y-11298769D01*
X646253Y-11298769D02*
X646253Y-11346388D01*
X646253Y-11346388D02*
X636729Y-11365436D01*
X636729Y-11365436D02*
X627205Y-11374960D01*
X627205Y-11374960D02*
X608158Y-11384484D01*
X608158Y-11384484D02*
X560539Y-11384484D01*
X560539Y-11384484D02*
X541491Y-11374960D01*
X541491Y-11374960D02*
X531967Y-11365436D01*
X770062Y-11184484D02*
X789110Y-11184484D01*
X789110Y-11184484D02*
X808158Y-11194008D01*
X808158Y-11194008D02*
X817682Y-11203531D01*
X817682Y-11203531D02*
X827205Y-11222579D01*
X827205Y-11222579D02*
X836729Y-11260674D01*
X836729Y-11260674D02*
X836729Y-11308293D01*
X836729Y-11308293D02*
X827205Y-11346388D01*
X827205Y-11346388D02*
X817682Y-11365436D01*
X817682Y-11365436D02*
X808158Y-11374960D01*
X808158Y-11374960D02*
X789110Y-11384484D01*
X789110Y-11384484D02*
X770062Y-11384484D01*
X770062Y-11384484D02*
X751015Y-11374960D01*
X751015Y-11374960D02*
X741491Y-11365436D01*
X741491Y-11365436D02*
X731967Y-11346388D01*
X731967Y-11346388D02*
X722443Y-11308293D01*
X722443Y-11308293D02*
X722443Y-11260674D01*
X722443Y-11260674D02*
X731967Y-11222579D01*
X731967Y-11222579D02*
X741491Y-11203531D01*
X741491Y-11203531D02*
X751015Y-11194008D01*
X751015Y-11194008D02*
X770062Y-11184484D01*
X960539Y-11184484D02*
X979586Y-11184484D01*
X979586Y-11184484D02*
X998634Y-11194008D01*
X998634Y-11194008D02*
X1008158Y-11203531D01*
X1008158Y-11203531D02*
X1017682Y-11222579D01*
X1017682Y-11222579D02*
X1027205Y-11260674D01*
X1027205Y-11260674D02*
X1027205Y-11308293D01*
X1027205Y-11308293D02*
X1017682Y-11346388D01*
X1017682Y-11346388D02*
X1008158Y-11365436D01*
X1008158Y-11365436D02*
X998634Y-11374960D01*
X998634Y-11374960D02*
X979586Y-11384484D01*
X979586Y-11384484D02*
X960539Y-11384484D01*
X960539Y-11384484D02*
X941491Y-11374960D01*
X941491Y-11374960D02*
X931967Y-11365436D01*
X931967Y-11365436D02*
X922443Y-11346388D01*
X922443Y-11346388D02*
X912920Y-11308293D01*
X912920Y-11308293D02*
X912920Y-11260674D01*
X912920Y-11260674D02*
X922443Y-11222579D01*
X922443Y-11222579D02*
X931967Y-11203531D01*
X931967Y-11203531D02*
X941491Y-11194008D01*
X941491Y-11194008D02*
X960539Y-11184484D01*
X1112920Y-11384484D02*
X1112920Y-11251150D01*
X1112920Y-11270198D02*
X1122444Y-11260674D01*
X1122444Y-11260674D02*
X1141491Y-11251150D01*
X1141491Y-11251150D02*
X1170063Y-11251150D01*
X1170063Y-11251150D02*
X1189110Y-11260674D01*
X1189110Y-11260674D02*
X1198634Y-11279722D01*
X1198634Y-11279722D02*
X1198634Y-11384484D01*
X1198634Y-11279722D02*
X1208158Y-11260674D01*
X1208158Y-11260674D02*
X1227205Y-11251150D01*
X1227205Y-11251150D02*
X1255777Y-11251150D01*
X1255777Y-11251150D02*
X1274825Y-11260674D01*
X1274825Y-11260674D02*
X1284348Y-11279722D01*
X1284348Y-11279722D02*
X1284348Y-11384484D01*
X1379586Y-11384484D02*
X1379586Y-11251150D01*
X1379586Y-11270198D02*
X1389110Y-11260674D01*
X1389110Y-11260674D02*
X1408158Y-11251150D01*
X1408158Y-11251150D02*
X1436729Y-11251150D01*
X1436729Y-11251150D02*
X1455777Y-11260674D01*
X1455777Y-11260674D02*
X1465301Y-11279722D01*
X1465301Y-11279722D02*
X1465301Y-11384484D01*
X1465301Y-11279722D02*
X1474824Y-11260674D01*
X1474824Y-11260674D02*
X1493872Y-11251150D01*
X1493872Y-11251150D02*
X1522443Y-11251150D01*
X1522443Y-11251150D02*
X1541491Y-11260674D01*
X1541491Y-11260674D02*
X1551015Y-11279722D01*
X1551015Y-11279722D02*
X1551015Y-11384484D01*
X1941491Y-11174960D02*
X1770063Y-11432103D01*
X2198634Y-11184484D02*
X2217682Y-11184484D01*
X2217682Y-11184484D02*
X2236729Y-11194008D01*
X2236729Y-11194008D02*
X2246253Y-11203531D01*
X2246253Y-11203531D02*
X2255777Y-11222579D01*
X2255777Y-11222579D02*
X2265301Y-11260674D01*
X2265301Y-11260674D02*
X2265301Y-11308293D01*
X2265301Y-11308293D02*
X2255777Y-11346388D01*
X2255777Y-11346388D02*
X2246253Y-11365436D01*
X2246253Y-11365436D02*
X2236729Y-11374960D01*
X2236729Y-11374960D02*
X2217682Y-11384484D01*
X2217682Y-11384484D02*
X2198634Y-11384484D01*
X2198634Y-11384484D02*
X2179587Y-11374960D01*
X2179587Y-11374960D02*
X2170063Y-11365436D01*
X2170063Y-11365436D02*
X2160539Y-11346388D01*
X2160539Y-11346388D02*
X2151015Y-11308293D01*
X2151015Y-11308293D02*
X2151015Y-11260674D01*
X2151015Y-11260674D02*
X2160539Y-11222579D01*
X2160539Y-11222579D02*
X2170063Y-11203531D01*
X2170063Y-11203531D02*
X2179587Y-11194008D01*
X2179587Y-11194008D02*
X2198634Y-11184484D01*
X2351015Y-11365436D02*
X2360539Y-11374960D01*
X2360539Y-11374960D02*
X2351015Y-11384484D01*
X2351015Y-11384484D02*
X2341491Y-11374960D01*
X2341491Y-11374960D02*
X2351015Y-11365436D01*
X2351015Y-11365436D02*
X2351015Y-11384484D01*
X2484348Y-11184484D02*
X2503396Y-11184484D01*
X2503396Y-11184484D02*
X2522444Y-11194008D01*
X2522444Y-11194008D02*
X2531968Y-11203531D01*
X2531968Y-11203531D02*
X2541491Y-11222579D01*
X2541491Y-11222579D02*
X2551015Y-11260674D01*
X2551015Y-11260674D02*
X2551015Y-11308293D01*
X2551015Y-11308293D02*
X2541491Y-11346388D01*
X2541491Y-11346388D02*
X2531968Y-11365436D01*
X2531968Y-11365436D02*
X2522444Y-11374960D01*
X2522444Y-11374960D02*
X2503396Y-11384484D01*
X2503396Y-11384484D02*
X2484348Y-11384484D01*
X2484348Y-11384484D02*
X2465301Y-11374960D01*
X2465301Y-11374960D02*
X2455777Y-11365436D01*
X2455777Y-11365436D02*
X2446253Y-11346388D01*
X2446253Y-11346388D02*
X2436729Y-11308293D01*
X2436729Y-11308293D02*
X2436729Y-11260674D01*
X2436729Y-11260674D02*
X2446253Y-11222579D01*
X2446253Y-11222579D02*
X2455777Y-11203531D01*
X2455777Y-11203531D02*
X2465301Y-11194008D01*
X2465301Y-11194008D02*
X2484348Y-11184484D01*
X2731968Y-11184484D02*
X2636729Y-11184484D01*
X2636729Y-11184484D02*
X2627206Y-11279722D01*
X2627206Y-11279722D02*
X2636729Y-11270198D01*
X2636729Y-11270198D02*
X2655777Y-11260674D01*
X2655777Y-11260674D02*
X2703396Y-11260674D01*
X2703396Y-11260674D02*
X2722444Y-11270198D01*
X2722444Y-11270198D02*
X2731968Y-11279722D01*
X2731968Y-11279722D02*
X2741491Y-11298769D01*
X2741491Y-11298769D02*
X2741491Y-11346388D01*
X2741491Y-11346388D02*
X2731968Y-11365436D01*
X2731968Y-11365436D02*
X2722444Y-11374960D01*
X2722444Y-11374960D02*
X2703396Y-11384484D01*
X2703396Y-11384484D02*
X2655777Y-11384484D01*
X2655777Y-11384484D02*
X2636729Y-11374960D01*
X2636729Y-11374960D02*
X2627206Y-11365436D01*
X2836729Y-11384484D02*
X2874825Y-11384484D01*
X2874825Y-11384484D02*
X2893872Y-11374960D01*
X2893872Y-11374960D02*
X2903396Y-11365436D01*
X2903396Y-11365436D02*
X2922444Y-11336865D01*
X2922444Y-11336865D02*
X2931967Y-11298769D01*
X2931967Y-11298769D02*
X2931967Y-11222579D01*
X2931967Y-11222579D02*
X2922444Y-11203531D01*
X2922444Y-11203531D02*
X2912920Y-11194008D01*
X2912920Y-11194008D02*
X2893872Y-11184484D01*
X2893872Y-11184484D02*
X2855777Y-11184484D01*
X2855777Y-11184484D02*
X2836729Y-11194008D01*
X2836729Y-11194008D02*
X2827206Y-11203531D01*
X2827206Y-11203531D02*
X2817682Y-11222579D01*
X2817682Y-11222579D02*
X2817682Y-11270198D01*
X2817682Y-11270198D02*
X2827206Y-11289246D01*
X2827206Y-11289246D02*
X2836729Y-11298769D01*
X2836729Y-11298769D02*
X2855777Y-11308293D01*
X2855777Y-11308293D02*
X2893872Y-11308293D01*
X2893872Y-11308293D02*
X2912920Y-11298769D01*
X2912920Y-11298769D02*
X2922444Y-11289246D01*
X2922444Y-11289246D02*
X2931967Y-11270198D01*
X3122444Y-11384484D02*
X3008158Y-11384484D01*
X3065301Y-11384484D02*
X3065301Y-11184484D01*
X3065301Y-11184484D02*
X3046253Y-11213055D01*
X3046253Y-11213055D02*
X3027206Y-11232103D01*
X3027206Y-11232103D02*
X3008158Y-11241627D01*
X3198634Y-11184484D02*
X3198634Y-11222579D01*
X3274825Y-11184484D02*
X3274825Y-11222579D01*
X3570063Y-11460674D02*
X3560539Y-11451150D01*
X3560539Y-11451150D02*
X3541491Y-11422579D01*
X3541491Y-11422579D02*
X3531968Y-11403531D01*
X3531968Y-11403531D02*
X3522444Y-11374960D01*
X3522444Y-11374960D02*
X3512920Y-11327341D01*
X3512920Y-11327341D02*
X3512920Y-11289246D01*
X3512920Y-11289246D02*
X3522444Y-11241627D01*
X3522444Y-11241627D02*
X3531968Y-11213055D01*
X3531968Y-11213055D02*
X3541491Y-11194008D01*
X3541491Y-11194008D02*
X3560539Y-11165436D01*
X3560539Y-11165436D02*
X3570063Y-11155912D01*
X3731968Y-11251150D02*
X3731968Y-11384484D01*
X3684348Y-11174960D02*
X3636729Y-11317817D01*
X3636729Y-11317817D02*
X3760539Y-11317817D01*
X3989110Y-11384484D02*
X3989110Y-11184484D01*
X4074825Y-11384484D02*
X4074825Y-11279722D01*
X4074825Y-11279722D02*
X4065301Y-11260674D01*
X4065301Y-11260674D02*
X4046253Y-11251150D01*
X4046253Y-11251150D02*
X4017682Y-11251150D01*
X4017682Y-11251150D02*
X3998634Y-11260674D01*
X3998634Y-11260674D02*
X3989110Y-11270198D01*
X4198634Y-11384484D02*
X4179587Y-11374960D01*
X4179587Y-11374960D02*
X4170063Y-11365436D01*
X4170063Y-11365436D02*
X4160539Y-11346388D01*
X4160539Y-11346388D02*
X4160539Y-11289246D01*
X4160539Y-11289246D02*
X4170063Y-11270198D01*
X4170063Y-11270198D02*
X4179587Y-11260674D01*
X4179587Y-11260674D02*
X4198634Y-11251150D01*
X4198634Y-11251150D02*
X4227206Y-11251150D01*
X4227206Y-11251150D02*
X4246253Y-11260674D01*
X4246253Y-11260674D02*
X4255777Y-11270198D01*
X4255777Y-11270198D02*
X4265301Y-11289246D01*
X4265301Y-11289246D02*
X4265301Y-11346388D01*
X4265301Y-11346388D02*
X4255777Y-11365436D01*
X4255777Y-11365436D02*
X4246253Y-11374960D01*
X4246253Y-11374960D02*
X4227206Y-11384484D01*
X4227206Y-11384484D02*
X4198634Y-11384484D01*
X4379587Y-11384484D02*
X4360539Y-11374960D01*
X4360539Y-11374960D02*
X4351015Y-11355912D01*
X4351015Y-11355912D02*
X4351015Y-11184484D01*
X4531968Y-11374960D02*
X4512920Y-11384484D01*
X4512920Y-11384484D02*
X4474825Y-11384484D01*
X4474825Y-11384484D02*
X4455777Y-11374960D01*
X4455777Y-11374960D02*
X4446253Y-11355912D01*
X4446253Y-11355912D02*
X4446253Y-11279722D01*
X4446253Y-11279722D02*
X4455777Y-11260674D01*
X4455777Y-11260674D02*
X4474825Y-11251150D01*
X4474825Y-11251150D02*
X4512920Y-11251150D01*
X4512920Y-11251150D02*
X4531968Y-11260674D01*
X4531968Y-11260674D02*
X4541492Y-11279722D01*
X4541492Y-11279722D02*
X4541492Y-11298769D01*
X4541492Y-11298769D02*
X4446253Y-11317817D01*
X4617682Y-11374960D02*
X4636730Y-11384484D01*
X4636730Y-11384484D02*
X4674825Y-11384484D01*
X4674825Y-11384484D02*
X4693873Y-11374960D01*
X4693873Y-11374960D02*
X4703396Y-11355912D01*
X4703396Y-11355912D02*
X4703396Y-11346388D01*
X4703396Y-11346388D02*
X4693873Y-11327341D01*
X4693873Y-11327341D02*
X4674825Y-11317817D01*
X4674825Y-11317817D02*
X4646253Y-11317817D01*
X4646253Y-11317817D02*
X4627206Y-11308293D01*
X4627206Y-11308293D02*
X4617682Y-11289246D01*
X4617682Y-11289246D02*
X4617682Y-11279722D01*
X4617682Y-11279722D02*
X4627206Y-11260674D01*
X4627206Y-11260674D02*
X4646253Y-11251150D01*
X4646253Y-11251150D02*
X4674825Y-11251150D01*
X4674825Y-11251150D02*
X4693873Y-11260674D01*
X4770063Y-11460674D02*
X4779587Y-11451150D01*
X4779587Y-11451150D02*
X4798634Y-11422579D01*
X4798634Y-11422579D02*
X4808158Y-11403531D01*
X4808158Y-11403531D02*
X4817682Y-11374960D01*
X4817682Y-11374960D02*
X4827206Y-11327341D01*
X4827206Y-11327341D02*
X4827206Y-11289246D01*
X4827206Y-11289246D02*
X4817682Y-11241627D01*
X4817682Y-11241627D02*
X4808158Y-11213055D01*
X4808158Y-11213055D02*
X4798634Y-11194008D01*
X4798634Y-11194008D02*
X4779587Y-11165436D01*
X4779587Y-11165436D02*
X4770063Y-11155912D01*
D16*
X-165000Y-11483000D02*
X-5000Y-11643000D01*
X-5000Y-11483000D02*
X-165000Y-11643000D01*
X-85000Y-11643000D02*
X-5000Y-11563000D01*
X-85000Y-11483000D01*
X-165000Y-11563000D01*
X-85000Y-11643000D01*
D11*
X360539Y-11654484D02*
X246253Y-11654484D01*
X303396Y-11654484D02*
X303396Y-11454484D01*
X303396Y-11454484D02*
X284348Y-11483055D01*
X284348Y-11483055D02*
X265301Y-11502103D01*
X265301Y-11502103D02*
X246253Y-11511627D01*
X446253Y-11635436D02*
X455777Y-11644960D01*
X455777Y-11644960D02*
X446253Y-11654484D01*
X446253Y-11654484D02*
X436729Y-11644960D01*
X436729Y-11644960D02*
X446253Y-11635436D01*
X446253Y-11635436D02*
X446253Y-11654484D01*
X627205Y-11454484D02*
X589110Y-11454484D01*
X589110Y-11454484D02*
X570063Y-11464008D01*
X570063Y-11464008D02*
X560539Y-11473531D01*
X560539Y-11473531D02*
X541491Y-11502103D01*
X541491Y-11502103D02*
X531967Y-11540198D01*
X531967Y-11540198D02*
X531967Y-11616388D01*
X531967Y-11616388D02*
X541491Y-11635436D01*
X541491Y-11635436D02*
X551015Y-11644960D01*
X551015Y-11644960D02*
X570063Y-11654484D01*
X570063Y-11654484D02*
X608158Y-11654484D01*
X608158Y-11654484D02*
X627205Y-11644960D01*
X627205Y-11644960D02*
X636729Y-11635436D01*
X636729Y-11635436D02*
X646253Y-11616388D01*
X646253Y-11616388D02*
X646253Y-11568769D01*
X646253Y-11568769D02*
X636729Y-11549722D01*
X636729Y-11549722D02*
X627205Y-11540198D01*
X627205Y-11540198D02*
X608158Y-11530674D01*
X608158Y-11530674D02*
X570063Y-11530674D01*
X570063Y-11530674D02*
X551015Y-11540198D01*
X551015Y-11540198D02*
X541491Y-11549722D01*
X541491Y-11549722D02*
X531967Y-11568769D01*
X770062Y-11454484D02*
X789110Y-11454484D01*
X789110Y-11454484D02*
X808158Y-11464008D01*
X808158Y-11464008D02*
X817682Y-11473531D01*
X817682Y-11473531D02*
X827205Y-11492579D01*
X827205Y-11492579D02*
X836729Y-11530674D01*
X836729Y-11530674D02*
X836729Y-11578293D01*
X836729Y-11578293D02*
X827205Y-11616388D01*
X827205Y-11616388D02*
X817682Y-11635436D01*
X817682Y-11635436D02*
X808158Y-11644960D01*
X808158Y-11644960D02*
X789110Y-11654484D01*
X789110Y-11654484D02*
X770062Y-11654484D01*
X770062Y-11654484D02*
X751015Y-11644960D01*
X751015Y-11644960D02*
X741491Y-11635436D01*
X741491Y-11635436D02*
X731967Y-11616388D01*
X731967Y-11616388D02*
X722443Y-11578293D01*
X722443Y-11578293D02*
X722443Y-11530674D01*
X722443Y-11530674D02*
X731967Y-11492579D01*
X731967Y-11492579D02*
X741491Y-11473531D01*
X741491Y-11473531D02*
X751015Y-11464008D01*
X751015Y-11464008D02*
X770062Y-11454484D01*
X960539Y-11454484D02*
X979586Y-11454484D01*
X979586Y-11454484D02*
X998634Y-11464008D01*
X998634Y-11464008D02*
X1008158Y-11473531D01*
X1008158Y-11473531D02*
X1017682Y-11492579D01*
X1017682Y-11492579D02*
X1027205Y-11530674D01*
X1027205Y-11530674D02*
X1027205Y-11578293D01*
X1027205Y-11578293D02*
X1017682Y-11616388D01*
X1017682Y-11616388D02*
X1008158Y-11635436D01*
X1008158Y-11635436D02*
X998634Y-11644960D01*
X998634Y-11644960D02*
X979586Y-11654484D01*
X979586Y-11654484D02*
X960539Y-11654484D01*
X960539Y-11654484D02*
X941491Y-11644960D01*
X941491Y-11644960D02*
X931967Y-11635436D01*
X931967Y-11635436D02*
X922443Y-11616388D01*
X922443Y-11616388D02*
X912920Y-11578293D01*
X912920Y-11578293D02*
X912920Y-11530674D01*
X912920Y-11530674D02*
X922443Y-11492579D01*
X922443Y-11492579D02*
X931967Y-11473531D01*
X931967Y-11473531D02*
X941491Y-11464008D01*
X941491Y-11464008D02*
X960539Y-11454484D01*
X1112920Y-11654484D02*
X1112920Y-11521150D01*
X1112920Y-11540198D02*
X1122444Y-11530674D01*
X1122444Y-11530674D02*
X1141491Y-11521150D01*
X1141491Y-11521150D02*
X1170063Y-11521150D01*
X1170063Y-11521150D02*
X1189110Y-11530674D01*
X1189110Y-11530674D02*
X1198634Y-11549722D01*
X1198634Y-11549722D02*
X1198634Y-11654484D01*
X1198634Y-11549722D02*
X1208158Y-11530674D01*
X1208158Y-11530674D02*
X1227205Y-11521150D01*
X1227205Y-11521150D02*
X1255777Y-11521150D01*
X1255777Y-11521150D02*
X1274825Y-11530674D01*
X1274825Y-11530674D02*
X1284348Y-11549722D01*
X1284348Y-11549722D02*
X1284348Y-11654484D01*
X1379586Y-11654484D02*
X1379586Y-11521150D01*
X1379586Y-11540198D02*
X1389110Y-11530674D01*
X1389110Y-11530674D02*
X1408158Y-11521150D01*
X1408158Y-11521150D02*
X1436729Y-11521150D01*
X1436729Y-11521150D02*
X1455777Y-11530674D01*
X1455777Y-11530674D02*
X1465301Y-11549722D01*
X1465301Y-11549722D02*
X1465301Y-11654484D01*
X1465301Y-11549722D02*
X1474824Y-11530674D01*
X1474824Y-11530674D02*
X1493872Y-11521150D01*
X1493872Y-11521150D02*
X1522443Y-11521150D01*
X1522443Y-11521150D02*
X1541491Y-11530674D01*
X1541491Y-11530674D02*
X1551015Y-11549722D01*
X1551015Y-11549722D02*
X1551015Y-11654484D01*
X1941491Y-11444960D02*
X1770063Y-11702103D01*
X2198634Y-11454484D02*
X2217682Y-11454484D01*
X2217682Y-11454484D02*
X2236729Y-11464008D01*
X2236729Y-11464008D02*
X2246253Y-11473531D01*
X2246253Y-11473531D02*
X2255777Y-11492579D01*
X2255777Y-11492579D02*
X2265301Y-11530674D01*
X2265301Y-11530674D02*
X2265301Y-11578293D01*
X2265301Y-11578293D02*
X2255777Y-11616388D01*
X2255777Y-11616388D02*
X2246253Y-11635436D01*
X2246253Y-11635436D02*
X2236729Y-11644960D01*
X2236729Y-11644960D02*
X2217682Y-11654484D01*
X2217682Y-11654484D02*
X2198634Y-11654484D01*
X2198634Y-11654484D02*
X2179587Y-11644960D01*
X2179587Y-11644960D02*
X2170063Y-11635436D01*
X2170063Y-11635436D02*
X2160539Y-11616388D01*
X2160539Y-11616388D02*
X2151015Y-11578293D01*
X2151015Y-11578293D02*
X2151015Y-11530674D01*
X2151015Y-11530674D02*
X2160539Y-11492579D01*
X2160539Y-11492579D02*
X2170063Y-11473531D01*
X2170063Y-11473531D02*
X2179587Y-11464008D01*
X2179587Y-11464008D02*
X2198634Y-11454484D01*
X2351015Y-11635436D02*
X2360539Y-11644960D01*
X2360539Y-11644960D02*
X2351015Y-11654484D01*
X2351015Y-11654484D02*
X2341491Y-11644960D01*
X2341491Y-11644960D02*
X2351015Y-11635436D01*
X2351015Y-11635436D02*
X2351015Y-11654484D01*
X2484348Y-11454484D02*
X2503396Y-11454484D01*
X2503396Y-11454484D02*
X2522444Y-11464008D01*
X2522444Y-11464008D02*
X2531968Y-11473531D01*
X2531968Y-11473531D02*
X2541491Y-11492579D01*
X2541491Y-11492579D02*
X2551015Y-11530674D01*
X2551015Y-11530674D02*
X2551015Y-11578293D01*
X2551015Y-11578293D02*
X2541491Y-11616388D01*
X2541491Y-11616388D02*
X2531968Y-11635436D01*
X2531968Y-11635436D02*
X2522444Y-11644960D01*
X2522444Y-11644960D02*
X2503396Y-11654484D01*
X2503396Y-11654484D02*
X2484348Y-11654484D01*
X2484348Y-11654484D02*
X2465301Y-11644960D01*
X2465301Y-11644960D02*
X2455777Y-11635436D01*
X2455777Y-11635436D02*
X2446253Y-11616388D01*
X2446253Y-11616388D02*
X2436729Y-11578293D01*
X2436729Y-11578293D02*
X2436729Y-11530674D01*
X2436729Y-11530674D02*
X2446253Y-11492579D01*
X2446253Y-11492579D02*
X2455777Y-11473531D01*
X2455777Y-11473531D02*
X2465301Y-11464008D01*
X2465301Y-11464008D02*
X2484348Y-11454484D01*
X2722444Y-11454484D02*
X2684348Y-11454484D01*
X2684348Y-11454484D02*
X2665301Y-11464008D01*
X2665301Y-11464008D02*
X2655777Y-11473531D01*
X2655777Y-11473531D02*
X2636729Y-11502103D01*
X2636729Y-11502103D02*
X2627206Y-11540198D01*
X2627206Y-11540198D02*
X2627206Y-11616388D01*
X2627206Y-11616388D02*
X2636729Y-11635436D01*
X2636729Y-11635436D02*
X2646253Y-11644960D01*
X2646253Y-11644960D02*
X2665301Y-11654484D01*
X2665301Y-11654484D02*
X2703396Y-11654484D01*
X2703396Y-11654484D02*
X2722444Y-11644960D01*
X2722444Y-11644960D02*
X2731968Y-11635436D01*
X2731968Y-11635436D02*
X2741491Y-11616388D01*
X2741491Y-11616388D02*
X2741491Y-11568769D01*
X2741491Y-11568769D02*
X2731968Y-11549722D01*
X2731968Y-11549722D02*
X2722444Y-11540198D01*
X2722444Y-11540198D02*
X2703396Y-11530674D01*
X2703396Y-11530674D02*
X2665301Y-11530674D01*
X2665301Y-11530674D02*
X2646253Y-11540198D01*
X2646253Y-11540198D02*
X2636729Y-11549722D01*
X2636729Y-11549722D02*
X2627206Y-11568769D01*
X2808158Y-11454484D02*
X2931967Y-11454484D01*
X2931967Y-11454484D02*
X2865301Y-11530674D01*
X2865301Y-11530674D02*
X2893872Y-11530674D01*
X2893872Y-11530674D02*
X2912920Y-11540198D01*
X2912920Y-11540198D02*
X2922444Y-11549722D01*
X2922444Y-11549722D02*
X2931967Y-11568769D01*
X2931967Y-11568769D02*
X2931967Y-11616388D01*
X2931967Y-11616388D02*
X2922444Y-11635436D01*
X2922444Y-11635436D02*
X2912920Y-11644960D01*
X2912920Y-11644960D02*
X2893872Y-11654484D01*
X2893872Y-11654484D02*
X2836729Y-11654484D01*
X2836729Y-11654484D02*
X2817682Y-11644960D01*
X2817682Y-11644960D02*
X2808158Y-11635436D01*
X3055777Y-11454484D02*
X3074825Y-11454484D01*
X3074825Y-11454484D02*
X3093872Y-11464008D01*
X3093872Y-11464008D02*
X3103396Y-11473531D01*
X3103396Y-11473531D02*
X3112920Y-11492579D01*
X3112920Y-11492579D02*
X3122444Y-11530674D01*
X3122444Y-11530674D02*
X3122444Y-11578293D01*
X3122444Y-11578293D02*
X3112920Y-11616388D01*
X3112920Y-11616388D02*
X3103396Y-11635436D01*
X3103396Y-11635436D02*
X3093872Y-11644960D01*
X3093872Y-11644960D02*
X3074825Y-11654484D01*
X3074825Y-11654484D02*
X3055777Y-11654484D01*
X3055777Y-11654484D02*
X3036729Y-11644960D01*
X3036729Y-11644960D02*
X3027206Y-11635436D01*
X3027206Y-11635436D02*
X3017682Y-11616388D01*
X3017682Y-11616388D02*
X3008158Y-11578293D01*
X3008158Y-11578293D02*
X3008158Y-11530674D01*
X3008158Y-11530674D02*
X3017682Y-11492579D01*
X3017682Y-11492579D02*
X3027206Y-11473531D01*
X3027206Y-11473531D02*
X3036729Y-11464008D01*
X3036729Y-11464008D02*
X3055777Y-11454484D01*
X3198634Y-11454484D02*
X3198634Y-11492579D01*
X3274825Y-11454484D02*
X3274825Y-11492579D01*
X3570063Y-11730674D02*
X3560539Y-11721150D01*
X3560539Y-11721150D02*
X3541491Y-11692579D01*
X3541491Y-11692579D02*
X3531968Y-11673531D01*
X3531968Y-11673531D02*
X3522444Y-11644960D01*
X3522444Y-11644960D02*
X3512920Y-11597341D01*
X3512920Y-11597341D02*
X3512920Y-11559246D01*
X3512920Y-11559246D02*
X3522444Y-11511627D01*
X3522444Y-11511627D02*
X3531968Y-11483055D01*
X3531968Y-11483055D02*
X3541491Y-11464008D01*
X3541491Y-11464008D02*
X3560539Y-11435436D01*
X3560539Y-11435436D02*
X3570063Y-11425912D01*
X3636729Y-11473531D02*
X3646253Y-11464008D01*
X3646253Y-11464008D02*
X3665301Y-11454484D01*
X3665301Y-11454484D02*
X3712920Y-11454484D01*
X3712920Y-11454484D02*
X3731968Y-11464008D01*
X3731968Y-11464008D02*
X3741491Y-11473531D01*
X3741491Y-11473531D02*
X3751015Y-11492579D01*
X3751015Y-11492579D02*
X3751015Y-11511627D01*
X3751015Y-11511627D02*
X3741491Y-11540198D01*
X3741491Y-11540198D02*
X3627206Y-11654484D01*
X3627206Y-11654484D02*
X3751015Y-11654484D01*
X3989110Y-11654484D02*
X3989110Y-11454484D01*
X4074825Y-11654484D02*
X4074825Y-11549722D01*
X4074825Y-11549722D02*
X4065301Y-11530674D01*
X4065301Y-11530674D02*
X4046253Y-11521150D01*
X4046253Y-11521150D02*
X4017682Y-11521150D01*
X4017682Y-11521150D02*
X3998634Y-11530674D01*
X3998634Y-11530674D02*
X3989110Y-11540198D01*
X4198634Y-11654484D02*
X4179587Y-11644960D01*
X4179587Y-11644960D02*
X4170063Y-11635436D01*
X4170063Y-11635436D02*
X4160539Y-11616388D01*
X4160539Y-11616388D02*
X4160539Y-11559246D01*
X4160539Y-11559246D02*
X4170063Y-11540198D01*
X4170063Y-11540198D02*
X4179587Y-11530674D01*
X4179587Y-11530674D02*
X4198634Y-11521150D01*
X4198634Y-11521150D02*
X4227206Y-11521150D01*
X4227206Y-11521150D02*
X4246253Y-11530674D01*
X4246253Y-11530674D02*
X4255777Y-11540198D01*
X4255777Y-11540198D02*
X4265301Y-11559246D01*
X4265301Y-11559246D02*
X4265301Y-11616388D01*
X4265301Y-11616388D02*
X4255777Y-11635436D01*
X4255777Y-11635436D02*
X4246253Y-11644960D01*
X4246253Y-11644960D02*
X4227206Y-11654484D01*
X4227206Y-11654484D02*
X4198634Y-11654484D01*
X4379587Y-11654484D02*
X4360539Y-11644960D01*
X4360539Y-11644960D02*
X4351015Y-11625912D01*
X4351015Y-11625912D02*
X4351015Y-11454484D01*
X4531968Y-11644960D02*
X4512920Y-11654484D01*
X4512920Y-11654484D02*
X4474825Y-11654484D01*
X4474825Y-11654484D02*
X4455777Y-11644960D01*
X4455777Y-11644960D02*
X4446253Y-11625912D01*
X4446253Y-11625912D02*
X4446253Y-11549722D01*
X4446253Y-11549722D02*
X4455777Y-11530674D01*
X4455777Y-11530674D02*
X4474825Y-11521150D01*
X4474825Y-11521150D02*
X4512920Y-11521150D01*
X4512920Y-11521150D02*
X4531968Y-11530674D01*
X4531968Y-11530674D02*
X4541492Y-11549722D01*
X4541492Y-11549722D02*
X4541492Y-11568769D01*
X4541492Y-11568769D02*
X4446253Y-11587817D01*
X4617682Y-11644960D02*
X4636730Y-11654484D01*
X4636730Y-11654484D02*
X4674825Y-11654484D01*
X4674825Y-11654484D02*
X4693873Y-11644960D01*
X4693873Y-11644960D02*
X4703396Y-11625912D01*
X4703396Y-11625912D02*
X4703396Y-11616388D01*
X4703396Y-11616388D02*
X4693873Y-11597341D01*
X4693873Y-11597341D02*
X4674825Y-11587817D01*
X4674825Y-11587817D02*
X4646253Y-11587817D01*
X4646253Y-11587817D02*
X4627206Y-11578293D01*
X4627206Y-11578293D02*
X4617682Y-11559246D01*
X4617682Y-11559246D02*
X4617682Y-11549722D01*
X4617682Y-11549722D02*
X4627206Y-11530674D01*
X4627206Y-11530674D02*
X4646253Y-11521150D01*
X4646253Y-11521150D02*
X4674825Y-11521150D01*
X4674825Y-11521150D02*
X4693873Y-11530674D01*
X4770063Y-11730674D02*
X4779587Y-11721150D01*
X4779587Y-11721150D02*
X4798634Y-11692579D01*
X4798634Y-11692579D02*
X4808158Y-11673531D01*
X4808158Y-11673531D02*
X4817682Y-11644960D01*
X4817682Y-11644960D02*
X4827206Y-11597341D01*
X4827206Y-11597341D02*
X4827206Y-11559246D01*
X4827206Y-11559246D02*
X4817682Y-11511627D01*
X4817682Y-11511627D02*
X4808158Y-11483055D01*
X4808158Y-11483055D02*
X4798634Y-11464008D01*
X4798634Y-11464008D02*
X4779587Y-11435436D01*
X4779587Y-11435436D02*
X4770063Y-11425912D01*
D17*
X-95000Y-11753000D02*
X-95000Y-11933000D01*
X-185000Y-11843000D02*
X-5000Y-11843000D01*
X-5000Y-11843000D02*
G75*
G02*
X-185000Y-11843000I-90000J0D01*
G01*
X-185000Y-11843000D02*
G75*
G02*
X-5000Y-11843000I90000J0D01*
G01*
D11*
X360539Y-11934484D02*
X246253Y-11934484D01*
X303396Y-11934484D02*
X303396Y-11734484D01*
X303396Y-11734484D02*
X284348Y-11763055D01*
X284348Y-11763055D02*
X265301Y-11782103D01*
X265301Y-11782103D02*
X246253Y-11791627D01*
X446253Y-11915436D02*
X455777Y-11924960D01*
X455777Y-11924960D02*
X446253Y-11934484D01*
X446253Y-11934484D02*
X436729Y-11924960D01*
X436729Y-11924960D02*
X446253Y-11915436D01*
X446253Y-11915436D02*
X446253Y-11934484D01*
X570063Y-11820198D02*
X551015Y-11810674D01*
X551015Y-11810674D02*
X541491Y-11801150D01*
X541491Y-11801150D02*
X531967Y-11782103D01*
X531967Y-11782103D02*
X531967Y-11772579D01*
X531967Y-11772579D02*
X541491Y-11753531D01*
X541491Y-11753531D02*
X551015Y-11744008D01*
X551015Y-11744008D02*
X570063Y-11734484D01*
X570063Y-11734484D02*
X608158Y-11734484D01*
X608158Y-11734484D02*
X627205Y-11744008D01*
X627205Y-11744008D02*
X636729Y-11753531D01*
X636729Y-11753531D02*
X646253Y-11772579D01*
X646253Y-11772579D02*
X646253Y-11782103D01*
X646253Y-11782103D02*
X636729Y-11801150D01*
X636729Y-11801150D02*
X627205Y-11810674D01*
X627205Y-11810674D02*
X608158Y-11820198D01*
X608158Y-11820198D02*
X570063Y-11820198D01*
X570063Y-11820198D02*
X551015Y-11829722D01*
X551015Y-11829722D02*
X541491Y-11839246D01*
X541491Y-11839246D02*
X531967Y-11858293D01*
X531967Y-11858293D02*
X531967Y-11896388D01*
X531967Y-11896388D02*
X541491Y-11915436D01*
X541491Y-11915436D02*
X551015Y-11924960D01*
X551015Y-11924960D02*
X570063Y-11934484D01*
X570063Y-11934484D02*
X608158Y-11934484D01*
X608158Y-11934484D02*
X627205Y-11924960D01*
X627205Y-11924960D02*
X636729Y-11915436D01*
X636729Y-11915436D02*
X646253Y-11896388D01*
X646253Y-11896388D02*
X646253Y-11858293D01*
X646253Y-11858293D02*
X636729Y-11839246D01*
X636729Y-11839246D02*
X627205Y-11829722D01*
X627205Y-11829722D02*
X608158Y-11820198D01*
X770062Y-11734484D02*
X789110Y-11734484D01*
X789110Y-11734484D02*
X808158Y-11744008D01*
X808158Y-11744008D02*
X817682Y-11753531D01*
X817682Y-11753531D02*
X827205Y-11772579D01*
X827205Y-11772579D02*
X836729Y-11810674D01*
X836729Y-11810674D02*
X836729Y-11858293D01*
X836729Y-11858293D02*
X827205Y-11896388D01*
X827205Y-11896388D02*
X817682Y-11915436D01*
X817682Y-11915436D02*
X808158Y-11924960D01*
X808158Y-11924960D02*
X789110Y-11934484D01*
X789110Y-11934484D02*
X770062Y-11934484D01*
X770062Y-11934484D02*
X751015Y-11924960D01*
X751015Y-11924960D02*
X741491Y-11915436D01*
X741491Y-11915436D02*
X731967Y-11896388D01*
X731967Y-11896388D02*
X722443Y-11858293D01*
X722443Y-11858293D02*
X722443Y-11810674D01*
X722443Y-11810674D02*
X731967Y-11772579D01*
X731967Y-11772579D02*
X741491Y-11753531D01*
X741491Y-11753531D02*
X751015Y-11744008D01*
X751015Y-11744008D02*
X770062Y-11734484D01*
X960539Y-11734484D02*
X979586Y-11734484D01*
X979586Y-11734484D02*
X998634Y-11744008D01*
X998634Y-11744008D02*
X1008158Y-11753531D01*
X1008158Y-11753531D02*
X1017682Y-11772579D01*
X1017682Y-11772579D02*
X1027205Y-11810674D01*
X1027205Y-11810674D02*
X1027205Y-11858293D01*
X1027205Y-11858293D02*
X1017682Y-11896388D01*
X1017682Y-11896388D02*
X1008158Y-11915436D01*
X1008158Y-11915436D02*
X998634Y-11924960D01*
X998634Y-11924960D02*
X979586Y-11934484D01*
X979586Y-11934484D02*
X960539Y-11934484D01*
X960539Y-11934484D02*
X941491Y-11924960D01*
X941491Y-11924960D02*
X931967Y-11915436D01*
X931967Y-11915436D02*
X922443Y-11896388D01*
X922443Y-11896388D02*
X912920Y-11858293D01*
X912920Y-11858293D02*
X912920Y-11810674D01*
X912920Y-11810674D02*
X922443Y-11772579D01*
X922443Y-11772579D02*
X931967Y-11753531D01*
X931967Y-11753531D02*
X941491Y-11744008D01*
X941491Y-11744008D02*
X960539Y-11734484D01*
X1112920Y-11934484D02*
X1112920Y-11801150D01*
X1112920Y-11820198D02*
X1122444Y-11810674D01*
X1122444Y-11810674D02*
X1141491Y-11801150D01*
X1141491Y-11801150D02*
X1170063Y-11801150D01*
X1170063Y-11801150D02*
X1189110Y-11810674D01*
X1189110Y-11810674D02*
X1198634Y-11829722D01*
X1198634Y-11829722D02*
X1198634Y-11934484D01*
X1198634Y-11829722D02*
X1208158Y-11810674D01*
X1208158Y-11810674D02*
X1227205Y-11801150D01*
X1227205Y-11801150D02*
X1255777Y-11801150D01*
X1255777Y-11801150D02*
X1274825Y-11810674D01*
X1274825Y-11810674D02*
X1284348Y-11829722D01*
X1284348Y-11829722D02*
X1284348Y-11934484D01*
X1379586Y-11934484D02*
X1379586Y-11801150D01*
X1379586Y-11820198D02*
X1389110Y-11810674D01*
X1389110Y-11810674D02*
X1408158Y-11801150D01*
X1408158Y-11801150D02*
X1436729Y-11801150D01*
X1436729Y-11801150D02*
X1455777Y-11810674D01*
X1455777Y-11810674D02*
X1465301Y-11829722D01*
X1465301Y-11829722D02*
X1465301Y-11934484D01*
X1465301Y-11829722D02*
X1474824Y-11810674D01*
X1474824Y-11810674D02*
X1493872Y-11801150D01*
X1493872Y-11801150D02*
X1522443Y-11801150D01*
X1522443Y-11801150D02*
X1541491Y-11810674D01*
X1541491Y-11810674D02*
X1551015Y-11829722D01*
X1551015Y-11829722D02*
X1551015Y-11934484D01*
X1941491Y-11724960D02*
X1770063Y-11982103D01*
X2198634Y-11734484D02*
X2217682Y-11734484D01*
X2217682Y-11734484D02*
X2236729Y-11744008D01*
X2236729Y-11744008D02*
X2246253Y-11753531D01*
X2246253Y-11753531D02*
X2255777Y-11772579D01*
X2255777Y-11772579D02*
X2265301Y-11810674D01*
X2265301Y-11810674D02*
X2265301Y-11858293D01*
X2265301Y-11858293D02*
X2255777Y-11896388D01*
X2255777Y-11896388D02*
X2246253Y-11915436D01*
X2246253Y-11915436D02*
X2236729Y-11924960D01*
X2236729Y-11924960D02*
X2217682Y-11934484D01*
X2217682Y-11934484D02*
X2198634Y-11934484D01*
X2198634Y-11934484D02*
X2179587Y-11924960D01*
X2179587Y-11924960D02*
X2170063Y-11915436D01*
X2170063Y-11915436D02*
X2160539Y-11896388D01*
X2160539Y-11896388D02*
X2151015Y-11858293D01*
X2151015Y-11858293D02*
X2151015Y-11810674D01*
X2151015Y-11810674D02*
X2160539Y-11772579D01*
X2160539Y-11772579D02*
X2170063Y-11753531D01*
X2170063Y-11753531D02*
X2179587Y-11744008D01*
X2179587Y-11744008D02*
X2198634Y-11734484D01*
X2351015Y-11915436D02*
X2360539Y-11924960D01*
X2360539Y-11924960D02*
X2351015Y-11934484D01*
X2351015Y-11934484D02*
X2341491Y-11924960D01*
X2341491Y-11924960D02*
X2351015Y-11915436D01*
X2351015Y-11915436D02*
X2351015Y-11934484D01*
X2484348Y-11734484D02*
X2503396Y-11734484D01*
X2503396Y-11734484D02*
X2522444Y-11744008D01*
X2522444Y-11744008D02*
X2531968Y-11753531D01*
X2531968Y-11753531D02*
X2541491Y-11772579D01*
X2541491Y-11772579D02*
X2551015Y-11810674D01*
X2551015Y-11810674D02*
X2551015Y-11858293D01*
X2551015Y-11858293D02*
X2541491Y-11896388D01*
X2541491Y-11896388D02*
X2531968Y-11915436D01*
X2531968Y-11915436D02*
X2522444Y-11924960D01*
X2522444Y-11924960D02*
X2503396Y-11934484D01*
X2503396Y-11934484D02*
X2484348Y-11934484D01*
X2484348Y-11934484D02*
X2465301Y-11924960D01*
X2465301Y-11924960D02*
X2455777Y-11915436D01*
X2455777Y-11915436D02*
X2446253Y-11896388D01*
X2446253Y-11896388D02*
X2436729Y-11858293D01*
X2436729Y-11858293D02*
X2436729Y-11810674D01*
X2436729Y-11810674D02*
X2446253Y-11772579D01*
X2446253Y-11772579D02*
X2455777Y-11753531D01*
X2455777Y-11753531D02*
X2465301Y-11744008D01*
X2465301Y-11744008D02*
X2484348Y-11734484D01*
X2617682Y-11734484D02*
X2751015Y-11734484D01*
X2751015Y-11734484D02*
X2665301Y-11934484D01*
X2865301Y-11734484D02*
X2884348Y-11734484D01*
X2884348Y-11734484D02*
X2903396Y-11744008D01*
X2903396Y-11744008D02*
X2912920Y-11753531D01*
X2912920Y-11753531D02*
X2922444Y-11772579D01*
X2922444Y-11772579D02*
X2931967Y-11810674D01*
X2931967Y-11810674D02*
X2931967Y-11858293D01*
X2931967Y-11858293D02*
X2922444Y-11896388D01*
X2922444Y-11896388D02*
X2912920Y-11915436D01*
X2912920Y-11915436D02*
X2903396Y-11924960D01*
X2903396Y-11924960D02*
X2884348Y-11934484D01*
X2884348Y-11934484D02*
X2865301Y-11934484D01*
X2865301Y-11934484D02*
X2846253Y-11924960D01*
X2846253Y-11924960D02*
X2836729Y-11915436D01*
X2836729Y-11915436D02*
X2827206Y-11896388D01*
X2827206Y-11896388D02*
X2817682Y-11858293D01*
X2817682Y-11858293D02*
X2817682Y-11810674D01*
X2817682Y-11810674D02*
X2827206Y-11772579D01*
X2827206Y-11772579D02*
X2836729Y-11753531D01*
X2836729Y-11753531D02*
X2846253Y-11744008D01*
X2846253Y-11744008D02*
X2865301Y-11734484D01*
X3027206Y-11934484D02*
X3065301Y-11934484D01*
X3065301Y-11934484D02*
X3084348Y-11924960D01*
X3084348Y-11924960D02*
X3093872Y-11915436D01*
X3093872Y-11915436D02*
X3112920Y-11886865D01*
X3112920Y-11886865D02*
X3122444Y-11848769D01*
X3122444Y-11848769D02*
X3122444Y-11772579D01*
X3122444Y-11772579D02*
X3112920Y-11753531D01*
X3112920Y-11753531D02*
X3103396Y-11744008D01*
X3103396Y-11744008D02*
X3084348Y-11734484D01*
X3084348Y-11734484D02*
X3046253Y-11734484D01*
X3046253Y-11734484D02*
X3027206Y-11744008D01*
X3027206Y-11744008D02*
X3017682Y-11753531D01*
X3017682Y-11753531D02*
X3008158Y-11772579D01*
X3008158Y-11772579D02*
X3008158Y-11820198D01*
X3008158Y-11820198D02*
X3017682Y-11839246D01*
X3017682Y-11839246D02*
X3027206Y-11848769D01*
X3027206Y-11848769D02*
X3046253Y-11858293D01*
X3046253Y-11858293D02*
X3084348Y-11858293D01*
X3084348Y-11858293D02*
X3103396Y-11848769D01*
X3103396Y-11848769D02*
X3112920Y-11839246D01*
X3112920Y-11839246D02*
X3122444Y-11820198D01*
X3198634Y-11734484D02*
X3198634Y-11772579D01*
X3274825Y-11734484D02*
X3274825Y-11772579D01*
X3570063Y-12010674D02*
X3560539Y-12001150D01*
X3560539Y-12001150D02*
X3541491Y-11972579D01*
X3541491Y-11972579D02*
X3531968Y-11953531D01*
X3531968Y-11953531D02*
X3522444Y-11924960D01*
X3522444Y-11924960D02*
X3512920Y-11877341D01*
X3512920Y-11877341D02*
X3512920Y-11839246D01*
X3512920Y-11839246D02*
X3522444Y-11791627D01*
X3522444Y-11791627D02*
X3531968Y-11763055D01*
X3531968Y-11763055D02*
X3541491Y-11744008D01*
X3541491Y-11744008D02*
X3560539Y-11715436D01*
X3560539Y-11715436D02*
X3570063Y-11705912D01*
X3731968Y-11801150D02*
X3731968Y-11934484D01*
X3684348Y-11724960D02*
X3636729Y-11867817D01*
X3636729Y-11867817D02*
X3760539Y-11867817D01*
X3989110Y-11934484D02*
X3989110Y-11734484D01*
X4074825Y-11934484D02*
X4074825Y-11829722D01*
X4074825Y-11829722D02*
X4065301Y-11810674D01*
X4065301Y-11810674D02*
X4046253Y-11801150D01*
X4046253Y-11801150D02*
X4017682Y-11801150D01*
X4017682Y-11801150D02*
X3998634Y-11810674D01*
X3998634Y-11810674D02*
X3989110Y-11820198D01*
X4198634Y-11934484D02*
X4179587Y-11924960D01*
X4179587Y-11924960D02*
X4170063Y-11915436D01*
X4170063Y-11915436D02*
X4160539Y-11896388D01*
X4160539Y-11896388D02*
X4160539Y-11839246D01*
X4160539Y-11839246D02*
X4170063Y-11820198D01*
X4170063Y-11820198D02*
X4179587Y-11810674D01*
X4179587Y-11810674D02*
X4198634Y-11801150D01*
X4198634Y-11801150D02*
X4227206Y-11801150D01*
X4227206Y-11801150D02*
X4246253Y-11810674D01*
X4246253Y-11810674D02*
X4255777Y-11820198D01*
X4255777Y-11820198D02*
X4265301Y-11839246D01*
X4265301Y-11839246D02*
X4265301Y-11896388D01*
X4265301Y-11896388D02*
X4255777Y-11915436D01*
X4255777Y-11915436D02*
X4246253Y-11924960D01*
X4246253Y-11924960D02*
X4227206Y-11934484D01*
X4227206Y-11934484D02*
X4198634Y-11934484D01*
X4379587Y-11934484D02*
X4360539Y-11924960D01*
X4360539Y-11924960D02*
X4351015Y-11905912D01*
X4351015Y-11905912D02*
X4351015Y-11734484D01*
X4531968Y-11924960D02*
X4512920Y-11934484D01*
X4512920Y-11934484D02*
X4474825Y-11934484D01*
X4474825Y-11934484D02*
X4455777Y-11924960D01*
X4455777Y-11924960D02*
X4446253Y-11905912D01*
X4446253Y-11905912D02*
X4446253Y-11829722D01*
X4446253Y-11829722D02*
X4455777Y-11810674D01*
X4455777Y-11810674D02*
X4474825Y-11801150D01*
X4474825Y-11801150D02*
X4512920Y-11801150D01*
X4512920Y-11801150D02*
X4531968Y-11810674D01*
X4531968Y-11810674D02*
X4541492Y-11829722D01*
X4541492Y-11829722D02*
X4541492Y-11848769D01*
X4541492Y-11848769D02*
X4446253Y-11867817D01*
X4617682Y-11924960D02*
X4636730Y-11934484D01*
X4636730Y-11934484D02*
X4674825Y-11934484D01*
X4674825Y-11934484D02*
X4693873Y-11924960D01*
X4693873Y-11924960D02*
X4703396Y-11905912D01*
X4703396Y-11905912D02*
X4703396Y-11896388D01*
X4703396Y-11896388D02*
X4693873Y-11877341D01*
X4693873Y-11877341D02*
X4674825Y-11867817D01*
X4674825Y-11867817D02*
X4646253Y-11867817D01*
X4646253Y-11867817D02*
X4627206Y-11858293D01*
X4627206Y-11858293D02*
X4617682Y-11839246D01*
X4617682Y-11839246D02*
X4617682Y-11829722D01*
X4617682Y-11829722D02*
X4627206Y-11810674D01*
X4627206Y-11810674D02*
X4646253Y-11801150D01*
X4646253Y-11801150D02*
X4674825Y-11801150D01*
X4674825Y-11801150D02*
X4693873Y-11810674D01*
X4770063Y-12010674D02*
X4779587Y-12001150D01*
X4779587Y-12001150D02*
X4798634Y-11972579D01*
X4798634Y-11972579D02*
X4808158Y-11953531D01*
X4808158Y-11953531D02*
X4817682Y-11924960D01*
X4817682Y-11924960D02*
X4827206Y-11877341D01*
X4827206Y-11877341D02*
X4827206Y-11839246D01*
X4827206Y-11839246D02*
X4817682Y-11791627D01*
X4817682Y-11791627D02*
X4808158Y-11763055D01*
X4808158Y-11763055D02*
X4798634Y-11744008D01*
X4798634Y-11744008D02*
X4779587Y-11715436D01*
X4779587Y-11715436D02*
X4770063Y-11705912D01*
X-34289Y-12213711D02*
X-34289Y-12072289D01*
X-175711Y-12072289D01*
X-175711Y-12213711D01*
X-34289Y-12213711D01*
X-5000Y-12143000D02*
G75*
G02*
X-205000Y-12143000I-100000J0D01*
G01*
X-205000Y-12143000D02*
G75*
G02*
X-5000Y-12143000I100000J0D01*
G01*
X236729Y-12034484D02*
X360539Y-12034484D01*
X360539Y-12034484D02*
X293872Y-12110674D01*
X293872Y-12110674D02*
X322444Y-12110674D01*
X322444Y-12110674D02*
X341491Y-12120198D01*
X341491Y-12120198D02*
X351015Y-12129722D01*
X351015Y-12129722D02*
X360539Y-12148769D01*
X360539Y-12148769D02*
X360539Y-12196388D01*
X360539Y-12196388D02*
X351015Y-12215436D01*
X351015Y-12215436D02*
X341491Y-12224960D01*
X341491Y-12224960D02*
X322444Y-12234484D01*
X322444Y-12234484D02*
X265301Y-12234484D01*
X265301Y-12234484D02*
X246253Y-12224960D01*
X246253Y-12224960D02*
X236729Y-12215436D01*
X446253Y-12215436D02*
X455777Y-12224960D01*
X455777Y-12224960D02*
X446253Y-12234484D01*
X446253Y-12234484D02*
X436729Y-12224960D01*
X436729Y-12224960D02*
X446253Y-12215436D01*
X446253Y-12215436D02*
X446253Y-12234484D01*
X531967Y-12053531D02*
X541491Y-12044008D01*
X541491Y-12044008D02*
X560539Y-12034484D01*
X560539Y-12034484D02*
X608158Y-12034484D01*
X608158Y-12034484D02*
X627205Y-12044008D01*
X627205Y-12044008D02*
X636729Y-12053531D01*
X636729Y-12053531D02*
X646253Y-12072579D01*
X646253Y-12072579D02*
X646253Y-12091627D01*
X646253Y-12091627D02*
X636729Y-12120198D01*
X636729Y-12120198D02*
X522443Y-12234484D01*
X522443Y-12234484D02*
X646253Y-12234484D01*
X770062Y-12034484D02*
X789110Y-12034484D01*
X789110Y-12034484D02*
X808158Y-12044008D01*
X808158Y-12044008D02*
X817682Y-12053531D01*
X817682Y-12053531D02*
X827205Y-12072579D01*
X827205Y-12072579D02*
X836729Y-12110674D01*
X836729Y-12110674D02*
X836729Y-12158293D01*
X836729Y-12158293D02*
X827205Y-12196388D01*
X827205Y-12196388D02*
X817682Y-12215436D01*
X817682Y-12215436D02*
X808158Y-12224960D01*
X808158Y-12224960D02*
X789110Y-12234484D01*
X789110Y-12234484D02*
X770062Y-12234484D01*
X770062Y-12234484D02*
X751015Y-12224960D01*
X751015Y-12224960D02*
X741491Y-12215436D01*
X741491Y-12215436D02*
X731967Y-12196388D01*
X731967Y-12196388D02*
X722443Y-12158293D01*
X722443Y-12158293D02*
X722443Y-12110674D01*
X722443Y-12110674D02*
X731967Y-12072579D01*
X731967Y-12072579D02*
X741491Y-12053531D01*
X741491Y-12053531D02*
X751015Y-12044008D01*
X751015Y-12044008D02*
X770062Y-12034484D01*
X960539Y-12034484D02*
X979586Y-12034484D01*
X979586Y-12034484D02*
X998634Y-12044008D01*
X998634Y-12044008D02*
X1008158Y-12053531D01*
X1008158Y-12053531D02*
X1017682Y-12072579D01*
X1017682Y-12072579D02*
X1027205Y-12110674D01*
X1027205Y-12110674D02*
X1027205Y-12158293D01*
X1027205Y-12158293D02*
X1017682Y-12196388D01*
X1017682Y-12196388D02*
X1008158Y-12215436D01*
X1008158Y-12215436D02*
X998634Y-12224960D01*
X998634Y-12224960D02*
X979586Y-12234484D01*
X979586Y-12234484D02*
X960539Y-12234484D01*
X960539Y-12234484D02*
X941491Y-12224960D01*
X941491Y-12224960D02*
X931967Y-12215436D01*
X931967Y-12215436D02*
X922443Y-12196388D01*
X922443Y-12196388D02*
X912920Y-12158293D01*
X912920Y-12158293D02*
X912920Y-12110674D01*
X912920Y-12110674D02*
X922443Y-12072579D01*
X922443Y-12072579D02*
X931967Y-12053531D01*
X931967Y-12053531D02*
X941491Y-12044008D01*
X941491Y-12044008D02*
X960539Y-12034484D01*
X1112920Y-12234484D02*
X1112920Y-12101150D01*
X1112920Y-12120198D02*
X1122444Y-12110674D01*
X1122444Y-12110674D02*
X1141491Y-12101150D01*
X1141491Y-12101150D02*
X1170063Y-12101150D01*
X1170063Y-12101150D02*
X1189110Y-12110674D01*
X1189110Y-12110674D02*
X1198634Y-12129722D01*
X1198634Y-12129722D02*
X1198634Y-12234484D01*
X1198634Y-12129722D02*
X1208158Y-12110674D01*
X1208158Y-12110674D02*
X1227205Y-12101150D01*
X1227205Y-12101150D02*
X1255777Y-12101150D01*
X1255777Y-12101150D02*
X1274825Y-12110674D01*
X1274825Y-12110674D02*
X1284348Y-12129722D01*
X1284348Y-12129722D02*
X1284348Y-12234484D01*
X1379586Y-12234484D02*
X1379586Y-12101150D01*
X1379586Y-12120198D02*
X1389110Y-12110674D01*
X1389110Y-12110674D02*
X1408158Y-12101150D01*
X1408158Y-12101150D02*
X1436729Y-12101150D01*
X1436729Y-12101150D02*
X1455777Y-12110674D01*
X1455777Y-12110674D02*
X1465301Y-12129722D01*
X1465301Y-12129722D02*
X1465301Y-12234484D01*
X1465301Y-12129722D02*
X1474824Y-12110674D01*
X1474824Y-12110674D02*
X1493872Y-12101150D01*
X1493872Y-12101150D02*
X1522443Y-12101150D01*
X1522443Y-12101150D02*
X1541491Y-12110674D01*
X1541491Y-12110674D02*
X1551015Y-12129722D01*
X1551015Y-12129722D02*
X1551015Y-12234484D01*
X1941491Y-12024960D02*
X1770063Y-12282103D01*
X2198634Y-12034484D02*
X2217682Y-12034484D01*
X2217682Y-12034484D02*
X2236729Y-12044008D01*
X2236729Y-12044008D02*
X2246253Y-12053531D01*
X2246253Y-12053531D02*
X2255777Y-12072579D01*
X2255777Y-12072579D02*
X2265301Y-12110674D01*
X2265301Y-12110674D02*
X2265301Y-12158293D01*
X2265301Y-12158293D02*
X2255777Y-12196388D01*
X2255777Y-12196388D02*
X2246253Y-12215436D01*
X2246253Y-12215436D02*
X2236729Y-12224960D01*
X2236729Y-12224960D02*
X2217682Y-12234484D01*
X2217682Y-12234484D02*
X2198634Y-12234484D01*
X2198634Y-12234484D02*
X2179587Y-12224960D01*
X2179587Y-12224960D02*
X2170063Y-12215436D01*
X2170063Y-12215436D02*
X2160539Y-12196388D01*
X2160539Y-12196388D02*
X2151015Y-12158293D01*
X2151015Y-12158293D02*
X2151015Y-12110674D01*
X2151015Y-12110674D02*
X2160539Y-12072579D01*
X2160539Y-12072579D02*
X2170063Y-12053531D01*
X2170063Y-12053531D02*
X2179587Y-12044008D01*
X2179587Y-12044008D02*
X2198634Y-12034484D01*
X2351015Y-12215436D02*
X2360539Y-12224960D01*
X2360539Y-12224960D02*
X2351015Y-12234484D01*
X2351015Y-12234484D02*
X2341491Y-12224960D01*
X2341491Y-12224960D02*
X2351015Y-12215436D01*
X2351015Y-12215436D02*
X2351015Y-12234484D01*
X2551015Y-12234484D02*
X2436729Y-12234484D01*
X2493872Y-12234484D02*
X2493872Y-12034484D01*
X2493872Y-12034484D02*
X2474825Y-12063055D01*
X2474825Y-12063055D02*
X2455777Y-12082103D01*
X2455777Y-12082103D02*
X2436729Y-12091627D01*
X2627206Y-12053531D02*
X2636729Y-12044008D01*
X2636729Y-12044008D02*
X2655777Y-12034484D01*
X2655777Y-12034484D02*
X2703396Y-12034484D01*
X2703396Y-12034484D02*
X2722444Y-12044008D01*
X2722444Y-12044008D02*
X2731968Y-12053531D01*
X2731968Y-12053531D02*
X2741491Y-12072579D01*
X2741491Y-12072579D02*
X2741491Y-12091627D01*
X2741491Y-12091627D02*
X2731968Y-12120198D01*
X2731968Y-12120198D02*
X2617682Y-12234484D01*
X2617682Y-12234484D02*
X2741491Y-12234484D01*
X2912920Y-12034484D02*
X2874825Y-12034484D01*
X2874825Y-12034484D02*
X2855777Y-12044008D01*
X2855777Y-12044008D02*
X2846253Y-12053531D01*
X2846253Y-12053531D02*
X2827206Y-12082103D01*
X2827206Y-12082103D02*
X2817682Y-12120198D01*
X2817682Y-12120198D02*
X2817682Y-12196388D01*
X2817682Y-12196388D02*
X2827206Y-12215436D01*
X2827206Y-12215436D02*
X2836729Y-12224960D01*
X2836729Y-12224960D02*
X2855777Y-12234484D01*
X2855777Y-12234484D02*
X2893872Y-12234484D01*
X2893872Y-12234484D02*
X2912920Y-12224960D01*
X2912920Y-12224960D02*
X2922444Y-12215436D01*
X2922444Y-12215436D02*
X2931967Y-12196388D01*
X2931967Y-12196388D02*
X2931967Y-12148769D01*
X2931967Y-12148769D02*
X2922444Y-12129722D01*
X2922444Y-12129722D02*
X2912920Y-12120198D01*
X2912920Y-12120198D02*
X2893872Y-12110674D01*
X2893872Y-12110674D02*
X2855777Y-12110674D01*
X2855777Y-12110674D02*
X2836729Y-12120198D01*
X2836729Y-12120198D02*
X2827206Y-12129722D01*
X2827206Y-12129722D02*
X2817682Y-12148769D01*
X3055777Y-12034484D02*
X3074825Y-12034484D01*
X3074825Y-12034484D02*
X3093872Y-12044008D01*
X3093872Y-12044008D02*
X3103396Y-12053531D01*
X3103396Y-12053531D02*
X3112920Y-12072579D01*
X3112920Y-12072579D02*
X3122444Y-12110674D01*
X3122444Y-12110674D02*
X3122444Y-12158293D01*
X3122444Y-12158293D02*
X3112920Y-12196388D01*
X3112920Y-12196388D02*
X3103396Y-12215436D01*
X3103396Y-12215436D02*
X3093872Y-12224960D01*
X3093872Y-12224960D02*
X3074825Y-12234484D01*
X3074825Y-12234484D02*
X3055777Y-12234484D01*
X3055777Y-12234484D02*
X3036729Y-12224960D01*
X3036729Y-12224960D02*
X3027206Y-12215436D01*
X3027206Y-12215436D02*
X3017682Y-12196388D01*
X3017682Y-12196388D02*
X3008158Y-12158293D01*
X3008158Y-12158293D02*
X3008158Y-12110674D01*
X3008158Y-12110674D02*
X3017682Y-12072579D01*
X3017682Y-12072579D02*
X3027206Y-12053531D01*
X3027206Y-12053531D02*
X3036729Y-12044008D01*
X3036729Y-12044008D02*
X3055777Y-12034484D01*
X3198634Y-12034484D02*
X3198634Y-12072579D01*
X3274825Y-12034484D02*
X3274825Y-12072579D01*
X3570063Y-12310674D02*
X3560539Y-12301150D01*
X3560539Y-12301150D02*
X3541491Y-12272579D01*
X3541491Y-12272579D02*
X3531968Y-12253531D01*
X3531968Y-12253531D02*
X3522444Y-12224960D01*
X3522444Y-12224960D02*
X3512920Y-12177341D01*
X3512920Y-12177341D02*
X3512920Y-12139246D01*
X3512920Y-12139246D02*
X3522444Y-12091627D01*
X3522444Y-12091627D02*
X3531968Y-12063055D01*
X3531968Y-12063055D02*
X3541491Y-12044008D01*
X3541491Y-12044008D02*
X3560539Y-12015436D01*
X3560539Y-12015436D02*
X3570063Y-12005912D01*
X3731968Y-12101150D02*
X3731968Y-12234484D01*
X3684348Y-12024960D02*
X3636729Y-12167817D01*
X3636729Y-12167817D02*
X3760539Y-12167817D01*
X3989110Y-12234484D02*
X3989110Y-12034484D01*
X4074825Y-12234484D02*
X4074825Y-12129722D01*
X4074825Y-12129722D02*
X4065301Y-12110674D01*
X4065301Y-12110674D02*
X4046253Y-12101150D01*
X4046253Y-12101150D02*
X4017682Y-12101150D01*
X4017682Y-12101150D02*
X3998634Y-12110674D01*
X3998634Y-12110674D02*
X3989110Y-12120198D01*
X4198634Y-12234484D02*
X4179587Y-12224960D01*
X4179587Y-12224960D02*
X4170063Y-12215436D01*
X4170063Y-12215436D02*
X4160539Y-12196388D01*
X4160539Y-12196388D02*
X4160539Y-12139246D01*
X4160539Y-12139246D02*
X4170063Y-12120198D01*
X4170063Y-12120198D02*
X4179587Y-12110674D01*
X4179587Y-12110674D02*
X4198634Y-12101150D01*
X4198634Y-12101150D02*
X4227206Y-12101150D01*
X4227206Y-12101150D02*
X4246253Y-12110674D01*
X4246253Y-12110674D02*
X4255777Y-12120198D01*
X4255777Y-12120198D02*
X4265301Y-12139246D01*
X4265301Y-12139246D02*
X4265301Y-12196388D01*
X4265301Y-12196388D02*
X4255777Y-12215436D01*
X4255777Y-12215436D02*
X4246253Y-12224960D01*
X4246253Y-12224960D02*
X4227206Y-12234484D01*
X4227206Y-12234484D02*
X4198634Y-12234484D01*
X4379587Y-12234484D02*
X4360539Y-12224960D01*
X4360539Y-12224960D02*
X4351015Y-12205912D01*
X4351015Y-12205912D02*
X4351015Y-12034484D01*
X4531968Y-12224960D02*
X4512920Y-12234484D01*
X4512920Y-12234484D02*
X4474825Y-12234484D01*
X4474825Y-12234484D02*
X4455777Y-12224960D01*
X4455777Y-12224960D02*
X4446253Y-12205912D01*
X4446253Y-12205912D02*
X4446253Y-12129722D01*
X4446253Y-12129722D02*
X4455777Y-12110674D01*
X4455777Y-12110674D02*
X4474825Y-12101150D01*
X4474825Y-12101150D02*
X4512920Y-12101150D01*
X4512920Y-12101150D02*
X4531968Y-12110674D01*
X4531968Y-12110674D02*
X4541492Y-12129722D01*
X4541492Y-12129722D02*
X4541492Y-12148769D01*
X4541492Y-12148769D02*
X4446253Y-12167817D01*
X4617682Y-12224960D02*
X4636730Y-12234484D01*
X4636730Y-12234484D02*
X4674825Y-12234484D01*
X4674825Y-12234484D02*
X4693873Y-12224960D01*
X4693873Y-12224960D02*
X4703396Y-12205912D01*
X4703396Y-12205912D02*
X4703396Y-12196388D01*
X4703396Y-12196388D02*
X4693873Y-12177341D01*
X4693873Y-12177341D02*
X4674825Y-12167817D01*
X4674825Y-12167817D02*
X4646253Y-12167817D01*
X4646253Y-12167817D02*
X4627206Y-12158293D01*
X4627206Y-12158293D02*
X4617682Y-12139246D01*
X4617682Y-12139246D02*
X4617682Y-12129722D01*
X4617682Y-12129722D02*
X4627206Y-12110674D01*
X4627206Y-12110674D02*
X4646253Y-12101150D01*
X4646253Y-12101150D02*
X4674825Y-12101150D01*
X4674825Y-12101150D02*
X4693873Y-12110674D01*
X4770063Y-12310674D02*
X4779587Y-12301150D01*
X4779587Y-12301150D02*
X4798634Y-12272579D01*
X4798634Y-12272579D02*
X4808158Y-12253531D01*
X4808158Y-12253531D02*
X4817682Y-12224960D01*
X4817682Y-12224960D02*
X4827206Y-12177341D01*
X4827206Y-12177341D02*
X4827206Y-12139246D01*
X4827206Y-12139246D02*
X4817682Y-12091627D01*
X4817682Y-12091627D02*
X4808158Y-12063055D01*
X4808158Y-12063055D02*
X4798634Y-12044008D01*
X4798634Y-12044008D02*
X4779587Y-12015436D01*
X4779587Y-12015436D02*
X4770063Y-12005912D01*
X5131968Y-12310674D02*
X5122444Y-12301150D01*
X5122444Y-12301150D02*
X5103396Y-12272579D01*
X5103396Y-12272579D02*
X5093873Y-12253531D01*
X5093873Y-12253531D02*
X5084349Y-12224960D01*
X5084349Y-12224960D02*
X5074825Y-12177341D01*
X5074825Y-12177341D02*
X5074825Y-12139246D01*
X5074825Y-12139246D02*
X5084349Y-12091627D01*
X5084349Y-12091627D02*
X5093873Y-12063055D01*
X5093873Y-12063055D02*
X5103396Y-12044008D01*
X5103396Y-12044008D02*
X5122444Y-12015436D01*
X5122444Y-12015436D02*
X5131968Y-12005912D01*
X5208158Y-12101150D02*
X5208158Y-12234484D01*
X5208158Y-12120198D02*
X5217682Y-12110674D01*
X5217682Y-12110674D02*
X5236730Y-12101150D01*
X5236730Y-12101150D02*
X5265301Y-12101150D01*
X5265301Y-12101150D02*
X5284349Y-12110674D01*
X5284349Y-12110674D02*
X5293873Y-12129722D01*
X5293873Y-12129722D02*
X5293873Y-12234484D01*
X5417682Y-12234484D02*
X5398634Y-12224960D01*
X5398634Y-12224960D02*
X5389111Y-12215436D01*
X5389111Y-12215436D02*
X5379587Y-12196388D01*
X5379587Y-12196388D02*
X5379587Y-12139246D01*
X5379587Y-12139246D02*
X5389111Y-12120198D01*
X5389111Y-12120198D02*
X5398634Y-12110674D01*
X5398634Y-12110674D02*
X5417682Y-12101150D01*
X5417682Y-12101150D02*
X5446254Y-12101150D01*
X5446254Y-12101150D02*
X5465301Y-12110674D01*
X5465301Y-12110674D02*
X5474825Y-12120198D01*
X5474825Y-12120198D02*
X5484349Y-12139246D01*
X5484349Y-12139246D02*
X5484349Y-12196388D01*
X5484349Y-12196388D02*
X5474825Y-12215436D01*
X5474825Y-12215436D02*
X5465301Y-12224960D01*
X5465301Y-12224960D02*
X5446254Y-12234484D01*
X5446254Y-12234484D02*
X5417682Y-12234484D01*
X5541492Y-12101150D02*
X5617682Y-12101150D01*
X5570063Y-12034484D02*
X5570063Y-12205912D01*
X5570063Y-12205912D02*
X5579587Y-12224960D01*
X5579587Y-12224960D02*
X5598634Y-12234484D01*
X5598634Y-12234484D02*
X5617682Y-12234484D01*
X5836730Y-12101150D02*
X5836730Y-12301150D01*
X5836730Y-12110674D02*
X5855777Y-12101150D01*
X5855777Y-12101150D02*
X5893873Y-12101150D01*
X5893873Y-12101150D02*
X5912920Y-12110674D01*
X5912920Y-12110674D02*
X5922444Y-12120198D01*
X5922444Y-12120198D02*
X5931968Y-12139246D01*
X5931968Y-12139246D02*
X5931968Y-12196388D01*
X5931968Y-12196388D02*
X5922444Y-12215436D01*
X5922444Y-12215436D02*
X5912920Y-12224960D01*
X5912920Y-12224960D02*
X5893873Y-12234484D01*
X5893873Y-12234484D02*
X5855777Y-12234484D01*
X5855777Y-12234484D02*
X5836730Y-12224960D01*
X6046253Y-12234484D02*
X6027206Y-12224960D01*
X6027206Y-12224960D02*
X6017682Y-12205912D01*
X6017682Y-12205912D02*
X6017682Y-12034484D01*
X6208158Y-12234484D02*
X6208158Y-12129722D01*
X6208158Y-12129722D02*
X6198634Y-12110674D01*
X6198634Y-12110674D02*
X6179587Y-12101150D01*
X6179587Y-12101150D02*
X6141492Y-12101150D01*
X6141492Y-12101150D02*
X6122444Y-12110674D01*
X6208158Y-12224960D02*
X6189111Y-12234484D01*
X6189111Y-12234484D02*
X6141492Y-12234484D01*
X6141492Y-12234484D02*
X6122444Y-12224960D01*
X6122444Y-12224960D02*
X6112920Y-12205912D01*
X6112920Y-12205912D02*
X6112920Y-12186865D01*
X6112920Y-12186865D02*
X6122444Y-12167817D01*
X6122444Y-12167817D02*
X6141492Y-12158293D01*
X6141492Y-12158293D02*
X6189111Y-12158293D01*
X6189111Y-12158293D02*
X6208158Y-12148769D01*
X6274825Y-12101150D02*
X6351015Y-12101150D01*
X6303396Y-12034484D02*
X6303396Y-12205912D01*
X6303396Y-12205912D02*
X6312920Y-12224960D01*
X6312920Y-12224960D02*
X6331968Y-12234484D01*
X6331968Y-12234484D02*
X6351015Y-12234484D01*
X6493873Y-12224960D02*
X6474825Y-12234484D01*
X6474825Y-12234484D02*
X6436730Y-12234484D01*
X6436730Y-12234484D02*
X6417682Y-12224960D01*
X6417682Y-12224960D02*
X6408158Y-12205912D01*
X6408158Y-12205912D02*
X6408158Y-12129722D01*
X6408158Y-12129722D02*
X6417682Y-12110674D01*
X6417682Y-12110674D02*
X6436730Y-12101150D01*
X6436730Y-12101150D02*
X6474825Y-12101150D01*
X6474825Y-12101150D02*
X6493873Y-12110674D01*
X6493873Y-12110674D02*
X6503396Y-12129722D01*
X6503396Y-12129722D02*
X6503396Y-12148769D01*
X6503396Y-12148769D02*
X6408158Y-12167817D01*
X6674825Y-12234484D02*
X6674825Y-12034484D01*
X6674825Y-12224960D02*
X6655777Y-12234484D01*
X6655777Y-12234484D02*
X6617682Y-12234484D01*
X6617682Y-12234484D02*
X6598634Y-12224960D01*
X6598634Y-12224960D02*
X6589111Y-12215436D01*
X6589111Y-12215436D02*
X6579587Y-12196388D01*
X6579587Y-12196388D02*
X6579587Y-12139246D01*
X6579587Y-12139246D02*
X6589111Y-12120198D01*
X6589111Y-12120198D02*
X6598634Y-12110674D01*
X6598634Y-12110674D02*
X6617682Y-12101150D01*
X6617682Y-12101150D02*
X6655777Y-12101150D01*
X6655777Y-12101150D02*
X6674825Y-12110674D01*
X6751015Y-12310674D02*
X6760539Y-12301150D01*
X6760539Y-12301150D02*
X6779587Y-12272579D01*
X6779587Y-12272579D02*
X6789111Y-12253531D01*
X6789111Y-12253531D02*
X6798634Y-12224960D01*
X6798634Y-12224960D02*
X6808158Y-12177341D01*
X6808158Y-12177341D02*
X6808158Y-12139246D01*
X6808158Y-12139246D02*
X6798634Y-12091627D01*
X6798634Y-12091627D02*
X6789111Y-12063055D01*
X6789111Y-12063055D02*
X6779587Y-12044008D01*
X6779587Y-12044008D02*
X6760539Y-12015436D01*
X6760539Y-12015436D02*
X6751015Y-12005912D01*
M02*
