%TF.GenerationSoftware,KiCad,Pcbnew,10.0.5*%
%TF.CreationDate,2026-10-07T20:20:28+09:00*%
%TF.ProjectId,ShutterClock,53687574-7465-4724-936c-6f636b2e6b69,rev?*%
%TF.SameCoordinates,Original*%
%TF.FileFunction,Legend,Top*%
%TF.FilePolarity,Positive*%
%FSLAX46Y46*%
G04 Gerber Fmt 4.6, Leading zero omitted, Abs format (unit mm)*
G04 Created by KiCad (PCBNEW 10.0.5) date 2026-10-07 20:20:28*
%MOMM*%
%LPD*%
G01*
G04 APERTURE LIST*
G04 Aperture macros list*
%AMRoundRect*
0 Rectangle with rounded corners*
0 $1 Rounding radius*
0 $2 $3 $4 $5 $6 $7 $8 $9 X,Y pos of 4 corners*
0 Add a 4 corners polygon primitive as box body*
4,1,4,$2,$3,$4,$5,$6,$7,$8,$9,$2,$3,0*
0 Add four circle primitives for the rounded corners*
1,1,$1+$1,$2,$3*
1,1,$1+$1,$4,$5*
1,1,$1+$1,$6,$7*
1,1,$1+$1,$8,$9*
0 Add four rect primitives between the rounded corners*
20,1,$1+$1,$2,$3,$4,$5,0*
20,1,$1+$1,$4,$5,$6,$7,0*
20,1,$1+$1,$6,$7,$8,$9,0*
20,1,$1+$1,$8,$9,$2,$3,0*%
%AMFreePoly0*
4,1,9,3.862500,-0.866500,0.737500,-0.866500,0.737500,-0.450000,-0.737500,-0.450000,-0.737500,0.450000,0.737500,0.450000,0.737500,0.866500,3.862500,0.866500,3.862500,-0.866500,3.862500,-0.866500,$1*%
G04 Aperture macros list end*
%ADD10C,0.120000*%
%ADD11C,0.160000*%
%ADD12C,0.135000*%
%ADD13C,0.150000*%
%ADD14C,0.200000*%
%ADD15C,0.320000*%
%ADD16C,0.158750*%
%ADD17C,0.101600*%
%ADD18C,0.127000*%
%ADD19C,0.100000*%
%ADD20C,0.504000*%
%ADD21RoundRect,0.250001X-0.949999X-0.949999X0.949999X-0.949999X0.949999X0.949999X-0.949999X0.949999X0*%
%ADD22C,2.400000*%
%ADD23C,1.600000*%
%ADD24C,3.200000*%
%ADD25RoundRect,0.250000X-0.550000X-0.550000X0.550000X-0.550000X0.550000X0.550000X-0.550000X0.550000X0*%
%ADD26RoundRect,0.250000X-1.050000X-1.050000X1.050000X-1.050000X1.050000X1.050000X-1.050000X1.050000X0*%
%ADD27C,2.600000*%
%ADD28RoundRect,0.249999X-0.850001X0.850001X-0.850001X-0.850001X0.850001X-0.850001X0.850001X0.850001X0*%
%ADD29C,2.200000*%
%ADD30RoundRect,0.250000X-0.750000X-0.750000X0.750000X-0.750000X0.750000X0.750000X-0.750000X0.750000X0*%
%ADD31C,2.000000*%
%ADD32R,1.905000X2.000000*%
%ADD33O,1.905000X2.000000*%
%ADD34RoundRect,0.152400X1.063600X0.609600X-1.063600X0.609600X-1.063600X-0.609600X1.063600X-0.609600X0*%
%ADD35C,1.524000*%
%ADD36RoundRect,0.152400X-1.063600X-0.609600X1.063600X-0.609600X1.063600X0.609600X-1.063600X0.609600X0*%
%ADD37RoundRect,0.225000X-0.425000X-0.225000X0.425000X-0.225000X0.425000X0.225000X-0.425000X0.225000X0*%
%ADD38FreePoly0,0.000000*%
%ADD39R,1.700000X1.700000*%
%ADD40C,1.700000*%
%ADD41R,1.717500X1.800000*%
%ADD42O,1.717500X1.800000*%
%ADD43RoundRect,0.250000X-1.350000X-1.350000X1.350000X-1.350000X1.350000X1.350000X-1.350000X1.350000X0*%
%ADD44RoundRect,0.250000X0.550000X-0.550000X0.550000X0.550000X-0.550000X0.550000X-0.550000X-0.550000X0*%
G04 APERTURE END LIST*
D10*
X41504762Y-52063855D02*
X41504762Y-52635283D01*
X41504762Y-52635283D02*
X41466667Y-52749569D01*
X41466667Y-52749569D02*
X41390476Y-52825760D01*
X41390476Y-52825760D02*
X41276191Y-52863855D01*
X41276191Y-52863855D02*
X41200000Y-52863855D01*
X41885715Y-52863855D02*
X41885715Y-52063855D01*
X41885715Y-52063855D02*
X42190477Y-52063855D01*
X42190477Y-52063855D02*
X42266667Y-52101950D01*
X42266667Y-52101950D02*
X42304762Y-52140045D01*
X42304762Y-52140045D02*
X42342858Y-52216236D01*
X42342858Y-52216236D02*
X42342858Y-52330521D01*
X42342858Y-52330521D02*
X42304762Y-52406712D01*
X42304762Y-52406712D02*
X42266667Y-52444807D01*
X42266667Y-52444807D02*
X42190477Y-52482902D01*
X42190477Y-52482902D02*
X41885715Y-52482902D01*
X42647619Y-52140045D02*
X42685715Y-52101950D01*
X42685715Y-52101950D02*
X42761905Y-52063855D01*
X42761905Y-52063855D02*
X42952381Y-52063855D01*
X42952381Y-52063855D02*
X43028572Y-52101950D01*
X43028572Y-52101950D02*
X43066667Y-52140045D01*
X43066667Y-52140045D02*
X43104762Y-52216236D01*
X43104762Y-52216236D02*
X43104762Y-52292426D01*
X43104762Y-52292426D02*
X43066667Y-52406712D01*
X43066667Y-52406712D02*
X42609524Y-52863855D01*
X42609524Y-52863855D02*
X43104762Y-52863855D01*
X43447620Y-52444807D02*
X44057144Y-52444807D01*
X44057144Y-52673379D02*
X43447620Y-52673379D01*
X44400000Y-52635283D02*
X44780953Y-52635283D01*
X44323810Y-52863855D02*
X44590477Y-52063855D01*
X44590477Y-52063855D02*
X44857143Y-52863855D01*
X45504762Y-52863855D02*
X45123810Y-52863855D01*
X45123810Y-52863855D02*
X45123810Y-52063855D01*
X45695238Y-52063855D02*
X45885714Y-52863855D01*
X45885714Y-52863855D02*
X46038095Y-52292426D01*
X46038095Y-52292426D02*
X46190476Y-52863855D01*
X46190476Y-52863855D02*
X46380953Y-52063855D01*
X46647619Y-52635283D02*
X47028572Y-52635283D01*
X46571429Y-52863855D02*
X46838096Y-52063855D01*
X46838096Y-52063855D02*
X47104762Y-52863855D01*
X47523810Y-52482902D02*
X47523810Y-52863855D01*
X47257143Y-52063855D02*
X47523810Y-52482902D01*
X47523810Y-52482902D02*
X47790476Y-52063855D01*
X48019047Y-52825760D02*
X48133333Y-52863855D01*
X48133333Y-52863855D02*
X48323809Y-52863855D01*
X48323809Y-52863855D02*
X48400000Y-52825760D01*
X48400000Y-52825760D02*
X48438095Y-52787664D01*
X48438095Y-52787664D02*
X48476190Y-52711474D01*
X48476190Y-52711474D02*
X48476190Y-52635283D01*
X48476190Y-52635283D02*
X48438095Y-52559093D01*
X48438095Y-52559093D02*
X48400000Y-52520998D01*
X48400000Y-52520998D02*
X48323809Y-52482902D01*
X48323809Y-52482902D02*
X48171428Y-52444807D01*
X48171428Y-52444807D02*
X48095238Y-52406712D01*
X48095238Y-52406712D02*
X48057143Y-52368617D01*
X48057143Y-52368617D02*
X48019047Y-52292426D01*
X48019047Y-52292426D02*
X48019047Y-52216236D01*
X48019047Y-52216236D02*
X48057143Y-52140045D01*
X48057143Y-52140045D02*
X48095238Y-52101950D01*
X48095238Y-52101950D02*
X48171428Y-52063855D01*
X48171428Y-52063855D02*
X48361905Y-52063855D01*
X48361905Y-52063855D02*
X48476190Y-52101950D01*
X49580953Y-52063855D02*
X49733334Y-52063855D01*
X49733334Y-52063855D02*
X49809524Y-52101950D01*
X49809524Y-52101950D02*
X49885715Y-52178140D01*
X49885715Y-52178140D02*
X49923810Y-52330521D01*
X49923810Y-52330521D02*
X49923810Y-52597188D01*
X49923810Y-52597188D02*
X49885715Y-52749569D01*
X49885715Y-52749569D02*
X49809524Y-52825760D01*
X49809524Y-52825760D02*
X49733334Y-52863855D01*
X49733334Y-52863855D02*
X49580953Y-52863855D01*
X49580953Y-52863855D02*
X49504762Y-52825760D01*
X49504762Y-52825760D02*
X49428572Y-52749569D01*
X49428572Y-52749569D02*
X49390476Y-52597188D01*
X49390476Y-52597188D02*
X49390476Y-52330521D01*
X49390476Y-52330521D02*
X49428572Y-52178140D01*
X49428572Y-52178140D02*
X49504762Y-52101950D01*
X49504762Y-52101950D02*
X49580953Y-52063855D01*
X50266667Y-52863855D02*
X50266667Y-52063855D01*
X50266667Y-52063855D02*
X50723810Y-52863855D01*
X50723810Y-52863855D02*
X50723810Y-52063855D01*
D11*
X38819047Y-2861775D02*
X38552380Y-2480822D01*
X38361904Y-2861775D02*
X38361904Y-2061775D01*
X38361904Y-2061775D02*
X38666666Y-2061775D01*
X38666666Y-2061775D02*
X38742856Y-2099870D01*
X38742856Y-2099870D02*
X38780951Y-2137965D01*
X38780951Y-2137965D02*
X38819047Y-2214156D01*
X38819047Y-2214156D02*
X38819047Y-2328441D01*
X38819047Y-2328441D02*
X38780951Y-2404632D01*
X38780951Y-2404632D02*
X38742856Y-2442727D01*
X38742856Y-2442727D02*
X38666666Y-2480822D01*
X38666666Y-2480822D02*
X38361904Y-2480822D01*
X39161904Y-2442727D02*
X39428570Y-2442727D01*
X39542856Y-2861775D02*
X39161904Y-2861775D01*
X39161904Y-2861775D02*
X39161904Y-2061775D01*
X39161904Y-2061775D02*
X39542856Y-2061775D01*
X39885714Y-2861775D02*
X39885714Y-2061775D01*
X39885714Y-2061775D02*
X40152380Y-2633203D01*
X40152380Y-2633203D02*
X40419047Y-2061775D01*
X40419047Y-2061775D02*
X40419047Y-2861775D01*
X40952381Y-2061775D02*
X41104762Y-2061775D01*
X41104762Y-2061775D02*
X41180952Y-2099870D01*
X41180952Y-2099870D02*
X41257143Y-2176060D01*
X41257143Y-2176060D02*
X41295238Y-2328441D01*
X41295238Y-2328441D02*
X41295238Y-2595108D01*
X41295238Y-2595108D02*
X41257143Y-2747489D01*
X41257143Y-2747489D02*
X41180952Y-2823680D01*
X41180952Y-2823680D02*
X41104762Y-2861775D01*
X41104762Y-2861775D02*
X40952381Y-2861775D01*
X40952381Y-2861775D02*
X40876190Y-2823680D01*
X40876190Y-2823680D02*
X40800000Y-2747489D01*
X40800000Y-2747489D02*
X40761904Y-2595108D01*
X40761904Y-2595108D02*
X40761904Y-2328441D01*
X40761904Y-2328441D02*
X40800000Y-2176060D01*
X40800000Y-2176060D02*
X40876190Y-2099870D01*
X40876190Y-2099870D02*
X40952381Y-2061775D01*
X41523809Y-2061775D02*
X41790476Y-2861775D01*
X41790476Y-2861775D02*
X42057142Y-2061775D01*
X42323809Y-2442727D02*
X42590475Y-2442727D01*
X42704761Y-2861775D02*
X42323809Y-2861775D01*
X42323809Y-2861775D02*
X42323809Y-2061775D01*
X42323809Y-2061775D02*
X42704761Y-2061775D01*
X43885714Y-2061775D02*
X43885714Y-2633203D01*
X43885714Y-2633203D02*
X43847619Y-2747489D01*
X43847619Y-2747489D02*
X43771428Y-2823680D01*
X43771428Y-2823680D02*
X43657143Y-2861775D01*
X43657143Y-2861775D02*
X43580952Y-2861775D01*
X44266667Y-2861775D02*
X44266667Y-2061775D01*
X44266667Y-2061775D02*
X44571429Y-2061775D01*
X44571429Y-2061775D02*
X44647619Y-2099870D01*
X44647619Y-2099870D02*
X44685714Y-2137965D01*
X44685714Y-2137965D02*
X44723810Y-2214156D01*
X44723810Y-2214156D02*
X44723810Y-2328441D01*
X44723810Y-2328441D02*
X44685714Y-2404632D01*
X44685714Y-2404632D02*
X44647619Y-2442727D01*
X44647619Y-2442727D02*
X44571429Y-2480822D01*
X44571429Y-2480822D02*
X44266667Y-2480822D01*
X45485714Y-2861775D02*
X45028571Y-2861775D01*
X45257143Y-2861775D02*
X45257143Y-2061775D01*
X45257143Y-2061775D02*
X45180952Y-2176060D01*
X45180952Y-2176060D02*
X45104762Y-2252251D01*
X45104762Y-2252251D02*
X45028571Y-2290346D01*
X46704762Y-2442727D02*
X46819048Y-2480822D01*
X46819048Y-2480822D02*
X46857143Y-2518918D01*
X46857143Y-2518918D02*
X46895239Y-2595108D01*
X46895239Y-2595108D02*
X46895239Y-2709394D01*
X46895239Y-2709394D02*
X46857143Y-2785584D01*
X46857143Y-2785584D02*
X46819048Y-2823680D01*
X46819048Y-2823680D02*
X46742858Y-2861775D01*
X46742858Y-2861775D02*
X46438096Y-2861775D01*
X46438096Y-2861775D02*
X46438096Y-2061775D01*
X46438096Y-2061775D02*
X46704762Y-2061775D01*
X46704762Y-2061775D02*
X46780953Y-2099870D01*
X46780953Y-2099870D02*
X46819048Y-2137965D01*
X46819048Y-2137965D02*
X46857143Y-2214156D01*
X46857143Y-2214156D02*
X46857143Y-2290346D01*
X46857143Y-2290346D02*
X46819048Y-2366537D01*
X46819048Y-2366537D02*
X46780953Y-2404632D01*
X46780953Y-2404632D02*
X46704762Y-2442727D01*
X46704762Y-2442727D02*
X46438096Y-2442727D01*
X47238096Y-2442727D02*
X47504762Y-2442727D01*
X47619048Y-2861775D02*
X47238096Y-2861775D01*
X47238096Y-2861775D02*
X47238096Y-2061775D01*
X47238096Y-2061775D02*
X47619048Y-2061775D01*
X48228572Y-2442727D02*
X47961906Y-2442727D01*
X47961906Y-2861775D02*
X47961906Y-2061775D01*
X47961906Y-2061775D02*
X48342858Y-2061775D01*
X48800001Y-2061775D02*
X48952382Y-2061775D01*
X48952382Y-2061775D02*
X49028572Y-2099870D01*
X49028572Y-2099870D02*
X49104763Y-2176060D01*
X49104763Y-2176060D02*
X49142858Y-2328441D01*
X49142858Y-2328441D02*
X49142858Y-2595108D01*
X49142858Y-2595108D02*
X49104763Y-2747489D01*
X49104763Y-2747489D02*
X49028572Y-2823680D01*
X49028572Y-2823680D02*
X48952382Y-2861775D01*
X48952382Y-2861775D02*
X48800001Y-2861775D01*
X48800001Y-2861775D02*
X48723810Y-2823680D01*
X48723810Y-2823680D02*
X48647620Y-2747489D01*
X48647620Y-2747489D02*
X48609524Y-2595108D01*
X48609524Y-2595108D02*
X48609524Y-2328441D01*
X48609524Y-2328441D02*
X48647620Y-2176060D01*
X48647620Y-2176060D02*
X48723810Y-2099870D01*
X48723810Y-2099870D02*
X48800001Y-2061775D01*
X49942858Y-2861775D02*
X49676191Y-2480822D01*
X49485715Y-2861775D02*
X49485715Y-2061775D01*
X49485715Y-2061775D02*
X49790477Y-2061775D01*
X49790477Y-2061775D02*
X49866667Y-2099870D01*
X49866667Y-2099870D02*
X49904762Y-2137965D01*
X49904762Y-2137965D02*
X49942858Y-2214156D01*
X49942858Y-2214156D02*
X49942858Y-2328441D01*
X49942858Y-2328441D02*
X49904762Y-2404632D01*
X49904762Y-2404632D02*
X49866667Y-2442727D01*
X49866667Y-2442727D02*
X49790477Y-2480822D01*
X49790477Y-2480822D02*
X49485715Y-2480822D01*
X50285715Y-2442727D02*
X50552381Y-2442727D01*
X50666667Y-2861775D02*
X50285715Y-2861775D01*
X50285715Y-2861775D02*
X50285715Y-2061775D01*
X50285715Y-2061775D02*
X50666667Y-2061775D01*
X51619049Y-2061775D02*
X51619049Y-2709394D01*
X51619049Y-2709394D02*
X51657144Y-2785584D01*
X51657144Y-2785584D02*
X51695239Y-2823680D01*
X51695239Y-2823680D02*
X51771430Y-2861775D01*
X51771430Y-2861775D02*
X51923811Y-2861775D01*
X51923811Y-2861775D02*
X52000001Y-2823680D01*
X52000001Y-2823680D02*
X52038096Y-2785584D01*
X52038096Y-2785584D02*
X52076192Y-2709394D01*
X52076192Y-2709394D02*
X52076192Y-2061775D01*
X52419048Y-2823680D02*
X52533334Y-2861775D01*
X52533334Y-2861775D02*
X52723810Y-2861775D01*
X52723810Y-2861775D02*
X52800001Y-2823680D01*
X52800001Y-2823680D02*
X52838096Y-2785584D01*
X52838096Y-2785584D02*
X52876191Y-2709394D01*
X52876191Y-2709394D02*
X52876191Y-2633203D01*
X52876191Y-2633203D02*
X52838096Y-2557013D01*
X52838096Y-2557013D02*
X52800001Y-2518918D01*
X52800001Y-2518918D02*
X52723810Y-2480822D01*
X52723810Y-2480822D02*
X52571429Y-2442727D01*
X52571429Y-2442727D02*
X52495239Y-2404632D01*
X52495239Y-2404632D02*
X52457144Y-2366537D01*
X52457144Y-2366537D02*
X52419048Y-2290346D01*
X52419048Y-2290346D02*
X52419048Y-2214156D01*
X52419048Y-2214156D02*
X52457144Y-2137965D01*
X52457144Y-2137965D02*
X52495239Y-2099870D01*
X52495239Y-2099870D02*
X52571429Y-2061775D01*
X52571429Y-2061775D02*
X52761906Y-2061775D01*
X52761906Y-2061775D02*
X52876191Y-2099870D01*
X53485715Y-2442727D02*
X53600001Y-2480822D01*
X53600001Y-2480822D02*
X53638096Y-2518918D01*
X53638096Y-2518918D02*
X53676192Y-2595108D01*
X53676192Y-2595108D02*
X53676192Y-2709394D01*
X53676192Y-2709394D02*
X53638096Y-2785584D01*
X53638096Y-2785584D02*
X53600001Y-2823680D01*
X53600001Y-2823680D02*
X53523811Y-2861775D01*
X53523811Y-2861775D02*
X53219049Y-2861775D01*
X53219049Y-2861775D02*
X53219049Y-2061775D01*
X53219049Y-2061775D02*
X53485715Y-2061775D01*
X53485715Y-2061775D02*
X53561906Y-2099870D01*
X53561906Y-2099870D02*
X53600001Y-2137965D01*
X53600001Y-2137965D02*
X53638096Y-2214156D01*
X53638096Y-2214156D02*
X53638096Y-2290346D01*
X53638096Y-2290346D02*
X53600001Y-2366537D01*
X53600001Y-2366537D02*
X53561906Y-2404632D01*
X53561906Y-2404632D02*
X53485715Y-2442727D01*
X53485715Y-2442727D02*
X53219049Y-2442727D01*
D12*
X65021429Y-50009337D02*
X65021429Y-50737908D01*
X65021429Y-50737908D02*
X65064286Y-50823622D01*
X65064286Y-50823622D02*
X65107144Y-50866480D01*
X65107144Y-50866480D02*
X65192858Y-50909337D01*
X65192858Y-50909337D02*
X65364286Y-50909337D01*
X65364286Y-50909337D02*
X65450001Y-50866480D01*
X65450001Y-50866480D02*
X65492858Y-50823622D01*
X65492858Y-50823622D02*
X65535715Y-50737908D01*
X65535715Y-50737908D02*
X65535715Y-50009337D01*
X65921429Y-50095051D02*
X65964286Y-50052194D01*
X65964286Y-50052194D02*
X66050001Y-50009337D01*
X66050001Y-50009337D02*
X66264286Y-50009337D01*
X66264286Y-50009337D02*
X66350001Y-50052194D01*
X66350001Y-50052194D02*
X66392858Y-50095051D01*
X66392858Y-50095051D02*
X66435715Y-50180765D01*
X66435715Y-50180765D02*
X66435715Y-50266480D01*
X66435715Y-50266480D02*
X66392858Y-50395051D01*
X66392858Y-50395051D02*
X65878572Y-50909337D01*
X65878572Y-50909337D02*
X66435715Y-50909337D01*
X66821429Y-50823622D02*
X66864286Y-50866480D01*
X66864286Y-50866480D02*
X66821429Y-50909337D01*
X66821429Y-50909337D02*
X66778572Y-50866480D01*
X66778572Y-50866480D02*
X66821429Y-50823622D01*
X66821429Y-50823622D02*
X66821429Y-50909337D01*
X66821429Y-50352194D02*
X66864286Y-50395051D01*
X66864286Y-50395051D02*
X66821429Y-50437908D01*
X66821429Y-50437908D02*
X66778572Y-50395051D01*
X66778572Y-50395051D02*
X66821429Y-50352194D01*
X66821429Y-50352194D02*
X66821429Y-50437908D01*
X67892857Y-50866480D02*
X68021429Y-50909337D01*
X68021429Y-50909337D02*
X68235714Y-50909337D01*
X68235714Y-50909337D02*
X68321429Y-50866480D01*
X68321429Y-50866480D02*
X68364286Y-50823622D01*
X68364286Y-50823622D02*
X68407143Y-50737908D01*
X68407143Y-50737908D02*
X68407143Y-50652194D01*
X68407143Y-50652194D02*
X68364286Y-50566480D01*
X68364286Y-50566480D02*
X68321429Y-50523622D01*
X68321429Y-50523622D02*
X68235714Y-50480765D01*
X68235714Y-50480765D02*
X68064286Y-50437908D01*
X68064286Y-50437908D02*
X67978571Y-50395051D01*
X67978571Y-50395051D02*
X67935714Y-50352194D01*
X67935714Y-50352194D02*
X67892857Y-50266480D01*
X67892857Y-50266480D02*
X67892857Y-50180765D01*
X67892857Y-50180765D02*
X67935714Y-50095051D01*
X67935714Y-50095051D02*
X67978571Y-50052194D01*
X67978571Y-50052194D02*
X68064286Y-50009337D01*
X68064286Y-50009337D02*
X68278571Y-50009337D01*
X68278571Y-50009337D02*
X68407143Y-50052194D01*
X68792857Y-50437908D02*
X69092857Y-50437908D01*
X69221429Y-50909337D02*
X68792857Y-50909337D01*
X68792857Y-50909337D02*
X68792857Y-50009337D01*
X68792857Y-50009337D02*
X69221429Y-50009337D01*
X69478572Y-50009337D02*
X69992858Y-50009337D01*
X69735715Y-50909337D02*
X69735715Y-50009337D01*
X71021428Y-50909337D02*
X71192857Y-50909337D01*
X71192857Y-50909337D02*
X71278571Y-50866480D01*
X71278571Y-50866480D02*
X71321428Y-50823622D01*
X71321428Y-50823622D02*
X71407143Y-50695051D01*
X71407143Y-50695051D02*
X71450000Y-50523622D01*
X71450000Y-50523622D02*
X71450000Y-50180765D01*
X71450000Y-50180765D02*
X71407143Y-50095051D01*
X71407143Y-50095051D02*
X71364286Y-50052194D01*
X71364286Y-50052194D02*
X71278571Y-50009337D01*
X71278571Y-50009337D02*
X71107143Y-50009337D01*
X71107143Y-50009337D02*
X71021428Y-50052194D01*
X71021428Y-50052194D02*
X70978571Y-50095051D01*
X70978571Y-50095051D02*
X70935714Y-50180765D01*
X70935714Y-50180765D02*
X70935714Y-50395051D01*
X70935714Y-50395051D02*
X70978571Y-50480765D01*
X70978571Y-50480765D02*
X71021428Y-50523622D01*
X71021428Y-50523622D02*
X71107143Y-50566480D01*
X71107143Y-50566480D02*
X71278571Y-50566480D01*
X71278571Y-50566480D02*
X71364286Y-50523622D01*
X71364286Y-50523622D02*
X71407143Y-50480765D01*
X71407143Y-50480765D02*
X71450000Y-50395051D01*
X71835714Y-50823622D02*
X71878571Y-50866480D01*
X71878571Y-50866480D02*
X71835714Y-50909337D01*
X71835714Y-50909337D02*
X71792857Y-50866480D01*
X71792857Y-50866480D02*
X71835714Y-50823622D01*
X71835714Y-50823622D02*
X71835714Y-50909337D01*
X72650000Y-50309337D02*
X72650000Y-50909337D01*
X72435714Y-49966480D02*
X72221428Y-50609337D01*
X72221428Y-50609337D02*
X72778571Y-50609337D01*
X72992857Y-50009337D02*
X73292857Y-50909337D01*
X73292857Y-50909337D02*
X73592857Y-50009337D01*
X73935714Y-50866480D02*
X73935714Y-50909337D01*
X73935714Y-50909337D02*
X73892857Y-50995051D01*
X73892857Y-50995051D02*
X73850000Y-51037908D01*
X75521428Y-50909337D02*
X75221428Y-50480765D01*
X75007142Y-50909337D02*
X75007142Y-50009337D01*
X75007142Y-50009337D02*
X75349999Y-50009337D01*
X75349999Y-50009337D02*
X75435714Y-50052194D01*
X75435714Y-50052194D02*
X75478571Y-50095051D01*
X75478571Y-50095051D02*
X75521428Y-50180765D01*
X75521428Y-50180765D02*
X75521428Y-50309337D01*
X75521428Y-50309337D02*
X75478571Y-50395051D01*
X75478571Y-50395051D02*
X75435714Y-50437908D01*
X75435714Y-50437908D02*
X75349999Y-50480765D01*
X75349999Y-50480765D02*
X75007142Y-50480765D01*
X75907142Y-50437908D02*
X76207142Y-50437908D01*
X76335714Y-50909337D02*
X75907142Y-50909337D01*
X75907142Y-50909337D02*
X75907142Y-50009337D01*
X75907142Y-50009337D02*
X76335714Y-50009337D01*
X76721428Y-50909337D02*
X76721428Y-50009337D01*
X76721428Y-50009337D02*
X77021428Y-50652194D01*
X77021428Y-50652194D02*
X77321428Y-50009337D01*
X77321428Y-50009337D02*
X77321428Y-50909337D01*
X77921428Y-50009337D02*
X78092856Y-50009337D01*
X78092856Y-50009337D02*
X78178571Y-50052194D01*
X78178571Y-50052194D02*
X78264285Y-50137908D01*
X78264285Y-50137908D02*
X78307142Y-50309337D01*
X78307142Y-50309337D02*
X78307142Y-50609337D01*
X78307142Y-50609337D02*
X78264285Y-50780765D01*
X78264285Y-50780765D02*
X78178571Y-50866480D01*
X78178571Y-50866480D02*
X78092856Y-50909337D01*
X78092856Y-50909337D02*
X77921428Y-50909337D01*
X77921428Y-50909337D02*
X77835714Y-50866480D01*
X77835714Y-50866480D02*
X77749999Y-50780765D01*
X77749999Y-50780765D02*
X77707142Y-50609337D01*
X77707142Y-50609337D02*
X77707142Y-50309337D01*
X77707142Y-50309337D02*
X77749999Y-50137908D01*
X77749999Y-50137908D02*
X77835714Y-50052194D01*
X77835714Y-50052194D02*
X77921428Y-50009337D01*
X78564285Y-50009337D02*
X78864285Y-50909337D01*
X78864285Y-50909337D02*
X79164285Y-50009337D01*
X79464285Y-50437908D02*
X79764285Y-50437908D01*
X79892857Y-50909337D02*
X79464285Y-50909337D01*
X79464285Y-50909337D02*
X79464285Y-50009337D01*
X79464285Y-50009337D02*
X79892857Y-50009337D01*
X81392857Y-50909337D02*
X80964285Y-50909337D01*
X80964285Y-50909337D02*
X80964285Y-50009337D01*
X81692856Y-50437908D02*
X81992856Y-50437908D01*
X82121428Y-50909337D02*
X81692856Y-50909337D01*
X81692856Y-50909337D02*
X81692856Y-50009337D01*
X81692856Y-50009337D02*
X82121428Y-50009337D01*
X82507142Y-50909337D02*
X82507142Y-50009337D01*
X82507142Y-50009337D02*
X82721428Y-50009337D01*
X82721428Y-50009337D02*
X82849999Y-50052194D01*
X82849999Y-50052194D02*
X82935714Y-50137908D01*
X82935714Y-50137908D02*
X82978571Y-50223622D01*
X82978571Y-50223622D02*
X83021428Y-50395051D01*
X83021428Y-50395051D02*
X83021428Y-50523622D01*
X83021428Y-50523622D02*
X82978571Y-50695051D01*
X82978571Y-50695051D02*
X82935714Y-50780765D01*
X82935714Y-50780765D02*
X82849999Y-50866480D01*
X82849999Y-50866480D02*
X82721428Y-50909337D01*
X82721428Y-50909337D02*
X82507142Y-50909337D01*
X89878571Y-20409337D02*
X89578571Y-19980765D01*
X89364285Y-20409337D02*
X89364285Y-19509337D01*
X89364285Y-19509337D02*
X89707142Y-19509337D01*
X89707142Y-19509337D02*
X89792857Y-19552194D01*
X89792857Y-19552194D02*
X89835714Y-19595051D01*
X89835714Y-19595051D02*
X89878571Y-19680765D01*
X89878571Y-19680765D02*
X89878571Y-19809337D01*
X89878571Y-19809337D02*
X89835714Y-19895051D01*
X89835714Y-19895051D02*
X89792857Y-19937908D01*
X89792857Y-19937908D02*
X89707142Y-19980765D01*
X89707142Y-19980765D02*
X89364285Y-19980765D01*
X90264285Y-19937908D02*
X90564285Y-19937908D01*
X90692857Y-20409337D02*
X90264285Y-20409337D01*
X90264285Y-20409337D02*
X90264285Y-19509337D01*
X90264285Y-19509337D02*
X90692857Y-19509337D01*
X91507143Y-20409337D02*
X91078571Y-20409337D01*
X91078571Y-20409337D02*
X91078571Y-19509337D01*
X91807142Y-19937908D02*
X92107142Y-19937908D01*
X92235714Y-20409337D02*
X91807142Y-20409337D01*
X91807142Y-20409337D02*
X91807142Y-19509337D01*
X91807142Y-19509337D02*
X92235714Y-19509337D01*
X92578571Y-20152194D02*
X93007143Y-20152194D01*
X92492857Y-20409337D02*
X92792857Y-19509337D01*
X92792857Y-19509337D02*
X93092857Y-20409337D01*
X93350000Y-20366480D02*
X93478572Y-20409337D01*
X93478572Y-20409337D02*
X93692857Y-20409337D01*
X93692857Y-20409337D02*
X93778572Y-20366480D01*
X93778572Y-20366480D02*
X93821429Y-20323622D01*
X93821429Y-20323622D02*
X93864286Y-20237908D01*
X93864286Y-20237908D02*
X93864286Y-20152194D01*
X93864286Y-20152194D02*
X93821429Y-20066480D01*
X93821429Y-20066480D02*
X93778572Y-20023622D01*
X93778572Y-20023622D02*
X93692857Y-19980765D01*
X93692857Y-19980765D02*
X93521429Y-19937908D01*
X93521429Y-19937908D02*
X93435714Y-19895051D01*
X93435714Y-19895051D02*
X93392857Y-19852194D01*
X93392857Y-19852194D02*
X93350000Y-19766480D01*
X93350000Y-19766480D02*
X93350000Y-19680765D01*
X93350000Y-19680765D02*
X93392857Y-19595051D01*
X93392857Y-19595051D02*
X93435714Y-19552194D01*
X93435714Y-19552194D02*
X93521429Y-19509337D01*
X93521429Y-19509337D02*
X93735714Y-19509337D01*
X93735714Y-19509337D02*
X93864286Y-19552194D01*
X94250000Y-19937908D02*
X94550000Y-19937908D01*
X94678572Y-20409337D02*
X94250000Y-20409337D01*
X94250000Y-20409337D02*
X94250000Y-19509337D01*
X94250000Y-19509337D02*
X94678572Y-19509337D01*
D13*
X18738095Y-954819D02*
X18738095Y-1764342D01*
X18738095Y-1764342D02*
X18785714Y-1859580D01*
X18785714Y-1859580D02*
X18833333Y-1907200D01*
X18833333Y-1907200D02*
X18928571Y-1954819D01*
X18928571Y-1954819D02*
X19119047Y-1954819D01*
X19119047Y-1954819D02*
X19214285Y-1907200D01*
X19214285Y-1907200D02*
X19261904Y-1859580D01*
X19261904Y-1859580D02*
X19309523Y-1764342D01*
X19309523Y-1764342D02*
X19309523Y-954819D01*
X19738095Y-1907200D02*
X19880952Y-1954819D01*
X19880952Y-1954819D02*
X20119047Y-1954819D01*
X20119047Y-1954819D02*
X20214285Y-1907200D01*
X20214285Y-1907200D02*
X20261904Y-1859580D01*
X20261904Y-1859580D02*
X20309523Y-1764342D01*
X20309523Y-1764342D02*
X20309523Y-1669104D01*
X20309523Y-1669104D02*
X20261904Y-1573866D01*
X20261904Y-1573866D02*
X20214285Y-1526247D01*
X20214285Y-1526247D02*
X20119047Y-1478628D01*
X20119047Y-1478628D02*
X19928571Y-1431009D01*
X19928571Y-1431009D02*
X19833333Y-1383390D01*
X19833333Y-1383390D02*
X19785714Y-1335771D01*
X19785714Y-1335771D02*
X19738095Y-1240533D01*
X19738095Y-1240533D02*
X19738095Y-1145295D01*
X19738095Y-1145295D02*
X19785714Y-1050057D01*
X19785714Y-1050057D02*
X19833333Y-1002438D01*
X19833333Y-1002438D02*
X19928571Y-954819D01*
X19928571Y-954819D02*
X20166666Y-954819D01*
X20166666Y-954819D02*
X20309523Y-1002438D01*
X21071428Y-1431009D02*
X21214285Y-1478628D01*
X21214285Y-1478628D02*
X21261904Y-1526247D01*
X21261904Y-1526247D02*
X21309523Y-1621485D01*
X21309523Y-1621485D02*
X21309523Y-1764342D01*
X21309523Y-1764342D02*
X21261904Y-1859580D01*
X21261904Y-1859580D02*
X21214285Y-1907200D01*
X21214285Y-1907200D02*
X21119047Y-1954819D01*
X21119047Y-1954819D02*
X20738095Y-1954819D01*
X20738095Y-1954819D02*
X20738095Y-954819D01*
X20738095Y-954819D02*
X21071428Y-954819D01*
X21071428Y-954819D02*
X21166666Y-1002438D01*
X21166666Y-1002438D02*
X21214285Y-1050057D01*
X21214285Y-1050057D02*
X21261904Y-1145295D01*
X21261904Y-1145295D02*
X21261904Y-1240533D01*
X21261904Y-1240533D02*
X21214285Y-1335771D01*
X21214285Y-1335771D02*
X21166666Y-1383390D01*
X21166666Y-1383390D02*
X21071428Y-1431009D01*
X21071428Y-1431009D02*
X20738095Y-1431009D01*
D14*
X8619047Y-76928409D02*
X8761904Y-76976028D01*
X8761904Y-76976028D02*
X8809523Y-77023647D01*
X8809523Y-77023647D02*
X8857142Y-77118885D01*
X8857142Y-77118885D02*
X8857142Y-77261742D01*
X8857142Y-77261742D02*
X8809523Y-77356980D01*
X8809523Y-77356980D02*
X8761904Y-77404600D01*
X8761904Y-77404600D02*
X8666666Y-77452219D01*
X8666666Y-77452219D02*
X8285714Y-77452219D01*
X8285714Y-77452219D02*
X8285714Y-76452219D01*
X8285714Y-76452219D02*
X8619047Y-76452219D01*
X8619047Y-76452219D02*
X8714285Y-76499838D01*
X8714285Y-76499838D02*
X8761904Y-76547457D01*
X8761904Y-76547457D02*
X8809523Y-76642695D01*
X8809523Y-76642695D02*
X8809523Y-76737933D01*
X8809523Y-76737933D02*
X8761904Y-76833171D01*
X8761904Y-76833171D02*
X8714285Y-76880790D01*
X8714285Y-76880790D02*
X8619047Y-76928409D01*
X8619047Y-76928409D02*
X8285714Y-76928409D01*
X9238095Y-77166504D02*
X9714285Y-77166504D01*
X9142857Y-77452219D02*
X9476190Y-76452219D01*
X9476190Y-76452219D02*
X9809523Y-77452219D01*
X10000000Y-76452219D02*
X10571428Y-76452219D01*
X10285714Y-77452219D02*
X10285714Y-76452219D01*
X12190476Y-77452219D02*
X11619048Y-77452219D01*
X11904762Y-77452219D02*
X11904762Y-76452219D01*
X11904762Y-76452219D02*
X11809524Y-76595076D01*
X11809524Y-76595076D02*
X11714286Y-76690314D01*
X11714286Y-76690314D02*
X11619048Y-76737933D01*
X12571429Y-76547457D02*
X12619048Y-76499838D01*
X12619048Y-76499838D02*
X12714286Y-76452219D01*
X12714286Y-76452219D02*
X12952381Y-76452219D01*
X12952381Y-76452219D02*
X13047619Y-76499838D01*
X13047619Y-76499838D02*
X13095238Y-76547457D01*
X13095238Y-76547457D02*
X13142857Y-76642695D01*
X13142857Y-76642695D02*
X13142857Y-76737933D01*
X13142857Y-76737933D02*
X13095238Y-76880790D01*
X13095238Y-76880790D02*
X12523810Y-77452219D01*
X12523810Y-77452219D02*
X13142857Y-77452219D01*
X13428572Y-76452219D02*
X13761905Y-77452219D01*
X13761905Y-77452219D02*
X14095238Y-76452219D01*
X15190477Y-77071266D02*
X15952382Y-77071266D01*
X15571429Y-77452219D02*
X15571429Y-76690314D01*
X17952382Y-77071266D02*
X18714287Y-77071266D01*
X81428571Y-77356980D02*
X81380952Y-77404600D01*
X81380952Y-77404600D02*
X81238095Y-77452219D01*
X81238095Y-77452219D02*
X81142857Y-77452219D01*
X81142857Y-77452219D02*
X81000000Y-77404600D01*
X81000000Y-77404600D02*
X80904762Y-77309361D01*
X80904762Y-77309361D02*
X80857143Y-77214123D01*
X80857143Y-77214123D02*
X80809524Y-77023647D01*
X80809524Y-77023647D02*
X80809524Y-76880790D01*
X80809524Y-76880790D02*
X80857143Y-76690314D01*
X80857143Y-76690314D02*
X80904762Y-76595076D01*
X80904762Y-76595076D02*
X81000000Y-76499838D01*
X81000000Y-76499838D02*
X81142857Y-76452219D01*
X81142857Y-76452219D02*
X81238095Y-76452219D01*
X81238095Y-76452219D02*
X81380952Y-76499838D01*
X81380952Y-76499838D02*
X81428571Y-76547457D01*
X81809524Y-77166504D02*
X82285714Y-77166504D01*
X81714286Y-77452219D02*
X82047619Y-76452219D01*
X82047619Y-76452219D02*
X82380952Y-77452219D01*
X82714286Y-77452219D02*
X82714286Y-76452219D01*
X82714286Y-76452219D02*
X83047619Y-77166504D01*
X83047619Y-77166504D02*
X83380952Y-76452219D01*
X83380952Y-76452219D02*
X83380952Y-77452219D01*
X84619048Y-77071266D02*
X85380953Y-77071266D01*
X85000000Y-77452219D02*
X85000000Y-76690314D01*
X87380953Y-77071266D02*
X88142858Y-77071266D01*
D15*
X19599998Y-86647360D02*
X19828570Y-86723550D01*
X19828570Y-86723550D02*
X20209522Y-86723550D01*
X20209522Y-86723550D02*
X20361903Y-86647360D01*
X20361903Y-86647360D02*
X20438094Y-86571169D01*
X20438094Y-86571169D02*
X20514284Y-86418788D01*
X20514284Y-86418788D02*
X20514284Y-86266407D01*
X20514284Y-86266407D02*
X20438094Y-86114026D01*
X20438094Y-86114026D02*
X20361903Y-86037836D01*
X20361903Y-86037836D02*
X20209522Y-85961645D01*
X20209522Y-85961645D02*
X19904760Y-85885455D01*
X19904760Y-85885455D02*
X19752379Y-85809264D01*
X19752379Y-85809264D02*
X19676189Y-85733074D01*
X19676189Y-85733074D02*
X19599998Y-85580693D01*
X19599998Y-85580693D02*
X19599998Y-85428312D01*
X19599998Y-85428312D02*
X19676189Y-85275931D01*
X19676189Y-85275931D02*
X19752379Y-85199740D01*
X19752379Y-85199740D02*
X19904760Y-85123550D01*
X19904760Y-85123550D02*
X20285713Y-85123550D01*
X20285713Y-85123550D02*
X20514284Y-85199740D01*
X21199999Y-86723550D02*
X21199999Y-85123550D01*
X21885713Y-86723550D02*
X21885713Y-85885455D01*
X21885713Y-85885455D02*
X21809523Y-85733074D01*
X21809523Y-85733074D02*
X21657142Y-85656883D01*
X21657142Y-85656883D02*
X21428570Y-85656883D01*
X21428570Y-85656883D02*
X21276189Y-85733074D01*
X21276189Y-85733074D02*
X21199999Y-85809264D01*
X23333332Y-85656883D02*
X23333332Y-86723550D01*
X22647618Y-85656883D02*
X22647618Y-86494979D01*
X22647618Y-86494979D02*
X22723808Y-86647360D01*
X22723808Y-86647360D02*
X22876189Y-86723550D01*
X22876189Y-86723550D02*
X23104761Y-86723550D01*
X23104761Y-86723550D02*
X23257142Y-86647360D01*
X23257142Y-86647360D02*
X23333332Y-86571169D01*
X23866665Y-85656883D02*
X24476189Y-85656883D01*
X24095237Y-85123550D02*
X24095237Y-86494979D01*
X24095237Y-86494979D02*
X24171427Y-86647360D01*
X24171427Y-86647360D02*
X24323808Y-86723550D01*
X24323808Y-86723550D02*
X24476189Y-86723550D01*
X24780951Y-85656883D02*
X25390475Y-85656883D01*
X25009523Y-85123550D02*
X25009523Y-86494979D01*
X25009523Y-86494979D02*
X25085713Y-86647360D01*
X25085713Y-86647360D02*
X25238094Y-86723550D01*
X25238094Y-86723550D02*
X25390475Y-86723550D01*
X26533333Y-86647360D02*
X26380952Y-86723550D01*
X26380952Y-86723550D02*
X26076190Y-86723550D01*
X26076190Y-86723550D02*
X25923809Y-86647360D01*
X25923809Y-86647360D02*
X25847618Y-86494979D01*
X25847618Y-86494979D02*
X25847618Y-85885455D01*
X25847618Y-85885455D02*
X25923809Y-85733074D01*
X25923809Y-85733074D02*
X26076190Y-85656883D01*
X26076190Y-85656883D02*
X26380952Y-85656883D01*
X26380952Y-85656883D02*
X26533333Y-85733074D01*
X26533333Y-85733074D02*
X26609523Y-85885455D01*
X26609523Y-85885455D02*
X26609523Y-86037836D01*
X26609523Y-86037836D02*
X25847618Y-86190217D01*
X27295238Y-86723550D02*
X27295238Y-85656883D01*
X27295238Y-85961645D02*
X27371428Y-85809264D01*
X27371428Y-85809264D02*
X27447619Y-85733074D01*
X27447619Y-85733074D02*
X27600000Y-85656883D01*
X27600000Y-85656883D02*
X27752381Y-85656883D01*
X29200000Y-86571169D02*
X29123809Y-86647360D01*
X29123809Y-86647360D02*
X28895238Y-86723550D01*
X28895238Y-86723550D02*
X28742857Y-86723550D01*
X28742857Y-86723550D02*
X28514285Y-86647360D01*
X28514285Y-86647360D02*
X28361904Y-86494979D01*
X28361904Y-86494979D02*
X28285714Y-86342598D01*
X28285714Y-86342598D02*
X28209523Y-86037836D01*
X28209523Y-86037836D02*
X28209523Y-85809264D01*
X28209523Y-85809264D02*
X28285714Y-85504502D01*
X28285714Y-85504502D02*
X28361904Y-85352121D01*
X28361904Y-85352121D02*
X28514285Y-85199740D01*
X28514285Y-85199740D02*
X28742857Y-85123550D01*
X28742857Y-85123550D02*
X28895238Y-85123550D01*
X28895238Y-85123550D02*
X29123809Y-85199740D01*
X29123809Y-85199740D02*
X29200000Y-85275931D01*
X30114285Y-86723550D02*
X29961904Y-86647360D01*
X29961904Y-86647360D02*
X29885714Y-86494979D01*
X29885714Y-86494979D02*
X29885714Y-85123550D01*
X30952380Y-86723550D02*
X30799999Y-86647360D01*
X30799999Y-86647360D02*
X30723809Y-86571169D01*
X30723809Y-86571169D02*
X30647618Y-86418788D01*
X30647618Y-86418788D02*
X30647618Y-85961645D01*
X30647618Y-85961645D02*
X30723809Y-85809264D01*
X30723809Y-85809264D02*
X30799999Y-85733074D01*
X30799999Y-85733074D02*
X30952380Y-85656883D01*
X30952380Y-85656883D02*
X31180952Y-85656883D01*
X31180952Y-85656883D02*
X31333333Y-85733074D01*
X31333333Y-85733074D02*
X31409523Y-85809264D01*
X31409523Y-85809264D02*
X31485714Y-85961645D01*
X31485714Y-85961645D02*
X31485714Y-86418788D01*
X31485714Y-86418788D02*
X31409523Y-86571169D01*
X31409523Y-86571169D02*
X31333333Y-86647360D01*
X31333333Y-86647360D02*
X31180952Y-86723550D01*
X31180952Y-86723550D02*
X30952380Y-86723550D01*
X32857142Y-86647360D02*
X32704761Y-86723550D01*
X32704761Y-86723550D02*
X32399999Y-86723550D01*
X32399999Y-86723550D02*
X32247618Y-86647360D01*
X32247618Y-86647360D02*
X32171428Y-86571169D01*
X32171428Y-86571169D02*
X32095237Y-86418788D01*
X32095237Y-86418788D02*
X32095237Y-85961645D01*
X32095237Y-85961645D02*
X32171428Y-85809264D01*
X32171428Y-85809264D02*
X32247618Y-85733074D01*
X32247618Y-85733074D02*
X32399999Y-85656883D01*
X32399999Y-85656883D02*
X32704761Y-85656883D01*
X32704761Y-85656883D02*
X32857142Y-85733074D01*
X33542857Y-86723550D02*
X33542857Y-85123550D01*
X33695238Y-86114026D02*
X34152381Y-86723550D01*
X34152381Y-85656883D02*
X33542857Y-86266407D01*
X35904762Y-85656883D02*
X36285714Y-86723550D01*
X36285714Y-86723550D02*
X36666667Y-85656883D01*
X38114286Y-86723550D02*
X37200000Y-86723550D01*
X37657143Y-86723550D02*
X37657143Y-85123550D01*
X37657143Y-85123550D02*
X37504762Y-85352121D01*
X37504762Y-85352121D02*
X37352381Y-85504502D01*
X37352381Y-85504502D02*
X37200000Y-85580693D01*
X38800001Y-86571169D02*
X38876191Y-86647360D01*
X38876191Y-86647360D02*
X38800001Y-86723550D01*
X38800001Y-86723550D02*
X38723810Y-86647360D01*
X38723810Y-86647360D02*
X38800001Y-86571169D01*
X38800001Y-86571169D02*
X38800001Y-86723550D01*
X39866668Y-85123550D02*
X40019049Y-85123550D01*
X40019049Y-85123550D02*
X40171430Y-85199740D01*
X40171430Y-85199740D02*
X40247620Y-85275931D01*
X40247620Y-85275931D02*
X40323811Y-85428312D01*
X40323811Y-85428312D02*
X40400001Y-85733074D01*
X40400001Y-85733074D02*
X40400001Y-86114026D01*
X40400001Y-86114026D02*
X40323811Y-86418788D01*
X40323811Y-86418788D02*
X40247620Y-86571169D01*
X40247620Y-86571169D02*
X40171430Y-86647360D01*
X40171430Y-86647360D02*
X40019049Y-86723550D01*
X40019049Y-86723550D02*
X39866668Y-86723550D01*
X39866668Y-86723550D02*
X39714287Y-86647360D01*
X39714287Y-86647360D02*
X39638096Y-86571169D01*
X39638096Y-86571169D02*
X39561906Y-86418788D01*
X39561906Y-86418788D02*
X39485715Y-86114026D01*
X39485715Y-86114026D02*
X39485715Y-85733074D01*
X39485715Y-85733074D02*
X39561906Y-85428312D01*
X39561906Y-85428312D02*
X39638096Y-85275931D01*
X39638096Y-85275931D02*
X39714287Y-85199740D01*
X39714287Y-85199740D02*
X39866668Y-85123550D01*
D13*
X81583333Y-55109580D02*
X81535714Y-55157200D01*
X81535714Y-55157200D02*
X81392857Y-55204819D01*
X81392857Y-55204819D02*
X81297619Y-55204819D01*
X81297619Y-55204819D02*
X81154762Y-55157200D01*
X81154762Y-55157200D02*
X81059524Y-55061961D01*
X81059524Y-55061961D02*
X81011905Y-54966723D01*
X81011905Y-54966723D02*
X80964286Y-54776247D01*
X80964286Y-54776247D02*
X80964286Y-54633390D01*
X80964286Y-54633390D02*
X81011905Y-54442914D01*
X81011905Y-54442914D02*
X81059524Y-54347676D01*
X81059524Y-54347676D02*
X81154762Y-54252438D01*
X81154762Y-54252438D02*
X81297619Y-54204819D01*
X81297619Y-54204819D02*
X81392857Y-54204819D01*
X81392857Y-54204819D02*
X81535714Y-54252438D01*
X81535714Y-54252438D02*
X81583333Y-54300057D01*
X81916667Y-54204819D02*
X82535714Y-54204819D01*
X82535714Y-54204819D02*
X82202381Y-54585771D01*
X82202381Y-54585771D02*
X82345238Y-54585771D01*
X82345238Y-54585771D02*
X82440476Y-54633390D01*
X82440476Y-54633390D02*
X82488095Y-54681009D01*
X82488095Y-54681009D02*
X82535714Y-54776247D01*
X82535714Y-54776247D02*
X82535714Y-55014342D01*
X82535714Y-55014342D02*
X82488095Y-55109580D01*
X82488095Y-55109580D02*
X82440476Y-55157200D01*
X82440476Y-55157200D02*
X82345238Y-55204819D01*
X82345238Y-55204819D02*
X82059524Y-55204819D01*
X82059524Y-55204819D02*
X81964286Y-55157200D01*
X81964286Y-55157200D02*
X81916667Y-55109580D01*
X17643333Y-29084819D02*
X17310000Y-28608628D01*
X17071905Y-29084819D02*
X17071905Y-28084819D01*
X17071905Y-28084819D02*
X17452857Y-28084819D01*
X17452857Y-28084819D02*
X17548095Y-28132438D01*
X17548095Y-28132438D02*
X17595714Y-28180057D01*
X17595714Y-28180057D02*
X17643333Y-28275295D01*
X17643333Y-28275295D02*
X17643333Y-28418152D01*
X17643333Y-28418152D02*
X17595714Y-28513390D01*
X17595714Y-28513390D02*
X17548095Y-28561009D01*
X17548095Y-28561009D02*
X17452857Y-28608628D01*
X17452857Y-28608628D02*
X17071905Y-28608628D01*
X18024286Y-28180057D02*
X18071905Y-28132438D01*
X18071905Y-28132438D02*
X18167143Y-28084819D01*
X18167143Y-28084819D02*
X18405238Y-28084819D01*
X18405238Y-28084819D02*
X18500476Y-28132438D01*
X18500476Y-28132438D02*
X18548095Y-28180057D01*
X18548095Y-28180057D02*
X18595714Y-28275295D01*
X18595714Y-28275295D02*
X18595714Y-28370533D01*
X18595714Y-28370533D02*
X18548095Y-28513390D01*
X18548095Y-28513390D02*
X17976667Y-29084819D01*
X17976667Y-29084819D02*
X18595714Y-29084819D01*
X95738095Y195180D02*
X95738095Y1195180D01*
X95738095Y718990D02*
X96309523Y718990D01*
X96309523Y195180D02*
X96309523Y1195180D01*
X96738095Y1099942D02*
X96785714Y1147561D01*
X96785714Y1147561D02*
X96880952Y1195180D01*
X96880952Y1195180D02*
X97119047Y1195180D01*
X97119047Y1195180D02*
X97214285Y1147561D01*
X97214285Y1147561D02*
X97261904Y1099942D01*
X97261904Y1099942D02*
X97309523Y1004704D01*
X97309523Y1004704D02*
X97309523Y909466D01*
X97309523Y909466D02*
X97261904Y766609D01*
X97261904Y766609D02*
X96690476Y195180D01*
X96690476Y195180D02*
X97309523Y195180D01*
X49143333Y-67584819D02*
X48810000Y-67108628D01*
X48571905Y-67584819D02*
X48571905Y-66584819D01*
X48571905Y-66584819D02*
X48952857Y-66584819D01*
X48952857Y-66584819D02*
X49048095Y-66632438D01*
X49048095Y-66632438D02*
X49095714Y-66680057D01*
X49095714Y-66680057D02*
X49143333Y-66775295D01*
X49143333Y-66775295D02*
X49143333Y-66918152D01*
X49143333Y-66918152D02*
X49095714Y-67013390D01*
X49095714Y-67013390D02*
X49048095Y-67061009D01*
X49048095Y-67061009D02*
X48952857Y-67108628D01*
X48952857Y-67108628D02*
X48571905Y-67108628D01*
X50048095Y-66584819D02*
X49571905Y-66584819D01*
X49571905Y-66584819D02*
X49524286Y-67061009D01*
X49524286Y-67061009D02*
X49571905Y-67013390D01*
X49571905Y-67013390D02*
X49667143Y-66965771D01*
X49667143Y-66965771D02*
X49905238Y-66965771D01*
X49905238Y-66965771D02*
X50000476Y-67013390D01*
X50000476Y-67013390D02*
X50048095Y-67061009D01*
X50048095Y-67061009D02*
X50095714Y-67156247D01*
X50095714Y-67156247D02*
X50095714Y-67394342D01*
X50095714Y-67394342D02*
X50048095Y-67489580D01*
X50048095Y-67489580D02*
X50000476Y-67537200D01*
X50000476Y-67537200D02*
X49905238Y-67584819D01*
X49905238Y-67584819D02*
X49667143Y-67584819D01*
X49667143Y-67584819D02*
X49571905Y-67537200D01*
X49571905Y-67537200D02*
X49524286Y-67489580D01*
X59993333Y-80334819D02*
X59660000Y-79858628D01*
X59421905Y-80334819D02*
X59421905Y-79334819D01*
X59421905Y-79334819D02*
X59802857Y-79334819D01*
X59802857Y-79334819D02*
X59898095Y-79382438D01*
X59898095Y-79382438D02*
X59945714Y-79430057D01*
X59945714Y-79430057D02*
X59993333Y-79525295D01*
X59993333Y-79525295D02*
X59993333Y-79668152D01*
X59993333Y-79668152D02*
X59945714Y-79763390D01*
X59945714Y-79763390D02*
X59898095Y-79811009D01*
X59898095Y-79811009D02*
X59802857Y-79858628D01*
X59802857Y-79858628D02*
X59421905Y-79858628D01*
X60326667Y-79334819D02*
X60945714Y-79334819D01*
X60945714Y-79334819D02*
X60612381Y-79715771D01*
X60612381Y-79715771D02*
X60755238Y-79715771D01*
X60755238Y-79715771D02*
X60850476Y-79763390D01*
X60850476Y-79763390D02*
X60898095Y-79811009D01*
X60898095Y-79811009D02*
X60945714Y-79906247D01*
X60945714Y-79906247D02*
X60945714Y-80144342D01*
X60945714Y-80144342D02*
X60898095Y-80239580D01*
X60898095Y-80239580D02*
X60850476Y-80287200D01*
X60850476Y-80287200D02*
X60755238Y-80334819D01*
X60755238Y-80334819D02*
X60469524Y-80334819D01*
X60469524Y-80334819D02*
X60374286Y-80287200D01*
X60374286Y-80287200D02*
X60326667Y-80239580D01*
X69048095Y-3124819D02*
X69048095Y-3934342D01*
X69048095Y-3934342D02*
X69095714Y-4029580D01*
X69095714Y-4029580D02*
X69143333Y-4077200D01*
X69143333Y-4077200D02*
X69238571Y-4124819D01*
X69238571Y-4124819D02*
X69429047Y-4124819D01*
X69429047Y-4124819D02*
X69524285Y-4077200D01*
X69524285Y-4077200D02*
X69571904Y-4029580D01*
X69571904Y-4029580D02*
X69619523Y-3934342D01*
X69619523Y-3934342D02*
X69619523Y-3124819D01*
X70000476Y-3124819D02*
X70619523Y-3124819D01*
X70619523Y-3124819D02*
X70286190Y-3505771D01*
X70286190Y-3505771D02*
X70429047Y-3505771D01*
X70429047Y-3505771D02*
X70524285Y-3553390D01*
X70524285Y-3553390D02*
X70571904Y-3601009D01*
X70571904Y-3601009D02*
X70619523Y-3696247D01*
X70619523Y-3696247D02*
X70619523Y-3934342D01*
X70619523Y-3934342D02*
X70571904Y-4029580D01*
X70571904Y-4029580D02*
X70524285Y-4077200D01*
X70524285Y-4077200D02*
X70429047Y-4124819D01*
X70429047Y-4124819D02*
X70143333Y-4124819D01*
X70143333Y-4124819D02*
X70048095Y-4077200D01*
X70048095Y-4077200D02*
X70000476Y-4029580D01*
X57643333Y-9084819D02*
X57310000Y-8608628D01*
X57071905Y-9084819D02*
X57071905Y-8084819D01*
X57071905Y-8084819D02*
X57452857Y-8084819D01*
X57452857Y-8084819D02*
X57548095Y-8132438D01*
X57548095Y-8132438D02*
X57595714Y-8180057D01*
X57595714Y-8180057D02*
X57643333Y-8275295D01*
X57643333Y-8275295D02*
X57643333Y-8418152D01*
X57643333Y-8418152D02*
X57595714Y-8513390D01*
X57595714Y-8513390D02*
X57548095Y-8561009D01*
X57548095Y-8561009D02*
X57452857Y-8608628D01*
X57452857Y-8608628D02*
X57071905Y-8608628D01*
X57976667Y-8084819D02*
X58643333Y-8084819D01*
X58643333Y-8084819D02*
X58214762Y-9084819D01*
X55167142Y-72084819D02*
X54833809Y-71608628D01*
X54595714Y-72084819D02*
X54595714Y-71084819D01*
X54595714Y-71084819D02*
X54976666Y-71084819D01*
X54976666Y-71084819D02*
X55071904Y-71132438D01*
X55071904Y-71132438D02*
X55119523Y-71180057D01*
X55119523Y-71180057D02*
X55167142Y-71275295D01*
X55167142Y-71275295D02*
X55167142Y-71418152D01*
X55167142Y-71418152D02*
X55119523Y-71513390D01*
X55119523Y-71513390D02*
X55071904Y-71561009D01*
X55071904Y-71561009D02*
X54976666Y-71608628D01*
X54976666Y-71608628D02*
X54595714Y-71608628D01*
X56119523Y-72084819D02*
X55548095Y-72084819D01*
X55833809Y-72084819D02*
X55833809Y-71084819D01*
X55833809Y-71084819D02*
X55738571Y-71227676D01*
X55738571Y-71227676D02*
X55643333Y-71322914D01*
X55643333Y-71322914D02*
X55548095Y-71370533D01*
X56976666Y-71418152D02*
X56976666Y-72084819D01*
X56738571Y-71037200D02*
X56500476Y-71751485D01*
X56500476Y-71751485D02*
X57119523Y-71751485D01*
X2738095Y-80804819D02*
X2738095Y-79804819D01*
X2738095Y-80281009D02*
X3309523Y-80281009D01*
X3309523Y-80804819D02*
X3309523Y-79804819D01*
X3690476Y-79804819D02*
X4309523Y-79804819D01*
X4309523Y-79804819D02*
X3976190Y-80185771D01*
X3976190Y-80185771D02*
X4119047Y-80185771D01*
X4119047Y-80185771D02*
X4214285Y-80233390D01*
X4214285Y-80233390D02*
X4261904Y-80281009D01*
X4261904Y-80281009D02*
X4309523Y-80376247D01*
X4309523Y-80376247D02*
X4309523Y-80614342D01*
X4309523Y-80614342D02*
X4261904Y-80709580D01*
X4261904Y-80709580D02*
X4214285Y-80757200D01*
X4214285Y-80757200D02*
X4119047Y-80804819D01*
X4119047Y-80804819D02*
X3833333Y-80804819D01*
X3833333Y-80804819D02*
X3738095Y-80757200D01*
X3738095Y-80757200D02*
X3690476Y-80709580D01*
X35333333Y-10359580D02*
X35285714Y-10407200D01*
X35285714Y-10407200D02*
X35142857Y-10454819D01*
X35142857Y-10454819D02*
X35047619Y-10454819D01*
X35047619Y-10454819D02*
X34904762Y-10407200D01*
X34904762Y-10407200D02*
X34809524Y-10311961D01*
X34809524Y-10311961D02*
X34761905Y-10216723D01*
X34761905Y-10216723D02*
X34714286Y-10026247D01*
X34714286Y-10026247D02*
X34714286Y-9883390D01*
X34714286Y-9883390D02*
X34761905Y-9692914D01*
X34761905Y-9692914D02*
X34809524Y-9597676D01*
X34809524Y-9597676D02*
X34904762Y-9502438D01*
X34904762Y-9502438D02*
X35047619Y-9454819D01*
X35047619Y-9454819D02*
X35142857Y-9454819D01*
X35142857Y-9454819D02*
X35285714Y-9502438D01*
X35285714Y-9502438D02*
X35333333Y-9550057D01*
X36190476Y-9454819D02*
X36000000Y-9454819D01*
X36000000Y-9454819D02*
X35904762Y-9502438D01*
X35904762Y-9502438D02*
X35857143Y-9550057D01*
X35857143Y-9550057D02*
X35761905Y-9692914D01*
X35761905Y-9692914D02*
X35714286Y-9883390D01*
X35714286Y-9883390D02*
X35714286Y-10264342D01*
X35714286Y-10264342D02*
X35761905Y-10359580D01*
X35761905Y-10359580D02*
X35809524Y-10407200D01*
X35809524Y-10407200D02*
X35904762Y-10454819D01*
X35904762Y-10454819D02*
X36095238Y-10454819D01*
X36095238Y-10454819D02*
X36190476Y-10407200D01*
X36190476Y-10407200D02*
X36238095Y-10359580D01*
X36238095Y-10359580D02*
X36285714Y-10264342D01*
X36285714Y-10264342D02*
X36285714Y-10026247D01*
X36285714Y-10026247D02*
X36238095Y-9931009D01*
X36238095Y-9931009D02*
X36190476Y-9883390D01*
X36190476Y-9883390D02*
X36095238Y-9835771D01*
X36095238Y-9835771D02*
X35904762Y-9835771D01*
X35904762Y-9835771D02*
X35809524Y-9883390D01*
X35809524Y-9883390D02*
X35761905Y-9931009D01*
X35761905Y-9931009D02*
X35714286Y-10026247D01*
X48333333Y-17859580D02*
X48285714Y-17907200D01*
X48285714Y-17907200D02*
X48142857Y-17954819D01*
X48142857Y-17954819D02*
X48047619Y-17954819D01*
X48047619Y-17954819D02*
X47904762Y-17907200D01*
X47904762Y-17907200D02*
X47809524Y-17811961D01*
X47809524Y-17811961D02*
X47761905Y-17716723D01*
X47761905Y-17716723D02*
X47714286Y-17526247D01*
X47714286Y-17526247D02*
X47714286Y-17383390D01*
X47714286Y-17383390D02*
X47761905Y-17192914D01*
X47761905Y-17192914D02*
X47809524Y-17097676D01*
X47809524Y-17097676D02*
X47904762Y-17002438D01*
X47904762Y-17002438D02*
X48047619Y-16954819D01*
X48047619Y-16954819D02*
X48142857Y-16954819D01*
X48142857Y-16954819D02*
X48285714Y-17002438D01*
X48285714Y-17002438D02*
X48333333Y-17050057D01*
X49190476Y-17288152D02*
X49190476Y-17954819D01*
X48952381Y-16907200D02*
X48714286Y-17621485D01*
X48714286Y-17621485D02*
X49333333Y-17621485D01*
X13206666Y-75134819D02*
X13206666Y-75849104D01*
X13206666Y-75849104D02*
X13159047Y-75991961D01*
X13159047Y-75991961D02*
X13063809Y-76087200D01*
X13063809Y-76087200D02*
X12920952Y-76134819D01*
X12920952Y-76134819D02*
X12825714Y-76134819D01*
X14206666Y-76134819D02*
X13635238Y-76134819D01*
X13920952Y-76134819D02*
X13920952Y-75134819D01*
X13920952Y-75134819D02*
X13825714Y-75277676D01*
X13825714Y-75277676D02*
X13730476Y-75372914D01*
X13730476Y-75372914D02*
X13635238Y-75420533D01*
X39167142Y-49084819D02*
X38833809Y-48608628D01*
X38595714Y-49084819D02*
X38595714Y-48084819D01*
X38595714Y-48084819D02*
X38976666Y-48084819D01*
X38976666Y-48084819D02*
X39071904Y-48132438D01*
X39071904Y-48132438D02*
X39119523Y-48180057D01*
X39119523Y-48180057D02*
X39167142Y-48275295D01*
X39167142Y-48275295D02*
X39167142Y-48418152D01*
X39167142Y-48418152D02*
X39119523Y-48513390D01*
X39119523Y-48513390D02*
X39071904Y-48561009D01*
X39071904Y-48561009D02*
X38976666Y-48608628D01*
X38976666Y-48608628D02*
X38595714Y-48608628D01*
X40119523Y-49084819D02*
X39548095Y-49084819D01*
X39833809Y-49084819D02*
X39833809Y-48084819D01*
X39833809Y-48084819D02*
X39738571Y-48227676D01*
X39738571Y-48227676D02*
X39643333Y-48322914D01*
X39643333Y-48322914D02*
X39548095Y-48370533D01*
X40738571Y-48084819D02*
X40833809Y-48084819D01*
X40833809Y-48084819D02*
X40929047Y-48132438D01*
X40929047Y-48132438D02*
X40976666Y-48180057D01*
X40976666Y-48180057D02*
X41024285Y-48275295D01*
X41024285Y-48275295D02*
X41071904Y-48465771D01*
X41071904Y-48465771D02*
X41071904Y-48703866D01*
X41071904Y-48703866D02*
X41024285Y-48894342D01*
X41024285Y-48894342D02*
X40976666Y-48989580D01*
X40976666Y-48989580D02*
X40929047Y-49037200D01*
X40929047Y-49037200D02*
X40833809Y-49084819D01*
X40833809Y-49084819D02*
X40738571Y-49084819D01*
X40738571Y-49084819D02*
X40643333Y-49037200D01*
X40643333Y-49037200D02*
X40595714Y-48989580D01*
X40595714Y-48989580D02*
X40548095Y-48894342D01*
X40548095Y-48894342D02*
X40500476Y-48703866D01*
X40500476Y-48703866D02*
X40500476Y-48465771D01*
X40500476Y-48465771D02*
X40548095Y-48275295D01*
X40548095Y-48275295D02*
X40595714Y-48180057D01*
X40595714Y-48180057D02*
X40643333Y-48132438D01*
X40643333Y-48132438D02*
X40738571Y-48084819D01*
X26924819Y-40658094D02*
X25924819Y-40658094D01*
X25924819Y-40658094D02*
X25924819Y-40419999D01*
X25924819Y-40419999D02*
X25972438Y-40277142D01*
X25972438Y-40277142D02*
X26067676Y-40181904D01*
X26067676Y-40181904D02*
X26162914Y-40134285D01*
X26162914Y-40134285D02*
X26353390Y-40086666D01*
X26353390Y-40086666D02*
X26496247Y-40086666D01*
X26496247Y-40086666D02*
X26686723Y-40134285D01*
X26686723Y-40134285D02*
X26781961Y-40181904D01*
X26781961Y-40181904D02*
X26877200Y-40277142D01*
X26877200Y-40277142D02*
X26924819Y-40419999D01*
X26924819Y-40419999D02*
X26924819Y-40658094D01*
X26924819Y-39134285D02*
X26924819Y-39705713D01*
X26924819Y-39419999D02*
X25924819Y-39419999D01*
X25924819Y-39419999D02*
X26067676Y-39515237D01*
X26067676Y-39515237D02*
X26162914Y-39610475D01*
X26162914Y-39610475D02*
X26210533Y-39705713D01*
X26554819Y-35101904D02*
X25554819Y-35101904D01*
X26554819Y-34530476D02*
X25983390Y-34959047D01*
X25554819Y-34530476D02*
X26126247Y-35101904D01*
X16333333Y-49109580D02*
X16285714Y-49157200D01*
X16285714Y-49157200D02*
X16142857Y-49204819D01*
X16142857Y-49204819D02*
X16047619Y-49204819D01*
X16047619Y-49204819D02*
X15904762Y-49157200D01*
X15904762Y-49157200D02*
X15809524Y-49061961D01*
X15809524Y-49061961D02*
X15761905Y-48966723D01*
X15761905Y-48966723D02*
X15714286Y-48776247D01*
X15714286Y-48776247D02*
X15714286Y-48633390D01*
X15714286Y-48633390D02*
X15761905Y-48442914D01*
X15761905Y-48442914D02*
X15809524Y-48347676D01*
X15809524Y-48347676D02*
X15904762Y-48252438D01*
X15904762Y-48252438D02*
X16047619Y-48204819D01*
X16047619Y-48204819D02*
X16142857Y-48204819D01*
X16142857Y-48204819D02*
X16285714Y-48252438D01*
X16285714Y-48252438D02*
X16333333Y-48300057D01*
X17285714Y-49204819D02*
X16714286Y-49204819D01*
X17000000Y-49204819D02*
X17000000Y-48204819D01*
X17000000Y-48204819D02*
X16904762Y-48347676D01*
X16904762Y-48347676D02*
X16809524Y-48442914D01*
X16809524Y-48442914D02*
X16714286Y-48490533D01*
X65071905Y-72334819D02*
X65071905Y-71334819D01*
X65071905Y-71334819D02*
X65310000Y-71334819D01*
X65310000Y-71334819D02*
X65452857Y-71382438D01*
X65452857Y-71382438D02*
X65548095Y-71477676D01*
X65548095Y-71477676D02*
X65595714Y-71572914D01*
X65595714Y-71572914D02*
X65643333Y-71763390D01*
X65643333Y-71763390D02*
X65643333Y-71906247D01*
X65643333Y-71906247D02*
X65595714Y-72096723D01*
X65595714Y-72096723D02*
X65548095Y-72191961D01*
X65548095Y-72191961D02*
X65452857Y-72287200D01*
X65452857Y-72287200D02*
X65310000Y-72334819D01*
X65310000Y-72334819D02*
X65071905Y-72334819D01*
X66500476Y-71334819D02*
X66310000Y-71334819D01*
X66310000Y-71334819D02*
X66214762Y-71382438D01*
X66214762Y-71382438D02*
X66167143Y-71430057D01*
X66167143Y-71430057D02*
X66071905Y-71572914D01*
X66071905Y-71572914D02*
X66024286Y-71763390D01*
X66024286Y-71763390D02*
X66024286Y-72144342D01*
X66024286Y-72144342D02*
X66071905Y-72239580D01*
X66071905Y-72239580D02*
X66119524Y-72287200D01*
X66119524Y-72287200D02*
X66214762Y-72334819D01*
X66214762Y-72334819D02*
X66405238Y-72334819D01*
X66405238Y-72334819D02*
X66500476Y-72287200D01*
X66500476Y-72287200D02*
X66548095Y-72239580D01*
X66548095Y-72239580D02*
X66595714Y-72144342D01*
X66595714Y-72144342D02*
X66595714Y-71906247D01*
X66595714Y-71906247D02*
X66548095Y-71811009D01*
X66548095Y-71811009D02*
X66500476Y-71763390D01*
X66500476Y-71763390D02*
X66405238Y-71715771D01*
X66405238Y-71715771D02*
X66214762Y-71715771D01*
X66214762Y-71715771D02*
X66119524Y-71763390D01*
X66119524Y-71763390D02*
X66071905Y-71811009D01*
X66071905Y-71811009D02*
X66024286Y-71906247D01*
X61738095Y-72654819D02*
X61738095Y-71654819D01*
X62309523Y-72654819D02*
X61880952Y-72083390D01*
X62309523Y-71654819D02*
X61738095Y-72226247D01*
D16*
X91576667Y-13309271D02*
X91576667Y-14216414D01*
X91576667Y-14216414D02*
X91516190Y-14397842D01*
X91516190Y-14397842D02*
X91395238Y-14518795D01*
X91395238Y-14518795D02*
X91213809Y-14579271D01*
X91213809Y-14579271D02*
X91092857Y-14579271D01*
X92060476Y-13309271D02*
X92846667Y-13309271D01*
X92846667Y-13309271D02*
X92423333Y-13793080D01*
X92423333Y-13793080D02*
X92604762Y-13793080D01*
X92604762Y-13793080D02*
X92725714Y-13853556D01*
X92725714Y-13853556D02*
X92786190Y-13914033D01*
X92786190Y-13914033D02*
X92846667Y-14034985D01*
X92846667Y-14034985D02*
X92846667Y-14337366D01*
X92846667Y-14337366D02*
X92786190Y-14458318D01*
X92786190Y-14458318D02*
X92725714Y-14518795D01*
X92725714Y-14518795D02*
X92604762Y-14579271D01*
X92604762Y-14579271D02*
X92241905Y-14579271D01*
X92241905Y-14579271D02*
X92120952Y-14518795D01*
X92120952Y-14518795D02*
X92060476Y-14458318D01*
D13*
X35167142Y-60084819D02*
X34833809Y-59608628D01*
X34595714Y-60084819D02*
X34595714Y-59084819D01*
X34595714Y-59084819D02*
X34976666Y-59084819D01*
X34976666Y-59084819D02*
X35071904Y-59132438D01*
X35071904Y-59132438D02*
X35119523Y-59180057D01*
X35119523Y-59180057D02*
X35167142Y-59275295D01*
X35167142Y-59275295D02*
X35167142Y-59418152D01*
X35167142Y-59418152D02*
X35119523Y-59513390D01*
X35119523Y-59513390D02*
X35071904Y-59561009D01*
X35071904Y-59561009D02*
X34976666Y-59608628D01*
X34976666Y-59608628D02*
X34595714Y-59608628D01*
X36119523Y-60084819D02*
X35548095Y-60084819D01*
X35833809Y-60084819D02*
X35833809Y-59084819D01*
X35833809Y-59084819D02*
X35738571Y-59227676D01*
X35738571Y-59227676D02*
X35643333Y-59322914D01*
X35643333Y-59322914D02*
X35548095Y-59370533D01*
X36452857Y-59084819D02*
X37071904Y-59084819D01*
X37071904Y-59084819D02*
X36738571Y-59465771D01*
X36738571Y-59465771D02*
X36881428Y-59465771D01*
X36881428Y-59465771D02*
X36976666Y-59513390D01*
X36976666Y-59513390D02*
X37024285Y-59561009D01*
X37024285Y-59561009D02*
X37071904Y-59656247D01*
X37071904Y-59656247D02*
X37071904Y-59894342D01*
X37071904Y-59894342D02*
X37024285Y-59989580D01*
X37024285Y-59989580D02*
X36976666Y-60037200D01*
X36976666Y-60037200D02*
X36881428Y-60084819D01*
X36881428Y-60084819D02*
X36595714Y-60084819D01*
X36595714Y-60084819D02*
X36500476Y-60037200D01*
X36500476Y-60037200D02*
X36452857Y-59989580D01*
X74084819Y-76832857D02*
X73608628Y-77166190D01*
X74084819Y-77404285D02*
X73084819Y-77404285D01*
X73084819Y-77404285D02*
X73084819Y-77023333D01*
X73084819Y-77023333D02*
X73132438Y-76928095D01*
X73132438Y-76928095D02*
X73180057Y-76880476D01*
X73180057Y-76880476D02*
X73275295Y-76832857D01*
X73275295Y-76832857D02*
X73418152Y-76832857D01*
X73418152Y-76832857D02*
X73513390Y-76880476D01*
X73513390Y-76880476D02*
X73561009Y-76928095D01*
X73561009Y-76928095D02*
X73608628Y-77023333D01*
X73608628Y-77023333D02*
X73608628Y-77404285D01*
X74084819Y-75880476D02*
X74084819Y-76451904D01*
X74084819Y-76166190D02*
X73084819Y-76166190D01*
X73084819Y-76166190D02*
X73227676Y-76261428D01*
X73227676Y-76261428D02*
X73322914Y-76356666D01*
X73322914Y-76356666D02*
X73370533Y-76451904D01*
X73084819Y-75547142D02*
X73084819Y-74880476D01*
X73084819Y-74880476D02*
X74084819Y-75309047D01*
X57643333Y-5084819D02*
X57310000Y-4608628D01*
X57071905Y-5084819D02*
X57071905Y-4084819D01*
X57071905Y-4084819D02*
X57452857Y-4084819D01*
X57452857Y-4084819D02*
X57548095Y-4132438D01*
X57548095Y-4132438D02*
X57595714Y-4180057D01*
X57595714Y-4180057D02*
X57643333Y-4275295D01*
X57643333Y-4275295D02*
X57643333Y-4418152D01*
X57643333Y-4418152D02*
X57595714Y-4513390D01*
X57595714Y-4513390D02*
X57548095Y-4561009D01*
X57548095Y-4561009D02*
X57452857Y-4608628D01*
X57452857Y-4608628D02*
X57071905Y-4608628D01*
X58500476Y-4084819D02*
X58310000Y-4084819D01*
X58310000Y-4084819D02*
X58214762Y-4132438D01*
X58214762Y-4132438D02*
X58167143Y-4180057D01*
X58167143Y-4180057D02*
X58071905Y-4322914D01*
X58071905Y-4322914D02*
X58024286Y-4513390D01*
X58024286Y-4513390D02*
X58024286Y-4894342D01*
X58024286Y-4894342D02*
X58071905Y-4989580D01*
X58071905Y-4989580D02*
X58119524Y-5037200D01*
X58119524Y-5037200D02*
X58214762Y-5084819D01*
X58214762Y-5084819D02*
X58405238Y-5084819D01*
X58405238Y-5084819D02*
X58500476Y-5037200D01*
X58500476Y-5037200D02*
X58548095Y-4989580D01*
X58548095Y-4989580D02*
X58595714Y-4894342D01*
X58595714Y-4894342D02*
X58595714Y-4656247D01*
X58595714Y-4656247D02*
X58548095Y-4561009D01*
X58548095Y-4561009D02*
X58500476Y-4513390D01*
X58500476Y-4513390D02*
X58405238Y-4465771D01*
X58405238Y-4465771D02*
X58214762Y-4465771D01*
X58214762Y-4465771D02*
X58119524Y-4513390D01*
X58119524Y-4513390D02*
X58071905Y-4561009D01*
X58071905Y-4561009D02*
X58024286Y-4656247D01*
X35167142Y-64084819D02*
X34833809Y-63608628D01*
X34595714Y-64084819D02*
X34595714Y-63084819D01*
X34595714Y-63084819D02*
X34976666Y-63084819D01*
X34976666Y-63084819D02*
X35071904Y-63132438D01*
X35071904Y-63132438D02*
X35119523Y-63180057D01*
X35119523Y-63180057D02*
X35167142Y-63275295D01*
X35167142Y-63275295D02*
X35167142Y-63418152D01*
X35167142Y-63418152D02*
X35119523Y-63513390D01*
X35119523Y-63513390D02*
X35071904Y-63561009D01*
X35071904Y-63561009D02*
X34976666Y-63608628D01*
X34976666Y-63608628D02*
X34595714Y-63608628D01*
X36119523Y-64084819D02*
X35548095Y-64084819D01*
X35833809Y-64084819D02*
X35833809Y-63084819D01*
X35833809Y-63084819D02*
X35738571Y-63227676D01*
X35738571Y-63227676D02*
X35643333Y-63322914D01*
X35643333Y-63322914D02*
X35548095Y-63370533D01*
X36690952Y-63513390D02*
X36595714Y-63465771D01*
X36595714Y-63465771D02*
X36548095Y-63418152D01*
X36548095Y-63418152D02*
X36500476Y-63322914D01*
X36500476Y-63322914D02*
X36500476Y-63275295D01*
X36500476Y-63275295D02*
X36548095Y-63180057D01*
X36548095Y-63180057D02*
X36595714Y-63132438D01*
X36595714Y-63132438D02*
X36690952Y-63084819D01*
X36690952Y-63084819D02*
X36881428Y-63084819D01*
X36881428Y-63084819D02*
X36976666Y-63132438D01*
X36976666Y-63132438D02*
X37024285Y-63180057D01*
X37024285Y-63180057D02*
X37071904Y-63275295D01*
X37071904Y-63275295D02*
X37071904Y-63322914D01*
X37071904Y-63322914D02*
X37024285Y-63418152D01*
X37024285Y-63418152D02*
X36976666Y-63465771D01*
X36976666Y-63465771D02*
X36881428Y-63513390D01*
X36881428Y-63513390D02*
X36690952Y-63513390D01*
X36690952Y-63513390D02*
X36595714Y-63561009D01*
X36595714Y-63561009D02*
X36548095Y-63608628D01*
X36548095Y-63608628D02*
X36500476Y-63703866D01*
X36500476Y-63703866D02*
X36500476Y-63894342D01*
X36500476Y-63894342D02*
X36548095Y-63989580D01*
X36548095Y-63989580D02*
X36595714Y-64037200D01*
X36595714Y-64037200D02*
X36690952Y-64084819D01*
X36690952Y-64084819D02*
X36881428Y-64084819D01*
X36881428Y-64084819D02*
X36976666Y-64037200D01*
X36976666Y-64037200D02*
X37024285Y-63989580D01*
X37024285Y-63989580D02*
X37071904Y-63894342D01*
X37071904Y-63894342D02*
X37071904Y-63703866D01*
X37071904Y-63703866D02*
X37024285Y-63608628D01*
X37024285Y-63608628D02*
X36976666Y-63561009D01*
X36976666Y-63561009D02*
X36881428Y-63513390D01*
X38444761Y-54450057D02*
X38349523Y-54402438D01*
X38349523Y-54402438D02*
X38254285Y-54307200D01*
X38254285Y-54307200D02*
X38111428Y-54164342D01*
X38111428Y-54164342D02*
X38016190Y-54116723D01*
X38016190Y-54116723D02*
X37920952Y-54116723D01*
X37968571Y-54354819D02*
X37873333Y-54307200D01*
X37873333Y-54307200D02*
X37778095Y-54211961D01*
X37778095Y-54211961D02*
X37730476Y-54021485D01*
X37730476Y-54021485D02*
X37730476Y-53688152D01*
X37730476Y-53688152D02*
X37778095Y-53497676D01*
X37778095Y-53497676D02*
X37873333Y-53402438D01*
X37873333Y-53402438D02*
X37968571Y-53354819D01*
X37968571Y-53354819D02*
X38159047Y-53354819D01*
X38159047Y-53354819D02*
X38254285Y-53402438D01*
X38254285Y-53402438D02*
X38349523Y-53497676D01*
X38349523Y-53497676D02*
X38397142Y-53688152D01*
X38397142Y-53688152D02*
X38397142Y-54021485D01*
X38397142Y-54021485D02*
X38349523Y-54211961D01*
X38349523Y-54211961D02*
X38254285Y-54307200D01*
X38254285Y-54307200D02*
X38159047Y-54354819D01*
X38159047Y-54354819D02*
X37968571Y-54354819D01*
X39301904Y-53354819D02*
X38825714Y-53354819D01*
X38825714Y-53354819D02*
X38778095Y-53831009D01*
X38778095Y-53831009D02*
X38825714Y-53783390D01*
X38825714Y-53783390D02*
X38920952Y-53735771D01*
X38920952Y-53735771D02*
X39159047Y-53735771D01*
X39159047Y-53735771D02*
X39254285Y-53783390D01*
X39254285Y-53783390D02*
X39301904Y-53831009D01*
X39301904Y-53831009D02*
X39349523Y-53926247D01*
X39349523Y-53926247D02*
X39349523Y-54164342D01*
X39349523Y-54164342D02*
X39301904Y-54259580D01*
X39301904Y-54259580D02*
X39254285Y-54307200D01*
X39254285Y-54307200D02*
X39159047Y-54354819D01*
X39159047Y-54354819D02*
X38920952Y-54354819D01*
X38920952Y-54354819D02*
X38825714Y-54307200D01*
X38825714Y-54307200D02*
X38778095Y-54259580D01*
D17*
X9832050Y-14478571D02*
X9832050Y-14176190D01*
X10013479Y-14539047D02*
X9378479Y-14327381D01*
X9378479Y-14327381D02*
X10013479Y-14115714D01*
X10013479Y-13571428D02*
X10013479Y-13934285D01*
X10013479Y-13752857D02*
X9378479Y-13752857D01*
X9378479Y-13752857D02*
X9469193Y-13813333D01*
X9469193Y-13813333D02*
X9529669Y-13873809D01*
X9529669Y-13873809D02*
X9559907Y-13934285D01*
D13*
X38444761Y-30450057D02*
X38349523Y-30402438D01*
X38349523Y-30402438D02*
X38254285Y-30307200D01*
X38254285Y-30307200D02*
X38111428Y-30164342D01*
X38111428Y-30164342D02*
X38016190Y-30116723D01*
X38016190Y-30116723D02*
X37920952Y-30116723D01*
X37968571Y-30354819D02*
X37873333Y-30307200D01*
X37873333Y-30307200D02*
X37778095Y-30211961D01*
X37778095Y-30211961D02*
X37730476Y-30021485D01*
X37730476Y-30021485D02*
X37730476Y-29688152D01*
X37730476Y-29688152D02*
X37778095Y-29497676D01*
X37778095Y-29497676D02*
X37873333Y-29402438D01*
X37873333Y-29402438D02*
X37968571Y-29354819D01*
X37968571Y-29354819D02*
X38159047Y-29354819D01*
X38159047Y-29354819D02*
X38254285Y-29402438D01*
X38254285Y-29402438D02*
X38349523Y-29497676D01*
X38349523Y-29497676D02*
X38397142Y-29688152D01*
X38397142Y-29688152D02*
X38397142Y-30021485D01*
X38397142Y-30021485D02*
X38349523Y-30211961D01*
X38349523Y-30211961D02*
X38254285Y-30307200D01*
X38254285Y-30307200D02*
X38159047Y-30354819D01*
X38159047Y-30354819D02*
X37968571Y-30354819D01*
X38778095Y-29450057D02*
X38825714Y-29402438D01*
X38825714Y-29402438D02*
X38920952Y-29354819D01*
X38920952Y-29354819D02*
X39159047Y-29354819D01*
X39159047Y-29354819D02*
X39254285Y-29402438D01*
X39254285Y-29402438D02*
X39301904Y-29450057D01*
X39301904Y-29450057D02*
X39349523Y-29545295D01*
X39349523Y-29545295D02*
X39349523Y-29640533D01*
X39349523Y-29640533D02*
X39301904Y-29783390D01*
X39301904Y-29783390D02*
X38730476Y-30354819D01*
X38730476Y-30354819D02*
X39349523Y-30354819D01*
X16444761Y-36450057D02*
X16349523Y-36402438D01*
X16349523Y-36402438D02*
X16254285Y-36307200D01*
X16254285Y-36307200D02*
X16111428Y-36164342D01*
X16111428Y-36164342D02*
X16016190Y-36116723D01*
X16016190Y-36116723D02*
X15920952Y-36116723D01*
X15968571Y-36354819D02*
X15873333Y-36307200D01*
X15873333Y-36307200D02*
X15778095Y-36211961D01*
X15778095Y-36211961D02*
X15730476Y-36021485D01*
X15730476Y-36021485D02*
X15730476Y-35688152D01*
X15730476Y-35688152D02*
X15778095Y-35497676D01*
X15778095Y-35497676D02*
X15873333Y-35402438D01*
X15873333Y-35402438D02*
X15968571Y-35354819D01*
X15968571Y-35354819D02*
X16159047Y-35354819D01*
X16159047Y-35354819D02*
X16254285Y-35402438D01*
X16254285Y-35402438D02*
X16349523Y-35497676D01*
X16349523Y-35497676D02*
X16397142Y-35688152D01*
X16397142Y-35688152D02*
X16397142Y-36021485D01*
X16397142Y-36021485D02*
X16349523Y-36211961D01*
X16349523Y-36211961D02*
X16254285Y-36307200D01*
X16254285Y-36307200D02*
X16159047Y-36354819D01*
X16159047Y-36354819D02*
X15968571Y-36354819D01*
X17349523Y-36354819D02*
X16778095Y-36354819D01*
X17063809Y-36354819D02*
X17063809Y-35354819D01*
X17063809Y-35354819D02*
X16968571Y-35497676D01*
X16968571Y-35497676D02*
X16873333Y-35592914D01*
X16873333Y-35592914D02*
X16778095Y-35640533D01*
X79167142Y-6084819D02*
X78833809Y-5608628D01*
X78595714Y-6084819D02*
X78595714Y-5084819D01*
X78595714Y-5084819D02*
X78976666Y-5084819D01*
X78976666Y-5084819D02*
X79071904Y-5132438D01*
X79071904Y-5132438D02*
X79119523Y-5180057D01*
X79119523Y-5180057D02*
X79167142Y-5275295D01*
X79167142Y-5275295D02*
X79167142Y-5418152D01*
X79167142Y-5418152D02*
X79119523Y-5513390D01*
X79119523Y-5513390D02*
X79071904Y-5561009D01*
X79071904Y-5561009D02*
X78976666Y-5608628D01*
X78976666Y-5608628D02*
X78595714Y-5608628D01*
X79548095Y-5180057D02*
X79595714Y-5132438D01*
X79595714Y-5132438D02*
X79690952Y-5084819D01*
X79690952Y-5084819D02*
X79929047Y-5084819D01*
X79929047Y-5084819D02*
X80024285Y-5132438D01*
X80024285Y-5132438D02*
X80071904Y-5180057D01*
X80071904Y-5180057D02*
X80119523Y-5275295D01*
X80119523Y-5275295D02*
X80119523Y-5370533D01*
X80119523Y-5370533D02*
X80071904Y-5513390D01*
X80071904Y-5513390D02*
X79500476Y-6084819D01*
X79500476Y-6084819D02*
X80119523Y-6084819D01*
X80738571Y-5084819D02*
X80833809Y-5084819D01*
X80833809Y-5084819D02*
X80929047Y-5132438D01*
X80929047Y-5132438D02*
X80976666Y-5180057D01*
X80976666Y-5180057D02*
X81024285Y-5275295D01*
X81024285Y-5275295D02*
X81071904Y-5465771D01*
X81071904Y-5465771D02*
X81071904Y-5703866D01*
X81071904Y-5703866D02*
X81024285Y-5894342D01*
X81024285Y-5894342D02*
X80976666Y-5989580D01*
X80976666Y-5989580D02*
X80929047Y-6037200D01*
X80929047Y-6037200D02*
X80833809Y-6084819D01*
X80833809Y-6084819D02*
X80738571Y-6084819D01*
X80738571Y-6084819D02*
X80643333Y-6037200D01*
X80643333Y-6037200D02*
X80595714Y-5989580D01*
X80595714Y-5989580D02*
X80548095Y-5894342D01*
X80548095Y-5894342D02*
X80500476Y-5703866D01*
X80500476Y-5703866D02*
X80500476Y-5465771D01*
X80500476Y-5465771D02*
X80548095Y-5275295D01*
X80548095Y-5275295D02*
X80595714Y-5180057D01*
X80595714Y-5180057D02*
X80643333Y-5132438D01*
X80643333Y-5132438D02*
X80738571Y-5084819D01*
X69048095Y-11124819D02*
X69048095Y-11934342D01*
X69048095Y-11934342D02*
X69095714Y-12029580D01*
X69095714Y-12029580D02*
X69143333Y-12077200D01*
X69143333Y-12077200D02*
X69238571Y-12124819D01*
X69238571Y-12124819D02*
X69429047Y-12124819D01*
X69429047Y-12124819D02*
X69524285Y-12077200D01*
X69524285Y-12077200D02*
X69571904Y-12029580D01*
X69571904Y-12029580D02*
X69619523Y-11934342D01*
X69619523Y-11934342D02*
X69619523Y-11124819D01*
X70524285Y-11458152D02*
X70524285Y-12124819D01*
X70286190Y-11077200D02*
X70048095Y-11791485D01*
X70048095Y-11791485D02*
X70667142Y-11791485D01*
X43238095Y-11954819D02*
X43238095Y-12764342D01*
X43238095Y-12764342D02*
X43285714Y-12859580D01*
X43285714Y-12859580D02*
X43333333Y-12907200D01*
X43333333Y-12907200D02*
X43428571Y-12954819D01*
X43428571Y-12954819D02*
X43619047Y-12954819D01*
X43619047Y-12954819D02*
X43714285Y-12907200D01*
X43714285Y-12907200D02*
X43761904Y-12859580D01*
X43761904Y-12859580D02*
X43809523Y-12764342D01*
X43809523Y-12764342D02*
X43809523Y-11954819D01*
X44809523Y-12954819D02*
X44238095Y-12954819D01*
X44523809Y-12954819D02*
X44523809Y-11954819D01*
X44523809Y-11954819D02*
X44428571Y-12097676D01*
X44428571Y-12097676D02*
X44333333Y-12192914D01*
X44333333Y-12192914D02*
X44238095Y-12240533D01*
X84206666Y-75134819D02*
X84206666Y-75849104D01*
X84206666Y-75849104D02*
X84159047Y-75991961D01*
X84159047Y-75991961D02*
X84063809Y-76087200D01*
X84063809Y-76087200D02*
X83920952Y-76134819D01*
X83920952Y-76134819D02*
X83825714Y-76134819D01*
X84635238Y-75230057D02*
X84682857Y-75182438D01*
X84682857Y-75182438D02*
X84778095Y-75134819D01*
X84778095Y-75134819D02*
X85016190Y-75134819D01*
X85016190Y-75134819D02*
X85111428Y-75182438D01*
X85111428Y-75182438D02*
X85159047Y-75230057D01*
X85159047Y-75230057D02*
X85206666Y-75325295D01*
X85206666Y-75325295D02*
X85206666Y-75420533D01*
X85206666Y-75420533D02*
X85159047Y-75563390D01*
X85159047Y-75563390D02*
X84587619Y-76134819D01*
X84587619Y-76134819D02*
X85206666Y-76134819D01*
X56333333Y-15859580D02*
X56285714Y-15907200D01*
X56285714Y-15907200D02*
X56142857Y-15954819D01*
X56142857Y-15954819D02*
X56047619Y-15954819D01*
X56047619Y-15954819D02*
X55904762Y-15907200D01*
X55904762Y-15907200D02*
X55809524Y-15811961D01*
X55809524Y-15811961D02*
X55761905Y-15716723D01*
X55761905Y-15716723D02*
X55714286Y-15526247D01*
X55714286Y-15526247D02*
X55714286Y-15383390D01*
X55714286Y-15383390D02*
X55761905Y-15192914D01*
X55761905Y-15192914D02*
X55809524Y-15097676D01*
X55809524Y-15097676D02*
X55904762Y-15002438D01*
X55904762Y-15002438D02*
X56047619Y-14954819D01*
X56047619Y-14954819D02*
X56142857Y-14954819D01*
X56142857Y-14954819D02*
X56285714Y-15002438D01*
X56285714Y-15002438D02*
X56333333Y-15050057D01*
X56714286Y-15050057D02*
X56761905Y-15002438D01*
X56761905Y-15002438D02*
X56857143Y-14954819D01*
X56857143Y-14954819D02*
X57095238Y-14954819D01*
X57095238Y-14954819D02*
X57190476Y-15002438D01*
X57190476Y-15002438D02*
X57238095Y-15050057D01*
X57238095Y-15050057D02*
X57285714Y-15145295D01*
X57285714Y-15145295D02*
X57285714Y-15240533D01*
X57285714Y-15240533D02*
X57238095Y-15383390D01*
X57238095Y-15383390D02*
X56666667Y-15954819D01*
X56666667Y-15954819D02*
X57285714Y-15954819D01*
X16167142Y-46084819D02*
X15833809Y-45608628D01*
X15595714Y-46084819D02*
X15595714Y-45084819D01*
X15595714Y-45084819D02*
X15976666Y-45084819D01*
X15976666Y-45084819D02*
X16071904Y-45132438D01*
X16071904Y-45132438D02*
X16119523Y-45180057D01*
X16119523Y-45180057D02*
X16167142Y-45275295D01*
X16167142Y-45275295D02*
X16167142Y-45418152D01*
X16167142Y-45418152D02*
X16119523Y-45513390D01*
X16119523Y-45513390D02*
X16071904Y-45561009D01*
X16071904Y-45561009D02*
X15976666Y-45608628D01*
X15976666Y-45608628D02*
X15595714Y-45608628D01*
X17119523Y-46084819D02*
X16548095Y-46084819D01*
X16833809Y-46084819D02*
X16833809Y-45084819D01*
X16833809Y-45084819D02*
X16738571Y-45227676D01*
X16738571Y-45227676D02*
X16643333Y-45322914D01*
X16643333Y-45322914D02*
X16548095Y-45370533D01*
X18024285Y-45084819D02*
X17548095Y-45084819D01*
X17548095Y-45084819D02*
X17500476Y-45561009D01*
X17500476Y-45561009D02*
X17548095Y-45513390D01*
X17548095Y-45513390D02*
X17643333Y-45465771D01*
X17643333Y-45465771D02*
X17881428Y-45465771D01*
X17881428Y-45465771D02*
X17976666Y-45513390D01*
X17976666Y-45513390D02*
X18024285Y-45561009D01*
X18024285Y-45561009D02*
X18071904Y-45656247D01*
X18071904Y-45656247D02*
X18071904Y-45894342D01*
X18071904Y-45894342D02*
X18024285Y-45989580D01*
X18024285Y-45989580D02*
X17976666Y-46037200D01*
X17976666Y-46037200D02*
X17881428Y-46084819D01*
X17881428Y-46084819D02*
X17643333Y-46084819D01*
X17643333Y-46084819D02*
X17548095Y-46037200D01*
X17548095Y-46037200D02*
X17500476Y-45989580D01*
X79167142Y-10084819D02*
X78833809Y-9608628D01*
X78595714Y-10084819D02*
X78595714Y-9084819D01*
X78595714Y-9084819D02*
X78976666Y-9084819D01*
X78976666Y-9084819D02*
X79071904Y-9132438D01*
X79071904Y-9132438D02*
X79119523Y-9180057D01*
X79119523Y-9180057D02*
X79167142Y-9275295D01*
X79167142Y-9275295D02*
X79167142Y-9418152D01*
X79167142Y-9418152D02*
X79119523Y-9513390D01*
X79119523Y-9513390D02*
X79071904Y-9561009D01*
X79071904Y-9561009D02*
X78976666Y-9608628D01*
X78976666Y-9608628D02*
X78595714Y-9608628D01*
X79548095Y-9180057D02*
X79595714Y-9132438D01*
X79595714Y-9132438D02*
X79690952Y-9084819D01*
X79690952Y-9084819D02*
X79929047Y-9084819D01*
X79929047Y-9084819D02*
X80024285Y-9132438D01*
X80024285Y-9132438D02*
X80071904Y-9180057D01*
X80071904Y-9180057D02*
X80119523Y-9275295D01*
X80119523Y-9275295D02*
X80119523Y-9370533D01*
X80119523Y-9370533D02*
X80071904Y-9513390D01*
X80071904Y-9513390D02*
X79500476Y-10084819D01*
X79500476Y-10084819D02*
X80119523Y-10084819D01*
X81071904Y-10084819D02*
X80500476Y-10084819D01*
X80786190Y-10084819D02*
X80786190Y-9084819D01*
X80786190Y-9084819D02*
X80690952Y-9227676D01*
X80690952Y-9227676D02*
X80595714Y-9322914D01*
X80595714Y-9322914D02*
X80500476Y-9370533D01*
X5500476Y-63334819D02*
X6167142Y-63334819D01*
X6167142Y-63334819D02*
X5500476Y-64334819D01*
X5500476Y-64334819D02*
X6167142Y-64334819D01*
X6548095Y-64334819D02*
X6548095Y-63334819D01*
X6548095Y-63334819D02*
X6786190Y-63334819D01*
X6786190Y-63334819D02*
X6929047Y-63382438D01*
X6929047Y-63382438D02*
X7024285Y-63477676D01*
X7024285Y-63477676D02*
X7071904Y-63572914D01*
X7071904Y-63572914D02*
X7119523Y-63763390D01*
X7119523Y-63763390D02*
X7119523Y-63906247D01*
X7119523Y-63906247D02*
X7071904Y-64096723D01*
X7071904Y-64096723D02*
X7024285Y-64191961D01*
X7024285Y-64191961D02*
X6929047Y-64287200D01*
X6929047Y-64287200D02*
X6786190Y-64334819D01*
X6786190Y-64334819D02*
X6548095Y-64334819D01*
X8071904Y-64334819D02*
X7500476Y-64334819D01*
X7786190Y-64334819D02*
X7786190Y-63334819D01*
X7786190Y-63334819D02*
X7690952Y-63477676D01*
X7690952Y-63477676D02*
X7595714Y-63572914D01*
X7595714Y-63572914D02*
X7500476Y-63620533D01*
X2738095Y-64654819D02*
X2738095Y-63654819D01*
X3309523Y-64654819D02*
X2880952Y-64083390D01*
X3309523Y-63654819D02*
X2738095Y-64226247D01*
X55643333Y-22084819D02*
X55310000Y-21608628D01*
X55071905Y-22084819D02*
X55071905Y-21084819D01*
X55071905Y-21084819D02*
X55452857Y-21084819D01*
X55452857Y-21084819D02*
X55548095Y-21132438D01*
X55548095Y-21132438D02*
X55595714Y-21180057D01*
X55595714Y-21180057D02*
X55643333Y-21275295D01*
X55643333Y-21275295D02*
X55643333Y-21418152D01*
X55643333Y-21418152D02*
X55595714Y-21513390D01*
X55595714Y-21513390D02*
X55548095Y-21561009D01*
X55548095Y-21561009D02*
X55452857Y-21608628D01*
X55452857Y-21608628D02*
X55071905Y-21608628D01*
X56500476Y-21418152D02*
X56500476Y-22084819D01*
X56262381Y-21037200D02*
X56024286Y-21751485D01*
X56024286Y-21751485D02*
X56643333Y-21751485D01*
X64500476Y-67334819D02*
X65167142Y-67334819D01*
X65167142Y-67334819D02*
X64500476Y-68334819D01*
X64500476Y-68334819D02*
X65167142Y-68334819D01*
X65548095Y-68334819D02*
X65548095Y-67334819D01*
X65548095Y-67334819D02*
X65786190Y-67334819D01*
X65786190Y-67334819D02*
X65929047Y-67382438D01*
X65929047Y-67382438D02*
X66024285Y-67477676D01*
X66024285Y-67477676D02*
X66071904Y-67572914D01*
X66071904Y-67572914D02*
X66119523Y-67763390D01*
X66119523Y-67763390D02*
X66119523Y-67906247D01*
X66119523Y-67906247D02*
X66071904Y-68096723D01*
X66071904Y-68096723D02*
X66024285Y-68191961D01*
X66024285Y-68191961D02*
X65929047Y-68287200D01*
X65929047Y-68287200D02*
X65786190Y-68334819D01*
X65786190Y-68334819D02*
X65548095Y-68334819D01*
X66976666Y-67668152D02*
X66976666Y-68334819D01*
X66738571Y-67287200D02*
X66500476Y-68001485D01*
X66500476Y-68001485D02*
X67119523Y-68001485D01*
X61738095Y-68654819D02*
X61738095Y-67654819D01*
X62309523Y-68654819D02*
X61880952Y-68083390D01*
X62309523Y-67654819D02*
X61738095Y-68226247D01*
X39167142Y-40084819D02*
X38833809Y-39608628D01*
X38595714Y-40084819D02*
X38595714Y-39084819D01*
X38595714Y-39084819D02*
X38976666Y-39084819D01*
X38976666Y-39084819D02*
X39071904Y-39132438D01*
X39071904Y-39132438D02*
X39119523Y-39180057D01*
X39119523Y-39180057D02*
X39167142Y-39275295D01*
X39167142Y-39275295D02*
X39167142Y-39418152D01*
X39167142Y-39418152D02*
X39119523Y-39513390D01*
X39119523Y-39513390D02*
X39071904Y-39561009D01*
X39071904Y-39561009D02*
X38976666Y-39608628D01*
X38976666Y-39608628D02*
X38595714Y-39608628D01*
X40119523Y-40084819D02*
X39548095Y-40084819D01*
X39833809Y-40084819D02*
X39833809Y-39084819D01*
X39833809Y-39084819D02*
X39738571Y-39227676D01*
X39738571Y-39227676D02*
X39643333Y-39322914D01*
X39643333Y-39322914D02*
X39548095Y-39370533D01*
X40976666Y-39084819D02*
X40786190Y-39084819D01*
X40786190Y-39084819D02*
X40690952Y-39132438D01*
X40690952Y-39132438D02*
X40643333Y-39180057D01*
X40643333Y-39180057D02*
X40548095Y-39322914D01*
X40548095Y-39322914D02*
X40500476Y-39513390D01*
X40500476Y-39513390D02*
X40500476Y-39894342D01*
X40500476Y-39894342D02*
X40548095Y-39989580D01*
X40548095Y-39989580D02*
X40595714Y-40037200D01*
X40595714Y-40037200D02*
X40690952Y-40084819D01*
X40690952Y-40084819D02*
X40881428Y-40084819D01*
X40881428Y-40084819D02*
X40976666Y-40037200D01*
X40976666Y-40037200D02*
X41024285Y-39989580D01*
X41024285Y-39989580D02*
X41071904Y-39894342D01*
X41071904Y-39894342D02*
X41071904Y-39656247D01*
X41071904Y-39656247D02*
X41024285Y-39561009D01*
X41024285Y-39561009D02*
X40976666Y-39513390D01*
X40976666Y-39513390D02*
X40881428Y-39465771D01*
X40881428Y-39465771D02*
X40690952Y-39465771D01*
X40690952Y-39465771D02*
X40595714Y-39513390D01*
X40595714Y-39513390D02*
X40548095Y-39561009D01*
X40548095Y-39561009D02*
X40500476Y-39656247D01*
X6333333Y-33859580D02*
X6285714Y-33907200D01*
X6285714Y-33907200D02*
X6142857Y-33954819D01*
X6142857Y-33954819D02*
X6047619Y-33954819D01*
X6047619Y-33954819D02*
X5904762Y-33907200D01*
X5904762Y-33907200D02*
X5809524Y-33811961D01*
X5809524Y-33811961D02*
X5761905Y-33716723D01*
X5761905Y-33716723D02*
X5714286Y-33526247D01*
X5714286Y-33526247D02*
X5714286Y-33383390D01*
X5714286Y-33383390D02*
X5761905Y-33192914D01*
X5761905Y-33192914D02*
X5809524Y-33097676D01*
X5809524Y-33097676D02*
X5904762Y-33002438D01*
X5904762Y-33002438D02*
X6047619Y-32954819D01*
X6047619Y-32954819D02*
X6142857Y-32954819D01*
X6142857Y-32954819D02*
X6285714Y-33002438D01*
X6285714Y-33002438D02*
X6333333Y-33050057D01*
X6666667Y-32954819D02*
X7333333Y-32954819D01*
X7333333Y-32954819D02*
X6904762Y-33954819D01*
X45166666Y-52074819D02*
X45166666Y-52789104D01*
X45166666Y-52789104D02*
X45119047Y-52931961D01*
X45119047Y-52931961D02*
X45023809Y-53027200D01*
X45023809Y-53027200D02*
X44880952Y-53074819D01*
X44880952Y-53074819D02*
X44785714Y-53074819D01*
X45642857Y-53074819D02*
X45642857Y-52074819D01*
X45642857Y-52074819D02*
X46023809Y-52074819D01*
X46023809Y-52074819D02*
X46119047Y-52122438D01*
X46119047Y-52122438D02*
X46166666Y-52170057D01*
X46166666Y-52170057D02*
X46214285Y-52265295D01*
X46214285Y-52265295D02*
X46214285Y-52408152D01*
X46214285Y-52408152D02*
X46166666Y-52503390D01*
X46166666Y-52503390D02*
X46119047Y-52551009D01*
X46119047Y-52551009D02*
X46023809Y-52598628D01*
X46023809Y-52598628D02*
X45642857Y-52598628D01*
X46595238Y-52170057D02*
X46642857Y-52122438D01*
X46642857Y-52122438D02*
X46738095Y-52074819D01*
X46738095Y-52074819D02*
X46976190Y-52074819D01*
X46976190Y-52074819D02*
X47071428Y-52122438D01*
X47071428Y-52122438D02*
X47119047Y-52170057D01*
X47119047Y-52170057D02*
X47166666Y-52265295D01*
X47166666Y-52265295D02*
X47166666Y-52360533D01*
X47166666Y-52360533D02*
X47119047Y-52503390D01*
X47119047Y-52503390D02*
X46547619Y-53074819D01*
X46547619Y-53074819D02*
X47166666Y-53074819D01*
X39643333Y-45584819D02*
X39310000Y-45108628D01*
X39071905Y-45584819D02*
X39071905Y-44584819D01*
X39071905Y-44584819D02*
X39452857Y-44584819D01*
X39452857Y-44584819D02*
X39548095Y-44632438D01*
X39548095Y-44632438D02*
X39595714Y-44680057D01*
X39595714Y-44680057D02*
X39643333Y-44775295D01*
X39643333Y-44775295D02*
X39643333Y-44918152D01*
X39643333Y-44918152D02*
X39595714Y-45013390D01*
X39595714Y-45013390D02*
X39548095Y-45061009D01*
X39548095Y-45061009D02*
X39452857Y-45108628D01*
X39452857Y-45108628D02*
X39071905Y-45108628D01*
X40214762Y-45013390D02*
X40119524Y-44965771D01*
X40119524Y-44965771D02*
X40071905Y-44918152D01*
X40071905Y-44918152D02*
X40024286Y-44822914D01*
X40024286Y-44822914D02*
X40024286Y-44775295D01*
X40024286Y-44775295D02*
X40071905Y-44680057D01*
X40071905Y-44680057D02*
X40119524Y-44632438D01*
X40119524Y-44632438D02*
X40214762Y-44584819D01*
X40214762Y-44584819D02*
X40405238Y-44584819D01*
X40405238Y-44584819D02*
X40500476Y-44632438D01*
X40500476Y-44632438D02*
X40548095Y-44680057D01*
X40548095Y-44680057D02*
X40595714Y-44775295D01*
X40595714Y-44775295D02*
X40595714Y-44822914D01*
X40595714Y-44822914D02*
X40548095Y-44918152D01*
X40548095Y-44918152D02*
X40500476Y-44965771D01*
X40500476Y-44965771D02*
X40405238Y-45013390D01*
X40405238Y-45013390D02*
X40214762Y-45013390D01*
X40214762Y-45013390D02*
X40119524Y-45061009D01*
X40119524Y-45061009D02*
X40071905Y-45108628D01*
X40071905Y-45108628D02*
X40024286Y-45203866D01*
X40024286Y-45203866D02*
X40024286Y-45394342D01*
X40024286Y-45394342D02*
X40071905Y-45489580D01*
X40071905Y-45489580D02*
X40119524Y-45537200D01*
X40119524Y-45537200D02*
X40214762Y-45584819D01*
X40214762Y-45584819D02*
X40405238Y-45584819D01*
X40405238Y-45584819D02*
X40500476Y-45537200D01*
X40500476Y-45537200D02*
X40548095Y-45489580D01*
X40548095Y-45489580D02*
X40595714Y-45394342D01*
X40595714Y-45394342D02*
X40595714Y-45203866D01*
X40595714Y-45203866D02*
X40548095Y-45108628D01*
X40548095Y-45108628D02*
X40500476Y-45061009D01*
X40500476Y-45061009D02*
X40405238Y-45013390D01*
X44500476Y-59334819D02*
X45167142Y-59334819D01*
X45167142Y-59334819D02*
X44500476Y-60334819D01*
X44500476Y-60334819D02*
X45167142Y-60334819D01*
X45548095Y-60334819D02*
X45548095Y-59334819D01*
X45548095Y-59334819D02*
X45786190Y-59334819D01*
X45786190Y-59334819D02*
X45929047Y-59382438D01*
X45929047Y-59382438D02*
X46024285Y-59477676D01*
X46024285Y-59477676D02*
X46071904Y-59572914D01*
X46071904Y-59572914D02*
X46119523Y-59763390D01*
X46119523Y-59763390D02*
X46119523Y-59906247D01*
X46119523Y-59906247D02*
X46071904Y-60096723D01*
X46071904Y-60096723D02*
X46024285Y-60191961D01*
X46024285Y-60191961D02*
X45929047Y-60287200D01*
X45929047Y-60287200D02*
X45786190Y-60334819D01*
X45786190Y-60334819D02*
X45548095Y-60334819D01*
X46452857Y-59334819D02*
X47071904Y-59334819D01*
X47071904Y-59334819D02*
X46738571Y-59715771D01*
X46738571Y-59715771D02*
X46881428Y-59715771D01*
X46881428Y-59715771D02*
X46976666Y-59763390D01*
X46976666Y-59763390D02*
X47024285Y-59811009D01*
X47024285Y-59811009D02*
X47071904Y-59906247D01*
X47071904Y-59906247D02*
X47071904Y-60144342D01*
X47071904Y-60144342D02*
X47024285Y-60239580D01*
X47024285Y-60239580D02*
X46976666Y-60287200D01*
X46976666Y-60287200D02*
X46881428Y-60334819D01*
X46881428Y-60334819D02*
X46595714Y-60334819D01*
X46595714Y-60334819D02*
X46500476Y-60287200D01*
X46500476Y-60287200D02*
X46452857Y-60239580D01*
X41738095Y-60654819D02*
X41738095Y-59654819D01*
X42309523Y-60654819D02*
X41880952Y-60083390D01*
X42309523Y-59654819D02*
X41738095Y-60226247D01*
X59707142Y-57534819D02*
X59373809Y-57058628D01*
X59135714Y-57534819D02*
X59135714Y-56534819D01*
X59135714Y-56534819D02*
X59516666Y-56534819D01*
X59516666Y-56534819D02*
X59611904Y-56582438D01*
X59611904Y-56582438D02*
X59659523Y-56630057D01*
X59659523Y-56630057D02*
X59707142Y-56725295D01*
X59707142Y-56725295D02*
X59707142Y-56868152D01*
X59707142Y-56868152D02*
X59659523Y-56963390D01*
X59659523Y-56963390D02*
X59611904Y-57011009D01*
X59611904Y-57011009D02*
X59516666Y-57058628D01*
X59516666Y-57058628D02*
X59135714Y-57058628D01*
X60659523Y-57534819D02*
X60088095Y-57534819D01*
X60373809Y-57534819D02*
X60373809Y-56534819D01*
X60373809Y-56534819D02*
X60278571Y-56677676D01*
X60278571Y-56677676D02*
X60183333Y-56772914D01*
X60183333Y-56772914D02*
X60088095Y-56820533D01*
X61135714Y-57534819D02*
X61326190Y-57534819D01*
X61326190Y-57534819D02*
X61421428Y-57487200D01*
X61421428Y-57487200D02*
X61469047Y-57439580D01*
X61469047Y-57439580D02*
X61564285Y-57296723D01*
X61564285Y-57296723D02*
X61611904Y-57106247D01*
X61611904Y-57106247D02*
X61611904Y-56725295D01*
X61611904Y-56725295D02*
X61564285Y-56630057D01*
X61564285Y-56630057D02*
X61516666Y-56582438D01*
X61516666Y-56582438D02*
X61421428Y-56534819D01*
X61421428Y-56534819D02*
X61230952Y-56534819D01*
X61230952Y-56534819D02*
X61135714Y-56582438D01*
X61135714Y-56582438D02*
X61088095Y-56630057D01*
X61088095Y-56630057D02*
X61040476Y-56725295D01*
X61040476Y-56725295D02*
X61040476Y-56963390D01*
X61040476Y-56963390D02*
X61088095Y-57058628D01*
X61088095Y-57058628D02*
X61135714Y-57106247D01*
X61135714Y-57106247D02*
X61230952Y-57153866D01*
X61230952Y-57153866D02*
X61421428Y-57153866D01*
X61421428Y-57153866D02*
X61516666Y-57106247D01*
X61516666Y-57106247D02*
X61564285Y-57058628D01*
X61564285Y-57058628D02*
X61611904Y-56963390D01*
X48194761Y-42330057D02*
X48099523Y-42282438D01*
X48099523Y-42282438D02*
X48004285Y-42187200D01*
X48004285Y-42187200D02*
X47861428Y-42044342D01*
X47861428Y-42044342D02*
X47766190Y-41996723D01*
X47766190Y-41996723D02*
X47670952Y-41996723D01*
X47718571Y-42234819D02*
X47623333Y-42187200D01*
X47623333Y-42187200D02*
X47528095Y-42091961D01*
X47528095Y-42091961D02*
X47480476Y-41901485D01*
X47480476Y-41901485D02*
X47480476Y-41568152D01*
X47480476Y-41568152D02*
X47528095Y-41377676D01*
X47528095Y-41377676D02*
X47623333Y-41282438D01*
X47623333Y-41282438D02*
X47718571Y-41234819D01*
X47718571Y-41234819D02*
X47909047Y-41234819D01*
X47909047Y-41234819D02*
X48004285Y-41282438D01*
X48004285Y-41282438D02*
X48099523Y-41377676D01*
X48099523Y-41377676D02*
X48147142Y-41568152D01*
X48147142Y-41568152D02*
X48147142Y-41901485D01*
X48147142Y-41901485D02*
X48099523Y-42091961D01*
X48099523Y-42091961D02*
X48004285Y-42187200D01*
X48004285Y-42187200D02*
X47909047Y-42234819D01*
X47909047Y-42234819D02*
X47718571Y-42234819D01*
X48480476Y-41234819D02*
X49099523Y-41234819D01*
X49099523Y-41234819D02*
X48766190Y-41615771D01*
X48766190Y-41615771D02*
X48909047Y-41615771D01*
X48909047Y-41615771D02*
X49004285Y-41663390D01*
X49004285Y-41663390D02*
X49051904Y-41711009D01*
X49051904Y-41711009D02*
X49099523Y-41806247D01*
X49099523Y-41806247D02*
X49099523Y-42044342D01*
X49099523Y-42044342D02*
X49051904Y-42139580D01*
X49051904Y-42139580D02*
X49004285Y-42187200D01*
X49004285Y-42187200D02*
X48909047Y-42234819D01*
X48909047Y-42234819D02*
X48623333Y-42234819D01*
X48623333Y-42234819D02*
X48528095Y-42187200D01*
X48528095Y-42187200D02*
X48480476Y-42139580D01*
X62881905Y-50734819D02*
X62881905Y-49734819D01*
X62881905Y-49734819D02*
X63120000Y-49734819D01*
X63120000Y-49734819D02*
X63262857Y-49782438D01*
X63262857Y-49782438D02*
X63358095Y-49877676D01*
X63358095Y-49877676D02*
X63405714Y-49972914D01*
X63405714Y-49972914D02*
X63453333Y-50163390D01*
X63453333Y-50163390D02*
X63453333Y-50306247D01*
X63453333Y-50306247D02*
X63405714Y-50496723D01*
X63405714Y-50496723D02*
X63358095Y-50591961D01*
X63358095Y-50591961D02*
X63262857Y-50687200D01*
X63262857Y-50687200D02*
X63120000Y-50734819D01*
X63120000Y-50734819D02*
X62881905Y-50734819D01*
X64310476Y-50068152D02*
X64310476Y-50734819D01*
X64072381Y-49687200D02*
X63834286Y-50401485D01*
X63834286Y-50401485D02*
X64453333Y-50401485D01*
X55738095Y-51854819D02*
X55738095Y-50854819D01*
X56309523Y-51854819D02*
X55880952Y-51283390D01*
X56309523Y-50854819D02*
X55738095Y-51426247D01*
X3916667Y-26407200D02*
X4059524Y-26454819D01*
X4059524Y-26454819D02*
X4297619Y-26454819D01*
X4297619Y-26454819D02*
X4392857Y-26407200D01*
X4392857Y-26407200D02*
X4440476Y-26359580D01*
X4440476Y-26359580D02*
X4488095Y-26264342D01*
X4488095Y-26264342D02*
X4488095Y-26169104D01*
X4488095Y-26169104D02*
X4440476Y-26073866D01*
X4440476Y-26073866D02*
X4392857Y-26026247D01*
X4392857Y-26026247D02*
X4297619Y-25978628D01*
X4297619Y-25978628D02*
X4107143Y-25931009D01*
X4107143Y-25931009D02*
X4011905Y-25883390D01*
X4011905Y-25883390D02*
X3964286Y-25835771D01*
X3964286Y-25835771D02*
X3916667Y-25740533D01*
X3916667Y-25740533D02*
X3916667Y-25645295D01*
X3916667Y-25645295D02*
X3964286Y-25550057D01*
X3964286Y-25550057D02*
X4011905Y-25502438D01*
X4011905Y-25502438D02*
X4107143Y-25454819D01*
X4107143Y-25454819D02*
X4345238Y-25454819D01*
X4345238Y-25454819D02*
X4488095Y-25502438D01*
X4821429Y-25454819D02*
X5059524Y-26454819D01*
X5059524Y-26454819D02*
X5250000Y-25740533D01*
X5250000Y-25740533D02*
X5440476Y-26454819D01*
X5440476Y-26454819D02*
X5678572Y-25454819D01*
X6583333Y-26454819D02*
X6011905Y-26454819D01*
X6297619Y-26454819D02*
X6297619Y-25454819D01*
X6297619Y-25454819D02*
X6202381Y-25597676D01*
X6202381Y-25597676D02*
X6107143Y-25692914D01*
X6107143Y-25692914D02*
X6011905Y-25740533D01*
X95738095Y-80804819D02*
X95738095Y-79804819D01*
X95738095Y-80281009D02*
X96309523Y-80281009D01*
X96309523Y-80804819D02*
X96309523Y-79804819D01*
X97214285Y-80138152D02*
X97214285Y-80804819D01*
X96976190Y-79757200D02*
X96738095Y-80471485D01*
X96738095Y-80471485D02*
X97357142Y-80471485D01*
X37166666Y-3074819D02*
X37166666Y-3789104D01*
X37166666Y-3789104D02*
X37119047Y-3931961D01*
X37119047Y-3931961D02*
X37023809Y-4027200D01*
X37023809Y-4027200D02*
X36880952Y-4074819D01*
X36880952Y-4074819D02*
X36785714Y-4074819D01*
X37642857Y-4074819D02*
X37642857Y-3074819D01*
X37642857Y-3074819D02*
X38023809Y-3074819D01*
X38023809Y-3074819D02*
X38119047Y-3122438D01*
X38119047Y-3122438D02*
X38166666Y-3170057D01*
X38166666Y-3170057D02*
X38214285Y-3265295D01*
X38214285Y-3265295D02*
X38214285Y-3408152D01*
X38214285Y-3408152D02*
X38166666Y-3503390D01*
X38166666Y-3503390D02*
X38119047Y-3551009D01*
X38119047Y-3551009D02*
X38023809Y-3598628D01*
X38023809Y-3598628D02*
X37642857Y-3598628D01*
X39166666Y-4074819D02*
X38595238Y-4074819D01*
X38880952Y-4074819D02*
X38880952Y-3074819D01*
X38880952Y-3074819D02*
X38785714Y-3217676D01*
X38785714Y-3217676D02*
X38690476Y-3312914D01*
X38690476Y-3312914D02*
X38595238Y-3360533D01*
X2738095Y195180D02*
X2738095Y1195180D01*
X2738095Y718990D02*
X3309523Y718990D01*
X3309523Y195180D02*
X3309523Y1195180D01*
X4309523Y195180D02*
X3738095Y195180D01*
X4023809Y195180D02*
X4023809Y1195180D01*
X4023809Y1195180D02*
X3928571Y1052323D01*
X3928571Y1052323D02*
X3833333Y957085D01*
X3833333Y957085D02*
X3738095Y909466D01*
X17643333Y-25084819D02*
X17310000Y-24608628D01*
X17071905Y-25084819D02*
X17071905Y-24084819D01*
X17071905Y-24084819D02*
X17452857Y-24084819D01*
X17452857Y-24084819D02*
X17548095Y-24132438D01*
X17548095Y-24132438D02*
X17595714Y-24180057D01*
X17595714Y-24180057D02*
X17643333Y-24275295D01*
X17643333Y-24275295D02*
X17643333Y-24418152D01*
X17643333Y-24418152D02*
X17595714Y-24513390D01*
X17595714Y-24513390D02*
X17548095Y-24561009D01*
X17548095Y-24561009D02*
X17452857Y-24608628D01*
X17452857Y-24608628D02*
X17071905Y-24608628D01*
X18595714Y-25084819D02*
X18024286Y-25084819D01*
X18310000Y-25084819D02*
X18310000Y-24084819D01*
X18310000Y-24084819D02*
X18214762Y-24227676D01*
X18214762Y-24227676D02*
X18119524Y-24322914D01*
X18119524Y-24322914D02*
X18024286Y-24370533D01*
X35643333Y-72084819D02*
X35310000Y-71608628D01*
X35071905Y-72084819D02*
X35071905Y-71084819D01*
X35071905Y-71084819D02*
X35452857Y-71084819D01*
X35452857Y-71084819D02*
X35548095Y-71132438D01*
X35548095Y-71132438D02*
X35595714Y-71180057D01*
X35595714Y-71180057D02*
X35643333Y-71275295D01*
X35643333Y-71275295D02*
X35643333Y-71418152D01*
X35643333Y-71418152D02*
X35595714Y-71513390D01*
X35595714Y-71513390D02*
X35548095Y-71561009D01*
X35548095Y-71561009D02*
X35452857Y-71608628D01*
X35452857Y-71608628D02*
X35071905Y-71608628D01*
X36119524Y-72084819D02*
X36310000Y-72084819D01*
X36310000Y-72084819D02*
X36405238Y-72037200D01*
X36405238Y-72037200D02*
X36452857Y-71989580D01*
X36452857Y-71989580D02*
X36548095Y-71846723D01*
X36548095Y-71846723D02*
X36595714Y-71656247D01*
X36595714Y-71656247D02*
X36595714Y-71275295D01*
X36595714Y-71275295D02*
X36548095Y-71180057D01*
X36548095Y-71180057D02*
X36500476Y-71132438D01*
X36500476Y-71132438D02*
X36405238Y-71084819D01*
X36405238Y-71084819D02*
X36214762Y-71084819D01*
X36214762Y-71084819D02*
X36119524Y-71132438D01*
X36119524Y-71132438D02*
X36071905Y-71180057D01*
X36071905Y-71180057D02*
X36024286Y-71275295D01*
X36024286Y-71275295D02*
X36024286Y-71513390D01*
X36024286Y-71513390D02*
X36071905Y-71608628D01*
X36071905Y-71608628D02*
X36119524Y-71656247D01*
X36119524Y-71656247D02*
X36214762Y-71703866D01*
X36214762Y-71703866D02*
X36405238Y-71703866D01*
X36405238Y-71703866D02*
X36500476Y-71656247D01*
X36500476Y-71656247D02*
X36548095Y-71608628D01*
X36548095Y-71608628D02*
X36595714Y-71513390D01*
D16*
X73032380Y-37309271D02*
X73032380Y-38337366D01*
X73032380Y-38337366D02*
X73092857Y-38458318D01*
X73092857Y-38458318D02*
X73153333Y-38518795D01*
X73153333Y-38518795D02*
X73274285Y-38579271D01*
X73274285Y-38579271D02*
X73516190Y-38579271D01*
X73516190Y-38579271D02*
X73637142Y-38518795D01*
X73637142Y-38518795D02*
X73697619Y-38458318D01*
X73697619Y-38458318D02*
X73758095Y-38337366D01*
X73758095Y-38337366D02*
X73758095Y-37309271D01*
X74302380Y-37430223D02*
X74362856Y-37369747D01*
X74362856Y-37369747D02*
X74483809Y-37309271D01*
X74483809Y-37309271D02*
X74786190Y-37309271D01*
X74786190Y-37309271D02*
X74907142Y-37369747D01*
X74907142Y-37369747D02*
X74967618Y-37430223D01*
X74967618Y-37430223D02*
X75028095Y-37551175D01*
X75028095Y-37551175D02*
X75028095Y-37672128D01*
X75028095Y-37672128D02*
X74967618Y-37853556D01*
X74967618Y-37853556D02*
X74241904Y-38579271D01*
X74241904Y-38579271D02*
X75028095Y-38579271D01*
X5914033Y-52423332D02*
X5914033Y-52846666D01*
X6579271Y-52846666D02*
X5309271Y-52846666D01*
X5309271Y-52846666D02*
X5309271Y-52241904D01*
X6579271Y-51092856D02*
X6579271Y-51818571D01*
X6579271Y-51455714D02*
X5309271Y-51455714D01*
X5309271Y-51455714D02*
X5490699Y-51576666D01*
X5490699Y-51576666D02*
X5611652Y-51697618D01*
X5611652Y-51697618D02*
X5672128Y-51818571D01*
D13*
X30334819Y-42499523D02*
X30334819Y-41832857D01*
X30334819Y-41832857D02*
X31334819Y-42499523D01*
X31334819Y-42499523D02*
X31334819Y-41832857D01*
X31334819Y-41451904D02*
X30334819Y-41451904D01*
X30334819Y-41451904D02*
X30334819Y-41213809D01*
X30334819Y-41213809D02*
X30382438Y-41070952D01*
X30382438Y-41070952D02*
X30477676Y-40975714D01*
X30477676Y-40975714D02*
X30572914Y-40928095D01*
X30572914Y-40928095D02*
X30763390Y-40880476D01*
X30763390Y-40880476D02*
X30906247Y-40880476D01*
X30906247Y-40880476D02*
X31096723Y-40928095D01*
X31096723Y-40928095D02*
X31191961Y-40975714D01*
X31191961Y-40975714D02*
X31287200Y-41070952D01*
X31287200Y-41070952D02*
X31334819Y-41213809D01*
X31334819Y-41213809D02*
X31334819Y-41451904D01*
X30430057Y-40499523D02*
X30382438Y-40451904D01*
X30382438Y-40451904D02*
X30334819Y-40356666D01*
X30334819Y-40356666D02*
X30334819Y-40118571D01*
X30334819Y-40118571D02*
X30382438Y-40023333D01*
X30382438Y-40023333D02*
X30430057Y-39975714D01*
X30430057Y-39975714D02*
X30525295Y-39928095D01*
X30525295Y-39928095D02*
X30620533Y-39928095D01*
X30620533Y-39928095D02*
X30763390Y-39975714D01*
X30763390Y-39975714D02*
X31334819Y-40547142D01*
X31334819Y-40547142D02*
X31334819Y-39928095D01*
X31654819Y-45261904D02*
X30654819Y-45261904D01*
X31654819Y-44690476D02*
X31083390Y-45119047D01*
X30654819Y-44690476D02*
X31226247Y-45261904D01*
X54333333Y-75859580D02*
X54285714Y-75907200D01*
X54285714Y-75907200D02*
X54142857Y-75954819D01*
X54142857Y-75954819D02*
X54047619Y-75954819D01*
X54047619Y-75954819D02*
X53904762Y-75907200D01*
X53904762Y-75907200D02*
X53809524Y-75811961D01*
X53809524Y-75811961D02*
X53761905Y-75716723D01*
X53761905Y-75716723D02*
X53714286Y-75526247D01*
X53714286Y-75526247D02*
X53714286Y-75383390D01*
X53714286Y-75383390D02*
X53761905Y-75192914D01*
X53761905Y-75192914D02*
X53809524Y-75097676D01*
X53809524Y-75097676D02*
X53904762Y-75002438D01*
X53904762Y-75002438D02*
X54047619Y-74954819D01*
X54047619Y-74954819D02*
X54142857Y-74954819D01*
X54142857Y-74954819D02*
X54285714Y-75002438D01*
X54285714Y-75002438D02*
X54333333Y-75050057D01*
X54904762Y-75383390D02*
X54809524Y-75335771D01*
X54809524Y-75335771D02*
X54761905Y-75288152D01*
X54761905Y-75288152D02*
X54714286Y-75192914D01*
X54714286Y-75192914D02*
X54714286Y-75145295D01*
X54714286Y-75145295D02*
X54761905Y-75050057D01*
X54761905Y-75050057D02*
X54809524Y-75002438D01*
X54809524Y-75002438D02*
X54904762Y-74954819D01*
X54904762Y-74954819D02*
X55095238Y-74954819D01*
X55095238Y-74954819D02*
X55190476Y-75002438D01*
X55190476Y-75002438D02*
X55238095Y-75050057D01*
X55238095Y-75050057D02*
X55285714Y-75145295D01*
X55285714Y-75145295D02*
X55285714Y-75192914D01*
X55285714Y-75192914D02*
X55238095Y-75288152D01*
X55238095Y-75288152D02*
X55190476Y-75335771D01*
X55190476Y-75335771D02*
X55095238Y-75383390D01*
X55095238Y-75383390D02*
X54904762Y-75383390D01*
X54904762Y-75383390D02*
X54809524Y-75431009D01*
X54809524Y-75431009D02*
X54761905Y-75478628D01*
X54761905Y-75478628D02*
X54714286Y-75573866D01*
X54714286Y-75573866D02*
X54714286Y-75764342D01*
X54714286Y-75764342D02*
X54761905Y-75859580D01*
X54761905Y-75859580D02*
X54809524Y-75907200D01*
X54809524Y-75907200D02*
X54904762Y-75954819D01*
X54904762Y-75954819D02*
X55095238Y-75954819D01*
X55095238Y-75954819D02*
X55190476Y-75907200D01*
X55190476Y-75907200D02*
X55238095Y-75859580D01*
X55238095Y-75859580D02*
X55285714Y-75764342D01*
X55285714Y-75764342D02*
X55285714Y-75573866D01*
X55285714Y-75573866D02*
X55238095Y-75478628D01*
X55238095Y-75478628D02*
X55190476Y-75431009D01*
X55190476Y-75431009D02*
X55095238Y-75383390D01*
X26924819Y-53658094D02*
X25924819Y-53658094D01*
X25924819Y-53658094D02*
X25924819Y-53419999D01*
X25924819Y-53419999D02*
X25972438Y-53277142D01*
X25972438Y-53277142D02*
X26067676Y-53181904D01*
X26067676Y-53181904D02*
X26162914Y-53134285D01*
X26162914Y-53134285D02*
X26353390Y-53086666D01*
X26353390Y-53086666D02*
X26496247Y-53086666D01*
X26496247Y-53086666D02*
X26686723Y-53134285D01*
X26686723Y-53134285D02*
X26781961Y-53181904D01*
X26781961Y-53181904D02*
X26877200Y-53277142D01*
X26877200Y-53277142D02*
X26924819Y-53419999D01*
X26924819Y-53419999D02*
X26924819Y-53658094D01*
X26020057Y-52705713D02*
X25972438Y-52658094D01*
X25972438Y-52658094D02*
X25924819Y-52562856D01*
X25924819Y-52562856D02*
X25924819Y-52324761D01*
X25924819Y-52324761D02*
X25972438Y-52229523D01*
X25972438Y-52229523D02*
X26020057Y-52181904D01*
X26020057Y-52181904D02*
X26115295Y-52134285D01*
X26115295Y-52134285D02*
X26210533Y-52134285D01*
X26210533Y-52134285D02*
X26353390Y-52181904D01*
X26353390Y-52181904D02*
X26924819Y-52753332D01*
X26924819Y-52753332D02*
X26924819Y-52134285D01*
X26554819Y-48101904D02*
X25554819Y-48101904D01*
X26554819Y-47530476D02*
X25983390Y-47959047D01*
X25554819Y-47530476D02*
X26126247Y-48101904D01*
X39167142Y-36084819D02*
X38833809Y-35608628D01*
X38595714Y-36084819D02*
X38595714Y-35084819D01*
X38595714Y-35084819D02*
X38976666Y-35084819D01*
X38976666Y-35084819D02*
X39071904Y-35132438D01*
X39071904Y-35132438D02*
X39119523Y-35180057D01*
X39119523Y-35180057D02*
X39167142Y-35275295D01*
X39167142Y-35275295D02*
X39167142Y-35418152D01*
X39167142Y-35418152D02*
X39119523Y-35513390D01*
X39119523Y-35513390D02*
X39071904Y-35561009D01*
X39071904Y-35561009D02*
X38976666Y-35608628D01*
X38976666Y-35608628D02*
X38595714Y-35608628D01*
X40119523Y-36084819D02*
X39548095Y-36084819D01*
X39833809Y-36084819D02*
X39833809Y-35084819D01*
X39833809Y-35084819D02*
X39738571Y-35227676D01*
X39738571Y-35227676D02*
X39643333Y-35322914D01*
X39643333Y-35322914D02*
X39548095Y-35370533D01*
X40500476Y-35180057D02*
X40548095Y-35132438D01*
X40548095Y-35132438D02*
X40643333Y-35084819D01*
X40643333Y-35084819D02*
X40881428Y-35084819D01*
X40881428Y-35084819D02*
X40976666Y-35132438D01*
X40976666Y-35132438D02*
X41024285Y-35180057D01*
X41024285Y-35180057D02*
X41071904Y-35275295D01*
X41071904Y-35275295D02*
X41071904Y-35370533D01*
X41071904Y-35370533D02*
X41024285Y-35513390D01*
X41024285Y-35513390D02*
X40452857Y-36084819D01*
X40452857Y-36084819D02*
X41071904Y-36084819D01*
X56194761Y-64330057D02*
X56099523Y-64282438D01*
X56099523Y-64282438D02*
X56004285Y-64187200D01*
X56004285Y-64187200D02*
X55861428Y-64044342D01*
X55861428Y-64044342D02*
X55766190Y-63996723D01*
X55766190Y-63996723D02*
X55670952Y-63996723D01*
X55718571Y-64234819D02*
X55623333Y-64187200D01*
X55623333Y-64187200D02*
X55528095Y-64091961D01*
X55528095Y-64091961D02*
X55480476Y-63901485D01*
X55480476Y-63901485D02*
X55480476Y-63568152D01*
X55480476Y-63568152D02*
X55528095Y-63377676D01*
X55528095Y-63377676D02*
X55623333Y-63282438D01*
X55623333Y-63282438D02*
X55718571Y-63234819D01*
X55718571Y-63234819D02*
X55909047Y-63234819D01*
X55909047Y-63234819D02*
X56004285Y-63282438D01*
X56004285Y-63282438D02*
X56099523Y-63377676D01*
X56099523Y-63377676D02*
X56147142Y-63568152D01*
X56147142Y-63568152D02*
X56147142Y-63901485D01*
X56147142Y-63901485D02*
X56099523Y-64091961D01*
X56099523Y-64091961D02*
X56004285Y-64187200D01*
X56004285Y-64187200D02*
X55909047Y-64234819D01*
X55909047Y-64234819D02*
X55718571Y-64234819D01*
X56480476Y-63234819D02*
X57147142Y-63234819D01*
X57147142Y-63234819D02*
X56718571Y-64234819D01*
X39194761Y-68330057D02*
X39099523Y-68282438D01*
X39099523Y-68282438D02*
X39004285Y-68187200D01*
X39004285Y-68187200D02*
X38861428Y-68044342D01*
X38861428Y-68044342D02*
X38766190Y-67996723D01*
X38766190Y-67996723D02*
X38670952Y-67996723D01*
X38718571Y-68234819D02*
X38623333Y-68187200D01*
X38623333Y-68187200D02*
X38528095Y-68091961D01*
X38528095Y-68091961D02*
X38480476Y-67901485D01*
X38480476Y-67901485D02*
X38480476Y-67568152D01*
X38480476Y-67568152D02*
X38528095Y-67377676D01*
X38528095Y-67377676D02*
X38623333Y-67282438D01*
X38623333Y-67282438D02*
X38718571Y-67234819D01*
X38718571Y-67234819D02*
X38909047Y-67234819D01*
X38909047Y-67234819D02*
X39004285Y-67282438D01*
X39004285Y-67282438D02*
X39099523Y-67377676D01*
X39099523Y-67377676D02*
X39147142Y-67568152D01*
X39147142Y-67568152D02*
X39147142Y-67901485D01*
X39147142Y-67901485D02*
X39099523Y-68091961D01*
X39099523Y-68091961D02*
X39004285Y-68187200D01*
X39004285Y-68187200D02*
X38909047Y-68234819D01*
X38909047Y-68234819D02*
X38718571Y-68234819D01*
X40004285Y-67234819D02*
X39813809Y-67234819D01*
X39813809Y-67234819D02*
X39718571Y-67282438D01*
X39718571Y-67282438D02*
X39670952Y-67330057D01*
X39670952Y-67330057D02*
X39575714Y-67472914D01*
X39575714Y-67472914D02*
X39528095Y-67663390D01*
X39528095Y-67663390D02*
X39528095Y-68044342D01*
X39528095Y-68044342D02*
X39575714Y-68139580D01*
X39575714Y-68139580D02*
X39623333Y-68187200D01*
X39623333Y-68187200D02*
X39718571Y-68234819D01*
X39718571Y-68234819D02*
X39909047Y-68234819D01*
X39909047Y-68234819D02*
X40004285Y-68187200D01*
X40004285Y-68187200D02*
X40051904Y-68139580D01*
X40051904Y-68139580D02*
X40099523Y-68044342D01*
X40099523Y-68044342D02*
X40099523Y-67806247D01*
X40099523Y-67806247D02*
X40051904Y-67711009D01*
X40051904Y-67711009D02*
X40004285Y-67663390D01*
X40004285Y-67663390D02*
X39909047Y-67615771D01*
X39909047Y-67615771D02*
X39718571Y-67615771D01*
X39718571Y-67615771D02*
X39623333Y-67663390D01*
X39623333Y-67663390D02*
X39575714Y-67711009D01*
X39575714Y-67711009D02*
X39528095Y-67806247D01*
X35167142Y-76084819D02*
X34833809Y-75608628D01*
X34595714Y-76084819D02*
X34595714Y-75084819D01*
X34595714Y-75084819D02*
X34976666Y-75084819D01*
X34976666Y-75084819D02*
X35071904Y-75132438D01*
X35071904Y-75132438D02*
X35119523Y-75180057D01*
X35119523Y-75180057D02*
X35167142Y-75275295D01*
X35167142Y-75275295D02*
X35167142Y-75418152D01*
X35167142Y-75418152D02*
X35119523Y-75513390D01*
X35119523Y-75513390D02*
X35071904Y-75561009D01*
X35071904Y-75561009D02*
X34976666Y-75608628D01*
X34976666Y-75608628D02*
X34595714Y-75608628D01*
X36119523Y-76084819D02*
X35548095Y-76084819D01*
X35833809Y-76084819D02*
X35833809Y-75084819D01*
X35833809Y-75084819D02*
X35738571Y-75227676D01*
X35738571Y-75227676D02*
X35643333Y-75322914D01*
X35643333Y-75322914D02*
X35548095Y-75370533D01*
X37071904Y-76084819D02*
X36500476Y-76084819D01*
X36786190Y-76084819D02*
X36786190Y-75084819D01*
X36786190Y-75084819D02*
X36690952Y-75227676D01*
X36690952Y-75227676D02*
X36595714Y-75322914D01*
X36595714Y-75322914D02*
X36500476Y-75370533D01*
%TO.C,C3*%
D10*
X73060509Y-59445000D02*
X74660509Y-59445000D01*
X73860509Y-58645000D02*
X73860509Y-60245000D01*
X81750000Y-55920000D02*
X81750000Y-72080000D01*
X81790000Y-55920000D02*
X81790000Y-72080000D01*
X81830000Y-55920000D02*
X81830000Y-72080000D01*
X81870000Y-55921000D02*
X81870000Y-72079000D01*
X81910000Y-55922000D02*
X81910000Y-72078000D01*
X81950000Y-55922000D02*
X81950000Y-72078000D01*
X81990000Y-55924000D02*
X81990000Y-72076000D01*
X82030000Y-55925000D02*
X82030000Y-72075000D01*
X82070000Y-55926000D02*
X82070000Y-72074000D01*
X82110000Y-55928000D02*
X82110000Y-72072000D01*
X82150000Y-55930000D02*
X82150000Y-72070000D01*
X82190000Y-55932000D02*
X82190000Y-72068000D01*
X82230000Y-55934000D02*
X82230000Y-72066000D01*
X82270000Y-55937000D02*
X82270000Y-72063000D01*
X82310000Y-55939000D02*
X82310000Y-72061000D01*
X82350000Y-55942000D02*
X82350000Y-72058000D01*
X82390000Y-55945000D02*
X82390000Y-72055000D01*
X82430000Y-55949000D02*
X82430000Y-72051000D01*
X82470000Y-55952000D02*
X82470000Y-72048000D01*
X82510000Y-55956000D02*
X82510000Y-72044000D01*
X82550000Y-55960000D02*
X82550000Y-72040000D01*
X82590000Y-55964000D02*
X82590000Y-72036000D01*
X82630000Y-55968000D02*
X82630000Y-72032000D01*
X82670000Y-55972000D02*
X82670000Y-72028000D01*
X82710000Y-55977000D02*
X82710000Y-72023000D01*
X82750000Y-55982000D02*
X82750000Y-72018000D01*
X82790000Y-55987000D02*
X82790000Y-72013000D01*
X82830000Y-55992000D02*
X82830000Y-72008000D01*
X82870000Y-55998000D02*
X82870000Y-72002000D01*
X82910000Y-56003000D02*
X82910000Y-71997000D01*
X82950000Y-56009000D02*
X82950000Y-71991000D01*
X82990000Y-56015000D02*
X82990000Y-71985000D01*
X83030000Y-56022000D02*
X83030000Y-71978000D01*
X83070000Y-56028000D02*
X83070000Y-71972000D01*
X83110000Y-56035000D02*
X83110000Y-71965000D01*
X83150000Y-56042000D02*
X83150000Y-71958000D01*
X83190000Y-56049000D02*
X83190000Y-71951000D01*
X83230000Y-56056000D02*
X83230000Y-71944000D01*
X83270000Y-56064000D02*
X83270000Y-71936000D01*
X83310000Y-56071000D02*
X83310000Y-71929000D01*
X83350000Y-56079000D02*
X83350000Y-71921000D01*
X83390000Y-56087000D02*
X83390000Y-71913000D01*
X83430000Y-56096000D02*
X83430000Y-71904000D01*
X83470000Y-56104000D02*
X83470000Y-71896000D01*
X83510000Y-56113000D02*
X83510000Y-71887000D01*
X83550000Y-56122000D02*
X83550000Y-71878000D01*
X83590000Y-56131000D02*
X83590000Y-71869000D01*
X83630000Y-56141000D02*
X83630000Y-71859000D01*
X83670000Y-56150000D02*
X83670000Y-71850000D01*
X83710000Y-56160000D02*
X83710000Y-71840000D01*
X83750000Y-56170000D02*
X83750000Y-71830000D01*
X83790000Y-56180000D02*
X83790000Y-71820000D01*
X83830000Y-56191000D02*
X83830000Y-71809000D01*
X83870000Y-56202000D02*
X83870000Y-71798000D01*
X83910000Y-56213000D02*
X83910000Y-71787000D01*
X83950000Y-56224000D02*
X83950000Y-71776000D01*
X83990000Y-56235000D02*
X83990000Y-71765000D01*
X84030000Y-56247000D02*
X84030000Y-71753000D01*
X84070000Y-56258000D02*
X84070000Y-62560000D01*
X84070000Y-65440000D02*
X84070000Y-71742000D01*
X84110000Y-56271000D02*
X84110000Y-62560000D01*
X84110000Y-65440000D02*
X84110000Y-71729000D01*
X84150000Y-56283000D02*
X84150000Y-62560000D01*
X84150000Y-65440000D02*
X84150000Y-71717000D01*
X84190000Y-56295000D02*
X84190000Y-62560000D01*
X84190000Y-65440000D02*
X84190000Y-71705000D01*
X84230000Y-56308000D02*
X84230000Y-62560000D01*
X84230000Y-65440000D02*
X84230000Y-71692000D01*
X84270000Y-56321000D02*
X84270000Y-62560000D01*
X84270000Y-65440000D02*
X84270000Y-71679000D01*
X84310000Y-56334000D02*
X84310000Y-62560000D01*
X84310000Y-65440000D02*
X84310000Y-71666000D01*
X84350000Y-56348000D02*
X84350000Y-62560000D01*
X84350000Y-65440000D02*
X84350000Y-71652000D01*
X84390000Y-56361000D02*
X84390000Y-62560000D01*
X84390000Y-65440000D02*
X84390000Y-71639000D01*
X84430000Y-56375000D02*
X84430000Y-62560000D01*
X84430000Y-65440000D02*
X84430000Y-71625000D01*
X84470000Y-56389000D02*
X84470000Y-62560000D01*
X84470000Y-65440000D02*
X84470000Y-71611000D01*
X84510000Y-56403000D02*
X84510000Y-62560000D01*
X84510000Y-65440000D02*
X84510000Y-71597000D01*
X84550000Y-56418000D02*
X84550000Y-62560000D01*
X84550000Y-65440000D02*
X84550000Y-71582000D01*
X84590000Y-56433000D02*
X84590000Y-62560000D01*
X84590000Y-65440000D02*
X84590000Y-71567000D01*
X84630000Y-56448000D02*
X84630000Y-62560000D01*
X84630000Y-65440000D02*
X84630000Y-71552000D01*
X84670000Y-56463000D02*
X84670000Y-62560000D01*
X84670000Y-65440000D02*
X84670000Y-71537000D01*
X84710000Y-56479000D02*
X84710000Y-62560000D01*
X84710000Y-65440000D02*
X84710000Y-71521000D01*
X84750000Y-56495000D02*
X84750000Y-62560000D01*
X84750000Y-65440000D02*
X84750000Y-71505000D01*
X84790000Y-56511000D02*
X84790000Y-62560000D01*
X84790000Y-65440000D02*
X84790000Y-71489000D01*
X84830000Y-56527000D02*
X84830000Y-62560000D01*
X84830000Y-65440000D02*
X84830000Y-71473000D01*
X84870000Y-56543000D02*
X84870000Y-62560000D01*
X84870000Y-65440000D02*
X84870000Y-71457000D01*
X84910000Y-56560000D02*
X84910000Y-62560000D01*
X84910000Y-65440000D02*
X84910000Y-71440000D01*
X84950000Y-56577000D02*
X84950000Y-62560000D01*
X84950000Y-65440000D02*
X84950000Y-71423000D01*
X84990000Y-56594000D02*
X84990000Y-62560000D01*
X84990000Y-65440000D02*
X84990000Y-71406000D01*
X85030000Y-56612000D02*
X85030000Y-62560000D01*
X85030000Y-65440000D02*
X85030000Y-71388000D01*
X85070000Y-56630000D02*
X85070000Y-62560000D01*
X85070000Y-65440000D02*
X85070000Y-71370000D01*
X85110000Y-56648000D02*
X85110000Y-62560000D01*
X85110000Y-65440000D02*
X85110000Y-71352000D01*
X85150000Y-56666000D02*
X85150000Y-62560000D01*
X85150000Y-65440000D02*
X85150000Y-71334000D01*
X85190000Y-56685000D02*
X85190000Y-62560000D01*
X85190000Y-65440000D02*
X85190000Y-71315000D01*
X85230000Y-56704000D02*
X85230000Y-62560000D01*
X85230000Y-65440000D02*
X85230000Y-71296000D01*
X85270000Y-56723000D02*
X85270000Y-62560000D01*
X85270000Y-65440000D02*
X85270000Y-71277000D01*
X85310000Y-56742000D02*
X85310000Y-62560000D01*
X85310000Y-65440000D02*
X85310000Y-71258000D01*
X85350000Y-56762000D02*
X85350000Y-62560000D01*
X85350000Y-65440000D02*
X85350000Y-71238000D01*
X85390000Y-56782000D02*
X85390000Y-62560000D01*
X85390000Y-65440000D02*
X85390000Y-71218000D01*
X85430000Y-56802000D02*
X85430000Y-62560000D01*
X85430000Y-65440000D02*
X85430000Y-71198000D01*
X85470000Y-56822000D02*
X85470000Y-62560000D01*
X85470000Y-65440000D02*
X85470000Y-71178000D01*
X85510000Y-56843000D02*
X85510000Y-62560000D01*
X85510000Y-65440000D02*
X85510000Y-71157000D01*
X85550000Y-56864000D02*
X85550000Y-62560000D01*
X85550000Y-65440000D02*
X85550000Y-71136000D01*
X85590000Y-56885000D02*
X85590000Y-62560000D01*
X85590000Y-65440000D02*
X85590000Y-71115000D01*
X85630000Y-56907000D02*
X85630000Y-62560000D01*
X85630000Y-65440000D02*
X85630000Y-71093000D01*
X85670000Y-56929000D02*
X85670000Y-62560000D01*
X85670000Y-65440000D02*
X85670000Y-71071000D01*
X85710000Y-56951000D02*
X85710000Y-62560000D01*
X85710000Y-65440000D02*
X85710000Y-71049000D01*
X85750000Y-56974000D02*
X85750000Y-62560000D01*
X85750000Y-65440000D02*
X85750000Y-71026000D01*
X85790000Y-56996000D02*
X85790000Y-62560000D01*
X85790000Y-65440000D02*
X85790000Y-71004000D01*
X85830000Y-57019000D02*
X85830000Y-62560000D01*
X85830000Y-65440000D02*
X85830000Y-70981000D01*
X85870000Y-57043000D02*
X85870000Y-62560000D01*
X85870000Y-65440000D02*
X85870000Y-70957000D01*
X85910000Y-57067000D02*
X85910000Y-62560000D01*
X85910000Y-65440000D02*
X85910000Y-70933000D01*
X85950000Y-57091000D02*
X85950000Y-62560000D01*
X85950000Y-65440000D02*
X85950000Y-70909000D01*
X85990000Y-57115000D02*
X85990000Y-62560000D01*
X85990000Y-65440000D02*
X85990000Y-70885000D01*
X86030000Y-57140000D02*
X86030000Y-62560000D01*
X86030000Y-65440000D02*
X86030000Y-70860000D01*
X86070000Y-57165000D02*
X86070000Y-62560000D01*
X86070000Y-65440000D02*
X86070000Y-70835000D01*
X86110000Y-57190000D02*
X86110000Y-62560000D01*
X86110000Y-65440000D02*
X86110000Y-70810000D01*
X86150000Y-57215000D02*
X86150000Y-62560000D01*
X86150000Y-65440000D02*
X86150000Y-70785000D01*
X86190000Y-57241000D02*
X86190000Y-62560000D01*
X86190000Y-65440000D02*
X86190000Y-70759000D01*
X86230000Y-57268000D02*
X86230000Y-62560000D01*
X86230000Y-65440000D02*
X86230000Y-70732000D01*
X86270000Y-57294000D02*
X86270000Y-62560000D01*
X86270000Y-65440000D02*
X86270000Y-70706000D01*
X86310000Y-57321000D02*
X86310000Y-62560000D01*
X86310000Y-65440000D02*
X86310000Y-70679000D01*
X86350000Y-57349000D02*
X86350000Y-62560000D01*
X86350000Y-65440000D02*
X86350000Y-70651000D01*
X86390000Y-57376000D02*
X86390000Y-62560000D01*
X86390000Y-65440000D02*
X86390000Y-70624000D01*
X86430000Y-57404000D02*
X86430000Y-62560000D01*
X86430000Y-65440000D02*
X86430000Y-70596000D01*
X86470000Y-57433000D02*
X86470000Y-62560000D01*
X86470000Y-65440000D02*
X86470000Y-70567000D01*
X86510000Y-57461000D02*
X86510000Y-62560000D01*
X86510000Y-65440000D02*
X86510000Y-70539000D01*
X86550000Y-57491000D02*
X86550000Y-62560000D01*
X86550000Y-65440000D02*
X86550000Y-70509000D01*
X86590000Y-57520000D02*
X86590000Y-62560000D01*
X86590000Y-65440000D02*
X86590000Y-70480000D01*
X86630000Y-57550000D02*
X86630000Y-62560000D01*
X86630000Y-65440000D02*
X86630000Y-70450000D01*
X86670000Y-57580000D02*
X86670000Y-62560000D01*
X86670000Y-65440000D02*
X86670000Y-70420000D01*
X86710000Y-57611000D02*
X86710000Y-62560000D01*
X86710000Y-65440000D02*
X86710000Y-70389000D01*
X86750000Y-57642000D02*
X86750000Y-62560000D01*
X86750000Y-65440000D02*
X86750000Y-70358000D01*
X86790000Y-57673000D02*
X86790000Y-62560000D01*
X86790000Y-65440000D02*
X86790000Y-70327000D01*
X86830000Y-57705000D02*
X86830000Y-62560000D01*
X86830000Y-65440000D02*
X86830000Y-70295000D01*
X86870000Y-57738000D02*
X86870000Y-62560000D01*
X86870000Y-65440000D02*
X86870000Y-70262000D01*
X86910000Y-57770000D02*
X86910000Y-62560000D01*
X86910000Y-65440000D02*
X86910000Y-70230000D01*
X86950000Y-57803000D02*
X86950000Y-70197000D01*
X86990000Y-57837000D02*
X86990000Y-70163000D01*
X87030000Y-57871000D02*
X87030000Y-70129000D01*
X87070000Y-57906000D02*
X87070000Y-70094000D01*
X87110000Y-57940000D02*
X87110000Y-70060000D01*
X87150000Y-57976000D02*
X87150000Y-70024000D01*
X87190000Y-58012000D02*
X87190000Y-69988000D01*
X87230000Y-58048000D02*
X87230000Y-69952000D01*
X87270000Y-58085000D02*
X87270000Y-69915000D01*
X87310000Y-58122000D02*
X87310000Y-69878000D01*
X87350000Y-58160000D02*
X87350000Y-69840000D01*
X87390000Y-58198000D02*
X87390000Y-69802000D01*
X87430000Y-58237000D02*
X87430000Y-69763000D01*
X87470000Y-58277000D02*
X87470000Y-69723000D01*
X87510000Y-58317000D02*
X87510000Y-69683000D01*
X87550000Y-58357000D02*
X87550000Y-69643000D01*
X87590000Y-58398000D02*
X87590000Y-69602000D01*
X87630000Y-58440000D02*
X87630000Y-69560000D01*
X87670000Y-58482000D02*
X87670000Y-69518000D01*
X87710000Y-58525000D02*
X87710000Y-69475000D01*
X87750000Y-58569000D02*
X87750000Y-69431000D01*
X87790000Y-58613000D02*
X87790000Y-69387000D01*
X87830000Y-58658000D02*
X87830000Y-69342000D01*
X87870000Y-58703000D02*
X87870000Y-69297000D01*
X87910000Y-58750000D02*
X87910000Y-69250000D01*
X87950000Y-58796000D02*
X87950000Y-69204000D01*
X87990000Y-58844000D02*
X87990000Y-69156000D01*
X88030000Y-58893000D02*
X88030000Y-69107000D01*
X88070000Y-58942000D02*
X88070000Y-69058000D01*
X88110000Y-58992000D02*
X88110000Y-69008000D01*
X88150000Y-59043000D02*
X88150000Y-68957000D01*
X88190000Y-59094000D02*
X88190000Y-68906000D01*
X88230000Y-59147000D02*
X88230000Y-68853000D01*
X88270000Y-59200000D02*
X88270000Y-68800000D01*
X88310000Y-59255000D02*
X88310000Y-68745000D01*
X88350000Y-59310000D02*
X88350000Y-68690000D01*
X88390000Y-59366000D02*
X88390000Y-68634000D01*
X88430000Y-59424000D02*
X88430000Y-68576000D01*
X88470000Y-59482000D02*
X88470000Y-68518000D01*
X88510000Y-59541000D02*
X88510000Y-68459000D01*
X88550000Y-59602000D02*
X88550000Y-68398000D01*
X88590000Y-59664000D02*
X88590000Y-68336000D01*
X88630000Y-59727000D02*
X88630000Y-68273000D01*
X88670000Y-59792000D02*
X88670000Y-68208000D01*
X88710000Y-59858000D02*
X88710000Y-68142000D01*
X88750000Y-59925000D02*
X88750000Y-68075000D01*
X88790000Y-59994000D02*
X88790000Y-68006000D01*
X88830000Y-60064000D02*
X88830000Y-67936000D01*
X88870000Y-60136000D02*
X88870000Y-67864000D01*
X88910000Y-60210000D02*
X88910000Y-67790000D01*
X88950000Y-60286000D02*
X88950000Y-67714000D01*
X88990000Y-60363000D02*
X88990000Y-67637000D01*
X89030000Y-60443000D02*
X89030000Y-67557000D01*
X89070000Y-60525000D02*
X89070000Y-67475000D01*
X89110000Y-60610000D02*
X89110000Y-67390000D01*
X89150000Y-60697000D02*
X89150000Y-67303000D01*
X89190000Y-60787000D02*
X89190000Y-67213000D01*
X89230000Y-60880000D02*
X89230000Y-67120000D01*
X89270000Y-60977000D02*
X89270000Y-67023000D01*
X89310000Y-61077000D02*
X89310000Y-66923000D01*
X89350000Y-61181000D02*
X89350000Y-66819000D01*
X89390000Y-61290000D02*
X89390000Y-66710000D01*
X89430000Y-61403000D02*
X89430000Y-66597000D01*
X89470000Y-61523000D02*
X89470000Y-66477000D01*
X89510000Y-61649000D02*
X89510000Y-66351000D01*
X89550000Y-61783000D02*
X89550000Y-66217000D01*
X89590000Y-61926000D02*
X89590000Y-66074000D01*
X89630000Y-62080000D02*
X89630000Y-65920000D01*
X89670000Y-62249000D02*
X89670000Y-65751000D01*
X89710000Y-62436000D02*
X89710000Y-65564000D01*
X89750000Y-62649000D02*
X89750000Y-65351000D01*
X89790000Y-62903000D02*
X89790000Y-65097000D01*
X89830000Y-63235000D02*
X89830000Y-64765000D01*
X89870000Y-64000000D02*
G75*
G02*
X73630000Y-64000000I-8120000J0D01*
G01*
X73630000Y-64000000D02*
G75*
G02*
X89870000Y-64000000I8120000J0D01*
G01*
%TO.C,R2*%
X14540000Y-29630000D02*
X21080000Y-29630000D01*
X14540000Y-29960000D02*
X14540000Y-29630000D01*
X14540000Y-32040000D02*
X14540000Y-32370000D01*
X14540000Y-32370000D02*
X21080000Y-32370000D01*
X21080000Y-29630000D02*
X21080000Y-29960000D01*
X21080000Y-32370000D02*
X21080000Y-32040000D01*
%TO.C,R5*%
X46040000Y-68130000D02*
X52580000Y-68130000D01*
X46040000Y-68460000D02*
X46040000Y-68130000D01*
X46040000Y-70540000D02*
X46040000Y-70870000D01*
X46040000Y-70870000D02*
X52580000Y-70870000D01*
X52580000Y-68130000D02*
X52580000Y-68460000D01*
X52580000Y-70870000D02*
X52580000Y-70540000D01*
%TO.C,R3*%
X51440000Y-84000000D02*
X51540000Y-84000000D01*
X68880000Y-84000000D02*
X68780000Y-84000000D01*
X51540000Y-80880000D02*
X68780000Y-80880000D01*
X68780000Y-87120000D01*
X51540000Y-87120000D01*
X51540000Y-80880000D01*
%TO.C,U3*%
X67160000Y-4670000D02*
X67160000Y-9870000D01*
X67160000Y-9870000D02*
X72460000Y-9870000D01*
X68810000Y-4670000D02*
X67160000Y-4670000D01*
X72460000Y-4670000D02*
X70810000Y-4670000D01*
X72460000Y-9870000D02*
X72460000Y-4670000D01*
X70810000Y-4670000D02*
G75*
G02*
X68810000Y-4670000I-1000000J0D01*
G01*
%TO.C,R7*%
X54540000Y-9630000D02*
X61080000Y-9630000D01*
X54540000Y-9960000D02*
X54540000Y-9630000D01*
X54540000Y-12040000D02*
X54540000Y-12370000D01*
X54540000Y-12370000D02*
X61080000Y-12370000D01*
X61080000Y-9630000D02*
X61080000Y-9960000D01*
X61080000Y-12370000D02*
X61080000Y-12040000D01*
%TO.C,R14*%
X52540000Y-72630000D02*
X59080000Y-72630000D01*
X52540000Y-72960000D02*
X52540000Y-72630000D01*
X52540000Y-75040000D02*
X52540000Y-75370000D01*
X52540000Y-75370000D02*
X59080000Y-75370000D01*
X59080000Y-72630000D02*
X59080000Y-72960000D01*
X59080000Y-75370000D02*
X59080000Y-75040000D01*
%TO.C,C6*%
X32880000Y-11130000D02*
X38120000Y-11130000D01*
X32880000Y-11467000D02*
X32880000Y-11130000D01*
X32880000Y-13870000D02*
X32880000Y-13533000D01*
X38120000Y-11130000D02*
X38120000Y-11467000D01*
X38120000Y-13533000D02*
X38120000Y-13870000D01*
X38120000Y-13870000D02*
X32880000Y-13870000D01*
%TO.C,C4*%
X45880000Y-18630000D02*
X51120000Y-18630000D01*
X45880000Y-18967000D02*
X45880000Y-18630000D01*
X45880000Y-21370000D02*
X45880000Y-21033000D01*
X51120000Y-18630000D02*
X51120000Y-18967000D01*
X51120000Y-21033000D02*
X51120000Y-21370000D01*
X51120000Y-21370000D02*
X45880000Y-21370000D01*
%TO.C,J1*%
X8340000Y-76680000D02*
X18740000Y-76680000D01*
X8340000Y-79700000D02*
X18740000Y-79700000D01*
X8340000Y-84600000D02*
X18740000Y-84600000D01*
X8340000Y-86100000D02*
X18740000Y-86100000D01*
X8340000Y-86720000D02*
X8340000Y-76680000D01*
X10700000Y-86720000D02*
X8340000Y-86720000D01*
X18740000Y-76680000D02*
X18740000Y-86720000D01*
X18740000Y-86720000D02*
X11300000Y-86720000D01*
X11000000Y-86720000D02*
X11440000Y-87330000D01*
X10560000Y-87330000D01*
X11000000Y-86720000D01*
G36*
X11440000Y-87330000D02*
G01*
X10560000Y-87330000D01*
X11000000Y-86720000D01*
X11440000Y-87330000D01*
G37*
%TO.C,R10*%
X36540000Y-49630000D02*
X43080000Y-49630000D01*
X36540000Y-49960000D02*
X36540000Y-49630000D01*
X36540000Y-52040000D02*
X36540000Y-52370000D01*
X36540000Y-52370000D02*
X43080000Y-52370000D01*
X43080000Y-49630000D02*
X43080000Y-49960000D01*
X43080000Y-52370000D02*
X43080000Y-52040000D01*
%TO.C,D1*%
X24000000Y-36180000D02*
X24000000Y-37200000D01*
X24000000Y-43660000D02*
X24000000Y-42640000D01*
X25470000Y-37980000D02*
X22530000Y-37980000D01*
X25470000Y-38100000D02*
X22530000Y-38100000D01*
X25470000Y-38220000D02*
X22530000Y-38220000D01*
X22530000Y-37200000D02*
X25470000Y-37200000D01*
X25470000Y-42640000D01*
X22530000Y-42640000D01*
X22530000Y-37200000D01*
%TO.C,C1*%
X11020354Y-52125000D02*
X12020354Y-52125000D01*
X11520354Y-51625000D02*
X11520354Y-52625000D01*
X16500000Y-49920000D02*
X16500000Y-60080000D01*
X16540000Y-49920000D02*
X16540000Y-60080000D01*
X16580000Y-49921000D02*
X16580000Y-60079000D01*
X16620000Y-49921000D02*
X16620000Y-60079000D01*
X16660000Y-49923000D02*
X16660000Y-60077000D01*
X16700000Y-49924000D02*
X16700000Y-60076000D01*
X16740000Y-49926000D02*
X16740000Y-60074000D01*
X16780000Y-49928000D02*
X16780000Y-60072000D01*
X16820000Y-49930000D02*
X16820000Y-60070000D01*
X16860000Y-49933000D02*
X16860000Y-60067000D01*
X16900000Y-49936000D02*
X16900000Y-60064000D01*
X16940000Y-49939000D02*
X16940000Y-60061000D01*
X16980000Y-49943000D02*
X16980000Y-60057000D01*
X17020000Y-49946000D02*
X17020000Y-60054000D01*
X17060000Y-49951000D02*
X17060000Y-60049000D01*
X17100000Y-49955000D02*
X17100000Y-60045000D01*
X17140000Y-49960000D02*
X17140000Y-60040000D01*
X17180000Y-49965000D02*
X17180000Y-60035000D01*
X17220000Y-49971000D02*
X17220000Y-60029000D01*
X17260000Y-49977000D02*
X17260000Y-60023000D01*
X17300000Y-49983000D02*
X17300000Y-60017000D01*
X17340000Y-49989000D02*
X17340000Y-60011000D01*
X17380000Y-49996000D02*
X17380000Y-60004000D01*
X17420000Y-50003000D02*
X17420000Y-59997000D01*
X17460000Y-50011000D02*
X17460000Y-59989000D01*
X17500000Y-50019000D02*
X17500000Y-59981000D01*
X17540000Y-50027000D02*
X17540000Y-59973000D01*
X17580000Y-50035000D02*
X17580000Y-59965000D01*
X17620000Y-50044000D02*
X17620000Y-59956000D01*
X17660000Y-50053000D02*
X17660000Y-59947000D01*
X17700000Y-50063000D02*
X17700000Y-59937000D01*
X17740000Y-50072000D02*
X17740000Y-59928000D01*
X17780000Y-50083000D02*
X17780000Y-53760000D01*
X17780000Y-56240000D02*
X17780000Y-59917000D01*
X17820000Y-50093000D02*
X17820000Y-53760000D01*
X17820000Y-56240000D02*
X17820000Y-59907000D01*
X17860000Y-50104000D02*
X17860000Y-53760000D01*
X17860000Y-56240000D02*
X17860000Y-59896000D01*
X17900000Y-50115000D02*
X17900000Y-53760000D01*
X17900000Y-56240000D02*
X17900000Y-59885000D01*
X17940000Y-50127000D02*
X17940000Y-53760000D01*
X17940000Y-56240000D02*
X17940000Y-59873000D01*
X17980000Y-50139000D02*
X17980000Y-53760000D01*
X17980000Y-56240000D02*
X17980000Y-59861000D01*
X18020000Y-50151000D02*
X18020000Y-53760000D01*
X18020000Y-56240000D02*
X18020000Y-59849000D01*
X18060000Y-50163000D02*
X18060000Y-53760000D01*
X18060000Y-56240000D02*
X18060000Y-59837000D01*
X18100000Y-50176000D02*
X18100000Y-53760000D01*
X18100000Y-56240000D02*
X18100000Y-59824000D01*
X18140000Y-50190000D02*
X18140000Y-53760000D01*
X18140000Y-56240000D02*
X18140000Y-59810000D01*
X18180000Y-50203000D02*
X18180000Y-53760000D01*
X18180000Y-56240000D02*
X18180000Y-59797000D01*
X18220000Y-50218000D02*
X18220000Y-53760000D01*
X18220000Y-56240000D02*
X18220000Y-59782000D01*
X18260000Y-50232000D02*
X18260000Y-53760000D01*
X18260000Y-56240000D02*
X18260000Y-59768000D01*
X18300000Y-50247000D02*
X18300000Y-53760000D01*
X18300000Y-56240000D02*
X18300000Y-59753000D01*
X18340000Y-50262000D02*
X18340000Y-53760000D01*
X18340000Y-56240000D02*
X18340000Y-59738000D01*
X18380000Y-50278000D02*
X18380000Y-53760000D01*
X18380000Y-56240000D02*
X18380000Y-59722000D01*
X18420000Y-50294000D02*
X18420000Y-53760000D01*
X18420000Y-56240000D02*
X18420000Y-59706000D01*
X18460000Y-50310000D02*
X18460000Y-53760000D01*
X18460000Y-56240000D02*
X18460000Y-59690000D01*
X18500000Y-50327000D02*
X18500000Y-53760000D01*
X18500000Y-56240000D02*
X18500000Y-59673000D01*
X18540000Y-50344000D02*
X18540000Y-53760000D01*
X18540000Y-56240000D02*
X18540000Y-59656000D01*
X18580000Y-50362000D02*
X18580000Y-53760000D01*
X18580000Y-56240000D02*
X18580000Y-59638000D01*
X18620000Y-50380000D02*
X18620000Y-53760000D01*
X18620000Y-56240000D02*
X18620000Y-59620000D01*
X18660000Y-50398000D02*
X18660000Y-53760000D01*
X18660000Y-56240000D02*
X18660000Y-59602000D01*
X18700000Y-50417000D02*
X18700000Y-53760000D01*
X18700000Y-56240000D02*
X18700000Y-59583000D01*
X18740000Y-50436000D02*
X18740000Y-53760000D01*
X18740000Y-56240000D02*
X18740000Y-59564000D01*
X18780000Y-50456000D02*
X18780000Y-53760000D01*
X18780000Y-56240000D02*
X18780000Y-59544000D01*
X18820000Y-50476000D02*
X18820000Y-53760000D01*
X18820000Y-56240000D02*
X18820000Y-59524000D01*
X18860000Y-50496000D02*
X18860000Y-53760000D01*
X18860000Y-56240000D02*
X18860000Y-59504000D01*
X18900000Y-50517000D02*
X18900000Y-53760000D01*
X18900000Y-56240000D02*
X18900000Y-59483000D01*
X18940000Y-50539000D02*
X18940000Y-53760000D01*
X18940000Y-56240000D02*
X18940000Y-59461000D01*
X18980000Y-50561000D02*
X18980000Y-53760000D01*
X18980000Y-56240000D02*
X18980000Y-59439000D01*
X19020000Y-50583000D02*
X19020000Y-53760000D01*
X19020000Y-56240000D02*
X19020000Y-59417000D01*
X19060000Y-50606000D02*
X19060000Y-53760000D01*
X19060000Y-56240000D02*
X19060000Y-59394000D01*
X19100000Y-50629000D02*
X19100000Y-53760000D01*
X19100000Y-56240000D02*
X19100000Y-59371000D01*
X19140000Y-50653000D02*
X19140000Y-53760000D01*
X19140000Y-56240000D02*
X19140000Y-59347000D01*
X19180000Y-50677000D02*
X19180000Y-53760000D01*
X19180000Y-56240000D02*
X19180000Y-59323000D01*
X19220000Y-50702000D02*
X19220000Y-53760000D01*
X19220000Y-56240000D02*
X19220000Y-59298000D01*
X19260000Y-50728000D02*
X19260000Y-53760000D01*
X19260000Y-56240000D02*
X19260000Y-59272000D01*
X19300000Y-50753000D02*
X19300000Y-53760000D01*
X19300000Y-56240000D02*
X19300000Y-59247000D01*
X19340000Y-50780000D02*
X19340000Y-53760000D01*
X19340000Y-56240000D02*
X19340000Y-59220000D01*
X19380000Y-50807000D02*
X19380000Y-53760000D01*
X19380000Y-56240000D02*
X19380000Y-59193000D01*
X19420000Y-50834000D02*
X19420000Y-53760000D01*
X19420000Y-56240000D02*
X19420000Y-59166000D01*
X19460000Y-50862000D02*
X19460000Y-53760000D01*
X19460000Y-56240000D02*
X19460000Y-59138000D01*
X19500000Y-50891000D02*
X19500000Y-53760000D01*
X19500000Y-56240000D02*
X19500000Y-59109000D01*
X19540000Y-50920000D02*
X19540000Y-53760000D01*
X19540000Y-56240000D02*
X19540000Y-59080000D01*
X19580000Y-50950000D02*
X19580000Y-53760000D01*
X19580000Y-56240000D02*
X19580000Y-59050000D01*
X19620000Y-50980000D02*
X19620000Y-53760000D01*
X19620000Y-56240000D02*
X19620000Y-59020000D01*
X19660000Y-51012000D02*
X19660000Y-53760000D01*
X19660000Y-56240000D02*
X19660000Y-58988000D01*
X19700000Y-51043000D02*
X19700000Y-53760000D01*
X19700000Y-56240000D02*
X19700000Y-58957000D01*
X19740000Y-51076000D02*
X19740000Y-53760000D01*
X19740000Y-56240000D02*
X19740000Y-58924000D01*
X19780000Y-51109000D02*
X19780000Y-53760000D01*
X19780000Y-56240000D02*
X19780000Y-58891000D01*
X19820000Y-51142000D02*
X19820000Y-53760000D01*
X19820000Y-56240000D02*
X19820000Y-58858000D01*
X19860000Y-51177000D02*
X19860000Y-53760000D01*
X19860000Y-56240000D02*
X19860000Y-58823000D01*
X19900000Y-51212000D02*
X19900000Y-53760000D01*
X19900000Y-56240000D02*
X19900000Y-58788000D01*
X19940000Y-51248000D02*
X19940000Y-53760000D01*
X19940000Y-56240000D02*
X19940000Y-58752000D01*
X19980000Y-51284000D02*
X19980000Y-53760000D01*
X19980000Y-56240000D02*
X19980000Y-58716000D01*
X20020000Y-51322000D02*
X20020000Y-53760000D01*
X20020000Y-56240000D02*
X20020000Y-58678000D01*
X20060000Y-51360000D02*
X20060000Y-53760000D01*
X20060000Y-56240000D02*
X20060000Y-58640000D01*
X20100000Y-51399000D02*
X20100000Y-53760000D01*
X20100000Y-56240000D02*
X20100000Y-58601000D01*
X20140000Y-51439000D02*
X20140000Y-53760000D01*
X20140000Y-56240000D02*
X20140000Y-58561000D01*
X20180000Y-51480000D02*
X20180000Y-53760000D01*
X20180000Y-56240000D02*
X20180000Y-58520000D01*
X20220000Y-51522000D02*
X20220000Y-53760000D01*
X20220000Y-56240000D02*
X20220000Y-58478000D01*
X20260000Y-51565000D02*
X20260000Y-58435000D01*
X20300000Y-51609000D02*
X20300000Y-58391000D01*
X20340000Y-51653000D02*
X20340000Y-58347000D01*
X20380000Y-51699000D02*
X20380000Y-58301000D01*
X20420000Y-51746000D02*
X20420000Y-58254000D01*
X20460000Y-51795000D02*
X20460000Y-58205000D01*
X20500000Y-51844000D02*
X20500000Y-58156000D01*
X20540000Y-51895000D02*
X20540000Y-58105000D01*
X20580000Y-51947000D02*
X20580000Y-58053000D01*
X20620000Y-52000000D02*
X20620000Y-58000000D01*
X20660000Y-52055000D02*
X20660000Y-57945000D01*
X20700000Y-52112000D02*
X20700000Y-57888000D01*
X20740000Y-52170000D02*
X20740000Y-57830000D01*
X20780000Y-52230000D02*
X20780000Y-57770000D01*
X20820000Y-52292000D02*
X20820000Y-57708000D01*
X20860000Y-52356000D02*
X20860000Y-57644000D01*
X20900000Y-52422000D02*
X20900000Y-57578000D01*
X20940000Y-52490000D02*
X20940000Y-57510000D01*
X20980000Y-52561000D02*
X20980000Y-57439000D01*
X21020000Y-52635000D02*
X21020000Y-57365000D01*
X21060000Y-52712000D02*
X21060000Y-57288000D01*
X21100000Y-52792000D02*
X21100000Y-57208000D01*
X21140000Y-52876000D02*
X21140000Y-57124000D01*
X21180000Y-52963000D02*
X21180000Y-57037000D01*
X21220000Y-53056000D02*
X21220000Y-56944000D01*
X21260000Y-53154000D02*
X21260000Y-56846000D01*
X21300000Y-53258000D02*
X21300000Y-56742000D01*
X21340000Y-53370000D02*
X21340000Y-56630000D01*
X21380000Y-53491000D02*
X21380000Y-56509000D01*
X21420000Y-53623000D02*
X21420000Y-56377000D01*
X21460000Y-53770000D02*
X21460000Y-56230000D01*
X21500000Y-53938000D02*
X21500000Y-56062000D01*
X21540000Y-54138000D02*
X21540000Y-55862000D01*
X21580000Y-54401000D02*
X21580000Y-55599000D01*
X21620000Y-55000000D02*
G75*
G02*
X11380000Y-55000000I-5120000J0D01*
G01*
X11380000Y-55000000D02*
G75*
G02*
X21620000Y-55000000I5120000J0D01*
G01*
%TO.C,D6*%
X63040000Y-74000000D02*
X63690000Y-74000000D01*
X64290000Y-72880000D02*
X64290000Y-75120000D01*
X64410000Y-72880000D02*
X64410000Y-75120000D01*
X64530000Y-72880000D02*
X64530000Y-75120000D01*
X68580000Y-74000000D02*
X67930000Y-74000000D01*
X63690000Y-72880000D02*
X67930000Y-72880000D01*
X67930000Y-75120000D01*
X63690000Y-75120000D01*
X63690000Y-72880000D01*
%TO.C,J3*%
D13*
X86500000Y-11000000D02*
X98000000Y-11000000D01*
X86500000Y-17000000D02*
X86500000Y-11000000D01*
X98000000Y-11000000D02*
X98000000Y-17000000D01*
X98000000Y-17000000D02*
X86500000Y-17000000D01*
%TO.C,R13*%
D10*
X32540000Y-60630000D02*
X39080000Y-60630000D01*
X32540000Y-60960000D02*
X32540000Y-60630000D01*
X32540000Y-63040000D02*
X32540000Y-63370000D01*
X32540000Y-63370000D02*
X39080000Y-63370000D01*
X39080000Y-60630000D02*
X39080000Y-60960000D01*
X39080000Y-63370000D02*
X39080000Y-63040000D01*
%TO.C,R17*%
X74630000Y-72920000D02*
X74960000Y-72920000D01*
X74630000Y-79460000D02*
X74630000Y-72920000D01*
X74960000Y-79460000D02*
X74630000Y-79460000D01*
X77040000Y-79460000D02*
X77370000Y-79460000D01*
X77370000Y-72920000D02*
X77040000Y-72920000D01*
X77370000Y-79460000D02*
X77370000Y-72920000D01*
%TO.C,R6*%
X54540000Y-5630000D02*
X61080000Y-5630000D01*
X54540000Y-5960000D02*
X54540000Y-5630000D01*
X54540000Y-8040000D02*
X54540000Y-8370000D01*
X54540000Y-8370000D02*
X61080000Y-8370000D01*
X61080000Y-5630000D02*
X61080000Y-5960000D01*
X61080000Y-8370000D02*
X61080000Y-8040000D01*
%TO.C,R18*%
X32540000Y-64630000D02*
X39080000Y-64630000D01*
X32540000Y-64960000D02*
X32540000Y-64630000D01*
X32540000Y-67040000D02*
X32540000Y-67370000D01*
X32540000Y-67370000D02*
X39080000Y-67370000D01*
X39080000Y-64630000D02*
X39080000Y-64960000D01*
X39080000Y-67370000D02*
X39080000Y-67040000D01*
%TO.C,Q5*%
X33430000Y-54740000D02*
X43650000Y-54740000D01*
X33430000Y-56120000D02*
X43650000Y-56120000D01*
X33430000Y-59360000D02*
X33430000Y-54740000D01*
X36690000Y-54740000D02*
X36690000Y-56120000D01*
X40390000Y-54740000D02*
X40390000Y-56120000D01*
X43650000Y-54740000D02*
X43650000Y-59360000D01*
X43650000Y-59360000D02*
X33430000Y-59360000D01*
%TO.C,A1*%
D18*
X11110000Y-22509000D02*
X11110000Y-5364000D01*
X13015000Y-24414000D02*
X26985000Y-24414000D01*
X15505000Y-3459000D02*
X15508728Y-2448728D01*
X16008728Y-1949000D02*
X24004000Y-1949000D01*
X24504000Y-2449000D02*
X24504000Y-3459000D01*
D19*
X26985000Y-3459000D02*
X13015000Y-3459000D01*
D18*
X26985000Y-3459000D02*
X13015000Y-3459000D01*
X28890000Y-22509000D02*
X28890000Y-5364000D01*
X11110000Y-5364000D02*
G75*
G02*
X13015000Y-3459000I1905000J0D01*
G01*
X13015000Y-24414000D02*
G75*
G02*
X11110000Y-22509000I1J1905001D01*
G01*
X15508728Y-2448728D02*
G75*
G02*
X16008728Y-1949028I499972J-272D01*
G01*
X24004000Y-1949000D02*
G75*
G02*
X24504000Y-2449000I-100J-500100D01*
G01*
X26985000Y-3459000D02*
G75*
G02*
X28890000Y-5364000I0J-1905000D01*
G01*
X28890000Y-22509000D02*
G75*
G02*
X26985000Y-24414000I-1905001J1D01*
G01*
D20*
X11402000Y-3600000D02*
G75*
G02*
X10898000Y-3600000I-252000J0D01*
G01*
X10898000Y-3600000D02*
G75*
G02*
X11402000Y-3600000I252000J0D01*
G01*
X12545000Y-4480000D02*
G75*
G02*
X12041000Y-4480000I-252000J0D01*
G01*
X12041000Y-4480000D02*
G75*
G02*
X12545000Y-4480000I252000J0D01*
G01*
%TO.C,Q2*%
D10*
X33430000Y-30740000D02*
X43650000Y-30740000D01*
X33430000Y-32120000D02*
X43650000Y-32120000D01*
X33430000Y-35360000D02*
X33430000Y-30740000D01*
X36690000Y-30740000D02*
X36690000Y-32120000D01*
X40390000Y-30740000D02*
X40390000Y-32120000D01*
X43650000Y-30740000D02*
X43650000Y-35360000D01*
X43650000Y-35360000D02*
X33430000Y-35360000D01*
%TO.C,Q1*%
X11430000Y-36740000D02*
X21650000Y-36740000D01*
X11430000Y-38120000D02*
X21650000Y-38120000D01*
X11430000Y-41360000D02*
X11430000Y-36740000D01*
X14690000Y-36740000D02*
X14690000Y-38120000D01*
X18390000Y-36740000D02*
X18390000Y-38120000D01*
X21650000Y-36740000D02*
X21650000Y-41360000D01*
X21650000Y-41360000D02*
X11430000Y-41360000D01*
%TO.C,R20*%
X76540000Y-6630000D02*
X83080000Y-6630000D01*
X76540000Y-6960000D02*
X76540000Y-6630000D01*
X76540000Y-9040000D02*
X76540000Y-9370000D01*
X76540000Y-9370000D02*
X83080000Y-9370000D01*
X83080000Y-6630000D02*
X83080000Y-6960000D01*
X83080000Y-9370000D02*
X83080000Y-9040000D01*
%TO.C,U4*%
X67160000Y-12670000D02*
X67160000Y-17870000D01*
X67160000Y-17870000D02*
X72460000Y-17870000D01*
X68810000Y-12670000D02*
X67160000Y-12670000D01*
X72460000Y-12670000D02*
X70810000Y-12670000D01*
X72460000Y-17870000D02*
X72460000Y-12670000D01*
X70810000Y-12670000D02*
G75*
G02*
X68810000Y-12670000I-1000000J0D01*
G01*
%TO.C,U1*%
X42780000Y-13640000D02*
X45360000Y-13640000D01*
X45360000Y-14620000D02*
X45360000Y-13640000D01*
X45360000Y-17380000D02*
X45360000Y-18360000D01*
X45360000Y-18360000D02*
X42640000Y-18360000D01*
X42230000Y-13790000D02*
X41990000Y-13460000D01*
X42470000Y-13460000D01*
X42230000Y-13790000D01*
G36*
X42230000Y-13790000D02*
G01*
X41990000Y-13460000D01*
X42470000Y-13460000D01*
X42230000Y-13790000D01*
G37*
%TO.C,J2*%
X79340000Y-76680000D02*
X89740000Y-76680000D01*
X79340000Y-79700000D02*
X89740000Y-79700000D01*
X79340000Y-84600000D02*
X89740000Y-84600000D01*
X79340000Y-86100000D02*
X89740000Y-86100000D01*
X79340000Y-86720000D02*
X79340000Y-76680000D01*
X81700000Y-86720000D02*
X79340000Y-86720000D01*
X89740000Y-76680000D02*
X89740000Y-86720000D01*
X89740000Y-86720000D02*
X82300000Y-86720000D01*
X82000000Y-86720000D02*
X82440000Y-87330000D01*
X81560000Y-87330000D01*
X82000000Y-86720000D01*
G36*
X82440000Y-87330000D02*
G01*
X81560000Y-87330000D01*
X82000000Y-86720000D01*
X82440000Y-87330000D01*
G37*
%TO.C,C2*%
X53880000Y-16630000D02*
X59120000Y-16630000D01*
X53880000Y-16967000D02*
X53880000Y-16630000D01*
X53880000Y-19370000D02*
X53880000Y-19033000D01*
X59120000Y-16630000D02*
X59120000Y-16967000D01*
X59120000Y-19033000D02*
X59120000Y-19370000D01*
X59120000Y-19370000D02*
X53880000Y-19370000D01*
%TO.C,R15*%
X13540000Y-46630000D02*
X20080000Y-46630000D01*
X13540000Y-46960000D02*
X13540000Y-46630000D01*
X13540000Y-49040000D02*
X13540000Y-49370000D01*
X13540000Y-49370000D02*
X20080000Y-49370000D01*
X20080000Y-46630000D02*
X20080000Y-46960000D01*
X20080000Y-49370000D02*
X20080000Y-49040000D01*
%TO.C,R21*%
X76540000Y-10630000D02*
X83080000Y-10630000D01*
X76540000Y-10960000D02*
X76540000Y-10630000D01*
X76540000Y-13040000D02*
X76540000Y-13370000D01*
X76540000Y-13370000D02*
X83080000Y-13370000D01*
X83080000Y-10630000D02*
X83080000Y-10960000D01*
X83080000Y-13370000D02*
X83080000Y-13040000D01*
%TO.C,ZD1*%
X4040000Y-66000000D02*
X4690000Y-66000000D01*
X5290000Y-64880000D02*
X5290000Y-67120000D01*
X5410000Y-64880000D02*
X5410000Y-67120000D01*
X5530000Y-64880000D02*
X5530000Y-67120000D01*
X9580000Y-66000000D02*
X8930000Y-66000000D01*
X4690000Y-64880000D02*
X8930000Y-64880000D01*
X8930000Y-67120000D01*
X4690000Y-67120000D01*
X4690000Y-64880000D01*
%TO.C,R4*%
X52540000Y-22630000D02*
X59080000Y-22630000D01*
X52540000Y-22960000D02*
X52540000Y-22630000D01*
X52540000Y-25040000D02*
X52540000Y-25370000D01*
X52540000Y-25370000D02*
X59080000Y-25370000D01*
X59080000Y-22630000D02*
X59080000Y-22960000D01*
X59080000Y-25370000D02*
X59080000Y-25040000D01*
%TO.C,ZD4*%
X63040000Y-70000000D02*
X63690000Y-70000000D01*
X64290000Y-68880000D02*
X64290000Y-71120000D01*
X64410000Y-68880000D02*
X64410000Y-71120000D01*
X64530000Y-68880000D02*
X64530000Y-71120000D01*
X68580000Y-70000000D02*
X67930000Y-70000000D01*
X63690000Y-68880000D02*
X67930000Y-68880000D01*
X67930000Y-71120000D01*
X63690000Y-71120000D01*
X63690000Y-68880000D01*
%TO.C,R16*%
X36540000Y-40630000D02*
X43080000Y-40630000D01*
X36540000Y-40960000D02*
X36540000Y-40630000D01*
X36540000Y-43040000D02*
X36540000Y-43370000D01*
X36540000Y-43370000D02*
X43080000Y-43370000D01*
X43080000Y-40630000D02*
X43080000Y-40960000D01*
X43080000Y-43370000D02*
X43080000Y-43040000D01*
%TO.C,C7*%
X3880000Y-34630000D02*
X9120000Y-34630000D01*
X3880000Y-34967000D02*
X3880000Y-34630000D01*
X3880000Y-37370000D02*
X3880000Y-37033000D01*
X9120000Y-34630000D02*
X9120000Y-34967000D01*
X9120000Y-37033000D02*
X9120000Y-37370000D01*
X9120000Y-37370000D02*
X3880000Y-37370000D01*
%TO.C,JP2*%
X44620000Y-53620000D02*
X46000000Y-53620000D01*
X44620000Y-55000000D02*
X44620000Y-53620000D01*
X44620000Y-56270000D02*
X44620000Y-58920000D01*
X44620000Y-56270000D02*
X47380000Y-56270000D01*
X44620000Y-58920000D02*
X47380000Y-58920000D01*
X47380000Y-56270000D02*
X47380000Y-58920000D01*
%TO.C,R8*%
X36540000Y-46130000D02*
X43080000Y-46130000D01*
X36540000Y-46460000D02*
X36540000Y-46130000D01*
X36540000Y-48540000D02*
X36540000Y-48870000D01*
X36540000Y-48870000D02*
X43080000Y-48870000D01*
X43080000Y-46130000D02*
X43080000Y-46460000D01*
X43080000Y-48870000D02*
X43080000Y-48540000D01*
%TO.C,ZD3*%
X43040000Y-62000000D02*
X43690000Y-62000000D01*
X44290000Y-60880000D02*
X44290000Y-63120000D01*
X44410000Y-60880000D02*
X44410000Y-63120000D01*
X44530000Y-60880000D02*
X44530000Y-63120000D01*
X48580000Y-62000000D02*
X47930000Y-62000000D01*
X43690000Y-60880000D02*
X47930000Y-60880000D01*
X47930000Y-63120000D01*
X43690000Y-63120000D01*
X43690000Y-60880000D01*
%TO.C,R19*%
X55280000Y-58080000D02*
X65420000Y-58080000D01*
X55280000Y-58560000D02*
X55280000Y-58080000D01*
X55280000Y-61440000D02*
X55280000Y-61920000D01*
X55280000Y-61920000D02*
X65420000Y-61920000D01*
X65420000Y-58080000D02*
X65420000Y-58560000D01*
X65420000Y-61920000D02*
X65420000Y-61440000D01*
%TO.C,Q3*%
X44890000Y-42620000D02*
X51690000Y-42620000D01*
X44890000Y-42840000D02*
X44890000Y-42620000D01*
X47171000Y-45140000D02*
X47119000Y-45140000D01*
X49409000Y-43230000D02*
X49461000Y-43230000D01*
X51690000Y-42620000D02*
X51690000Y-42840000D01*
%TO.C,D4*%
X57840000Y-54000000D02*
X58750000Y-54000000D01*
X60175000Y-51280000D02*
X60175000Y-56720000D01*
X60295000Y-51280000D02*
X60295000Y-56720000D01*
X60415000Y-51280000D02*
X60415000Y-56720000D01*
X69400000Y-54000000D02*
X68490000Y-54000000D01*
X58750000Y-51280000D02*
X68490000Y-51280000D01*
X68490000Y-56720000D01*
X58750000Y-56720000D01*
X58750000Y-51280000D01*
%TO.C,SW1*%
X1750000Y-29500000D02*
X1750000Y-31000000D01*
X3000000Y-33500000D02*
X7500000Y-33500000D01*
X7500000Y-27000000D02*
X3000000Y-27000000D01*
X8750000Y-31000000D02*
X8750000Y-29500000D01*
%TO.C,JP1*%
X36620000Y-4620000D02*
X38000000Y-4620000D01*
X36620000Y-6000000D02*
X36620000Y-4620000D01*
X36620000Y-7270000D02*
X36620000Y-9920000D01*
X36620000Y-7270000D02*
X39380000Y-7270000D01*
X36620000Y-9920000D02*
X39380000Y-9920000D01*
X39380000Y-7270000D02*
X39380000Y-9920000D01*
%TO.C,R1*%
X14540000Y-25630000D02*
X21080000Y-25630000D01*
X14540000Y-25960000D02*
X14540000Y-25630000D01*
X14540000Y-28040000D02*
X14540000Y-28370000D01*
X14540000Y-28370000D02*
X21080000Y-28370000D01*
X21080000Y-25630000D02*
X21080000Y-25960000D01*
X21080000Y-28370000D02*
X21080000Y-28040000D01*
%TO.C,R9*%
X32540000Y-72630000D02*
X39080000Y-72630000D01*
X32540000Y-72960000D02*
X32540000Y-72630000D01*
X32540000Y-75040000D02*
X32540000Y-75370000D01*
X32540000Y-75370000D02*
X39080000Y-75370000D01*
X39080000Y-72630000D02*
X39080000Y-72960000D01*
X39080000Y-75370000D02*
X39080000Y-75040000D01*
%TO.C,U2*%
D13*
X52500000Y-27500000D02*
X95500000Y-27500000D01*
X52500000Y-48500000D02*
X52500000Y-27500000D01*
X95500000Y-27500000D02*
X95500000Y-48500000D01*
X95500000Y-48500000D02*
X52500000Y-48500000D01*
%TO.C,F1*%
X2400000Y-40000000D02*
X9600000Y-40000000D01*
X2400000Y-64000000D02*
X2400000Y-40000000D01*
X9600000Y-40000000D02*
X9600000Y-64000000D01*
X9600000Y-64000000D02*
X2400000Y-64000000D01*
%TO.C,ZD2*%
D10*
X31880000Y-42470000D02*
X34120000Y-42470000D01*
X31880000Y-42590000D02*
X34120000Y-42590000D01*
X31880000Y-42710000D02*
X34120000Y-42710000D01*
X33000000Y-38420000D02*
X33000000Y-39070000D01*
X33000000Y-43960000D02*
X33000000Y-43310000D01*
X31880000Y-39070000D02*
X34120000Y-39070000D01*
X34120000Y-43310000D01*
X31880000Y-43310000D01*
X31880000Y-39070000D01*
%TO.C,C8*%
X51880000Y-76630000D02*
X57120000Y-76630000D01*
X51880000Y-76967000D02*
X51880000Y-76630000D01*
X51880000Y-79370000D02*
X51880000Y-79033000D01*
X57120000Y-76630000D02*
X57120000Y-76967000D01*
X57120000Y-79033000D02*
X57120000Y-79370000D01*
X57120000Y-79370000D02*
X51880000Y-79370000D01*
%TO.C,D2*%
X24000000Y-49180000D02*
X24000000Y-50200000D01*
X24000000Y-56660000D02*
X24000000Y-55640000D01*
X25470000Y-50980000D02*
X22530000Y-50980000D01*
X25470000Y-51100000D02*
X22530000Y-51100000D01*
X25470000Y-51220000D02*
X22530000Y-51220000D01*
X22530000Y-50200000D02*
X25470000Y-50200000D01*
X25470000Y-55640000D01*
X22530000Y-55640000D01*
X22530000Y-50200000D01*
%TO.C,R12*%
X36540000Y-36630000D02*
X43080000Y-36630000D01*
X36540000Y-36960000D02*
X36540000Y-36630000D01*
X36540000Y-39040000D02*
X36540000Y-39370000D01*
X36540000Y-39370000D02*
X43080000Y-39370000D01*
X43080000Y-36630000D02*
X43080000Y-36960000D01*
X43080000Y-39370000D02*
X43080000Y-39040000D01*
%TO.C,Q7*%
X52890000Y-64620000D02*
X59690000Y-64620000D01*
X52890000Y-64840000D02*
X52890000Y-64620000D01*
X55171000Y-67140000D02*
X55119000Y-67140000D01*
X57409000Y-65230000D02*
X57461000Y-65230000D01*
X59690000Y-64620000D02*
X59690000Y-64840000D01*
%TO.C,Q6*%
X35890000Y-68620000D02*
X42690000Y-68620000D01*
X35890000Y-68840000D02*
X35890000Y-68620000D01*
X38171000Y-71140000D02*
X38119000Y-71140000D01*
X40409000Y-69230000D02*
X40461000Y-69230000D01*
X42690000Y-68620000D02*
X42690000Y-68840000D01*
%TO.C,R11*%
X32540000Y-76630000D02*
X39080000Y-76630000D01*
X32540000Y-76960000D02*
X32540000Y-76630000D01*
X32540000Y-79040000D02*
X32540000Y-79370000D01*
X32540000Y-79370000D02*
X39080000Y-79370000D01*
X39080000Y-76630000D02*
X39080000Y-76960000D01*
X39080000Y-79370000D02*
X39080000Y-79040000D01*
%TD*%
%LPC*%
D21*
%TO.C,C3*%
X78000000Y-64000000D03*
D22*
X85500000Y-64000000D03*
%TD*%
D23*
%TO.C,R2*%
X14000000Y-31000000D03*
X21620000Y-31000000D03*
%TD*%
D24*
%TO.C,H2*%
X96500000Y-3500000D03*
%TD*%
D23*
%TO.C,R5*%
X45500000Y-69500000D03*
X53120000Y-69500000D03*
%TD*%
D22*
%TO.C,R3*%
X50000000Y-84000000D03*
X70320000Y-84000000D03*
%TD*%
D25*
%TO.C,U3*%
X66000000Y-6000000D03*
D23*
X66000000Y-8540000D03*
X73620000Y-8540000D03*
X73620000Y-6000000D03*
%TD*%
%TO.C,R7*%
X54000000Y-11000000D03*
X61620000Y-11000000D03*
%TD*%
%TO.C,R14*%
X52000000Y-74000000D03*
X59620000Y-74000000D03*
%TD*%
D24*
%TO.C,H3*%
X3500000Y-84500000D03*
%TD*%
D23*
%TO.C,C6*%
X33000000Y-12500000D03*
X38000000Y-12500000D03*
%TD*%
%TO.C,C4*%
X46000000Y-20000000D03*
X51000000Y-20000000D03*
%TD*%
D26*
%TO.C,J1*%
X11000000Y-82000000D03*
D27*
X16080000Y-82000000D03*
%TD*%
D23*
%TO.C,R10*%
X36000000Y-51000000D03*
X43620000Y-51000000D03*
%TD*%
D28*
%TO.C,D1*%
X24000000Y-34840000D03*
D29*
X24000000Y-45000000D03*
%TD*%
D30*
%TO.C,C1*%
X14000000Y-55000000D03*
D31*
X19000000Y-55000000D03*
%TD*%
D25*
%TO.C,D6*%
X62000000Y-74000000D03*
D23*
X69620000Y-74000000D03*
%TD*%
%TO.C,R13*%
X32000000Y-62000000D03*
X39620000Y-62000000D03*
%TD*%
%TO.C,R17*%
X76000000Y-80000000D03*
X76000000Y-72380000D03*
%TD*%
%TO.C,R6*%
X54000000Y-7000000D03*
X61620000Y-7000000D03*
%TD*%
%TO.C,R18*%
X32000000Y-66000000D03*
X39620000Y-66000000D03*
%TD*%
D32*
%TO.C,Q5*%
X36000000Y-58000000D03*
D33*
X38540000Y-58000000D03*
X41080000Y-58000000D03*
%TD*%
D34*
%TO.C,A1*%
X11545000Y-6380000D03*
D35*
X12380000Y-6380000D03*
D34*
X11545000Y-8920000D03*
D35*
X12380000Y-8920000D03*
D34*
X11545000Y-11460000D03*
D35*
X12380000Y-11460000D03*
D34*
X11545000Y-14000000D03*
D35*
X12380000Y-14000000D03*
D34*
X11545000Y-16540000D03*
D35*
X12380000Y-16540000D03*
D34*
X11545000Y-19080000D03*
D35*
X12380000Y-19080000D03*
D34*
X11545000Y-21620000D03*
D35*
X12380000Y-21620000D03*
X27620000Y-21620000D03*
D36*
X28455000Y-21620000D03*
D35*
X27620000Y-19080000D03*
D36*
X28455000Y-19080000D03*
D35*
X27620000Y-16540000D03*
D36*
X28455000Y-16540000D03*
D35*
X27620000Y-14000000D03*
D36*
X28455000Y-14000000D03*
D35*
X27620000Y-11460000D03*
D36*
X28455000Y-11460000D03*
D35*
X27620000Y-8920000D03*
D36*
X28455000Y-8920000D03*
D35*
X27620000Y-6380000D03*
D36*
X28455000Y-6380000D03*
%TD*%
D32*
%TO.C,Q2*%
X36000000Y-34000000D03*
D33*
X38540000Y-34000000D03*
X41080000Y-34000000D03*
%TD*%
D32*
%TO.C,Q1*%
X14000000Y-40000000D03*
D33*
X16540000Y-40000000D03*
X19080000Y-40000000D03*
%TD*%
D23*
%TO.C,R20*%
X76000000Y-8000000D03*
X83620000Y-8000000D03*
%TD*%
D25*
%TO.C,U4*%
X66000000Y-14000000D03*
D23*
X66000000Y-16540000D03*
X73620000Y-16540000D03*
X73620000Y-14000000D03*
%TD*%
D37*
%TO.C,U1*%
X42050000Y-14500000D03*
D38*
X42137500Y-16000000D03*
D37*
X42050000Y-17500000D03*
%TD*%
D26*
%TO.C,J2*%
X82000000Y-82000000D03*
D27*
X87080000Y-82000000D03*
%TD*%
D23*
%TO.C,C2*%
X54000000Y-18000000D03*
X59000000Y-18000000D03*
%TD*%
%TO.C,R15*%
X13000000Y-48000000D03*
X20620000Y-48000000D03*
%TD*%
%TO.C,R21*%
X76000000Y-12000000D03*
X83620000Y-12000000D03*
%TD*%
D25*
%TO.C,ZD1*%
X3000000Y-66000000D03*
D23*
X10620000Y-66000000D03*
%TD*%
%TO.C,R4*%
X52000000Y-24000000D03*
X59620000Y-24000000D03*
%TD*%
D25*
%TO.C,ZD4*%
X62000000Y-70000000D03*
D23*
X69620000Y-70000000D03*
%TD*%
%TO.C,R16*%
X36000000Y-42000000D03*
X43620000Y-42000000D03*
%TD*%
%TO.C,C7*%
X4000000Y-36000000D03*
X9000000Y-36000000D03*
%TD*%
D39*
%TO.C,JP2*%
X46000000Y-55000000D03*
D40*
X46000000Y-57540000D03*
%TD*%
D23*
%TO.C,R8*%
X36000000Y-47500000D03*
X43620000Y-47500000D03*
%TD*%
D25*
%TO.C,ZD3*%
X42000000Y-62000000D03*
D23*
X49620000Y-62000000D03*
%TD*%
D22*
%TO.C,R19*%
X54000000Y-60000000D03*
X66700000Y-60000000D03*
%TD*%
D41*
%TO.C,Q3*%
X46000000Y-44000000D03*
D42*
X48290000Y-44000000D03*
X50580000Y-44000000D03*
%TD*%
D43*
%TO.C,D4*%
X56000000Y-54000000D03*
D24*
X71240000Y-54000000D03*
%TD*%
D31*
%TO.C,SW1*%
X2000000Y-28000000D03*
X8500000Y-28000000D03*
X2000000Y-32500000D03*
X8500000Y-32500000D03*
%TD*%
D24*
%TO.C,H4*%
X96500000Y-84500000D03*
%TD*%
D39*
%TO.C,JP1*%
X38000000Y-6000000D03*
D40*
X38000000Y-8540000D03*
%TD*%
D24*
%TO.C,H1*%
X3500000Y-3500000D03*
%TD*%
D23*
%TO.C,R1*%
X14000000Y-27000000D03*
X21620000Y-27000000D03*
%TD*%
%TO.C,R9*%
X32000000Y-74000000D03*
X39620000Y-74000000D03*
%TD*%
D44*
%TO.C,ZD2*%
X33000000Y-45000000D03*
D23*
X33000000Y-37380000D03*
%TD*%
%TO.C,C8*%
X52000000Y-78000000D03*
X57000000Y-78000000D03*
%TD*%
D28*
%TO.C,D2*%
X24000000Y-47840000D03*
D29*
X24000000Y-58000000D03*
%TD*%
D23*
%TO.C,R12*%
X36000000Y-38000000D03*
X43620000Y-38000000D03*
%TD*%
D41*
%TO.C,Q7*%
X54000000Y-66000000D03*
D42*
X56290000Y-66000000D03*
X58580000Y-66000000D03*
%TD*%
D41*
%TO.C,Q6*%
X37000000Y-70000000D03*
D42*
X39290000Y-70000000D03*
X41580000Y-70000000D03*
%TD*%
D23*
%TO.C,R11*%
X32000000Y-78000000D03*
X39620000Y-78000000D03*
%TD*%
%LPD*%
M02*
